%TF.GenerationSoftware,KiCad,Pcbnew,9.0.0*%
%TF.CreationDate,2025-11-27T12:56:11-07:00*%
%TF.ProjectId,OSS-Radio_2M70CM,4f53532d-5261-4646-996f-5f324d373043,rev?*%
%TF.SameCoordinates,Original*%
%TF.FileFunction,Legend,Top*%
%TF.FilePolarity,Positive*%
%FSLAX46Y46*%
G04 Gerber Fmt 4.6, Leading zero omitted, Abs format (unit mm)*
G04 Created by KiCad (PCBNEW 9.0.0) date 2025-11-27 12:56:11*
%MOMM*%
%LPD*%
G01*
G04 APERTURE LIST*
%ADD10C,0.125000*%
%ADD11C,0.150000*%
%ADD12C,0.120000*%
%ADD13C,0.000000*%
G04 APERTURE END LIST*
D10*
X139725093Y-81272512D02*
X140082236Y-81272512D01*
X139653664Y-81486798D02*
X139903664Y-80736798D01*
X139903664Y-80736798D02*
X140153664Y-81486798D01*
X140403664Y-81486798D02*
X140403664Y-80986798D01*
X140403664Y-81129655D02*
X140439378Y-81058226D01*
X140439378Y-81058226D02*
X140475093Y-81022512D01*
X140475093Y-81022512D02*
X140546521Y-80986798D01*
X140546521Y-80986798D02*
X140617950Y-80986798D01*
X140867950Y-81486798D02*
X140867950Y-80736798D01*
X140939379Y-81201084D02*
X141153664Y-81486798D01*
X141153664Y-80986798D02*
X140867950Y-81272512D01*
X141582236Y-81486798D02*
X141510807Y-81451084D01*
X141510807Y-81451084D02*
X141475093Y-81415369D01*
X141475093Y-81415369D02*
X141439379Y-81343941D01*
X141439379Y-81343941D02*
X141439379Y-81129655D01*
X141439379Y-81129655D02*
X141475093Y-81058226D01*
X141475093Y-81058226D02*
X141510807Y-81022512D01*
X141510807Y-81022512D02*
X141582236Y-80986798D01*
X141582236Y-80986798D02*
X141689379Y-80986798D01*
X141689379Y-80986798D02*
X141760807Y-81022512D01*
X141760807Y-81022512D02*
X141796522Y-81058226D01*
X141796522Y-81058226D02*
X141832236Y-81129655D01*
X141832236Y-81129655D02*
X141832236Y-81343941D01*
X141832236Y-81343941D02*
X141796522Y-81415369D01*
X141796522Y-81415369D02*
X141760807Y-81451084D01*
X141760807Y-81451084D02*
X141689379Y-81486798D01*
X141689379Y-81486798D02*
X141582236Y-81486798D01*
X142117950Y-81451084D02*
X142189378Y-81486798D01*
X142189378Y-81486798D02*
X142332235Y-81486798D01*
X142332235Y-81486798D02*
X142403664Y-81451084D01*
X142403664Y-81451084D02*
X142439378Y-81379655D01*
X142439378Y-81379655D02*
X142439378Y-81343941D01*
X142439378Y-81343941D02*
X142403664Y-81272512D01*
X142403664Y-81272512D02*
X142332235Y-81236798D01*
X142332235Y-81236798D02*
X142225093Y-81236798D01*
X142225093Y-81236798D02*
X142153664Y-81201084D01*
X142153664Y-81201084D02*
X142117950Y-81129655D01*
X142117950Y-81129655D02*
X142117950Y-81093941D01*
X142117950Y-81093941D02*
X142153664Y-81022512D01*
X142153664Y-81022512D02*
X142225093Y-80986798D01*
X142225093Y-80986798D02*
X142332235Y-80986798D01*
X142332235Y-80986798D02*
X142403664Y-81022512D01*
X143332236Y-81093941D02*
X143582236Y-81093941D01*
X143689379Y-81486798D02*
X143332236Y-81486798D01*
X143332236Y-81486798D02*
X143332236Y-80736798D01*
X143332236Y-80736798D02*
X143689379Y-80736798D01*
X144010807Y-80986798D02*
X144010807Y-81486798D01*
X144010807Y-81058226D02*
X144046521Y-81022512D01*
X144046521Y-81022512D02*
X144117950Y-80986798D01*
X144117950Y-80986798D02*
X144225093Y-80986798D01*
X144225093Y-80986798D02*
X144296521Y-81022512D01*
X144296521Y-81022512D02*
X144332236Y-81093941D01*
X144332236Y-81093941D02*
X144332236Y-81486798D01*
X145010807Y-80986798D02*
X145010807Y-81593941D01*
X145010807Y-81593941D02*
X144975092Y-81665369D01*
X144975092Y-81665369D02*
X144939378Y-81701084D01*
X144939378Y-81701084D02*
X144867949Y-81736798D01*
X144867949Y-81736798D02*
X144760807Y-81736798D01*
X144760807Y-81736798D02*
X144689378Y-81701084D01*
X145010807Y-81451084D02*
X144939378Y-81486798D01*
X144939378Y-81486798D02*
X144796521Y-81486798D01*
X144796521Y-81486798D02*
X144725092Y-81451084D01*
X144725092Y-81451084D02*
X144689378Y-81415369D01*
X144689378Y-81415369D02*
X144653664Y-81343941D01*
X144653664Y-81343941D02*
X144653664Y-81129655D01*
X144653664Y-81129655D02*
X144689378Y-81058226D01*
X144689378Y-81058226D02*
X144725092Y-81022512D01*
X144725092Y-81022512D02*
X144796521Y-80986798D01*
X144796521Y-80986798D02*
X144939378Y-80986798D01*
X144939378Y-80986798D02*
X145010807Y-81022512D01*
X145367949Y-81486798D02*
X145367949Y-80986798D01*
X145367949Y-80736798D02*
X145332235Y-80772512D01*
X145332235Y-80772512D02*
X145367949Y-80808226D01*
X145367949Y-80808226D02*
X145403663Y-80772512D01*
X145403663Y-80772512D02*
X145367949Y-80736798D01*
X145367949Y-80736798D02*
X145367949Y-80808226D01*
X145725092Y-80986798D02*
X145725092Y-81486798D01*
X145725092Y-81058226D02*
X145760806Y-81022512D01*
X145760806Y-81022512D02*
X145832235Y-80986798D01*
X145832235Y-80986798D02*
X145939378Y-80986798D01*
X145939378Y-80986798D02*
X146010806Y-81022512D01*
X146010806Y-81022512D02*
X146046521Y-81093941D01*
X146046521Y-81093941D02*
X146046521Y-81486798D01*
X146689377Y-81451084D02*
X146617949Y-81486798D01*
X146617949Y-81486798D02*
X146475092Y-81486798D01*
X146475092Y-81486798D02*
X146403663Y-81451084D01*
X146403663Y-81451084D02*
X146367949Y-81379655D01*
X146367949Y-81379655D02*
X146367949Y-81093941D01*
X146367949Y-81093941D02*
X146403663Y-81022512D01*
X146403663Y-81022512D02*
X146475092Y-80986798D01*
X146475092Y-80986798D02*
X146617949Y-80986798D01*
X146617949Y-80986798D02*
X146689377Y-81022512D01*
X146689377Y-81022512D02*
X146725092Y-81093941D01*
X146725092Y-81093941D02*
X146725092Y-81165369D01*
X146725092Y-81165369D02*
X146367949Y-81236798D01*
X147332234Y-81451084D02*
X147260806Y-81486798D01*
X147260806Y-81486798D02*
X147117949Y-81486798D01*
X147117949Y-81486798D02*
X147046520Y-81451084D01*
X147046520Y-81451084D02*
X147010806Y-81379655D01*
X147010806Y-81379655D02*
X147010806Y-81093941D01*
X147010806Y-81093941D02*
X147046520Y-81022512D01*
X147046520Y-81022512D02*
X147117949Y-80986798D01*
X147117949Y-80986798D02*
X147260806Y-80986798D01*
X147260806Y-80986798D02*
X147332234Y-81022512D01*
X147332234Y-81022512D02*
X147367949Y-81093941D01*
X147367949Y-81093941D02*
X147367949Y-81165369D01*
X147367949Y-81165369D02*
X147010806Y-81236798D01*
X147689377Y-81486798D02*
X147689377Y-80986798D01*
X147689377Y-81129655D02*
X147725091Y-81058226D01*
X147725091Y-81058226D02*
X147760806Y-81022512D01*
X147760806Y-81022512D02*
X147832234Y-80986798D01*
X147832234Y-80986798D02*
X147903663Y-80986798D01*
X148153663Y-81486798D02*
X148153663Y-80986798D01*
X148153663Y-80736798D02*
X148117949Y-80772512D01*
X148117949Y-80772512D02*
X148153663Y-80808226D01*
X148153663Y-80808226D02*
X148189377Y-80772512D01*
X148189377Y-80772512D02*
X148153663Y-80736798D01*
X148153663Y-80736798D02*
X148153663Y-80808226D01*
X148510806Y-80986798D02*
X148510806Y-81486798D01*
X148510806Y-81058226D02*
X148546520Y-81022512D01*
X148546520Y-81022512D02*
X148617949Y-80986798D01*
X148617949Y-80986798D02*
X148725092Y-80986798D01*
X148725092Y-80986798D02*
X148796520Y-81022512D01*
X148796520Y-81022512D02*
X148832235Y-81093941D01*
X148832235Y-81093941D02*
X148832235Y-81486798D01*
X149510806Y-80986798D02*
X149510806Y-81593941D01*
X149510806Y-81593941D02*
X149475091Y-81665369D01*
X149475091Y-81665369D02*
X149439377Y-81701084D01*
X149439377Y-81701084D02*
X149367948Y-81736798D01*
X149367948Y-81736798D02*
X149260806Y-81736798D01*
X149260806Y-81736798D02*
X149189377Y-81701084D01*
X149510806Y-81451084D02*
X149439377Y-81486798D01*
X149439377Y-81486798D02*
X149296520Y-81486798D01*
X149296520Y-81486798D02*
X149225091Y-81451084D01*
X149225091Y-81451084D02*
X149189377Y-81415369D01*
X149189377Y-81415369D02*
X149153663Y-81343941D01*
X149153663Y-81343941D02*
X149153663Y-81129655D01*
X149153663Y-81129655D02*
X149189377Y-81058226D01*
X149189377Y-81058226D02*
X149225091Y-81022512D01*
X149225091Y-81022512D02*
X149296520Y-80986798D01*
X149296520Y-80986798D02*
X149439377Y-80986798D01*
X149439377Y-80986798D02*
X149510806Y-81022512D01*
X139725093Y-82015684D02*
X139760807Y-81979970D01*
X139760807Y-81979970D02*
X139832236Y-81944256D01*
X139832236Y-81944256D02*
X140010807Y-81944256D01*
X140010807Y-81944256D02*
X140082236Y-81979970D01*
X140082236Y-81979970D02*
X140117950Y-82015684D01*
X140117950Y-82015684D02*
X140153664Y-82087113D01*
X140153664Y-82087113D02*
X140153664Y-82158542D01*
X140153664Y-82158542D02*
X140117950Y-82265684D01*
X140117950Y-82265684D02*
X139689378Y-82694256D01*
X139689378Y-82694256D02*
X140153664Y-82694256D01*
X140475093Y-82694256D02*
X140475093Y-81944256D01*
X140475093Y-81944256D02*
X140725093Y-82479970D01*
X140725093Y-82479970D02*
X140975093Y-81944256D01*
X140975093Y-81944256D02*
X140975093Y-82694256D01*
X141260807Y-81944256D02*
X141760807Y-81944256D01*
X141760807Y-81944256D02*
X141439379Y-82694256D01*
X142189379Y-81944256D02*
X142260808Y-81944256D01*
X142260808Y-81944256D02*
X142332236Y-81979970D01*
X142332236Y-81979970D02*
X142367951Y-82015684D01*
X142367951Y-82015684D02*
X142403665Y-82087113D01*
X142403665Y-82087113D02*
X142439379Y-82229970D01*
X142439379Y-82229970D02*
X142439379Y-82408542D01*
X142439379Y-82408542D02*
X142403665Y-82551399D01*
X142403665Y-82551399D02*
X142367951Y-82622827D01*
X142367951Y-82622827D02*
X142332236Y-82658542D01*
X142332236Y-82658542D02*
X142260808Y-82694256D01*
X142260808Y-82694256D02*
X142189379Y-82694256D01*
X142189379Y-82694256D02*
X142117951Y-82658542D01*
X142117951Y-82658542D02*
X142082236Y-82622827D01*
X142082236Y-82622827D02*
X142046522Y-82551399D01*
X142046522Y-82551399D02*
X142010808Y-82408542D01*
X142010808Y-82408542D02*
X142010808Y-82229970D01*
X142010808Y-82229970D02*
X142046522Y-82087113D01*
X142046522Y-82087113D02*
X142082236Y-82015684D01*
X142082236Y-82015684D02*
X142117951Y-81979970D01*
X142117951Y-81979970D02*
X142189379Y-81944256D01*
X143189379Y-82622827D02*
X143153665Y-82658542D01*
X143153665Y-82658542D02*
X143046522Y-82694256D01*
X143046522Y-82694256D02*
X142975094Y-82694256D01*
X142975094Y-82694256D02*
X142867951Y-82658542D01*
X142867951Y-82658542D02*
X142796522Y-82587113D01*
X142796522Y-82587113D02*
X142760808Y-82515684D01*
X142760808Y-82515684D02*
X142725094Y-82372827D01*
X142725094Y-82372827D02*
X142725094Y-82265684D01*
X142725094Y-82265684D02*
X142760808Y-82122827D01*
X142760808Y-82122827D02*
X142796522Y-82051399D01*
X142796522Y-82051399D02*
X142867951Y-81979970D01*
X142867951Y-81979970D02*
X142975094Y-81944256D01*
X142975094Y-81944256D02*
X143046522Y-81944256D01*
X143046522Y-81944256D02*
X143153665Y-81979970D01*
X143153665Y-81979970D02*
X143189379Y-82015684D01*
X143510808Y-82694256D02*
X143510808Y-81944256D01*
X143510808Y-81944256D02*
X143760808Y-82479970D01*
X143760808Y-82479970D02*
X144010808Y-81944256D01*
X144010808Y-81944256D02*
X144010808Y-82694256D01*
X145367951Y-82694256D02*
X145117951Y-82337113D01*
X144939380Y-82694256D02*
X144939380Y-81944256D01*
X144939380Y-81944256D02*
X145225094Y-81944256D01*
X145225094Y-81944256D02*
X145296523Y-81979970D01*
X145296523Y-81979970D02*
X145332237Y-82015684D01*
X145332237Y-82015684D02*
X145367951Y-82087113D01*
X145367951Y-82087113D02*
X145367951Y-82194256D01*
X145367951Y-82194256D02*
X145332237Y-82265684D01*
X145332237Y-82265684D02*
X145296523Y-82301399D01*
X145296523Y-82301399D02*
X145225094Y-82337113D01*
X145225094Y-82337113D02*
X144939380Y-82337113D01*
X145939380Y-82301399D02*
X145689380Y-82301399D01*
X145689380Y-82694256D02*
X145689380Y-81944256D01*
X145689380Y-81944256D02*
X146046523Y-81944256D01*
X146903666Y-82694256D02*
X146903666Y-81944256D01*
X146903666Y-81944256D02*
X147153666Y-82479970D01*
X147153666Y-82479970D02*
X147403666Y-81944256D01*
X147403666Y-81944256D02*
X147403666Y-82694256D01*
X147867952Y-82694256D02*
X147796523Y-82658542D01*
X147796523Y-82658542D02*
X147760809Y-82622827D01*
X147760809Y-82622827D02*
X147725095Y-82551399D01*
X147725095Y-82551399D02*
X147725095Y-82337113D01*
X147725095Y-82337113D02*
X147760809Y-82265684D01*
X147760809Y-82265684D02*
X147796523Y-82229970D01*
X147796523Y-82229970D02*
X147867952Y-82194256D01*
X147867952Y-82194256D02*
X147975095Y-82194256D01*
X147975095Y-82194256D02*
X148046523Y-82229970D01*
X148046523Y-82229970D02*
X148082238Y-82265684D01*
X148082238Y-82265684D02*
X148117952Y-82337113D01*
X148117952Y-82337113D02*
X148117952Y-82551399D01*
X148117952Y-82551399D02*
X148082238Y-82622827D01*
X148082238Y-82622827D02*
X148046523Y-82658542D01*
X148046523Y-82658542D02*
X147975095Y-82694256D01*
X147975095Y-82694256D02*
X147867952Y-82694256D01*
X148760809Y-82694256D02*
X148760809Y-81944256D01*
X148760809Y-82658542D02*
X148689380Y-82694256D01*
X148689380Y-82694256D02*
X148546523Y-82694256D01*
X148546523Y-82694256D02*
X148475094Y-82658542D01*
X148475094Y-82658542D02*
X148439380Y-82622827D01*
X148439380Y-82622827D02*
X148403666Y-82551399D01*
X148403666Y-82551399D02*
X148403666Y-82337113D01*
X148403666Y-82337113D02*
X148439380Y-82265684D01*
X148439380Y-82265684D02*
X148475094Y-82229970D01*
X148475094Y-82229970D02*
X148546523Y-82194256D01*
X148546523Y-82194256D02*
X148689380Y-82194256D01*
X148689380Y-82194256D02*
X148760809Y-82229970D01*
X149439380Y-82194256D02*
X149439380Y-82694256D01*
X149117951Y-82194256D02*
X149117951Y-82587113D01*
X149117951Y-82587113D02*
X149153665Y-82658542D01*
X149153665Y-82658542D02*
X149225094Y-82694256D01*
X149225094Y-82694256D02*
X149332237Y-82694256D01*
X149332237Y-82694256D02*
X149403665Y-82658542D01*
X149403665Y-82658542D02*
X149439380Y-82622827D01*
X149903665Y-82694256D02*
X149832236Y-82658542D01*
X149832236Y-82658542D02*
X149796522Y-82587113D01*
X149796522Y-82587113D02*
X149796522Y-81944256D01*
X150475093Y-82658542D02*
X150403665Y-82694256D01*
X150403665Y-82694256D02*
X150260808Y-82694256D01*
X150260808Y-82694256D02*
X150189379Y-82658542D01*
X150189379Y-82658542D02*
X150153665Y-82587113D01*
X150153665Y-82587113D02*
X150153665Y-82301399D01*
X150153665Y-82301399D02*
X150189379Y-82229970D01*
X150189379Y-82229970D02*
X150260808Y-82194256D01*
X150260808Y-82194256D02*
X150403665Y-82194256D01*
X150403665Y-82194256D02*
X150475093Y-82229970D01*
X150475093Y-82229970D02*
X150510808Y-82301399D01*
X150510808Y-82301399D02*
X150510808Y-82372827D01*
X150510808Y-82372827D02*
X150153665Y-82444256D01*
X140189378Y-83901714D02*
X139939378Y-83544571D01*
X139760807Y-83901714D02*
X139760807Y-83151714D01*
X139760807Y-83151714D02*
X140046521Y-83151714D01*
X140046521Y-83151714D02*
X140117950Y-83187428D01*
X140117950Y-83187428D02*
X140153664Y-83223142D01*
X140153664Y-83223142D02*
X140189378Y-83294571D01*
X140189378Y-83294571D02*
X140189378Y-83401714D01*
X140189378Y-83401714D02*
X140153664Y-83473142D01*
X140153664Y-83473142D02*
X140117950Y-83508857D01*
X140117950Y-83508857D02*
X140046521Y-83544571D01*
X140046521Y-83544571D02*
X139760807Y-83544571D01*
X140796521Y-83866000D02*
X140725093Y-83901714D01*
X140725093Y-83901714D02*
X140582236Y-83901714D01*
X140582236Y-83901714D02*
X140510807Y-83866000D01*
X140510807Y-83866000D02*
X140475093Y-83794571D01*
X140475093Y-83794571D02*
X140475093Y-83508857D01*
X140475093Y-83508857D02*
X140510807Y-83437428D01*
X140510807Y-83437428D02*
X140582236Y-83401714D01*
X140582236Y-83401714D02*
X140725093Y-83401714D01*
X140725093Y-83401714D02*
X140796521Y-83437428D01*
X140796521Y-83437428D02*
X140832236Y-83508857D01*
X140832236Y-83508857D02*
X140832236Y-83580285D01*
X140832236Y-83580285D02*
X140475093Y-83651714D01*
X141082235Y-83401714D02*
X141260807Y-83901714D01*
X141260807Y-83901714D02*
X141439378Y-83401714D01*
X142439379Y-83151714D02*
X142510808Y-83151714D01*
X142510808Y-83151714D02*
X142582236Y-83187428D01*
X142582236Y-83187428D02*
X142617951Y-83223142D01*
X142617951Y-83223142D02*
X142653665Y-83294571D01*
X142653665Y-83294571D02*
X142689379Y-83437428D01*
X142689379Y-83437428D02*
X142689379Y-83616000D01*
X142689379Y-83616000D02*
X142653665Y-83758857D01*
X142653665Y-83758857D02*
X142617951Y-83830285D01*
X142617951Y-83830285D02*
X142582236Y-83866000D01*
X142582236Y-83866000D02*
X142510808Y-83901714D01*
X142510808Y-83901714D02*
X142439379Y-83901714D01*
X142439379Y-83901714D02*
X142367951Y-83866000D01*
X142367951Y-83866000D02*
X142332236Y-83830285D01*
X142332236Y-83830285D02*
X142296522Y-83758857D01*
X142296522Y-83758857D02*
X142260808Y-83616000D01*
X142260808Y-83616000D02*
X142260808Y-83437428D01*
X142260808Y-83437428D02*
X142296522Y-83294571D01*
X142296522Y-83294571D02*
X142332236Y-83223142D01*
X142332236Y-83223142D02*
X142367951Y-83187428D01*
X142367951Y-83187428D02*
X142439379Y-83151714D01*
X143010808Y-83830285D02*
X143046522Y-83866000D01*
X143046522Y-83866000D02*
X143010808Y-83901714D01*
X143010808Y-83901714D02*
X142975094Y-83866000D01*
X142975094Y-83866000D02*
X143010808Y-83830285D01*
X143010808Y-83830285D02*
X143010808Y-83901714D01*
X143760808Y-83901714D02*
X143332237Y-83901714D01*
X143546522Y-83901714D02*
X143546522Y-83151714D01*
X143546522Y-83151714D02*
X143475094Y-83258857D01*
X143475094Y-83258857D02*
X143403665Y-83330285D01*
X143403665Y-83330285D02*
X143332237Y-83366000D01*
X145225095Y-83901714D02*
X145225095Y-83151714D01*
X145225095Y-83151714D02*
X145403666Y-83151714D01*
X145403666Y-83151714D02*
X145510809Y-83187428D01*
X145510809Y-83187428D02*
X145582238Y-83258857D01*
X145582238Y-83258857D02*
X145617952Y-83330285D01*
X145617952Y-83330285D02*
X145653666Y-83473142D01*
X145653666Y-83473142D02*
X145653666Y-83580285D01*
X145653666Y-83580285D02*
X145617952Y-83723142D01*
X145617952Y-83723142D02*
X145582238Y-83794571D01*
X145582238Y-83794571D02*
X145510809Y-83866000D01*
X145510809Y-83866000D02*
X145403666Y-83901714D01*
X145403666Y-83901714D02*
X145225095Y-83901714D01*
X146260809Y-83866000D02*
X146189381Y-83901714D01*
X146189381Y-83901714D02*
X146046524Y-83901714D01*
X146046524Y-83901714D02*
X145975095Y-83866000D01*
X145975095Y-83866000D02*
X145939381Y-83794571D01*
X145939381Y-83794571D02*
X145939381Y-83508857D01*
X145939381Y-83508857D02*
X145975095Y-83437428D01*
X145975095Y-83437428D02*
X146046524Y-83401714D01*
X146046524Y-83401714D02*
X146189381Y-83401714D01*
X146189381Y-83401714D02*
X146260809Y-83437428D01*
X146260809Y-83437428D02*
X146296524Y-83508857D01*
X146296524Y-83508857D02*
X146296524Y-83580285D01*
X146296524Y-83580285D02*
X145939381Y-83651714D01*
X146582238Y-83866000D02*
X146653666Y-83901714D01*
X146653666Y-83901714D02*
X146796523Y-83901714D01*
X146796523Y-83901714D02*
X146867952Y-83866000D01*
X146867952Y-83866000D02*
X146903666Y-83794571D01*
X146903666Y-83794571D02*
X146903666Y-83758857D01*
X146903666Y-83758857D02*
X146867952Y-83687428D01*
X146867952Y-83687428D02*
X146796523Y-83651714D01*
X146796523Y-83651714D02*
X146689381Y-83651714D01*
X146689381Y-83651714D02*
X146617952Y-83616000D01*
X146617952Y-83616000D02*
X146582238Y-83544571D01*
X146582238Y-83544571D02*
X146582238Y-83508857D01*
X146582238Y-83508857D02*
X146617952Y-83437428D01*
X146617952Y-83437428D02*
X146689381Y-83401714D01*
X146689381Y-83401714D02*
X146796523Y-83401714D01*
X146796523Y-83401714D02*
X146867952Y-83437428D01*
X147225095Y-83901714D02*
X147225095Y-83401714D01*
X147225095Y-83151714D02*
X147189381Y-83187428D01*
X147189381Y-83187428D02*
X147225095Y-83223142D01*
X147225095Y-83223142D02*
X147260809Y-83187428D01*
X147260809Y-83187428D02*
X147225095Y-83151714D01*
X147225095Y-83151714D02*
X147225095Y-83223142D01*
X147903667Y-83401714D02*
X147903667Y-84008857D01*
X147903667Y-84008857D02*
X147867952Y-84080285D01*
X147867952Y-84080285D02*
X147832238Y-84116000D01*
X147832238Y-84116000D02*
X147760809Y-84151714D01*
X147760809Y-84151714D02*
X147653667Y-84151714D01*
X147653667Y-84151714D02*
X147582238Y-84116000D01*
X147903667Y-83866000D02*
X147832238Y-83901714D01*
X147832238Y-83901714D02*
X147689381Y-83901714D01*
X147689381Y-83901714D02*
X147617952Y-83866000D01*
X147617952Y-83866000D02*
X147582238Y-83830285D01*
X147582238Y-83830285D02*
X147546524Y-83758857D01*
X147546524Y-83758857D02*
X147546524Y-83544571D01*
X147546524Y-83544571D02*
X147582238Y-83473142D01*
X147582238Y-83473142D02*
X147617952Y-83437428D01*
X147617952Y-83437428D02*
X147689381Y-83401714D01*
X147689381Y-83401714D02*
X147832238Y-83401714D01*
X147832238Y-83401714D02*
X147903667Y-83437428D01*
X148260809Y-83401714D02*
X148260809Y-83901714D01*
X148260809Y-83473142D02*
X148296523Y-83437428D01*
X148296523Y-83437428D02*
X148367952Y-83401714D01*
X148367952Y-83401714D02*
X148475095Y-83401714D01*
X148475095Y-83401714D02*
X148546523Y-83437428D01*
X148546523Y-83437428D02*
X148582238Y-83508857D01*
X148582238Y-83508857D02*
X148582238Y-83901714D01*
X149225094Y-83866000D02*
X149153666Y-83901714D01*
X149153666Y-83901714D02*
X149010809Y-83901714D01*
X149010809Y-83901714D02*
X148939380Y-83866000D01*
X148939380Y-83866000D02*
X148903666Y-83794571D01*
X148903666Y-83794571D02*
X148903666Y-83508857D01*
X148903666Y-83508857D02*
X148939380Y-83437428D01*
X148939380Y-83437428D02*
X149010809Y-83401714D01*
X149010809Y-83401714D02*
X149153666Y-83401714D01*
X149153666Y-83401714D02*
X149225094Y-83437428D01*
X149225094Y-83437428D02*
X149260809Y-83508857D01*
X149260809Y-83508857D02*
X149260809Y-83580285D01*
X149260809Y-83580285D02*
X148903666Y-83651714D01*
X149903666Y-83901714D02*
X149903666Y-83151714D01*
X149903666Y-83866000D02*
X149832237Y-83901714D01*
X149832237Y-83901714D02*
X149689380Y-83901714D01*
X149689380Y-83901714D02*
X149617951Y-83866000D01*
X149617951Y-83866000D02*
X149582237Y-83830285D01*
X149582237Y-83830285D02*
X149546523Y-83758857D01*
X149546523Y-83758857D02*
X149546523Y-83544571D01*
X149546523Y-83544571D02*
X149582237Y-83473142D01*
X149582237Y-83473142D02*
X149617951Y-83437428D01*
X149617951Y-83437428D02*
X149689380Y-83401714D01*
X149689380Y-83401714D02*
X149832237Y-83401714D01*
X149832237Y-83401714D02*
X149903666Y-83437428D01*
X150832237Y-83901714D02*
X150832237Y-83401714D01*
X150832237Y-83151714D02*
X150796523Y-83187428D01*
X150796523Y-83187428D02*
X150832237Y-83223142D01*
X150832237Y-83223142D02*
X150867951Y-83187428D01*
X150867951Y-83187428D02*
X150832237Y-83151714D01*
X150832237Y-83151714D02*
X150832237Y-83223142D01*
X151189380Y-83401714D02*
X151189380Y-83901714D01*
X151189380Y-83473142D02*
X151225094Y-83437428D01*
X151225094Y-83437428D02*
X151296523Y-83401714D01*
X151296523Y-83401714D02*
X151403666Y-83401714D01*
X151403666Y-83401714D02*
X151475094Y-83437428D01*
X151475094Y-83437428D02*
X151510809Y-83508857D01*
X151510809Y-83508857D02*
X151510809Y-83901714D01*
X152439380Y-83151714D02*
X152439380Y-83758857D01*
X152439380Y-83758857D02*
X152475094Y-83830285D01*
X152475094Y-83830285D02*
X152510809Y-83866000D01*
X152510809Y-83866000D02*
X152582237Y-83901714D01*
X152582237Y-83901714D02*
X152725094Y-83901714D01*
X152725094Y-83901714D02*
X152796523Y-83866000D01*
X152796523Y-83866000D02*
X152832237Y-83830285D01*
X152832237Y-83830285D02*
X152867951Y-83758857D01*
X152867951Y-83758857D02*
X152867951Y-83151714D01*
X153189380Y-83866000D02*
X153296523Y-83901714D01*
X153296523Y-83901714D02*
X153475094Y-83901714D01*
X153475094Y-83901714D02*
X153546523Y-83866000D01*
X153546523Y-83866000D02*
X153582237Y-83830285D01*
X153582237Y-83830285D02*
X153617951Y-83758857D01*
X153617951Y-83758857D02*
X153617951Y-83687428D01*
X153617951Y-83687428D02*
X153582237Y-83616000D01*
X153582237Y-83616000D02*
X153546523Y-83580285D01*
X153546523Y-83580285D02*
X153475094Y-83544571D01*
X153475094Y-83544571D02*
X153332237Y-83508857D01*
X153332237Y-83508857D02*
X153260808Y-83473142D01*
X153260808Y-83473142D02*
X153225094Y-83437428D01*
X153225094Y-83437428D02*
X153189380Y-83366000D01*
X153189380Y-83366000D02*
X153189380Y-83294571D01*
X153189380Y-83294571D02*
X153225094Y-83223142D01*
X153225094Y-83223142D02*
X153260808Y-83187428D01*
X153260808Y-83187428D02*
X153332237Y-83151714D01*
X153332237Y-83151714D02*
X153510808Y-83151714D01*
X153510808Y-83151714D02*
X153617951Y-83187428D01*
X153903666Y-83687428D02*
X154260809Y-83687428D01*
X153832237Y-83901714D02*
X154082237Y-83151714D01*
X154082237Y-83151714D02*
X154332237Y-83901714D01*
D11*
X156357142Y-101359580D02*
X156309523Y-101407200D01*
X156309523Y-101407200D02*
X156166666Y-101454819D01*
X156166666Y-101454819D02*
X156071428Y-101454819D01*
X156071428Y-101454819D02*
X155928571Y-101407200D01*
X155928571Y-101407200D02*
X155833333Y-101311961D01*
X155833333Y-101311961D02*
X155785714Y-101216723D01*
X155785714Y-101216723D02*
X155738095Y-101026247D01*
X155738095Y-101026247D02*
X155738095Y-100883390D01*
X155738095Y-100883390D02*
X155785714Y-100692914D01*
X155785714Y-100692914D02*
X155833333Y-100597676D01*
X155833333Y-100597676D02*
X155928571Y-100502438D01*
X155928571Y-100502438D02*
X156071428Y-100454819D01*
X156071428Y-100454819D02*
X156166666Y-100454819D01*
X156166666Y-100454819D02*
X156309523Y-100502438D01*
X156309523Y-100502438D02*
X156357142Y-100550057D01*
X157261904Y-100454819D02*
X156785714Y-100454819D01*
X156785714Y-100454819D02*
X156738095Y-100931009D01*
X156738095Y-100931009D02*
X156785714Y-100883390D01*
X156785714Y-100883390D02*
X156880952Y-100835771D01*
X156880952Y-100835771D02*
X157119047Y-100835771D01*
X157119047Y-100835771D02*
X157214285Y-100883390D01*
X157214285Y-100883390D02*
X157261904Y-100931009D01*
X157261904Y-100931009D02*
X157309523Y-101026247D01*
X157309523Y-101026247D02*
X157309523Y-101264342D01*
X157309523Y-101264342D02*
X157261904Y-101359580D01*
X157261904Y-101359580D02*
X157214285Y-101407200D01*
X157214285Y-101407200D02*
X157119047Y-101454819D01*
X157119047Y-101454819D02*
X156880952Y-101454819D01*
X156880952Y-101454819D02*
X156785714Y-101407200D01*
X156785714Y-101407200D02*
X156738095Y-101359580D01*
X158166666Y-100788152D02*
X158166666Y-101454819D01*
X157928571Y-100407200D02*
X157690476Y-101121485D01*
X157690476Y-101121485D02*
X158309523Y-101121485D01*
X144603333Y-99454819D02*
X144127143Y-99454819D01*
X144127143Y-99454819D02*
X144127143Y-98454819D01*
X144841429Y-98454819D02*
X145460476Y-98454819D01*
X145460476Y-98454819D02*
X145127143Y-98835771D01*
X145127143Y-98835771D02*
X145270000Y-98835771D01*
X145270000Y-98835771D02*
X145365238Y-98883390D01*
X145365238Y-98883390D02*
X145412857Y-98931009D01*
X145412857Y-98931009D02*
X145460476Y-99026247D01*
X145460476Y-99026247D02*
X145460476Y-99264342D01*
X145460476Y-99264342D02*
X145412857Y-99359580D01*
X145412857Y-99359580D02*
X145365238Y-99407200D01*
X145365238Y-99407200D02*
X145270000Y-99454819D01*
X145270000Y-99454819D02*
X144984286Y-99454819D01*
X144984286Y-99454819D02*
X144889048Y-99407200D01*
X144889048Y-99407200D02*
X144841429Y-99359580D01*
X149954819Y-114238094D02*
X149954819Y-113666666D01*
X150954819Y-113952380D02*
X149954819Y-113952380D01*
X150954819Y-113333332D02*
X149954819Y-113333332D01*
X149954819Y-113333332D02*
X149954819Y-112952380D01*
X149954819Y-112952380D02*
X150002438Y-112857142D01*
X150002438Y-112857142D02*
X150050057Y-112809523D01*
X150050057Y-112809523D02*
X150145295Y-112761904D01*
X150145295Y-112761904D02*
X150288152Y-112761904D01*
X150288152Y-112761904D02*
X150383390Y-112809523D01*
X150383390Y-112809523D02*
X150431009Y-112857142D01*
X150431009Y-112857142D02*
X150478628Y-112952380D01*
X150478628Y-112952380D02*
X150478628Y-113333332D01*
X150954819Y-111809523D02*
X150954819Y-112380951D01*
X150954819Y-112095237D02*
X149954819Y-112095237D01*
X149954819Y-112095237D02*
X150097676Y-112190475D01*
X150097676Y-112190475D02*
X150192914Y-112285713D01*
X150192914Y-112285713D02*
X150240533Y-112380951D01*
X149954819Y-110952380D02*
X149954819Y-111142856D01*
X149954819Y-111142856D02*
X150002438Y-111238094D01*
X150002438Y-111238094D02*
X150050057Y-111285713D01*
X150050057Y-111285713D02*
X150192914Y-111380951D01*
X150192914Y-111380951D02*
X150383390Y-111428570D01*
X150383390Y-111428570D02*
X150764342Y-111428570D01*
X150764342Y-111428570D02*
X150859580Y-111380951D01*
X150859580Y-111380951D02*
X150907200Y-111333332D01*
X150907200Y-111333332D02*
X150954819Y-111238094D01*
X150954819Y-111238094D02*
X150954819Y-111047618D01*
X150954819Y-111047618D02*
X150907200Y-110952380D01*
X150907200Y-110952380D02*
X150859580Y-110904761D01*
X150859580Y-110904761D02*
X150764342Y-110857142D01*
X150764342Y-110857142D02*
X150526247Y-110857142D01*
X150526247Y-110857142D02*
X150431009Y-110904761D01*
X150431009Y-110904761D02*
X150383390Y-110952380D01*
X150383390Y-110952380D02*
X150335771Y-111047618D01*
X150335771Y-111047618D02*
X150335771Y-111238094D01*
X150335771Y-111238094D02*
X150383390Y-111333332D01*
X150383390Y-111333332D02*
X150431009Y-111380951D01*
X150431009Y-111380951D02*
X150526247Y-111428570D01*
X161617142Y-94944580D02*
X161569523Y-94992200D01*
X161569523Y-94992200D02*
X161426666Y-95039819D01*
X161426666Y-95039819D02*
X161331428Y-95039819D01*
X161331428Y-95039819D02*
X161188571Y-94992200D01*
X161188571Y-94992200D02*
X161093333Y-94896961D01*
X161093333Y-94896961D02*
X161045714Y-94801723D01*
X161045714Y-94801723D02*
X160998095Y-94611247D01*
X160998095Y-94611247D02*
X160998095Y-94468390D01*
X160998095Y-94468390D02*
X161045714Y-94277914D01*
X161045714Y-94277914D02*
X161093333Y-94182676D01*
X161093333Y-94182676D02*
X161188571Y-94087438D01*
X161188571Y-94087438D02*
X161331428Y-94039819D01*
X161331428Y-94039819D02*
X161426666Y-94039819D01*
X161426666Y-94039819D02*
X161569523Y-94087438D01*
X161569523Y-94087438D02*
X161617142Y-94135057D01*
X162474285Y-94373152D02*
X162474285Y-95039819D01*
X162236190Y-93992200D02*
X161998095Y-94706485D01*
X161998095Y-94706485D02*
X162617142Y-94706485D01*
X162902857Y-94039819D02*
X163569523Y-94039819D01*
X163569523Y-94039819D02*
X163140952Y-95039819D01*
X157457142Y-89959580D02*
X157409523Y-90007200D01*
X157409523Y-90007200D02*
X157266666Y-90054819D01*
X157266666Y-90054819D02*
X157171428Y-90054819D01*
X157171428Y-90054819D02*
X157028571Y-90007200D01*
X157028571Y-90007200D02*
X156933333Y-89911961D01*
X156933333Y-89911961D02*
X156885714Y-89816723D01*
X156885714Y-89816723D02*
X156838095Y-89626247D01*
X156838095Y-89626247D02*
X156838095Y-89483390D01*
X156838095Y-89483390D02*
X156885714Y-89292914D01*
X156885714Y-89292914D02*
X156933333Y-89197676D01*
X156933333Y-89197676D02*
X157028571Y-89102438D01*
X157028571Y-89102438D02*
X157171428Y-89054819D01*
X157171428Y-89054819D02*
X157266666Y-89054819D01*
X157266666Y-89054819D02*
X157409523Y-89102438D01*
X157409523Y-89102438D02*
X157457142Y-89150057D01*
X158314285Y-89388152D02*
X158314285Y-90054819D01*
X158076190Y-89007200D02*
X157838095Y-89721485D01*
X157838095Y-89721485D02*
X158457142Y-89721485D01*
X159314285Y-89054819D02*
X158838095Y-89054819D01*
X158838095Y-89054819D02*
X158790476Y-89531009D01*
X158790476Y-89531009D02*
X158838095Y-89483390D01*
X158838095Y-89483390D02*
X158933333Y-89435771D01*
X158933333Y-89435771D02*
X159171428Y-89435771D01*
X159171428Y-89435771D02*
X159266666Y-89483390D01*
X159266666Y-89483390D02*
X159314285Y-89531009D01*
X159314285Y-89531009D02*
X159361904Y-89626247D01*
X159361904Y-89626247D02*
X159361904Y-89864342D01*
X159361904Y-89864342D02*
X159314285Y-89959580D01*
X159314285Y-89959580D02*
X159266666Y-90007200D01*
X159266666Y-90007200D02*
X159171428Y-90054819D01*
X159171428Y-90054819D02*
X158933333Y-90054819D01*
X158933333Y-90054819D02*
X158838095Y-90007200D01*
X158838095Y-90007200D02*
X158790476Y-89959580D01*
X146238095Y-104954819D02*
X146809523Y-104954819D01*
X146523809Y-105954819D02*
X146523809Y-104954819D01*
X147142857Y-105954819D02*
X147142857Y-104954819D01*
X147142857Y-104954819D02*
X147523809Y-104954819D01*
X147523809Y-104954819D02*
X147619047Y-105002438D01*
X147619047Y-105002438D02*
X147666666Y-105050057D01*
X147666666Y-105050057D02*
X147714285Y-105145295D01*
X147714285Y-105145295D02*
X147714285Y-105288152D01*
X147714285Y-105288152D02*
X147666666Y-105383390D01*
X147666666Y-105383390D02*
X147619047Y-105431009D01*
X147619047Y-105431009D02*
X147523809Y-105478628D01*
X147523809Y-105478628D02*
X147142857Y-105478628D01*
X148047619Y-104954819D02*
X148714285Y-104954819D01*
X148714285Y-104954819D02*
X148285714Y-105954819D01*
X161597142Y-96194580D02*
X161549523Y-96242200D01*
X161549523Y-96242200D02*
X161406666Y-96289819D01*
X161406666Y-96289819D02*
X161311428Y-96289819D01*
X161311428Y-96289819D02*
X161168571Y-96242200D01*
X161168571Y-96242200D02*
X161073333Y-96146961D01*
X161073333Y-96146961D02*
X161025714Y-96051723D01*
X161025714Y-96051723D02*
X160978095Y-95861247D01*
X160978095Y-95861247D02*
X160978095Y-95718390D01*
X160978095Y-95718390D02*
X161025714Y-95527914D01*
X161025714Y-95527914D02*
X161073333Y-95432676D01*
X161073333Y-95432676D02*
X161168571Y-95337438D01*
X161168571Y-95337438D02*
X161311428Y-95289819D01*
X161311428Y-95289819D02*
X161406666Y-95289819D01*
X161406666Y-95289819D02*
X161549523Y-95337438D01*
X161549523Y-95337438D02*
X161597142Y-95385057D01*
X162454285Y-95623152D02*
X162454285Y-96289819D01*
X162216190Y-95242200D02*
X161978095Y-95956485D01*
X161978095Y-95956485D02*
X162597142Y-95956485D01*
X163025714Y-96289819D02*
X163216190Y-96289819D01*
X163216190Y-96289819D02*
X163311428Y-96242200D01*
X163311428Y-96242200D02*
X163359047Y-96194580D01*
X163359047Y-96194580D02*
X163454285Y-96051723D01*
X163454285Y-96051723D02*
X163501904Y-95861247D01*
X163501904Y-95861247D02*
X163501904Y-95480295D01*
X163501904Y-95480295D02*
X163454285Y-95385057D01*
X163454285Y-95385057D02*
X163406666Y-95337438D01*
X163406666Y-95337438D02*
X163311428Y-95289819D01*
X163311428Y-95289819D02*
X163120952Y-95289819D01*
X163120952Y-95289819D02*
X163025714Y-95337438D01*
X163025714Y-95337438D02*
X162978095Y-95385057D01*
X162978095Y-95385057D02*
X162930476Y-95480295D01*
X162930476Y-95480295D02*
X162930476Y-95718390D01*
X162930476Y-95718390D02*
X162978095Y-95813628D01*
X162978095Y-95813628D02*
X163025714Y-95861247D01*
X163025714Y-95861247D02*
X163120952Y-95908866D01*
X163120952Y-95908866D02*
X163311428Y-95908866D01*
X163311428Y-95908866D02*
X163406666Y-95861247D01*
X163406666Y-95861247D02*
X163454285Y-95813628D01*
X163454285Y-95813628D02*
X163501904Y-95718390D01*
X144894580Y-97392857D02*
X144942200Y-97440476D01*
X144942200Y-97440476D02*
X144989819Y-97583333D01*
X144989819Y-97583333D02*
X144989819Y-97678571D01*
X144989819Y-97678571D02*
X144942200Y-97821428D01*
X144942200Y-97821428D02*
X144846961Y-97916666D01*
X144846961Y-97916666D02*
X144751723Y-97964285D01*
X144751723Y-97964285D02*
X144561247Y-98011904D01*
X144561247Y-98011904D02*
X144418390Y-98011904D01*
X144418390Y-98011904D02*
X144227914Y-97964285D01*
X144227914Y-97964285D02*
X144132676Y-97916666D01*
X144132676Y-97916666D02*
X144037438Y-97821428D01*
X144037438Y-97821428D02*
X143989819Y-97678571D01*
X143989819Y-97678571D02*
X143989819Y-97583333D01*
X143989819Y-97583333D02*
X144037438Y-97440476D01*
X144037438Y-97440476D02*
X144085057Y-97392857D01*
X144323152Y-96535714D02*
X144989819Y-96535714D01*
X143942200Y-96773809D02*
X144656485Y-97011904D01*
X144656485Y-97011904D02*
X144656485Y-96392857D01*
X144989819Y-95488095D02*
X144989819Y-96059523D01*
X144989819Y-95773809D02*
X143989819Y-95773809D01*
X143989819Y-95773809D02*
X144132676Y-95869047D01*
X144132676Y-95869047D02*
X144227914Y-95964285D01*
X144227914Y-95964285D02*
X144275533Y-96059523D01*
X147454819Y-94652857D02*
X146978628Y-94986190D01*
X147454819Y-95224285D02*
X146454819Y-95224285D01*
X146454819Y-95224285D02*
X146454819Y-94843333D01*
X146454819Y-94843333D02*
X146502438Y-94748095D01*
X146502438Y-94748095D02*
X146550057Y-94700476D01*
X146550057Y-94700476D02*
X146645295Y-94652857D01*
X146645295Y-94652857D02*
X146788152Y-94652857D01*
X146788152Y-94652857D02*
X146883390Y-94700476D01*
X146883390Y-94700476D02*
X146931009Y-94748095D01*
X146931009Y-94748095D02*
X146978628Y-94843333D01*
X146978628Y-94843333D02*
X146978628Y-95224285D01*
X147454819Y-93700476D02*
X147454819Y-94271904D01*
X147454819Y-93986190D02*
X146454819Y-93986190D01*
X146454819Y-93986190D02*
X146597676Y-94081428D01*
X146597676Y-94081428D02*
X146692914Y-94176666D01*
X146692914Y-94176666D02*
X146740533Y-94271904D01*
X146550057Y-93319523D02*
X146502438Y-93271904D01*
X146502438Y-93271904D02*
X146454819Y-93176666D01*
X146454819Y-93176666D02*
X146454819Y-92938571D01*
X146454819Y-92938571D02*
X146502438Y-92843333D01*
X146502438Y-92843333D02*
X146550057Y-92795714D01*
X146550057Y-92795714D02*
X146645295Y-92748095D01*
X146645295Y-92748095D02*
X146740533Y-92748095D01*
X146740533Y-92748095D02*
X146883390Y-92795714D01*
X146883390Y-92795714D02*
X147454819Y-93367142D01*
X147454819Y-93367142D02*
X147454819Y-92748095D01*
X151734580Y-94267857D02*
X151782200Y-94315476D01*
X151782200Y-94315476D02*
X151829819Y-94458333D01*
X151829819Y-94458333D02*
X151829819Y-94553571D01*
X151829819Y-94553571D02*
X151782200Y-94696428D01*
X151782200Y-94696428D02*
X151686961Y-94791666D01*
X151686961Y-94791666D02*
X151591723Y-94839285D01*
X151591723Y-94839285D02*
X151401247Y-94886904D01*
X151401247Y-94886904D02*
X151258390Y-94886904D01*
X151258390Y-94886904D02*
X151067914Y-94839285D01*
X151067914Y-94839285D02*
X150972676Y-94791666D01*
X150972676Y-94791666D02*
X150877438Y-94696428D01*
X150877438Y-94696428D02*
X150829819Y-94553571D01*
X150829819Y-94553571D02*
X150829819Y-94458333D01*
X150829819Y-94458333D02*
X150877438Y-94315476D01*
X150877438Y-94315476D02*
X150925057Y-94267857D01*
X151163152Y-93410714D02*
X151829819Y-93410714D01*
X150782200Y-93648809D02*
X151496485Y-93886904D01*
X151496485Y-93886904D02*
X151496485Y-93267857D01*
X151163152Y-92458333D02*
X151829819Y-92458333D01*
X150782200Y-92696428D02*
X151496485Y-92934523D01*
X151496485Y-92934523D02*
X151496485Y-92315476D01*
X153954819Y-100136904D02*
X153954819Y-99565476D01*
X154954819Y-99851190D02*
X153954819Y-99851190D01*
X154954819Y-99232142D02*
X153954819Y-99232142D01*
X153954819Y-99232142D02*
X153954819Y-98851190D01*
X153954819Y-98851190D02*
X154002438Y-98755952D01*
X154002438Y-98755952D02*
X154050057Y-98708333D01*
X154050057Y-98708333D02*
X154145295Y-98660714D01*
X154145295Y-98660714D02*
X154288152Y-98660714D01*
X154288152Y-98660714D02*
X154383390Y-98708333D01*
X154383390Y-98708333D02*
X154431009Y-98755952D01*
X154431009Y-98755952D02*
X154478628Y-98851190D01*
X154478628Y-98851190D02*
X154478628Y-99232142D01*
X154383390Y-98089285D02*
X154335771Y-98184523D01*
X154335771Y-98184523D02*
X154288152Y-98232142D01*
X154288152Y-98232142D02*
X154192914Y-98279761D01*
X154192914Y-98279761D02*
X154145295Y-98279761D01*
X154145295Y-98279761D02*
X154050057Y-98232142D01*
X154050057Y-98232142D02*
X154002438Y-98184523D01*
X154002438Y-98184523D02*
X153954819Y-98089285D01*
X153954819Y-98089285D02*
X153954819Y-97898809D01*
X153954819Y-97898809D02*
X154002438Y-97803571D01*
X154002438Y-97803571D02*
X154050057Y-97755952D01*
X154050057Y-97755952D02*
X154145295Y-97708333D01*
X154145295Y-97708333D02*
X154192914Y-97708333D01*
X154192914Y-97708333D02*
X154288152Y-97755952D01*
X154288152Y-97755952D02*
X154335771Y-97803571D01*
X154335771Y-97803571D02*
X154383390Y-97898809D01*
X154383390Y-97898809D02*
X154383390Y-98089285D01*
X154383390Y-98089285D02*
X154431009Y-98184523D01*
X154431009Y-98184523D02*
X154478628Y-98232142D01*
X154478628Y-98232142D02*
X154573866Y-98279761D01*
X154573866Y-98279761D02*
X154764342Y-98279761D01*
X154764342Y-98279761D02*
X154859580Y-98232142D01*
X154859580Y-98232142D02*
X154907200Y-98184523D01*
X154907200Y-98184523D02*
X154954819Y-98089285D01*
X154954819Y-98089285D02*
X154954819Y-97898809D01*
X154954819Y-97898809D02*
X154907200Y-97803571D01*
X154907200Y-97803571D02*
X154859580Y-97755952D01*
X154859580Y-97755952D02*
X154764342Y-97708333D01*
X154764342Y-97708333D02*
X154573866Y-97708333D01*
X154573866Y-97708333D02*
X154478628Y-97755952D01*
X154478628Y-97755952D02*
X154431009Y-97803571D01*
X154431009Y-97803571D02*
X154383390Y-97898809D01*
X139877142Y-95974819D02*
X139400952Y-95974819D01*
X139400952Y-95974819D02*
X139400952Y-94974819D01*
X140734285Y-95974819D02*
X140162857Y-95974819D01*
X140448571Y-95974819D02*
X140448571Y-94974819D01*
X140448571Y-94974819D02*
X140353333Y-95117676D01*
X140353333Y-95117676D02*
X140258095Y-95212914D01*
X140258095Y-95212914D02*
X140162857Y-95260533D01*
X141639047Y-94974819D02*
X141162857Y-94974819D01*
X141162857Y-94974819D02*
X141115238Y-95451009D01*
X141115238Y-95451009D02*
X141162857Y-95403390D01*
X141162857Y-95403390D02*
X141258095Y-95355771D01*
X141258095Y-95355771D02*
X141496190Y-95355771D01*
X141496190Y-95355771D02*
X141591428Y-95403390D01*
X141591428Y-95403390D02*
X141639047Y-95451009D01*
X141639047Y-95451009D02*
X141686666Y-95546247D01*
X141686666Y-95546247D02*
X141686666Y-95784342D01*
X141686666Y-95784342D02*
X141639047Y-95879580D01*
X141639047Y-95879580D02*
X141591428Y-95927200D01*
X141591428Y-95927200D02*
X141496190Y-95974819D01*
X141496190Y-95974819D02*
X141258095Y-95974819D01*
X141258095Y-95974819D02*
X141162857Y-95927200D01*
X141162857Y-95927200D02*
X141115238Y-95879580D01*
X149954819Y-105892857D02*
X149478628Y-106226190D01*
X149954819Y-106464285D02*
X148954819Y-106464285D01*
X148954819Y-106464285D02*
X148954819Y-106083333D01*
X148954819Y-106083333D02*
X149002438Y-105988095D01*
X149002438Y-105988095D02*
X149050057Y-105940476D01*
X149050057Y-105940476D02*
X149145295Y-105892857D01*
X149145295Y-105892857D02*
X149288152Y-105892857D01*
X149288152Y-105892857D02*
X149383390Y-105940476D01*
X149383390Y-105940476D02*
X149431009Y-105988095D01*
X149431009Y-105988095D02*
X149478628Y-106083333D01*
X149478628Y-106083333D02*
X149478628Y-106464285D01*
X149954819Y-104940476D02*
X149954819Y-105511904D01*
X149954819Y-105226190D02*
X148954819Y-105226190D01*
X148954819Y-105226190D02*
X149097676Y-105321428D01*
X149097676Y-105321428D02*
X149192914Y-105416666D01*
X149192914Y-105416666D02*
X149240533Y-105511904D01*
X148954819Y-104083333D02*
X148954819Y-104273809D01*
X148954819Y-104273809D02*
X149002438Y-104369047D01*
X149002438Y-104369047D02*
X149050057Y-104416666D01*
X149050057Y-104416666D02*
X149192914Y-104511904D01*
X149192914Y-104511904D02*
X149383390Y-104559523D01*
X149383390Y-104559523D02*
X149764342Y-104559523D01*
X149764342Y-104559523D02*
X149859580Y-104511904D01*
X149859580Y-104511904D02*
X149907200Y-104464285D01*
X149907200Y-104464285D02*
X149954819Y-104369047D01*
X149954819Y-104369047D02*
X149954819Y-104178571D01*
X149954819Y-104178571D02*
X149907200Y-104083333D01*
X149907200Y-104083333D02*
X149859580Y-104035714D01*
X149859580Y-104035714D02*
X149764342Y-103988095D01*
X149764342Y-103988095D02*
X149526247Y-103988095D01*
X149526247Y-103988095D02*
X149431009Y-104035714D01*
X149431009Y-104035714D02*
X149383390Y-104083333D01*
X149383390Y-104083333D02*
X149335771Y-104178571D01*
X149335771Y-104178571D02*
X149335771Y-104369047D01*
X149335771Y-104369047D02*
X149383390Y-104464285D01*
X149383390Y-104464285D02*
X149431009Y-104511904D01*
X149431009Y-104511904D02*
X149526247Y-104559523D01*
X154354819Y-105013094D02*
X154354819Y-104441666D01*
X155354819Y-104727380D02*
X154354819Y-104727380D01*
X155354819Y-104108332D02*
X154354819Y-104108332D01*
X154354819Y-104108332D02*
X154354819Y-103727380D01*
X154354819Y-103727380D02*
X154402438Y-103632142D01*
X154402438Y-103632142D02*
X154450057Y-103584523D01*
X154450057Y-103584523D02*
X154545295Y-103536904D01*
X154545295Y-103536904D02*
X154688152Y-103536904D01*
X154688152Y-103536904D02*
X154783390Y-103584523D01*
X154783390Y-103584523D02*
X154831009Y-103632142D01*
X154831009Y-103632142D02*
X154878628Y-103727380D01*
X154878628Y-103727380D02*
X154878628Y-104108332D01*
X155354819Y-102584523D02*
X155354819Y-103155951D01*
X155354819Y-102870237D02*
X154354819Y-102870237D01*
X154354819Y-102870237D02*
X154497676Y-102965475D01*
X154497676Y-102965475D02*
X154592914Y-103060713D01*
X154592914Y-103060713D02*
X154640533Y-103155951D01*
X154354819Y-101965475D02*
X154354819Y-101870237D01*
X154354819Y-101870237D02*
X154402438Y-101774999D01*
X154402438Y-101774999D02*
X154450057Y-101727380D01*
X154450057Y-101727380D02*
X154545295Y-101679761D01*
X154545295Y-101679761D02*
X154735771Y-101632142D01*
X154735771Y-101632142D02*
X154973866Y-101632142D01*
X154973866Y-101632142D02*
X155164342Y-101679761D01*
X155164342Y-101679761D02*
X155259580Y-101727380D01*
X155259580Y-101727380D02*
X155307200Y-101774999D01*
X155307200Y-101774999D02*
X155354819Y-101870237D01*
X155354819Y-101870237D02*
X155354819Y-101965475D01*
X155354819Y-101965475D02*
X155307200Y-102060713D01*
X155307200Y-102060713D02*
X155259580Y-102108332D01*
X155259580Y-102108332D02*
X155164342Y-102155951D01*
X155164342Y-102155951D02*
X154973866Y-102203570D01*
X154973866Y-102203570D02*
X154735771Y-102203570D01*
X154735771Y-102203570D02*
X154545295Y-102155951D01*
X154545295Y-102155951D02*
X154450057Y-102108332D01*
X154450057Y-102108332D02*
X154402438Y-102060713D01*
X154402438Y-102060713D02*
X154354819Y-101965475D01*
X146238095Y-89954819D02*
X146809523Y-89954819D01*
X146523809Y-90954819D02*
X146523809Y-89954819D01*
X147142857Y-90954819D02*
X147142857Y-89954819D01*
X147142857Y-89954819D02*
X147523809Y-89954819D01*
X147523809Y-89954819D02*
X147619047Y-90002438D01*
X147619047Y-90002438D02*
X147666666Y-90050057D01*
X147666666Y-90050057D02*
X147714285Y-90145295D01*
X147714285Y-90145295D02*
X147714285Y-90288152D01*
X147714285Y-90288152D02*
X147666666Y-90383390D01*
X147666666Y-90383390D02*
X147619047Y-90431009D01*
X147619047Y-90431009D02*
X147523809Y-90478628D01*
X147523809Y-90478628D02*
X147142857Y-90478628D01*
X148190476Y-90954819D02*
X148380952Y-90954819D01*
X148380952Y-90954819D02*
X148476190Y-90907200D01*
X148476190Y-90907200D02*
X148523809Y-90859580D01*
X148523809Y-90859580D02*
X148619047Y-90716723D01*
X148619047Y-90716723D02*
X148666666Y-90526247D01*
X148666666Y-90526247D02*
X148666666Y-90145295D01*
X148666666Y-90145295D02*
X148619047Y-90050057D01*
X148619047Y-90050057D02*
X148571428Y-90002438D01*
X148571428Y-90002438D02*
X148476190Y-89954819D01*
X148476190Y-89954819D02*
X148285714Y-89954819D01*
X148285714Y-89954819D02*
X148190476Y-90002438D01*
X148190476Y-90002438D02*
X148142857Y-90050057D01*
X148142857Y-90050057D02*
X148095238Y-90145295D01*
X148095238Y-90145295D02*
X148095238Y-90383390D01*
X148095238Y-90383390D02*
X148142857Y-90478628D01*
X148142857Y-90478628D02*
X148190476Y-90526247D01*
X148190476Y-90526247D02*
X148285714Y-90573866D01*
X148285714Y-90573866D02*
X148476190Y-90573866D01*
X148476190Y-90573866D02*
X148571428Y-90526247D01*
X148571428Y-90526247D02*
X148619047Y-90478628D01*
X148619047Y-90478628D02*
X148666666Y-90383390D01*
X137627142Y-99859580D02*
X137579523Y-99907200D01*
X137579523Y-99907200D02*
X137436666Y-99954819D01*
X137436666Y-99954819D02*
X137341428Y-99954819D01*
X137341428Y-99954819D02*
X137198571Y-99907200D01*
X137198571Y-99907200D02*
X137103333Y-99811961D01*
X137103333Y-99811961D02*
X137055714Y-99716723D01*
X137055714Y-99716723D02*
X137008095Y-99526247D01*
X137008095Y-99526247D02*
X137008095Y-99383390D01*
X137008095Y-99383390D02*
X137055714Y-99192914D01*
X137055714Y-99192914D02*
X137103333Y-99097676D01*
X137103333Y-99097676D02*
X137198571Y-99002438D01*
X137198571Y-99002438D02*
X137341428Y-98954819D01*
X137341428Y-98954819D02*
X137436666Y-98954819D01*
X137436666Y-98954819D02*
X137579523Y-99002438D01*
X137579523Y-99002438D02*
X137627142Y-99050057D01*
X137960476Y-98954819D02*
X138579523Y-98954819D01*
X138579523Y-98954819D02*
X138246190Y-99335771D01*
X138246190Y-99335771D02*
X138389047Y-99335771D01*
X138389047Y-99335771D02*
X138484285Y-99383390D01*
X138484285Y-99383390D02*
X138531904Y-99431009D01*
X138531904Y-99431009D02*
X138579523Y-99526247D01*
X138579523Y-99526247D02*
X138579523Y-99764342D01*
X138579523Y-99764342D02*
X138531904Y-99859580D01*
X138531904Y-99859580D02*
X138484285Y-99907200D01*
X138484285Y-99907200D02*
X138389047Y-99954819D01*
X138389047Y-99954819D02*
X138103333Y-99954819D01*
X138103333Y-99954819D02*
X138008095Y-99907200D01*
X138008095Y-99907200D02*
X137960476Y-99859580D01*
X139055714Y-99954819D02*
X139246190Y-99954819D01*
X139246190Y-99954819D02*
X139341428Y-99907200D01*
X139341428Y-99907200D02*
X139389047Y-99859580D01*
X139389047Y-99859580D02*
X139484285Y-99716723D01*
X139484285Y-99716723D02*
X139531904Y-99526247D01*
X139531904Y-99526247D02*
X139531904Y-99145295D01*
X139531904Y-99145295D02*
X139484285Y-99050057D01*
X139484285Y-99050057D02*
X139436666Y-99002438D01*
X139436666Y-99002438D02*
X139341428Y-98954819D01*
X139341428Y-98954819D02*
X139150952Y-98954819D01*
X139150952Y-98954819D02*
X139055714Y-99002438D01*
X139055714Y-99002438D02*
X139008095Y-99050057D01*
X139008095Y-99050057D02*
X138960476Y-99145295D01*
X138960476Y-99145295D02*
X138960476Y-99383390D01*
X138960476Y-99383390D02*
X139008095Y-99478628D01*
X139008095Y-99478628D02*
X139055714Y-99526247D01*
X139055714Y-99526247D02*
X139150952Y-99573866D01*
X139150952Y-99573866D02*
X139341428Y-99573866D01*
X139341428Y-99573866D02*
X139436666Y-99526247D01*
X139436666Y-99526247D02*
X139484285Y-99478628D01*
X139484285Y-99478628D02*
X139531904Y-99383390D01*
X138377142Y-101169580D02*
X138329523Y-101217200D01*
X138329523Y-101217200D02*
X138186666Y-101264819D01*
X138186666Y-101264819D02*
X138091428Y-101264819D01*
X138091428Y-101264819D02*
X137948571Y-101217200D01*
X137948571Y-101217200D02*
X137853333Y-101121961D01*
X137853333Y-101121961D02*
X137805714Y-101026723D01*
X137805714Y-101026723D02*
X137758095Y-100836247D01*
X137758095Y-100836247D02*
X137758095Y-100693390D01*
X137758095Y-100693390D02*
X137805714Y-100502914D01*
X137805714Y-100502914D02*
X137853333Y-100407676D01*
X137853333Y-100407676D02*
X137948571Y-100312438D01*
X137948571Y-100312438D02*
X138091428Y-100264819D01*
X138091428Y-100264819D02*
X138186666Y-100264819D01*
X138186666Y-100264819D02*
X138329523Y-100312438D01*
X138329523Y-100312438D02*
X138377142Y-100360057D01*
X138710476Y-100264819D02*
X139329523Y-100264819D01*
X139329523Y-100264819D02*
X138996190Y-100645771D01*
X138996190Y-100645771D02*
X139139047Y-100645771D01*
X139139047Y-100645771D02*
X139234285Y-100693390D01*
X139234285Y-100693390D02*
X139281904Y-100741009D01*
X139281904Y-100741009D02*
X139329523Y-100836247D01*
X139329523Y-100836247D02*
X139329523Y-101074342D01*
X139329523Y-101074342D02*
X139281904Y-101169580D01*
X139281904Y-101169580D02*
X139234285Y-101217200D01*
X139234285Y-101217200D02*
X139139047Y-101264819D01*
X139139047Y-101264819D02*
X138853333Y-101264819D01*
X138853333Y-101264819D02*
X138758095Y-101217200D01*
X138758095Y-101217200D02*
X138710476Y-101169580D01*
X139662857Y-100264819D02*
X140329523Y-100264819D01*
X140329523Y-100264819D02*
X139900952Y-101264819D01*
X162204819Y-104642857D02*
X162204819Y-105119047D01*
X162204819Y-105119047D02*
X161204819Y-105119047D01*
X162204819Y-103785714D02*
X162204819Y-104357142D01*
X162204819Y-104071428D02*
X161204819Y-104071428D01*
X161204819Y-104071428D02*
X161347676Y-104166666D01*
X161347676Y-104166666D02*
X161442914Y-104261904D01*
X161442914Y-104261904D02*
X161490533Y-104357142D01*
X161300057Y-103404761D02*
X161252438Y-103357142D01*
X161252438Y-103357142D02*
X161204819Y-103261904D01*
X161204819Y-103261904D02*
X161204819Y-103023809D01*
X161204819Y-103023809D02*
X161252438Y-102928571D01*
X161252438Y-102928571D02*
X161300057Y-102880952D01*
X161300057Y-102880952D02*
X161395295Y-102833333D01*
X161395295Y-102833333D02*
X161490533Y-102833333D01*
X161490533Y-102833333D02*
X161633390Y-102880952D01*
X161633390Y-102880952D02*
X162204819Y-103452380D01*
X162204819Y-103452380D02*
X162204819Y-102833333D01*
X152109580Y-97017857D02*
X152157200Y-97065476D01*
X152157200Y-97065476D02*
X152204819Y-97208333D01*
X152204819Y-97208333D02*
X152204819Y-97303571D01*
X152204819Y-97303571D02*
X152157200Y-97446428D01*
X152157200Y-97446428D02*
X152061961Y-97541666D01*
X152061961Y-97541666D02*
X151966723Y-97589285D01*
X151966723Y-97589285D02*
X151776247Y-97636904D01*
X151776247Y-97636904D02*
X151633390Y-97636904D01*
X151633390Y-97636904D02*
X151442914Y-97589285D01*
X151442914Y-97589285D02*
X151347676Y-97541666D01*
X151347676Y-97541666D02*
X151252438Y-97446428D01*
X151252438Y-97446428D02*
X151204819Y-97303571D01*
X151204819Y-97303571D02*
X151204819Y-97208333D01*
X151204819Y-97208333D02*
X151252438Y-97065476D01*
X151252438Y-97065476D02*
X151300057Y-97017857D01*
X151204819Y-96160714D02*
X151204819Y-96351190D01*
X151204819Y-96351190D02*
X151252438Y-96446428D01*
X151252438Y-96446428D02*
X151300057Y-96494047D01*
X151300057Y-96494047D02*
X151442914Y-96589285D01*
X151442914Y-96589285D02*
X151633390Y-96636904D01*
X151633390Y-96636904D02*
X152014342Y-96636904D01*
X152014342Y-96636904D02*
X152109580Y-96589285D01*
X152109580Y-96589285D02*
X152157200Y-96541666D01*
X152157200Y-96541666D02*
X152204819Y-96446428D01*
X152204819Y-96446428D02*
X152204819Y-96255952D01*
X152204819Y-96255952D02*
X152157200Y-96160714D01*
X152157200Y-96160714D02*
X152109580Y-96113095D01*
X152109580Y-96113095D02*
X152014342Y-96065476D01*
X152014342Y-96065476D02*
X151776247Y-96065476D01*
X151776247Y-96065476D02*
X151681009Y-96113095D01*
X151681009Y-96113095D02*
X151633390Y-96160714D01*
X151633390Y-96160714D02*
X151585771Y-96255952D01*
X151585771Y-96255952D02*
X151585771Y-96446428D01*
X151585771Y-96446428D02*
X151633390Y-96541666D01*
X151633390Y-96541666D02*
X151681009Y-96589285D01*
X151681009Y-96589285D02*
X151776247Y-96636904D01*
X151204819Y-95208333D02*
X151204819Y-95398809D01*
X151204819Y-95398809D02*
X151252438Y-95494047D01*
X151252438Y-95494047D02*
X151300057Y-95541666D01*
X151300057Y-95541666D02*
X151442914Y-95636904D01*
X151442914Y-95636904D02*
X151633390Y-95684523D01*
X151633390Y-95684523D02*
X152014342Y-95684523D01*
X152014342Y-95684523D02*
X152109580Y-95636904D01*
X152109580Y-95636904D02*
X152157200Y-95589285D01*
X152157200Y-95589285D02*
X152204819Y-95494047D01*
X152204819Y-95494047D02*
X152204819Y-95303571D01*
X152204819Y-95303571D02*
X152157200Y-95208333D01*
X152157200Y-95208333D02*
X152109580Y-95160714D01*
X152109580Y-95160714D02*
X152014342Y-95113095D01*
X152014342Y-95113095D02*
X151776247Y-95113095D01*
X151776247Y-95113095D02*
X151681009Y-95160714D01*
X151681009Y-95160714D02*
X151633390Y-95208333D01*
X151633390Y-95208333D02*
X151585771Y-95303571D01*
X151585771Y-95303571D02*
X151585771Y-95494047D01*
X151585771Y-95494047D02*
X151633390Y-95589285D01*
X151633390Y-95589285D02*
X151681009Y-95636904D01*
X151681009Y-95636904D02*
X151776247Y-95684523D01*
X147982142Y-101609580D02*
X147934523Y-101657200D01*
X147934523Y-101657200D02*
X147791666Y-101704819D01*
X147791666Y-101704819D02*
X147696428Y-101704819D01*
X147696428Y-101704819D02*
X147553571Y-101657200D01*
X147553571Y-101657200D02*
X147458333Y-101561961D01*
X147458333Y-101561961D02*
X147410714Y-101466723D01*
X147410714Y-101466723D02*
X147363095Y-101276247D01*
X147363095Y-101276247D02*
X147363095Y-101133390D01*
X147363095Y-101133390D02*
X147410714Y-100942914D01*
X147410714Y-100942914D02*
X147458333Y-100847676D01*
X147458333Y-100847676D02*
X147553571Y-100752438D01*
X147553571Y-100752438D02*
X147696428Y-100704819D01*
X147696428Y-100704819D02*
X147791666Y-100704819D01*
X147791666Y-100704819D02*
X147934523Y-100752438D01*
X147934523Y-100752438D02*
X147982142Y-100800057D01*
X148839285Y-100704819D02*
X148648809Y-100704819D01*
X148648809Y-100704819D02*
X148553571Y-100752438D01*
X148553571Y-100752438D02*
X148505952Y-100800057D01*
X148505952Y-100800057D02*
X148410714Y-100942914D01*
X148410714Y-100942914D02*
X148363095Y-101133390D01*
X148363095Y-101133390D02*
X148363095Y-101514342D01*
X148363095Y-101514342D02*
X148410714Y-101609580D01*
X148410714Y-101609580D02*
X148458333Y-101657200D01*
X148458333Y-101657200D02*
X148553571Y-101704819D01*
X148553571Y-101704819D02*
X148744047Y-101704819D01*
X148744047Y-101704819D02*
X148839285Y-101657200D01*
X148839285Y-101657200D02*
X148886904Y-101609580D01*
X148886904Y-101609580D02*
X148934523Y-101514342D01*
X148934523Y-101514342D02*
X148934523Y-101276247D01*
X148934523Y-101276247D02*
X148886904Y-101181009D01*
X148886904Y-101181009D02*
X148839285Y-101133390D01*
X148839285Y-101133390D02*
X148744047Y-101085771D01*
X148744047Y-101085771D02*
X148553571Y-101085771D01*
X148553571Y-101085771D02*
X148458333Y-101133390D01*
X148458333Y-101133390D02*
X148410714Y-101181009D01*
X148410714Y-101181009D02*
X148363095Y-101276247D01*
X149553571Y-100704819D02*
X149648809Y-100704819D01*
X149648809Y-100704819D02*
X149744047Y-100752438D01*
X149744047Y-100752438D02*
X149791666Y-100800057D01*
X149791666Y-100800057D02*
X149839285Y-100895295D01*
X149839285Y-100895295D02*
X149886904Y-101085771D01*
X149886904Y-101085771D02*
X149886904Y-101323866D01*
X149886904Y-101323866D02*
X149839285Y-101514342D01*
X149839285Y-101514342D02*
X149791666Y-101609580D01*
X149791666Y-101609580D02*
X149744047Y-101657200D01*
X149744047Y-101657200D02*
X149648809Y-101704819D01*
X149648809Y-101704819D02*
X149553571Y-101704819D01*
X149553571Y-101704819D02*
X149458333Y-101657200D01*
X149458333Y-101657200D02*
X149410714Y-101609580D01*
X149410714Y-101609580D02*
X149363095Y-101514342D01*
X149363095Y-101514342D02*
X149315476Y-101323866D01*
X149315476Y-101323866D02*
X149315476Y-101085771D01*
X149315476Y-101085771D02*
X149363095Y-100895295D01*
X149363095Y-100895295D02*
X149410714Y-100800057D01*
X149410714Y-100800057D02*
X149458333Y-100752438D01*
X149458333Y-100752438D02*
X149553571Y-100704819D01*
X157261905Y-109704819D02*
X157833333Y-109704819D01*
X157547619Y-110704819D02*
X157547619Y-109704819D01*
X158166667Y-110704819D02*
X158166667Y-109704819D01*
X158166667Y-109704819D02*
X158547619Y-109704819D01*
X158547619Y-109704819D02*
X158642857Y-109752438D01*
X158642857Y-109752438D02*
X158690476Y-109800057D01*
X158690476Y-109800057D02*
X158738095Y-109895295D01*
X158738095Y-109895295D02*
X158738095Y-110038152D01*
X158738095Y-110038152D02*
X158690476Y-110133390D01*
X158690476Y-110133390D02*
X158642857Y-110181009D01*
X158642857Y-110181009D02*
X158547619Y-110228628D01*
X158547619Y-110228628D02*
X158166667Y-110228628D01*
X159690476Y-110704819D02*
X159119048Y-110704819D01*
X159404762Y-110704819D02*
X159404762Y-109704819D01*
X159404762Y-109704819D02*
X159309524Y-109847676D01*
X159309524Y-109847676D02*
X159214286Y-109942914D01*
X159214286Y-109942914D02*
X159119048Y-109990533D01*
X160023810Y-109704819D02*
X160690476Y-109704819D01*
X160690476Y-109704819D02*
X160261905Y-110704819D01*
X145982142Y-118984580D02*
X145934523Y-119032200D01*
X145934523Y-119032200D02*
X145791666Y-119079819D01*
X145791666Y-119079819D02*
X145696428Y-119079819D01*
X145696428Y-119079819D02*
X145553571Y-119032200D01*
X145553571Y-119032200D02*
X145458333Y-118936961D01*
X145458333Y-118936961D02*
X145410714Y-118841723D01*
X145410714Y-118841723D02*
X145363095Y-118651247D01*
X145363095Y-118651247D02*
X145363095Y-118508390D01*
X145363095Y-118508390D02*
X145410714Y-118317914D01*
X145410714Y-118317914D02*
X145458333Y-118222676D01*
X145458333Y-118222676D02*
X145553571Y-118127438D01*
X145553571Y-118127438D02*
X145696428Y-118079819D01*
X145696428Y-118079819D02*
X145791666Y-118079819D01*
X145791666Y-118079819D02*
X145934523Y-118127438D01*
X145934523Y-118127438D02*
X145982142Y-118175057D01*
X146934523Y-119079819D02*
X146363095Y-119079819D01*
X146648809Y-119079819D02*
X146648809Y-118079819D01*
X146648809Y-118079819D02*
X146553571Y-118222676D01*
X146553571Y-118222676D02*
X146458333Y-118317914D01*
X146458333Y-118317914D02*
X146363095Y-118365533D01*
X147267857Y-118079819D02*
X147934523Y-118079819D01*
X147934523Y-118079819D02*
X147505952Y-119079819D01*
X156738095Y-112256819D02*
X157309523Y-112256819D01*
X157023809Y-113256819D02*
X157023809Y-112256819D01*
X157642857Y-113256819D02*
X157642857Y-112256819D01*
X157642857Y-112256819D02*
X158023809Y-112256819D01*
X158023809Y-112256819D02*
X158119047Y-112304438D01*
X158119047Y-112304438D02*
X158166666Y-112352057D01*
X158166666Y-112352057D02*
X158214285Y-112447295D01*
X158214285Y-112447295D02*
X158214285Y-112590152D01*
X158214285Y-112590152D02*
X158166666Y-112685390D01*
X158166666Y-112685390D02*
X158119047Y-112733009D01*
X158119047Y-112733009D02*
X158023809Y-112780628D01*
X158023809Y-112780628D02*
X157642857Y-112780628D01*
X158595238Y-112352057D02*
X158642857Y-112304438D01*
X158642857Y-112304438D02*
X158738095Y-112256819D01*
X158738095Y-112256819D02*
X158976190Y-112256819D01*
X158976190Y-112256819D02*
X159071428Y-112304438D01*
X159071428Y-112304438D02*
X159119047Y-112352057D01*
X159119047Y-112352057D02*
X159166666Y-112447295D01*
X159166666Y-112447295D02*
X159166666Y-112542533D01*
X159166666Y-112542533D02*
X159119047Y-112685390D01*
X159119047Y-112685390D02*
X158547619Y-113256819D01*
X158547619Y-113256819D02*
X159166666Y-113256819D01*
X136359580Y-103642857D02*
X136407200Y-103690476D01*
X136407200Y-103690476D02*
X136454819Y-103833333D01*
X136454819Y-103833333D02*
X136454819Y-103928571D01*
X136454819Y-103928571D02*
X136407200Y-104071428D01*
X136407200Y-104071428D02*
X136311961Y-104166666D01*
X136311961Y-104166666D02*
X136216723Y-104214285D01*
X136216723Y-104214285D02*
X136026247Y-104261904D01*
X136026247Y-104261904D02*
X135883390Y-104261904D01*
X135883390Y-104261904D02*
X135692914Y-104214285D01*
X135692914Y-104214285D02*
X135597676Y-104166666D01*
X135597676Y-104166666D02*
X135502438Y-104071428D01*
X135502438Y-104071428D02*
X135454819Y-103928571D01*
X135454819Y-103928571D02*
X135454819Y-103833333D01*
X135454819Y-103833333D02*
X135502438Y-103690476D01*
X135502438Y-103690476D02*
X135550057Y-103642857D01*
X135788152Y-102785714D02*
X136454819Y-102785714D01*
X135407200Y-103023809D02*
X136121485Y-103261904D01*
X136121485Y-103261904D02*
X136121485Y-102642857D01*
X135454819Y-102357142D02*
X135454819Y-101738095D01*
X135454819Y-101738095D02*
X135835771Y-102071428D01*
X135835771Y-102071428D02*
X135835771Y-101928571D01*
X135835771Y-101928571D02*
X135883390Y-101833333D01*
X135883390Y-101833333D02*
X135931009Y-101785714D01*
X135931009Y-101785714D02*
X136026247Y-101738095D01*
X136026247Y-101738095D02*
X136264342Y-101738095D01*
X136264342Y-101738095D02*
X136359580Y-101785714D01*
X136359580Y-101785714D02*
X136407200Y-101833333D01*
X136407200Y-101833333D02*
X136454819Y-101928571D01*
X136454819Y-101928571D02*
X136454819Y-102214285D01*
X136454819Y-102214285D02*
X136407200Y-102309523D01*
X136407200Y-102309523D02*
X136359580Y-102357142D01*
X155422080Y-88342857D02*
X155469700Y-88390476D01*
X155469700Y-88390476D02*
X155517319Y-88533333D01*
X155517319Y-88533333D02*
X155517319Y-88628571D01*
X155517319Y-88628571D02*
X155469700Y-88771428D01*
X155469700Y-88771428D02*
X155374461Y-88866666D01*
X155374461Y-88866666D02*
X155279223Y-88914285D01*
X155279223Y-88914285D02*
X155088747Y-88961904D01*
X155088747Y-88961904D02*
X154945890Y-88961904D01*
X154945890Y-88961904D02*
X154755414Y-88914285D01*
X154755414Y-88914285D02*
X154660176Y-88866666D01*
X154660176Y-88866666D02*
X154564938Y-88771428D01*
X154564938Y-88771428D02*
X154517319Y-88628571D01*
X154517319Y-88628571D02*
X154517319Y-88533333D01*
X154517319Y-88533333D02*
X154564938Y-88390476D01*
X154564938Y-88390476D02*
X154612557Y-88342857D01*
X154850652Y-87485714D02*
X155517319Y-87485714D01*
X154469700Y-87723809D02*
X155183985Y-87961904D01*
X155183985Y-87961904D02*
X155183985Y-87342857D01*
X154517319Y-86533333D02*
X154517319Y-86723809D01*
X154517319Y-86723809D02*
X154564938Y-86819047D01*
X154564938Y-86819047D02*
X154612557Y-86866666D01*
X154612557Y-86866666D02*
X154755414Y-86961904D01*
X154755414Y-86961904D02*
X154945890Y-87009523D01*
X154945890Y-87009523D02*
X155326842Y-87009523D01*
X155326842Y-87009523D02*
X155422080Y-86961904D01*
X155422080Y-86961904D02*
X155469700Y-86914285D01*
X155469700Y-86914285D02*
X155517319Y-86819047D01*
X155517319Y-86819047D02*
X155517319Y-86628571D01*
X155517319Y-86628571D02*
X155469700Y-86533333D01*
X155469700Y-86533333D02*
X155422080Y-86485714D01*
X155422080Y-86485714D02*
X155326842Y-86438095D01*
X155326842Y-86438095D02*
X155088747Y-86438095D01*
X155088747Y-86438095D02*
X154993509Y-86485714D01*
X154993509Y-86485714D02*
X154945890Y-86533333D01*
X154945890Y-86533333D02*
X154898271Y-86628571D01*
X154898271Y-86628571D02*
X154898271Y-86819047D01*
X154898271Y-86819047D02*
X154945890Y-86914285D01*
X154945890Y-86914285D02*
X154993509Y-86961904D01*
X154993509Y-86961904D02*
X155088747Y-87009523D01*
X147954819Y-113738094D02*
X147954819Y-113166666D01*
X148954819Y-113452380D02*
X147954819Y-113452380D01*
X148954819Y-112833332D02*
X147954819Y-112833332D01*
X147954819Y-112833332D02*
X147954819Y-112452380D01*
X147954819Y-112452380D02*
X148002438Y-112357142D01*
X148002438Y-112357142D02*
X148050057Y-112309523D01*
X148050057Y-112309523D02*
X148145295Y-112261904D01*
X148145295Y-112261904D02*
X148288152Y-112261904D01*
X148288152Y-112261904D02*
X148383390Y-112309523D01*
X148383390Y-112309523D02*
X148431009Y-112357142D01*
X148431009Y-112357142D02*
X148478628Y-112452380D01*
X148478628Y-112452380D02*
X148478628Y-112833332D01*
X148954819Y-111309523D02*
X148954819Y-111880951D01*
X148954819Y-111595237D02*
X147954819Y-111595237D01*
X147954819Y-111595237D02*
X148097676Y-111690475D01*
X148097676Y-111690475D02*
X148192914Y-111785713D01*
X148192914Y-111785713D02*
X148240533Y-111880951D01*
X148954819Y-110833332D02*
X148954819Y-110642856D01*
X148954819Y-110642856D02*
X148907200Y-110547618D01*
X148907200Y-110547618D02*
X148859580Y-110499999D01*
X148859580Y-110499999D02*
X148716723Y-110404761D01*
X148716723Y-110404761D02*
X148526247Y-110357142D01*
X148526247Y-110357142D02*
X148145295Y-110357142D01*
X148145295Y-110357142D02*
X148050057Y-110404761D01*
X148050057Y-110404761D02*
X148002438Y-110452380D01*
X148002438Y-110452380D02*
X147954819Y-110547618D01*
X147954819Y-110547618D02*
X147954819Y-110738094D01*
X147954819Y-110738094D02*
X148002438Y-110833332D01*
X148002438Y-110833332D02*
X148050057Y-110880951D01*
X148050057Y-110880951D02*
X148145295Y-110928570D01*
X148145295Y-110928570D02*
X148383390Y-110928570D01*
X148383390Y-110928570D02*
X148478628Y-110880951D01*
X148478628Y-110880951D02*
X148526247Y-110833332D01*
X148526247Y-110833332D02*
X148573866Y-110738094D01*
X148573866Y-110738094D02*
X148573866Y-110547618D01*
X148573866Y-110547618D02*
X148526247Y-110452380D01*
X148526247Y-110452380D02*
X148478628Y-110404761D01*
X148478628Y-110404761D02*
X148383390Y-110357142D01*
X150234580Y-117642857D02*
X150282200Y-117690476D01*
X150282200Y-117690476D02*
X150329819Y-117833333D01*
X150329819Y-117833333D02*
X150329819Y-117928571D01*
X150329819Y-117928571D02*
X150282200Y-118071428D01*
X150282200Y-118071428D02*
X150186961Y-118166666D01*
X150186961Y-118166666D02*
X150091723Y-118214285D01*
X150091723Y-118214285D02*
X149901247Y-118261904D01*
X149901247Y-118261904D02*
X149758390Y-118261904D01*
X149758390Y-118261904D02*
X149567914Y-118214285D01*
X149567914Y-118214285D02*
X149472676Y-118166666D01*
X149472676Y-118166666D02*
X149377438Y-118071428D01*
X149377438Y-118071428D02*
X149329819Y-117928571D01*
X149329819Y-117928571D02*
X149329819Y-117833333D01*
X149329819Y-117833333D02*
X149377438Y-117690476D01*
X149377438Y-117690476D02*
X149425057Y-117642857D01*
X150329819Y-116690476D02*
X150329819Y-117261904D01*
X150329819Y-116976190D02*
X149329819Y-116976190D01*
X149329819Y-116976190D02*
X149472676Y-117071428D01*
X149472676Y-117071428D02*
X149567914Y-117166666D01*
X149567914Y-117166666D02*
X149615533Y-117261904D01*
X149329819Y-115833333D02*
X149329819Y-116023809D01*
X149329819Y-116023809D02*
X149377438Y-116119047D01*
X149377438Y-116119047D02*
X149425057Y-116166666D01*
X149425057Y-116166666D02*
X149567914Y-116261904D01*
X149567914Y-116261904D02*
X149758390Y-116309523D01*
X149758390Y-116309523D02*
X150139342Y-116309523D01*
X150139342Y-116309523D02*
X150234580Y-116261904D01*
X150234580Y-116261904D02*
X150282200Y-116214285D01*
X150282200Y-116214285D02*
X150329819Y-116119047D01*
X150329819Y-116119047D02*
X150329819Y-115928571D01*
X150329819Y-115928571D02*
X150282200Y-115833333D01*
X150282200Y-115833333D02*
X150234580Y-115785714D01*
X150234580Y-115785714D02*
X150139342Y-115738095D01*
X150139342Y-115738095D02*
X149901247Y-115738095D01*
X149901247Y-115738095D02*
X149806009Y-115785714D01*
X149806009Y-115785714D02*
X149758390Y-115833333D01*
X149758390Y-115833333D02*
X149710771Y-115928571D01*
X149710771Y-115928571D02*
X149710771Y-116119047D01*
X149710771Y-116119047D02*
X149758390Y-116214285D01*
X149758390Y-116214285D02*
X149806009Y-116261904D01*
X149806009Y-116261904D02*
X149901247Y-116309523D01*
X150954819Y-118738094D02*
X150954819Y-118166666D01*
X151954819Y-118452380D02*
X150954819Y-118452380D01*
X151954819Y-117833332D02*
X150954819Y-117833332D01*
X150954819Y-117833332D02*
X150954819Y-117452380D01*
X150954819Y-117452380D02*
X151002438Y-117357142D01*
X151002438Y-117357142D02*
X151050057Y-117309523D01*
X151050057Y-117309523D02*
X151145295Y-117261904D01*
X151145295Y-117261904D02*
X151288152Y-117261904D01*
X151288152Y-117261904D02*
X151383390Y-117309523D01*
X151383390Y-117309523D02*
X151431009Y-117357142D01*
X151431009Y-117357142D02*
X151478628Y-117452380D01*
X151478628Y-117452380D02*
X151478628Y-117833332D01*
X151050057Y-116880951D02*
X151002438Y-116833332D01*
X151002438Y-116833332D02*
X150954819Y-116738094D01*
X150954819Y-116738094D02*
X150954819Y-116499999D01*
X150954819Y-116499999D02*
X151002438Y-116404761D01*
X151002438Y-116404761D02*
X151050057Y-116357142D01*
X151050057Y-116357142D02*
X151145295Y-116309523D01*
X151145295Y-116309523D02*
X151240533Y-116309523D01*
X151240533Y-116309523D02*
X151383390Y-116357142D01*
X151383390Y-116357142D02*
X151954819Y-116928570D01*
X151954819Y-116928570D02*
X151954819Y-116309523D01*
X150954819Y-115976189D02*
X150954819Y-115357142D01*
X150954819Y-115357142D02*
X151335771Y-115690475D01*
X151335771Y-115690475D02*
X151335771Y-115547618D01*
X151335771Y-115547618D02*
X151383390Y-115452380D01*
X151383390Y-115452380D02*
X151431009Y-115404761D01*
X151431009Y-115404761D02*
X151526247Y-115357142D01*
X151526247Y-115357142D02*
X151764342Y-115357142D01*
X151764342Y-115357142D02*
X151859580Y-115404761D01*
X151859580Y-115404761D02*
X151907200Y-115452380D01*
X151907200Y-115452380D02*
X151954819Y-115547618D01*
X151954819Y-115547618D02*
X151954819Y-115833332D01*
X151954819Y-115833332D02*
X151907200Y-115928570D01*
X151907200Y-115928570D02*
X151859580Y-115976189D01*
X139392142Y-97379580D02*
X139344523Y-97427200D01*
X139344523Y-97427200D02*
X139201666Y-97474819D01*
X139201666Y-97474819D02*
X139106428Y-97474819D01*
X139106428Y-97474819D02*
X138963571Y-97427200D01*
X138963571Y-97427200D02*
X138868333Y-97331961D01*
X138868333Y-97331961D02*
X138820714Y-97236723D01*
X138820714Y-97236723D02*
X138773095Y-97046247D01*
X138773095Y-97046247D02*
X138773095Y-96903390D01*
X138773095Y-96903390D02*
X138820714Y-96712914D01*
X138820714Y-96712914D02*
X138868333Y-96617676D01*
X138868333Y-96617676D02*
X138963571Y-96522438D01*
X138963571Y-96522438D02*
X139106428Y-96474819D01*
X139106428Y-96474819D02*
X139201666Y-96474819D01*
X139201666Y-96474819D02*
X139344523Y-96522438D01*
X139344523Y-96522438D02*
X139392142Y-96570057D01*
X139725476Y-96474819D02*
X140344523Y-96474819D01*
X140344523Y-96474819D02*
X140011190Y-96855771D01*
X140011190Y-96855771D02*
X140154047Y-96855771D01*
X140154047Y-96855771D02*
X140249285Y-96903390D01*
X140249285Y-96903390D02*
X140296904Y-96951009D01*
X140296904Y-96951009D02*
X140344523Y-97046247D01*
X140344523Y-97046247D02*
X140344523Y-97284342D01*
X140344523Y-97284342D02*
X140296904Y-97379580D01*
X140296904Y-97379580D02*
X140249285Y-97427200D01*
X140249285Y-97427200D02*
X140154047Y-97474819D01*
X140154047Y-97474819D02*
X139868333Y-97474819D01*
X139868333Y-97474819D02*
X139773095Y-97427200D01*
X139773095Y-97427200D02*
X139725476Y-97379580D01*
X140915952Y-96903390D02*
X140820714Y-96855771D01*
X140820714Y-96855771D02*
X140773095Y-96808152D01*
X140773095Y-96808152D02*
X140725476Y-96712914D01*
X140725476Y-96712914D02*
X140725476Y-96665295D01*
X140725476Y-96665295D02*
X140773095Y-96570057D01*
X140773095Y-96570057D02*
X140820714Y-96522438D01*
X140820714Y-96522438D02*
X140915952Y-96474819D01*
X140915952Y-96474819D02*
X141106428Y-96474819D01*
X141106428Y-96474819D02*
X141201666Y-96522438D01*
X141201666Y-96522438D02*
X141249285Y-96570057D01*
X141249285Y-96570057D02*
X141296904Y-96665295D01*
X141296904Y-96665295D02*
X141296904Y-96712914D01*
X141296904Y-96712914D02*
X141249285Y-96808152D01*
X141249285Y-96808152D02*
X141201666Y-96855771D01*
X141201666Y-96855771D02*
X141106428Y-96903390D01*
X141106428Y-96903390D02*
X140915952Y-96903390D01*
X140915952Y-96903390D02*
X140820714Y-96951009D01*
X140820714Y-96951009D02*
X140773095Y-96998628D01*
X140773095Y-96998628D02*
X140725476Y-97093866D01*
X140725476Y-97093866D02*
X140725476Y-97284342D01*
X140725476Y-97284342D02*
X140773095Y-97379580D01*
X140773095Y-97379580D02*
X140820714Y-97427200D01*
X140820714Y-97427200D02*
X140915952Y-97474819D01*
X140915952Y-97474819D02*
X141106428Y-97474819D01*
X141106428Y-97474819D02*
X141201666Y-97427200D01*
X141201666Y-97427200D02*
X141249285Y-97379580D01*
X141249285Y-97379580D02*
X141296904Y-97284342D01*
X141296904Y-97284342D02*
X141296904Y-97093866D01*
X141296904Y-97093866D02*
X141249285Y-96998628D01*
X141249285Y-96998628D02*
X141201666Y-96951009D01*
X141201666Y-96951009D02*
X141106428Y-96903390D01*
X146232142Y-98734580D02*
X146184523Y-98782200D01*
X146184523Y-98782200D02*
X146041666Y-98829819D01*
X146041666Y-98829819D02*
X145946428Y-98829819D01*
X145946428Y-98829819D02*
X145803571Y-98782200D01*
X145803571Y-98782200D02*
X145708333Y-98686961D01*
X145708333Y-98686961D02*
X145660714Y-98591723D01*
X145660714Y-98591723D02*
X145613095Y-98401247D01*
X145613095Y-98401247D02*
X145613095Y-98258390D01*
X145613095Y-98258390D02*
X145660714Y-98067914D01*
X145660714Y-98067914D02*
X145708333Y-97972676D01*
X145708333Y-97972676D02*
X145803571Y-97877438D01*
X145803571Y-97877438D02*
X145946428Y-97829819D01*
X145946428Y-97829819D02*
X146041666Y-97829819D01*
X146041666Y-97829819D02*
X146184523Y-97877438D01*
X146184523Y-97877438D02*
X146232142Y-97925057D01*
X147089285Y-97829819D02*
X146898809Y-97829819D01*
X146898809Y-97829819D02*
X146803571Y-97877438D01*
X146803571Y-97877438D02*
X146755952Y-97925057D01*
X146755952Y-97925057D02*
X146660714Y-98067914D01*
X146660714Y-98067914D02*
X146613095Y-98258390D01*
X146613095Y-98258390D02*
X146613095Y-98639342D01*
X146613095Y-98639342D02*
X146660714Y-98734580D01*
X146660714Y-98734580D02*
X146708333Y-98782200D01*
X146708333Y-98782200D02*
X146803571Y-98829819D01*
X146803571Y-98829819D02*
X146994047Y-98829819D01*
X146994047Y-98829819D02*
X147089285Y-98782200D01*
X147089285Y-98782200D02*
X147136904Y-98734580D01*
X147136904Y-98734580D02*
X147184523Y-98639342D01*
X147184523Y-98639342D02*
X147184523Y-98401247D01*
X147184523Y-98401247D02*
X147136904Y-98306009D01*
X147136904Y-98306009D02*
X147089285Y-98258390D01*
X147089285Y-98258390D02*
X146994047Y-98210771D01*
X146994047Y-98210771D02*
X146803571Y-98210771D01*
X146803571Y-98210771D02*
X146708333Y-98258390D01*
X146708333Y-98258390D02*
X146660714Y-98306009D01*
X146660714Y-98306009D02*
X146613095Y-98401247D01*
X148136904Y-98829819D02*
X147565476Y-98829819D01*
X147851190Y-98829819D02*
X147851190Y-97829819D01*
X147851190Y-97829819D02*
X147755952Y-97972676D01*
X147755952Y-97972676D02*
X147660714Y-98067914D01*
X147660714Y-98067914D02*
X147565476Y-98115533D01*
X158954819Y-105407857D02*
X158954819Y-105884047D01*
X158954819Y-105884047D02*
X157954819Y-105884047D01*
X158954819Y-104550714D02*
X158954819Y-105122142D01*
X158954819Y-104836428D02*
X157954819Y-104836428D01*
X157954819Y-104836428D02*
X158097676Y-104931666D01*
X158097676Y-104931666D02*
X158192914Y-105026904D01*
X158192914Y-105026904D02*
X158240533Y-105122142D01*
X157954819Y-104217380D02*
X157954819Y-103598333D01*
X157954819Y-103598333D02*
X158335771Y-103931666D01*
X158335771Y-103931666D02*
X158335771Y-103788809D01*
X158335771Y-103788809D02*
X158383390Y-103693571D01*
X158383390Y-103693571D02*
X158431009Y-103645952D01*
X158431009Y-103645952D02*
X158526247Y-103598333D01*
X158526247Y-103598333D02*
X158764342Y-103598333D01*
X158764342Y-103598333D02*
X158859580Y-103645952D01*
X158859580Y-103645952D02*
X158907200Y-103693571D01*
X158907200Y-103693571D02*
X158954819Y-103788809D01*
X158954819Y-103788809D02*
X158954819Y-104074523D01*
X158954819Y-104074523D02*
X158907200Y-104169761D01*
X158907200Y-104169761D02*
X158859580Y-104217380D01*
X151579819Y-88238094D02*
X151579819Y-87666666D01*
X152579819Y-87952380D02*
X151579819Y-87952380D01*
X152579819Y-87333332D02*
X151579819Y-87333332D01*
X151579819Y-87333332D02*
X151579819Y-86952380D01*
X151579819Y-86952380D02*
X151627438Y-86857142D01*
X151627438Y-86857142D02*
X151675057Y-86809523D01*
X151675057Y-86809523D02*
X151770295Y-86761904D01*
X151770295Y-86761904D02*
X151913152Y-86761904D01*
X151913152Y-86761904D02*
X152008390Y-86809523D01*
X152008390Y-86809523D02*
X152056009Y-86857142D01*
X152056009Y-86857142D02*
X152103628Y-86952380D01*
X152103628Y-86952380D02*
X152103628Y-87333332D01*
X152579819Y-85809523D02*
X152579819Y-86380951D01*
X152579819Y-86095237D02*
X151579819Y-86095237D01*
X151579819Y-86095237D02*
X151722676Y-86190475D01*
X151722676Y-86190475D02*
X151817914Y-86285713D01*
X151817914Y-86285713D02*
X151865533Y-86380951D01*
X151675057Y-85428570D02*
X151627438Y-85380951D01*
X151627438Y-85380951D02*
X151579819Y-85285713D01*
X151579819Y-85285713D02*
X151579819Y-85047618D01*
X151579819Y-85047618D02*
X151627438Y-84952380D01*
X151627438Y-84952380D02*
X151675057Y-84904761D01*
X151675057Y-84904761D02*
X151770295Y-84857142D01*
X151770295Y-84857142D02*
X151865533Y-84857142D01*
X151865533Y-84857142D02*
X152008390Y-84904761D01*
X152008390Y-84904761D02*
X152579819Y-85476189D01*
X152579819Y-85476189D02*
X152579819Y-84857142D01*
X139488095Y-85454819D02*
X139488095Y-86264342D01*
X139488095Y-86264342D02*
X139535714Y-86359580D01*
X139535714Y-86359580D02*
X139583333Y-86407200D01*
X139583333Y-86407200D02*
X139678571Y-86454819D01*
X139678571Y-86454819D02*
X139869047Y-86454819D01*
X139869047Y-86454819D02*
X139964285Y-86407200D01*
X139964285Y-86407200D02*
X140011904Y-86359580D01*
X140011904Y-86359580D02*
X140059523Y-86264342D01*
X140059523Y-86264342D02*
X140059523Y-85454819D01*
X140440476Y-85454819D02*
X141107142Y-85454819D01*
X141107142Y-85454819D02*
X140678571Y-86454819D01*
X141206774Y-86454630D02*
X141206774Y-86692725D01*
X140968679Y-86597487D02*
X141206774Y-86692725D01*
X141206774Y-86692725D02*
X141444869Y-86597487D01*
X141063917Y-86883201D02*
X141206774Y-86692725D01*
X141206774Y-86692725D02*
X141349631Y-86883201D01*
X141206774Y-86454630D02*
X141206774Y-86692725D01*
X140968679Y-86597487D02*
X141206774Y-86692725D01*
X141206774Y-86692725D02*
X141444869Y-86597487D01*
X141063917Y-86883201D02*
X141206774Y-86692725D01*
X141206774Y-86692725D02*
X141349631Y-86883201D01*
X151354819Y-110488094D02*
X151354819Y-109916666D01*
X152354819Y-110202380D02*
X151354819Y-110202380D01*
X152354819Y-109583332D02*
X151354819Y-109583332D01*
X151354819Y-109583332D02*
X151354819Y-109202380D01*
X151354819Y-109202380D02*
X151402438Y-109107142D01*
X151402438Y-109107142D02*
X151450057Y-109059523D01*
X151450057Y-109059523D02*
X151545295Y-109011904D01*
X151545295Y-109011904D02*
X151688152Y-109011904D01*
X151688152Y-109011904D02*
X151783390Y-109059523D01*
X151783390Y-109059523D02*
X151831009Y-109107142D01*
X151831009Y-109107142D02*
X151878628Y-109202380D01*
X151878628Y-109202380D02*
X151878628Y-109583332D01*
X151450057Y-108630951D02*
X151402438Y-108583332D01*
X151402438Y-108583332D02*
X151354819Y-108488094D01*
X151354819Y-108488094D02*
X151354819Y-108249999D01*
X151354819Y-108249999D02*
X151402438Y-108154761D01*
X151402438Y-108154761D02*
X151450057Y-108107142D01*
X151450057Y-108107142D02*
X151545295Y-108059523D01*
X151545295Y-108059523D02*
X151640533Y-108059523D01*
X151640533Y-108059523D02*
X151783390Y-108107142D01*
X151783390Y-108107142D02*
X152354819Y-108678570D01*
X152354819Y-108678570D02*
X152354819Y-108059523D01*
X151354819Y-107440475D02*
X151354819Y-107345237D01*
X151354819Y-107345237D02*
X151402438Y-107249999D01*
X151402438Y-107249999D02*
X151450057Y-107202380D01*
X151450057Y-107202380D02*
X151545295Y-107154761D01*
X151545295Y-107154761D02*
X151735771Y-107107142D01*
X151735771Y-107107142D02*
X151973866Y-107107142D01*
X151973866Y-107107142D02*
X152164342Y-107154761D01*
X152164342Y-107154761D02*
X152259580Y-107202380D01*
X152259580Y-107202380D02*
X152307200Y-107249999D01*
X152307200Y-107249999D02*
X152354819Y-107345237D01*
X152354819Y-107345237D02*
X152354819Y-107440475D01*
X152354819Y-107440475D02*
X152307200Y-107535713D01*
X152307200Y-107535713D02*
X152259580Y-107583332D01*
X152259580Y-107583332D02*
X152164342Y-107630951D01*
X152164342Y-107630951D02*
X151973866Y-107678570D01*
X151973866Y-107678570D02*
X151735771Y-107678570D01*
X151735771Y-107678570D02*
X151545295Y-107630951D01*
X151545295Y-107630951D02*
X151450057Y-107583332D01*
X151450057Y-107583332D02*
X151402438Y-107535713D01*
X151402438Y-107535713D02*
X151354819Y-107440475D01*
X137357142Y-98579580D02*
X137309523Y-98627200D01*
X137309523Y-98627200D02*
X137166666Y-98674819D01*
X137166666Y-98674819D02*
X137071428Y-98674819D01*
X137071428Y-98674819D02*
X136928571Y-98627200D01*
X136928571Y-98627200D02*
X136833333Y-98531961D01*
X136833333Y-98531961D02*
X136785714Y-98436723D01*
X136785714Y-98436723D02*
X136738095Y-98246247D01*
X136738095Y-98246247D02*
X136738095Y-98103390D01*
X136738095Y-98103390D02*
X136785714Y-97912914D01*
X136785714Y-97912914D02*
X136833333Y-97817676D01*
X136833333Y-97817676D02*
X136928571Y-97722438D01*
X136928571Y-97722438D02*
X137071428Y-97674819D01*
X137071428Y-97674819D02*
X137166666Y-97674819D01*
X137166666Y-97674819D02*
X137309523Y-97722438D01*
X137309523Y-97722438D02*
X137357142Y-97770057D01*
X138214285Y-98008152D02*
X138214285Y-98674819D01*
X137976190Y-97627200D02*
X137738095Y-98341485D01*
X137738095Y-98341485D02*
X138357142Y-98341485D01*
X138928571Y-97674819D02*
X139023809Y-97674819D01*
X139023809Y-97674819D02*
X139119047Y-97722438D01*
X139119047Y-97722438D02*
X139166666Y-97770057D01*
X139166666Y-97770057D02*
X139214285Y-97865295D01*
X139214285Y-97865295D02*
X139261904Y-98055771D01*
X139261904Y-98055771D02*
X139261904Y-98293866D01*
X139261904Y-98293866D02*
X139214285Y-98484342D01*
X139214285Y-98484342D02*
X139166666Y-98579580D01*
X139166666Y-98579580D02*
X139119047Y-98627200D01*
X139119047Y-98627200D02*
X139023809Y-98674819D01*
X139023809Y-98674819D02*
X138928571Y-98674819D01*
X138928571Y-98674819D02*
X138833333Y-98627200D01*
X138833333Y-98627200D02*
X138785714Y-98579580D01*
X138785714Y-98579580D02*
X138738095Y-98484342D01*
X138738095Y-98484342D02*
X138690476Y-98293866D01*
X138690476Y-98293866D02*
X138690476Y-98055771D01*
X138690476Y-98055771D02*
X138738095Y-97865295D01*
X138738095Y-97865295D02*
X138785714Y-97770057D01*
X138785714Y-97770057D02*
X138833333Y-97722438D01*
X138833333Y-97722438D02*
X138928571Y-97674819D01*
X157261905Y-107704819D02*
X157833333Y-107704819D01*
X157547619Y-108704819D02*
X157547619Y-107704819D01*
X158166667Y-108704819D02*
X158166667Y-107704819D01*
X158166667Y-107704819D02*
X158547619Y-107704819D01*
X158547619Y-107704819D02*
X158642857Y-107752438D01*
X158642857Y-107752438D02*
X158690476Y-107800057D01*
X158690476Y-107800057D02*
X158738095Y-107895295D01*
X158738095Y-107895295D02*
X158738095Y-108038152D01*
X158738095Y-108038152D02*
X158690476Y-108133390D01*
X158690476Y-108133390D02*
X158642857Y-108181009D01*
X158642857Y-108181009D02*
X158547619Y-108228628D01*
X158547619Y-108228628D02*
X158166667Y-108228628D01*
X159690476Y-108704819D02*
X159119048Y-108704819D01*
X159404762Y-108704819D02*
X159404762Y-107704819D01*
X159404762Y-107704819D02*
X159309524Y-107847676D01*
X159309524Y-107847676D02*
X159214286Y-107942914D01*
X159214286Y-107942914D02*
X159119048Y-107990533D01*
X160261905Y-108133390D02*
X160166667Y-108085771D01*
X160166667Y-108085771D02*
X160119048Y-108038152D01*
X160119048Y-108038152D02*
X160071429Y-107942914D01*
X160071429Y-107942914D02*
X160071429Y-107895295D01*
X160071429Y-107895295D02*
X160119048Y-107800057D01*
X160119048Y-107800057D02*
X160166667Y-107752438D01*
X160166667Y-107752438D02*
X160261905Y-107704819D01*
X160261905Y-107704819D02*
X160452381Y-107704819D01*
X160452381Y-107704819D02*
X160547619Y-107752438D01*
X160547619Y-107752438D02*
X160595238Y-107800057D01*
X160595238Y-107800057D02*
X160642857Y-107895295D01*
X160642857Y-107895295D02*
X160642857Y-107942914D01*
X160642857Y-107942914D02*
X160595238Y-108038152D01*
X160595238Y-108038152D02*
X160547619Y-108085771D01*
X160547619Y-108085771D02*
X160452381Y-108133390D01*
X160452381Y-108133390D02*
X160261905Y-108133390D01*
X160261905Y-108133390D02*
X160166667Y-108181009D01*
X160166667Y-108181009D02*
X160119048Y-108228628D01*
X160119048Y-108228628D02*
X160071429Y-108323866D01*
X160071429Y-108323866D02*
X160071429Y-108514342D01*
X160071429Y-108514342D02*
X160119048Y-108609580D01*
X160119048Y-108609580D02*
X160166667Y-108657200D01*
X160166667Y-108657200D02*
X160261905Y-108704819D01*
X160261905Y-108704819D02*
X160452381Y-108704819D01*
X160452381Y-108704819D02*
X160547619Y-108657200D01*
X160547619Y-108657200D02*
X160595238Y-108609580D01*
X160595238Y-108609580D02*
X160642857Y-108514342D01*
X160642857Y-108514342D02*
X160642857Y-108323866D01*
X160642857Y-108323866D02*
X160595238Y-108228628D01*
X160595238Y-108228628D02*
X160547619Y-108181009D01*
X160547619Y-108181009D02*
X160452381Y-108133390D01*
X140622142Y-94129580D02*
X140574523Y-94177200D01*
X140574523Y-94177200D02*
X140431666Y-94224819D01*
X140431666Y-94224819D02*
X140336428Y-94224819D01*
X140336428Y-94224819D02*
X140193571Y-94177200D01*
X140193571Y-94177200D02*
X140098333Y-94081961D01*
X140098333Y-94081961D02*
X140050714Y-93986723D01*
X140050714Y-93986723D02*
X140003095Y-93796247D01*
X140003095Y-93796247D02*
X140003095Y-93653390D01*
X140003095Y-93653390D02*
X140050714Y-93462914D01*
X140050714Y-93462914D02*
X140098333Y-93367676D01*
X140098333Y-93367676D02*
X140193571Y-93272438D01*
X140193571Y-93272438D02*
X140336428Y-93224819D01*
X140336428Y-93224819D02*
X140431666Y-93224819D01*
X140431666Y-93224819D02*
X140574523Y-93272438D01*
X140574523Y-93272438D02*
X140622142Y-93320057D01*
X141479285Y-93558152D02*
X141479285Y-94224819D01*
X141241190Y-93177200D02*
X141003095Y-93891485D01*
X141003095Y-93891485D02*
X141622142Y-93891485D01*
X141955476Y-93320057D02*
X142003095Y-93272438D01*
X142003095Y-93272438D02*
X142098333Y-93224819D01*
X142098333Y-93224819D02*
X142336428Y-93224819D01*
X142336428Y-93224819D02*
X142431666Y-93272438D01*
X142431666Y-93272438D02*
X142479285Y-93320057D01*
X142479285Y-93320057D02*
X142526904Y-93415295D01*
X142526904Y-93415295D02*
X142526904Y-93510533D01*
X142526904Y-93510533D02*
X142479285Y-93653390D01*
X142479285Y-93653390D02*
X141907857Y-94224819D01*
X141907857Y-94224819D02*
X142526904Y-94224819D01*
X153454819Y-114488094D02*
X153454819Y-113916666D01*
X154454819Y-114202380D02*
X153454819Y-114202380D01*
X154454819Y-113583332D02*
X153454819Y-113583332D01*
X153454819Y-113583332D02*
X153454819Y-113202380D01*
X153454819Y-113202380D02*
X153502438Y-113107142D01*
X153502438Y-113107142D02*
X153550057Y-113059523D01*
X153550057Y-113059523D02*
X153645295Y-113011904D01*
X153645295Y-113011904D02*
X153788152Y-113011904D01*
X153788152Y-113011904D02*
X153883390Y-113059523D01*
X153883390Y-113059523D02*
X153931009Y-113107142D01*
X153931009Y-113107142D02*
X153978628Y-113202380D01*
X153978628Y-113202380D02*
X153978628Y-113583332D01*
X154454819Y-112059523D02*
X154454819Y-112630951D01*
X154454819Y-112345237D02*
X153454819Y-112345237D01*
X153454819Y-112345237D02*
X153597676Y-112440475D01*
X153597676Y-112440475D02*
X153692914Y-112535713D01*
X153692914Y-112535713D02*
X153740533Y-112630951D01*
X153454819Y-111154761D02*
X153454819Y-111630951D01*
X153454819Y-111630951D02*
X153931009Y-111678570D01*
X153931009Y-111678570D02*
X153883390Y-111630951D01*
X153883390Y-111630951D02*
X153835771Y-111535713D01*
X153835771Y-111535713D02*
X153835771Y-111297618D01*
X153835771Y-111297618D02*
X153883390Y-111202380D01*
X153883390Y-111202380D02*
X153931009Y-111154761D01*
X153931009Y-111154761D02*
X154026247Y-111107142D01*
X154026247Y-111107142D02*
X154264342Y-111107142D01*
X154264342Y-111107142D02*
X154359580Y-111154761D01*
X154359580Y-111154761D02*
X154407200Y-111202380D01*
X154407200Y-111202380D02*
X154454819Y-111297618D01*
X154454819Y-111297618D02*
X154454819Y-111535713D01*
X154454819Y-111535713D02*
X154407200Y-111630951D01*
X154407200Y-111630951D02*
X154359580Y-111678570D01*
X157204819Y-104407857D02*
X157204819Y-104884047D01*
X157204819Y-104884047D02*
X156204819Y-104884047D01*
X157204819Y-103550714D02*
X157204819Y-104122142D01*
X157204819Y-103836428D02*
X156204819Y-103836428D01*
X156204819Y-103836428D02*
X156347676Y-103931666D01*
X156347676Y-103931666D02*
X156442914Y-104026904D01*
X156442914Y-104026904D02*
X156490533Y-104122142D01*
X156538152Y-102693571D02*
X157204819Y-102693571D01*
X156157200Y-102931666D02*
X156871485Y-103169761D01*
X156871485Y-103169761D02*
X156871485Y-102550714D01*
X144113095Y-100329819D02*
X144684523Y-100329819D01*
X144398809Y-101329819D02*
X144398809Y-100329819D01*
X145017857Y-101329819D02*
X145017857Y-100329819D01*
X145017857Y-100329819D02*
X145398809Y-100329819D01*
X145398809Y-100329819D02*
X145494047Y-100377438D01*
X145494047Y-100377438D02*
X145541666Y-100425057D01*
X145541666Y-100425057D02*
X145589285Y-100520295D01*
X145589285Y-100520295D02*
X145589285Y-100663152D01*
X145589285Y-100663152D02*
X145541666Y-100758390D01*
X145541666Y-100758390D02*
X145494047Y-100806009D01*
X145494047Y-100806009D02*
X145398809Y-100853628D01*
X145398809Y-100853628D02*
X145017857Y-100853628D01*
X146446428Y-100329819D02*
X146255952Y-100329819D01*
X146255952Y-100329819D02*
X146160714Y-100377438D01*
X146160714Y-100377438D02*
X146113095Y-100425057D01*
X146113095Y-100425057D02*
X146017857Y-100567914D01*
X146017857Y-100567914D02*
X145970238Y-100758390D01*
X145970238Y-100758390D02*
X145970238Y-101139342D01*
X145970238Y-101139342D02*
X146017857Y-101234580D01*
X146017857Y-101234580D02*
X146065476Y-101282200D01*
X146065476Y-101282200D02*
X146160714Y-101329819D01*
X146160714Y-101329819D02*
X146351190Y-101329819D01*
X146351190Y-101329819D02*
X146446428Y-101282200D01*
X146446428Y-101282200D02*
X146494047Y-101234580D01*
X146494047Y-101234580D02*
X146541666Y-101139342D01*
X146541666Y-101139342D02*
X146541666Y-100901247D01*
X146541666Y-100901247D02*
X146494047Y-100806009D01*
X146494047Y-100806009D02*
X146446428Y-100758390D01*
X146446428Y-100758390D02*
X146351190Y-100710771D01*
X146351190Y-100710771D02*
X146160714Y-100710771D01*
X146160714Y-100710771D02*
X146065476Y-100758390D01*
X146065476Y-100758390D02*
X146017857Y-100806009D01*
X146017857Y-100806009D02*
X145970238Y-100901247D01*
X135261905Y-94704819D02*
X135833333Y-94704819D01*
X135547619Y-95704819D02*
X135547619Y-94704819D01*
X136166667Y-95704819D02*
X136166667Y-94704819D01*
X136166667Y-94704819D02*
X136547619Y-94704819D01*
X136547619Y-94704819D02*
X136642857Y-94752438D01*
X136642857Y-94752438D02*
X136690476Y-94800057D01*
X136690476Y-94800057D02*
X136738095Y-94895295D01*
X136738095Y-94895295D02*
X136738095Y-95038152D01*
X136738095Y-95038152D02*
X136690476Y-95133390D01*
X136690476Y-95133390D02*
X136642857Y-95181009D01*
X136642857Y-95181009D02*
X136547619Y-95228628D01*
X136547619Y-95228628D02*
X136166667Y-95228628D01*
X137690476Y-95704819D02*
X137119048Y-95704819D01*
X137404762Y-95704819D02*
X137404762Y-94704819D01*
X137404762Y-94704819D02*
X137309524Y-94847676D01*
X137309524Y-94847676D02*
X137214286Y-94942914D01*
X137214286Y-94942914D02*
X137119048Y-94990533D01*
X138547619Y-95038152D02*
X138547619Y-95704819D01*
X138309524Y-94657200D02*
X138071429Y-95371485D01*
X138071429Y-95371485D02*
X138690476Y-95371485D01*
X149954819Y-88988094D02*
X149954819Y-88416666D01*
X150954819Y-88702380D02*
X149954819Y-88702380D01*
X150954819Y-88083332D02*
X149954819Y-88083332D01*
X149954819Y-88083332D02*
X149954819Y-87702380D01*
X149954819Y-87702380D02*
X150002438Y-87607142D01*
X150002438Y-87607142D02*
X150050057Y-87559523D01*
X150050057Y-87559523D02*
X150145295Y-87511904D01*
X150145295Y-87511904D02*
X150288152Y-87511904D01*
X150288152Y-87511904D02*
X150383390Y-87559523D01*
X150383390Y-87559523D02*
X150431009Y-87607142D01*
X150431009Y-87607142D02*
X150478628Y-87702380D01*
X150478628Y-87702380D02*
X150478628Y-88083332D01*
X150050057Y-87130951D02*
X150002438Y-87083332D01*
X150002438Y-87083332D02*
X149954819Y-86988094D01*
X149954819Y-86988094D02*
X149954819Y-86749999D01*
X149954819Y-86749999D02*
X150002438Y-86654761D01*
X150002438Y-86654761D02*
X150050057Y-86607142D01*
X150050057Y-86607142D02*
X150145295Y-86559523D01*
X150145295Y-86559523D02*
X150240533Y-86559523D01*
X150240533Y-86559523D02*
X150383390Y-86607142D01*
X150383390Y-86607142D02*
X150954819Y-87178570D01*
X150954819Y-87178570D02*
X150954819Y-86559523D01*
X150954819Y-85607142D02*
X150954819Y-86178570D01*
X150954819Y-85892856D02*
X149954819Y-85892856D01*
X149954819Y-85892856D02*
X150097676Y-85988094D01*
X150097676Y-85988094D02*
X150192914Y-86083332D01*
X150192914Y-86083332D02*
X150240533Y-86178570D01*
X139238095Y-88704819D02*
X139809523Y-88704819D01*
X139523809Y-89704819D02*
X139523809Y-88704819D01*
X140142857Y-89704819D02*
X140142857Y-88704819D01*
X140142857Y-88704819D02*
X140523809Y-88704819D01*
X140523809Y-88704819D02*
X140619047Y-88752438D01*
X140619047Y-88752438D02*
X140666666Y-88800057D01*
X140666666Y-88800057D02*
X140714285Y-88895295D01*
X140714285Y-88895295D02*
X140714285Y-89038152D01*
X140714285Y-89038152D02*
X140666666Y-89133390D01*
X140666666Y-89133390D02*
X140619047Y-89181009D01*
X140619047Y-89181009D02*
X140523809Y-89228628D01*
X140523809Y-89228628D02*
X140142857Y-89228628D01*
X141571428Y-89038152D02*
X141571428Y-89704819D01*
X141333333Y-88657200D02*
X141095238Y-89371485D01*
X141095238Y-89371485D02*
X141714285Y-89371485D01*
X140638095Y-117954819D02*
X141209523Y-117954819D01*
X140923809Y-118954819D02*
X140923809Y-117954819D01*
X141542857Y-118954819D02*
X141542857Y-117954819D01*
X141542857Y-117954819D02*
X141923809Y-117954819D01*
X141923809Y-117954819D02*
X142019047Y-118002438D01*
X142019047Y-118002438D02*
X142066666Y-118050057D01*
X142066666Y-118050057D02*
X142114285Y-118145295D01*
X142114285Y-118145295D02*
X142114285Y-118288152D01*
X142114285Y-118288152D02*
X142066666Y-118383390D01*
X142066666Y-118383390D02*
X142019047Y-118431009D01*
X142019047Y-118431009D02*
X141923809Y-118478628D01*
X141923809Y-118478628D02*
X141542857Y-118478628D01*
X142447619Y-117954819D02*
X143066666Y-117954819D01*
X143066666Y-117954819D02*
X142733333Y-118335771D01*
X142733333Y-118335771D02*
X142876190Y-118335771D01*
X142876190Y-118335771D02*
X142971428Y-118383390D01*
X142971428Y-118383390D02*
X143019047Y-118431009D01*
X143019047Y-118431009D02*
X143066666Y-118526247D01*
X143066666Y-118526247D02*
X143066666Y-118764342D01*
X143066666Y-118764342D02*
X143019047Y-118859580D01*
X143019047Y-118859580D02*
X142971428Y-118907200D01*
X142971428Y-118907200D02*
X142876190Y-118954819D01*
X142876190Y-118954819D02*
X142590476Y-118954819D01*
X142590476Y-118954819D02*
X142495238Y-118907200D01*
X142495238Y-118907200D02*
X142447619Y-118859580D01*
X147232142Y-100329819D02*
X146898809Y-99853628D01*
X146660714Y-100329819D02*
X146660714Y-99329819D01*
X146660714Y-99329819D02*
X147041666Y-99329819D01*
X147041666Y-99329819D02*
X147136904Y-99377438D01*
X147136904Y-99377438D02*
X147184523Y-99425057D01*
X147184523Y-99425057D02*
X147232142Y-99520295D01*
X147232142Y-99520295D02*
X147232142Y-99663152D01*
X147232142Y-99663152D02*
X147184523Y-99758390D01*
X147184523Y-99758390D02*
X147136904Y-99806009D01*
X147136904Y-99806009D02*
X147041666Y-99853628D01*
X147041666Y-99853628D02*
X146660714Y-99853628D01*
X148184523Y-100329819D02*
X147613095Y-100329819D01*
X147898809Y-100329819D02*
X147898809Y-99329819D01*
X147898809Y-99329819D02*
X147803571Y-99472676D01*
X147803571Y-99472676D02*
X147708333Y-99567914D01*
X147708333Y-99567914D02*
X147613095Y-99615533D01*
X149089285Y-99329819D02*
X148613095Y-99329819D01*
X148613095Y-99329819D02*
X148565476Y-99806009D01*
X148565476Y-99806009D02*
X148613095Y-99758390D01*
X148613095Y-99758390D02*
X148708333Y-99710771D01*
X148708333Y-99710771D02*
X148946428Y-99710771D01*
X148946428Y-99710771D02*
X149041666Y-99758390D01*
X149041666Y-99758390D02*
X149089285Y-99806009D01*
X149089285Y-99806009D02*
X149136904Y-99901247D01*
X149136904Y-99901247D02*
X149136904Y-100139342D01*
X149136904Y-100139342D02*
X149089285Y-100234580D01*
X149089285Y-100234580D02*
X149041666Y-100282200D01*
X149041666Y-100282200D02*
X148946428Y-100329819D01*
X148946428Y-100329819D02*
X148708333Y-100329819D01*
X148708333Y-100329819D02*
X148613095Y-100282200D01*
X148613095Y-100282200D02*
X148565476Y-100234580D01*
X144954819Y-103511904D02*
X145764342Y-103511904D01*
X145764342Y-103511904D02*
X145859580Y-103464285D01*
X145859580Y-103464285D02*
X145907200Y-103416666D01*
X145907200Y-103416666D02*
X145954819Y-103321428D01*
X145954819Y-103321428D02*
X145954819Y-103130952D01*
X145954819Y-103130952D02*
X145907200Y-103035714D01*
X145907200Y-103035714D02*
X145859580Y-102988095D01*
X145859580Y-102988095D02*
X145764342Y-102940476D01*
X145764342Y-102940476D02*
X144954819Y-102940476D01*
X144954819Y-102559523D02*
X144954819Y-101940476D01*
X144954819Y-101940476D02*
X145335771Y-102273809D01*
X145335771Y-102273809D02*
X145335771Y-102130952D01*
X145335771Y-102130952D02*
X145383390Y-102035714D01*
X145383390Y-102035714D02*
X145431009Y-101988095D01*
X145431009Y-101988095D02*
X145526247Y-101940476D01*
X145526247Y-101940476D02*
X145764342Y-101940476D01*
X145764342Y-101940476D02*
X145859580Y-101988095D01*
X145859580Y-101988095D02*
X145907200Y-102035714D01*
X145907200Y-102035714D02*
X145954819Y-102130952D01*
X145954819Y-102130952D02*
X145954819Y-102416666D01*
X145954819Y-102416666D02*
X145907200Y-102511904D01*
X145907200Y-102511904D02*
X145859580Y-102559523D01*
X147357142Y-96484580D02*
X147309523Y-96532200D01*
X147309523Y-96532200D02*
X147166666Y-96579819D01*
X147166666Y-96579819D02*
X147071428Y-96579819D01*
X147071428Y-96579819D02*
X146928571Y-96532200D01*
X146928571Y-96532200D02*
X146833333Y-96436961D01*
X146833333Y-96436961D02*
X146785714Y-96341723D01*
X146785714Y-96341723D02*
X146738095Y-96151247D01*
X146738095Y-96151247D02*
X146738095Y-96008390D01*
X146738095Y-96008390D02*
X146785714Y-95817914D01*
X146785714Y-95817914D02*
X146833333Y-95722676D01*
X146833333Y-95722676D02*
X146928571Y-95627438D01*
X146928571Y-95627438D02*
X147071428Y-95579819D01*
X147071428Y-95579819D02*
X147166666Y-95579819D01*
X147166666Y-95579819D02*
X147309523Y-95627438D01*
X147309523Y-95627438D02*
X147357142Y-95675057D01*
X148261904Y-95579819D02*
X147785714Y-95579819D01*
X147785714Y-95579819D02*
X147738095Y-96056009D01*
X147738095Y-96056009D02*
X147785714Y-96008390D01*
X147785714Y-96008390D02*
X147880952Y-95960771D01*
X147880952Y-95960771D02*
X148119047Y-95960771D01*
X148119047Y-95960771D02*
X148214285Y-96008390D01*
X148214285Y-96008390D02*
X148261904Y-96056009D01*
X148261904Y-96056009D02*
X148309523Y-96151247D01*
X148309523Y-96151247D02*
X148309523Y-96389342D01*
X148309523Y-96389342D02*
X148261904Y-96484580D01*
X148261904Y-96484580D02*
X148214285Y-96532200D01*
X148214285Y-96532200D02*
X148119047Y-96579819D01*
X148119047Y-96579819D02*
X147880952Y-96579819D01*
X147880952Y-96579819D02*
X147785714Y-96532200D01*
X147785714Y-96532200D02*
X147738095Y-96484580D01*
X149261904Y-96579819D02*
X148690476Y-96579819D01*
X148976190Y-96579819D02*
X148976190Y-95579819D01*
X148976190Y-95579819D02*
X148880952Y-95722676D01*
X148880952Y-95722676D02*
X148785714Y-95817914D01*
X148785714Y-95817914D02*
X148690476Y-95865533D01*
X160609580Y-104657857D02*
X160657200Y-104705476D01*
X160657200Y-104705476D02*
X160704819Y-104848333D01*
X160704819Y-104848333D02*
X160704819Y-104943571D01*
X160704819Y-104943571D02*
X160657200Y-105086428D01*
X160657200Y-105086428D02*
X160561961Y-105181666D01*
X160561961Y-105181666D02*
X160466723Y-105229285D01*
X160466723Y-105229285D02*
X160276247Y-105276904D01*
X160276247Y-105276904D02*
X160133390Y-105276904D01*
X160133390Y-105276904D02*
X159942914Y-105229285D01*
X159942914Y-105229285D02*
X159847676Y-105181666D01*
X159847676Y-105181666D02*
X159752438Y-105086428D01*
X159752438Y-105086428D02*
X159704819Y-104943571D01*
X159704819Y-104943571D02*
X159704819Y-104848333D01*
X159704819Y-104848333D02*
X159752438Y-104705476D01*
X159752438Y-104705476D02*
X159800057Y-104657857D01*
X159704819Y-103800714D02*
X159704819Y-103991190D01*
X159704819Y-103991190D02*
X159752438Y-104086428D01*
X159752438Y-104086428D02*
X159800057Y-104134047D01*
X159800057Y-104134047D02*
X159942914Y-104229285D01*
X159942914Y-104229285D02*
X160133390Y-104276904D01*
X160133390Y-104276904D02*
X160514342Y-104276904D01*
X160514342Y-104276904D02*
X160609580Y-104229285D01*
X160609580Y-104229285D02*
X160657200Y-104181666D01*
X160657200Y-104181666D02*
X160704819Y-104086428D01*
X160704819Y-104086428D02*
X160704819Y-103895952D01*
X160704819Y-103895952D02*
X160657200Y-103800714D01*
X160657200Y-103800714D02*
X160609580Y-103753095D01*
X160609580Y-103753095D02*
X160514342Y-103705476D01*
X160514342Y-103705476D02*
X160276247Y-103705476D01*
X160276247Y-103705476D02*
X160181009Y-103753095D01*
X160181009Y-103753095D02*
X160133390Y-103800714D01*
X160133390Y-103800714D02*
X160085771Y-103895952D01*
X160085771Y-103895952D02*
X160085771Y-104086428D01*
X160085771Y-104086428D02*
X160133390Y-104181666D01*
X160133390Y-104181666D02*
X160181009Y-104229285D01*
X160181009Y-104229285D02*
X160276247Y-104276904D01*
X159704819Y-102800714D02*
X159704819Y-103276904D01*
X159704819Y-103276904D02*
X160181009Y-103324523D01*
X160181009Y-103324523D02*
X160133390Y-103276904D01*
X160133390Y-103276904D02*
X160085771Y-103181666D01*
X160085771Y-103181666D02*
X160085771Y-102943571D01*
X160085771Y-102943571D02*
X160133390Y-102848333D01*
X160133390Y-102848333D02*
X160181009Y-102800714D01*
X160181009Y-102800714D02*
X160276247Y-102753095D01*
X160276247Y-102753095D02*
X160514342Y-102753095D01*
X160514342Y-102753095D02*
X160609580Y-102800714D01*
X160609580Y-102800714D02*
X160657200Y-102848333D01*
X160657200Y-102848333D02*
X160704819Y-102943571D01*
X160704819Y-102943571D02*
X160704819Y-103181666D01*
X160704819Y-103181666D02*
X160657200Y-103276904D01*
X160657200Y-103276904D02*
X160609580Y-103324523D01*
X154172080Y-88342857D02*
X154219700Y-88390476D01*
X154219700Y-88390476D02*
X154267319Y-88533333D01*
X154267319Y-88533333D02*
X154267319Y-88628571D01*
X154267319Y-88628571D02*
X154219700Y-88771428D01*
X154219700Y-88771428D02*
X154124461Y-88866666D01*
X154124461Y-88866666D02*
X154029223Y-88914285D01*
X154029223Y-88914285D02*
X153838747Y-88961904D01*
X153838747Y-88961904D02*
X153695890Y-88961904D01*
X153695890Y-88961904D02*
X153505414Y-88914285D01*
X153505414Y-88914285D02*
X153410176Y-88866666D01*
X153410176Y-88866666D02*
X153314938Y-88771428D01*
X153314938Y-88771428D02*
X153267319Y-88628571D01*
X153267319Y-88628571D02*
X153267319Y-88533333D01*
X153267319Y-88533333D02*
X153314938Y-88390476D01*
X153314938Y-88390476D02*
X153362557Y-88342857D01*
X153267319Y-87438095D02*
X153267319Y-87914285D01*
X153267319Y-87914285D02*
X153743509Y-87961904D01*
X153743509Y-87961904D02*
X153695890Y-87914285D01*
X153695890Y-87914285D02*
X153648271Y-87819047D01*
X153648271Y-87819047D02*
X153648271Y-87580952D01*
X153648271Y-87580952D02*
X153695890Y-87485714D01*
X153695890Y-87485714D02*
X153743509Y-87438095D01*
X153743509Y-87438095D02*
X153838747Y-87390476D01*
X153838747Y-87390476D02*
X154076842Y-87390476D01*
X154076842Y-87390476D02*
X154172080Y-87438095D01*
X154172080Y-87438095D02*
X154219700Y-87485714D01*
X154219700Y-87485714D02*
X154267319Y-87580952D01*
X154267319Y-87580952D02*
X154267319Y-87819047D01*
X154267319Y-87819047D02*
X154219700Y-87914285D01*
X154219700Y-87914285D02*
X154172080Y-87961904D01*
X153267319Y-87057142D02*
X153267319Y-86438095D01*
X153267319Y-86438095D02*
X153648271Y-86771428D01*
X153648271Y-86771428D02*
X153648271Y-86628571D01*
X153648271Y-86628571D02*
X153695890Y-86533333D01*
X153695890Y-86533333D02*
X153743509Y-86485714D01*
X153743509Y-86485714D02*
X153838747Y-86438095D01*
X153838747Y-86438095D02*
X154076842Y-86438095D01*
X154076842Y-86438095D02*
X154172080Y-86485714D01*
X154172080Y-86485714D02*
X154219700Y-86533333D01*
X154219700Y-86533333D02*
X154267319Y-86628571D01*
X154267319Y-86628571D02*
X154267319Y-86914285D01*
X154267319Y-86914285D02*
X154219700Y-87009523D01*
X154219700Y-87009523D02*
X154172080Y-87057142D01*
X139738095Y-90204819D02*
X140309523Y-90204819D01*
X140023809Y-91204819D02*
X140023809Y-90204819D01*
X140642857Y-91204819D02*
X140642857Y-90204819D01*
X140642857Y-90204819D02*
X141023809Y-90204819D01*
X141023809Y-90204819D02*
X141119047Y-90252438D01*
X141119047Y-90252438D02*
X141166666Y-90300057D01*
X141166666Y-90300057D02*
X141214285Y-90395295D01*
X141214285Y-90395295D02*
X141214285Y-90538152D01*
X141214285Y-90538152D02*
X141166666Y-90633390D01*
X141166666Y-90633390D02*
X141119047Y-90681009D01*
X141119047Y-90681009D02*
X141023809Y-90728628D01*
X141023809Y-90728628D02*
X140642857Y-90728628D01*
X142119047Y-90204819D02*
X141642857Y-90204819D01*
X141642857Y-90204819D02*
X141595238Y-90681009D01*
X141595238Y-90681009D02*
X141642857Y-90633390D01*
X141642857Y-90633390D02*
X141738095Y-90585771D01*
X141738095Y-90585771D02*
X141976190Y-90585771D01*
X141976190Y-90585771D02*
X142071428Y-90633390D01*
X142071428Y-90633390D02*
X142119047Y-90681009D01*
X142119047Y-90681009D02*
X142166666Y-90776247D01*
X142166666Y-90776247D02*
X142166666Y-91014342D01*
X142166666Y-91014342D02*
X142119047Y-91109580D01*
X142119047Y-91109580D02*
X142071428Y-91157200D01*
X142071428Y-91157200D02*
X141976190Y-91204819D01*
X141976190Y-91204819D02*
X141738095Y-91204819D01*
X141738095Y-91204819D02*
X141642857Y-91157200D01*
X141642857Y-91157200D02*
X141595238Y-91109580D01*
X159357142Y-99859580D02*
X159309523Y-99907200D01*
X159309523Y-99907200D02*
X159166666Y-99954819D01*
X159166666Y-99954819D02*
X159071428Y-99954819D01*
X159071428Y-99954819D02*
X158928571Y-99907200D01*
X158928571Y-99907200D02*
X158833333Y-99811961D01*
X158833333Y-99811961D02*
X158785714Y-99716723D01*
X158785714Y-99716723D02*
X158738095Y-99526247D01*
X158738095Y-99526247D02*
X158738095Y-99383390D01*
X158738095Y-99383390D02*
X158785714Y-99192914D01*
X158785714Y-99192914D02*
X158833333Y-99097676D01*
X158833333Y-99097676D02*
X158928571Y-99002438D01*
X158928571Y-99002438D02*
X159071428Y-98954819D01*
X159071428Y-98954819D02*
X159166666Y-98954819D01*
X159166666Y-98954819D02*
X159309523Y-99002438D01*
X159309523Y-99002438D02*
X159357142Y-99050057D01*
X160261904Y-98954819D02*
X159785714Y-98954819D01*
X159785714Y-98954819D02*
X159738095Y-99431009D01*
X159738095Y-99431009D02*
X159785714Y-99383390D01*
X159785714Y-99383390D02*
X159880952Y-99335771D01*
X159880952Y-99335771D02*
X160119047Y-99335771D01*
X160119047Y-99335771D02*
X160214285Y-99383390D01*
X160214285Y-99383390D02*
X160261904Y-99431009D01*
X160261904Y-99431009D02*
X160309523Y-99526247D01*
X160309523Y-99526247D02*
X160309523Y-99764342D01*
X160309523Y-99764342D02*
X160261904Y-99859580D01*
X160261904Y-99859580D02*
X160214285Y-99907200D01*
X160214285Y-99907200D02*
X160119047Y-99954819D01*
X160119047Y-99954819D02*
X159880952Y-99954819D01*
X159880952Y-99954819D02*
X159785714Y-99907200D01*
X159785714Y-99907200D02*
X159738095Y-99859580D01*
X160642857Y-98954819D02*
X161309523Y-98954819D01*
X161309523Y-98954819D02*
X160880952Y-99954819D01*
X154204819Y-110738094D02*
X154204819Y-110166666D01*
X155204819Y-110452380D02*
X154204819Y-110452380D01*
X155204819Y-109833332D02*
X154204819Y-109833332D01*
X154204819Y-109833332D02*
X154204819Y-109452380D01*
X154204819Y-109452380D02*
X154252438Y-109357142D01*
X154252438Y-109357142D02*
X154300057Y-109309523D01*
X154300057Y-109309523D02*
X154395295Y-109261904D01*
X154395295Y-109261904D02*
X154538152Y-109261904D01*
X154538152Y-109261904D02*
X154633390Y-109309523D01*
X154633390Y-109309523D02*
X154681009Y-109357142D01*
X154681009Y-109357142D02*
X154728628Y-109452380D01*
X154728628Y-109452380D02*
X154728628Y-109833332D01*
X155204819Y-108309523D02*
X155204819Y-108880951D01*
X155204819Y-108595237D02*
X154204819Y-108595237D01*
X154204819Y-108595237D02*
X154347676Y-108690475D01*
X154347676Y-108690475D02*
X154442914Y-108785713D01*
X154442914Y-108785713D02*
X154490533Y-108880951D01*
X154204819Y-107976189D02*
X154204819Y-107357142D01*
X154204819Y-107357142D02*
X154585771Y-107690475D01*
X154585771Y-107690475D02*
X154585771Y-107547618D01*
X154585771Y-107547618D02*
X154633390Y-107452380D01*
X154633390Y-107452380D02*
X154681009Y-107404761D01*
X154681009Y-107404761D02*
X154776247Y-107357142D01*
X154776247Y-107357142D02*
X155014342Y-107357142D01*
X155014342Y-107357142D02*
X155109580Y-107404761D01*
X155109580Y-107404761D02*
X155157200Y-107452380D01*
X155157200Y-107452380D02*
X155204819Y-107547618D01*
X155204819Y-107547618D02*
X155204819Y-107833332D01*
X155204819Y-107833332D02*
X155157200Y-107928570D01*
X155157200Y-107928570D02*
X155109580Y-107976189D01*
X146982142Y-107359580D02*
X146934523Y-107407200D01*
X146934523Y-107407200D02*
X146791666Y-107454819D01*
X146791666Y-107454819D02*
X146696428Y-107454819D01*
X146696428Y-107454819D02*
X146553571Y-107407200D01*
X146553571Y-107407200D02*
X146458333Y-107311961D01*
X146458333Y-107311961D02*
X146410714Y-107216723D01*
X146410714Y-107216723D02*
X146363095Y-107026247D01*
X146363095Y-107026247D02*
X146363095Y-106883390D01*
X146363095Y-106883390D02*
X146410714Y-106692914D01*
X146410714Y-106692914D02*
X146458333Y-106597676D01*
X146458333Y-106597676D02*
X146553571Y-106502438D01*
X146553571Y-106502438D02*
X146696428Y-106454819D01*
X146696428Y-106454819D02*
X146791666Y-106454819D01*
X146791666Y-106454819D02*
X146934523Y-106502438D01*
X146934523Y-106502438D02*
X146982142Y-106550057D01*
X147934523Y-107454819D02*
X147363095Y-107454819D01*
X147648809Y-107454819D02*
X147648809Y-106454819D01*
X147648809Y-106454819D02*
X147553571Y-106597676D01*
X147553571Y-106597676D02*
X147458333Y-106692914D01*
X147458333Y-106692914D02*
X147363095Y-106740533D01*
X148505952Y-106883390D02*
X148410714Y-106835771D01*
X148410714Y-106835771D02*
X148363095Y-106788152D01*
X148363095Y-106788152D02*
X148315476Y-106692914D01*
X148315476Y-106692914D02*
X148315476Y-106645295D01*
X148315476Y-106645295D02*
X148363095Y-106550057D01*
X148363095Y-106550057D02*
X148410714Y-106502438D01*
X148410714Y-106502438D02*
X148505952Y-106454819D01*
X148505952Y-106454819D02*
X148696428Y-106454819D01*
X148696428Y-106454819D02*
X148791666Y-106502438D01*
X148791666Y-106502438D02*
X148839285Y-106550057D01*
X148839285Y-106550057D02*
X148886904Y-106645295D01*
X148886904Y-106645295D02*
X148886904Y-106692914D01*
X148886904Y-106692914D02*
X148839285Y-106788152D01*
X148839285Y-106788152D02*
X148791666Y-106835771D01*
X148791666Y-106835771D02*
X148696428Y-106883390D01*
X148696428Y-106883390D02*
X148505952Y-106883390D01*
X148505952Y-106883390D02*
X148410714Y-106931009D01*
X148410714Y-106931009D02*
X148363095Y-106978628D01*
X148363095Y-106978628D02*
X148315476Y-107073866D01*
X148315476Y-107073866D02*
X148315476Y-107264342D01*
X148315476Y-107264342D02*
X148363095Y-107359580D01*
X148363095Y-107359580D02*
X148410714Y-107407200D01*
X148410714Y-107407200D02*
X148505952Y-107454819D01*
X148505952Y-107454819D02*
X148696428Y-107454819D01*
X148696428Y-107454819D02*
X148791666Y-107407200D01*
X148791666Y-107407200D02*
X148839285Y-107359580D01*
X148839285Y-107359580D02*
X148886904Y-107264342D01*
X148886904Y-107264342D02*
X148886904Y-107073866D01*
X148886904Y-107073866D02*
X148839285Y-106978628D01*
X148839285Y-106978628D02*
X148791666Y-106931009D01*
X148791666Y-106931009D02*
X148696428Y-106883390D01*
X147607142Y-89109580D02*
X147559523Y-89157200D01*
X147559523Y-89157200D02*
X147416666Y-89204819D01*
X147416666Y-89204819D02*
X147321428Y-89204819D01*
X147321428Y-89204819D02*
X147178571Y-89157200D01*
X147178571Y-89157200D02*
X147083333Y-89061961D01*
X147083333Y-89061961D02*
X147035714Y-88966723D01*
X147035714Y-88966723D02*
X146988095Y-88776247D01*
X146988095Y-88776247D02*
X146988095Y-88633390D01*
X146988095Y-88633390D02*
X147035714Y-88442914D01*
X147035714Y-88442914D02*
X147083333Y-88347676D01*
X147083333Y-88347676D02*
X147178571Y-88252438D01*
X147178571Y-88252438D02*
X147321428Y-88204819D01*
X147321428Y-88204819D02*
X147416666Y-88204819D01*
X147416666Y-88204819D02*
X147559523Y-88252438D01*
X147559523Y-88252438D02*
X147607142Y-88300057D01*
X148464285Y-88204819D02*
X148273809Y-88204819D01*
X148273809Y-88204819D02*
X148178571Y-88252438D01*
X148178571Y-88252438D02*
X148130952Y-88300057D01*
X148130952Y-88300057D02*
X148035714Y-88442914D01*
X148035714Y-88442914D02*
X147988095Y-88633390D01*
X147988095Y-88633390D02*
X147988095Y-89014342D01*
X147988095Y-89014342D02*
X148035714Y-89109580D01*
X148035714Y-89109580D02*
X148083333Y-89157200D01*
X148083333Y-89157200D02*
X148178571Y-89204819D01*
X148178571Y-89204819D02*
X148369047Y-89204819D01*
X148369047Y-89204819D02*
X148464285Y-89157200D01*
X148464285Y-89157200D02*
X148511904Y-89109580D01*
X148511904Y-89109580D02*
X148559523Y-89014342D01*
X148559523Y-89014342D02*
X148559523Y-88776247D01*
X148559523Y-88776247D02*
X148511904Y-88681009D01*
X148511904Y-88681009D02*
X148464285Y-88633390D01*
X148464285Y-88633390D02*
X148369047Y-88585771D01*
X148369047Y-88585771D02*
X148178571Y-88585771D01*
X148178571Y-88585771D02*
X148083333Y-88633390D01*
X148083333Y-88633390D02*
X148035714Y-88681009D01*
X148035714Y-88681009D02*
X147988095Y-88776247D01*
X149416666Y-88538152D02*
X149416666Y-89204819D01*
X149178571Y-88157200D02*
X148940476Y-88871485D01*
X148940476Y-88871485D02*
X149559523Y-88871485D01*
X139732142Y-109609580D02*
X139684523Y-109657200D01*
X139684523Y-109657200D02*
X139541666Y-109704819D01*
X139541666Y-109704819D02*
X139446428Y-109704819D01*
X139446428Y-109704819D02*
X139303571Y-109657200D01*
X139303571Y-109657200D02*
X139208333Y-109561961D01*
X139208333Y-109561961D02*
X139160714Y-109466723D01*
X139160714Y-109466723D02*
X139113095Y-109276247D01*
X139113095Y-109276247D02*
X139113095Y-109133390D01*
X139113095Y-109133390D02*
X139160714Y-108942914D01*
X139160714Y-108942914D02*
X139208333Y-108847676D01*
X139208333Y-108847676D02*
X139303571Y-108752438D01*
X139303571Y-108752438D02*
X139446428Y-108704819D01*
X139446428Y-108704819D02*
X139541666Y-108704819D01*
X139541666Y-108704819D02*
X139684523Y-108752438D01*
X139684523Y-108752438D02*
X139732142Y-108800057D01*
X140684523Y-109704819D02*
X140113095Y-109704819D01*
X140398809Y-109704819D02*
X140398809Y-108704819D01*
X140398809Y-108704819D02*
X140303571Y-108847676D01*
X140303571Y-108847676D02*
X140208333Y-108942914D01*
X140208333Y-108942914D02*
X140113095Y-108990533D01*
X141541666Y-109038152D02*
X141541666Y-109704819D01*
X141303571Y-108657200D02*
X141065476Y-109371485D01*
X141065476Y-109371485D02*
X141684523Y-109371485D01*
X161617142Y-93634580D02*
X161569523Y-93682200D01*
X161569523Y-93682200D02*
X161426666Y-93729819D01*
X161426666Y-93729819D02*
X161331428Y-93729819D01*
X161331428Y-93729819D02*
X161188571Y-93682200D01*
X161188571Y-93682200D02*
X161093333Y-93586961D01*
X161093333Y-93586961D02*
X161045714Y-93491723D01*
X161045714Y-93491723D02*
X160998095Y-93301247D01*
X160998095Y-93301247D02*
X160998095Y-93158390D01*
X160998095Y-93158390D02*
X161045714Y-92967914D01*
X161045714Y-92967914D02*
X161093333Y-92872676D01*
X161093333Y-92872676D02*
X161188571Y-92777438D01*
X161188571Y-92777438D02*
X161331428Y-92729819D01*
X161331428Y-92729819D02*
X161426666Y-92729819D01*
X161426666Y-92729819D02*
X161569523Y-92777438D01*
X161569523Y-92777438D02*
X161617142Y-92825057D01*
X162521904Y-92729819D02*
X162045714Y-92729819D01*
X162045714Y-92729819D02*
X161998095Y-93206009D01*
X161998095Y-93206009D02*
X162045714Y-93158390D01*
X162045714Y-93158390D02*
X162140952Y-93110771D01*
X162140952Y-93110771D02*
X162379047Y-93110771D01*
X162379047Y-93110771D02*
X162474285Y-93158390D01*
X162474285Y-93158390D02*
X162521904Y-93206009D01*
X162521904Y-93206009D02*
X162569523Y-93301247D01*
X162569523Y-93301247D02*
X162569523Y-93539342D01*
X162569523Y-93539342D02*
X162521904Y-93634580D01*
X162521904Y-93634580D02*
X162474285Y-93682200D01*
X162474285Y-93682200D02*
X162379047Y-93729819D01*
X162379047Y-93729819D02*
X162140952Y-93729819D01*
X162140952Y-93729819D02*
X162045714Y-93682200D01*
X162045714Y-93682200D02*
X161998095Y-93634580D01*
X163426666Y-92729819D02*
X163236190Y-92729819D01*
X163236190Y-92729819D02*
X163140952Y-92777438D01*
X163140952Y-92777438D02*
X163093333Y-92825057D01*
X163093333Y-92825057D02*
X162998095Y-92967914D01*
X162998095Y-92967914D02*
X162950476Y-93158390D01*
X162950476Y-93158390D02*
X162950476Y-93539342D01*
X162950476Y-93539342D02*
X162998095Y-93634580D01*
X162998095Y-93634580D02*
X163045714Y-93682200D01*
X163045714Y-93682200D02*
X163140952Y-93729819D01*
X163140952Y-93729819D02*
X163331428Y-93729819D01*
X163331428Y-93729819D02*
X163426666Y-93682200D01*
X163426666Y-93682200D02*
X163474285Y-93634580D01*
X163474285Y-93634580D02*
X163521904Y-93539342D01*
X163521904Y-93539342D02*
X163521904Y-93301247D01*
X163521904Y-93301247D02*
X163474285Y-93206009D01*
X163474285Y-93206009D02*
X163426666Y-93158390D01*
X163426666Y-93158390D02*
X163331428Y-93110771D01*
X163331428Y-93110771D02*
X163140952Y-93110771D01*
X163140952Y-93110771D02*
X163045714Y-93158390D01*
X163045714Y-93158390D02*
X162998095Y-93206009D01*
X162998095Y-93206009D02*
X162950476Y-93301247D01*
X151982142Y-104109580D02*
X151934523Y-104157200D01*
X151934523Y-104157200D02*
X151791666Y-104204819D01*
X151791666Y-104204819D02*
X151696428Y-104204819D01*
X151696428Y-104204819D02*
X151553571Y-104157200D01*
X151553571Y-104157200D02*
X151458333Y-104061961D01*
X151458333Y-104061961D02*
X151410714Y-103966723D01*
X151410714Y-103966723D02*
X151363095Y-103776247D01*
X151363095Y-103776247D02*
X151363095Y-103633390D01*
X151363095Y-103633390D02*
X151410714Y-103442914D01*
X151410714Y-103442914D02*
X151458333Y-103347676D01*
X151458333Y-103347676D02*
X151553571Y-103252438D01*
X151553571Y-103252438D02*
X151696428Y-103204819D01*
X151696428Y-103204819D02*
X151791666Y-103204819D01*
X151791666Y-103204819D02*
X151934523Y-103252438D01*
X151934523Y-103252438D02*
X151982142Y-103300057D01*
X152839285Y-103204819D02*
X152648809Y-103204819D01*
X152648809Y-103204819D02*
X152553571Y-103252438D01*
X152553571Y-103252438D02*
X152505952Y-103300057D01*
X152505952Y-103300057D02*
X152410714Y-103442914D01*
X152410714Y-103442914D02*
X152363095Y-103633390D01*
X152363095Y-103633390D02*
X152363095Y-104014342D01*
X152363095Y-104014342D02*
X152410714Y-104109580D01*
X152410714Y-104109580D02*
X152458333Y-104157200D01*
X152458333Y-104157200D02*
X152553571Y-104204819D01*
X152553571Y-104204819D02*
X152744047Y-104204819D01*
X152744047Y-104204819D02*
X152839285Y-104157200D01*
X152839285Y-104157200D02*
X152886904Y-104109580D01*
X152886904Y-104109580D02*
X152934523Y-104014342D01*
X152934523Y-104014342D02*
X152934523Y-103776247D01*
X152934523Y-103776247D02*
X152886904Y-103681009D01*
X152886904Y-103681009D02*
X152839285Y-103633390D01*
X152839285Y-103633390D02*
X152744047Y-103585771D01*
X152744047Y-103585771D02*
X152553571Y-103585771D01*
X152553571Y-103585771D02*
X152458333Y-103633390D01*
X152458333Y-103633390D02*
X152410714Y-103681009D01*
X152410714Y-103681009D02*
X152363095Y-103776247D01*
X153315476Y-103300057D02*
X153363095Y-103252438D01*
X153363095Y-103252438D02*
X153458333Y-103204819D01*
X153458333Y-103204819D02*
X153696428Y-103204819D01*
X153696428Y-103204819D02*
X153791666Y-103252438D01*
X153791666Y-103252438D02*
X153839285Y-103300057D01*
X153839285Y-103300057D02*
X153886904Y-103395295D01*
X153886904Y-103395295D02*
X153886904Y-103490533D01*
X153886904Y-103490533D02*
X153839285Y-103633390D01*
X153839285Y-103633390D02*
X153267857Y-104204819D01*
X153267857Y-104204819D02*
X153886904Y-104204819D01*
X141484580Y-107892857D02*
X141532200Y-107940476D01*
X141532200Y-107940476D02*
X141579819Y-108083333D01*
X141579819Y-108083333D02*
X141579819Y-108178571D01*
X141579819Y-108178571D02*
X141532200Y-108321428D01*
X141532200Y-108321428D02*
X141436961Y-108416666D01*
X141436961Y-108416666D02*
X141341723Y-108464285D01*
X141341723Y-108464285D02*
X141151247Y-108511904D01*
X141151247Y-108511904D02*
X141008390Y-108511904D01*
X141008390Y-108511904D02*
X140817914Y-108464285D01*
X140817914Y-108464285D02*
X140722676Y-108416666D01*
X140722676Y-108416666D02*
X140627438Y-108321428D01*
X140627438Y-108321428D02*
X140579819Y-108178571D01*
X140579819Y-108178571D02*
X140579819Y-108083333D01*
X140579819Y-108083333D02*
X140627438Y-107940476D01*
X140627438Y-107940476D02*
X140675057Y-107892857D01*
X141579819Y-106940476D02*
X141579819Y-107511904D01*
X141579819Y-107226190D02*
X140579819Y-107226190D01*
X140579819Y-107226190D02*
X140722676Y-107321428D01*
X140722676Y-107321428D02*
X140817914Y-107416666D01*
X140817914Y-107416666D02*
X140865533Y-107511904D01*
X141579819Y-106464285D02*
X141579819Y-106273809D01*
X141579819Y-106273809D02*
X141532200Y-106178571D01*
X141532200Y-106178571D02*
X141484580Y-106130952D01*
X141484580Y-106130952D02*
X141341723Y-106035714D01*
X141341723Y-106035714D02*
X141151247Y-105988095D01*
X141151247Y-105988095D02*
X140770295Y-105988095D01*
X140770295Y-105988095D02*
X140675057Y-106035714D01*
X140675057Y-106035714D02*
X140627438Y-106083333D01*
X140627438Y-106083333D02*
X140579819Y-106178571D01*
X140579819Y-106178571D02*
X140579819Y-106369047D01*
X140579819Y-106369047D02*
X140627438Y-106464285D01*
X140627438Y-106464285D02*
X140675057Y-106511904D01*
X140675057Y-106511904D02*
X140770295Y-106559523D01*
X140770295Y-106559523D02*
X141008390Y-106559523D01*
X141008390Y-106559523D02*
X141103628Y-106511904D01*
X141103628Y-106511904D02*
X141151247Y-106464285D01*
X141151247Y-106464285D02*
X141198866Y-106369047D01*
X141198866Y-106369047D02*
X141198866Y-106178571D01*
X141198866Y-106178571D02*
X141151247Y-106083333D01*
X141151247Y-106083333D02*
X141103628Y-106035714D01*
X141103628Y-106035714D02*
X141008390Y-105988095D01*
X148607142Y-92109580D02*
X148559523Y-92157200D01*
X148559523Y-92157200D02*
X148416666Y-92204819D01*
X148416666Y-92204819D02*
X148321428Y-92204819D01*
X148321428Y-92204819D02*
X148178571Y-92157200D01*
X148178571Y-92157200D02*
X148083333Y-92061961D01*
X148083333Y-92061961D02*
X148035714Y-91966723D01*
X148035714Y-91966723D02*
X147988095Y-91776247D01*
X147988095Y-91776247D02*
X147988095Y-91633390D01*
X147988095Y-91633390D02*
X148035714Y-91442914D01*
X148035714Y-91442914D02*
X148083333Y-91347676D01*
X148083333Y-91347676D02*
X148178571Y-91252438D01*
X148178571Y-91252438D02*
X148321428Y-91204819D01*
X148321428Y-91204819D02*
X148416666Y-91204819D01*
X148416666Y-91204819D02*
X148559523Y-91252438D01*
X148559523Y-91252438D02*
X148607142Y-91300057D01*
X149511904Y-91204819D02*
X149035714Y-91204819D01*
X149035714Y-91204819D02*
X148988095Y-91681009D01*
X148988095Y-91681009D02*
X149035714Y-91633390D01*
X149035714Y-91633390D02*
X149130952Y-91585771D01*
X149130952Y-91585771D02*
X149369047Y-91585771D01*
X149369047Y-91585771D02*
X149464285Y-91633390D01*
X149464285Y-91633390D02*
X149511904Y-91681009D01*
X149511904Y-91681009D02*
X149559523Y-91776247D01*
X149559523Y-91776247D02*
X149559523Y-92014342D01*
X149559523Y-92014342D02*
X149511904Y-92109580D01*
X149511904Y-92109580D02*
X149464285Y-92157200D01*
X149464285Y-92157200D02*
X149369047Y-92204819D01*
X149369047Y-92204819D02*
X149130952Y-92204819D01*
X149130952Y-92204819D02*
X149035714Y-92157200D01*
X149035714Y-92157200D02*
X148988095Y-92109580D01*
X149940476Y-91300057D02*
X149988095Y-91252438D01*
X149988095Y-91252438D02*
X150083333Y-91204819D01*
X150083333Y-91204819D02*
X150321428Y-91204819D01*
X150321428Y-91204819D02*
X150416666Y-91252438D01*
X150416666Y-91252438D02*
X150464285Y-91300057D01*
X150464285Y-91300057D02*
X150511904Y-91395295D01*
X150511904Y-91395295D02*
X150511904Y-91490533D01*
X150511904Y-91490533D02*
X150464285Y-91633390D01*
X150464285Y-91633390D02*
X149892857Y-92204819D01*
X149892857Y-92204819D02*
X150511904Y-92204819D01*
X152704819Y-110238094D02*
X152704819Y-109666666D01*
X153704819Y-109952380D02*
X152704819Y-109952380D01*
X153704819Y-109333332D02*
X152704819Y-109333332D01*
X152704819Y-109333332D02*
X152704819Y-108952380D01*
X152704819Y-108952380D02*
X152752438Y-108857142D01*
X152752438Y-108857142D02*
X152800057Y-108809523D01*
X152800057Y-108809523D02*
X152895295Y-108761904D01*
X152895295Y-108761904D02*
X153038152Y-108761904D01*
X153038152Y-108761904D02*
X153133390Y-108809523D01*
X153133390Y-108809523D02*
X153181009Y-108857142D01*
X153181009Y-108857142D02*
X153228628Y-108952380D01*
X153228628Y-108952380D02*
X153228628Y-109333332D01*
X152800057Y-108380951D02*
X152752438Y-108333332D01*
X152752438Y-108333332D02*
X152704819Y-108238094D01*
X152704819Y-108238094D02*
X152704819Y-107999999D01*
X152704819Y-107999999D02*
X152752438Y-107904761D01*
X152752438Y-107904761D02*
X152800057Y-107857142D01*
X152800057Y-107857142D02*
X152895295Y-107809523D01*
X152895295Y-107809523D02*
X152990533Y-107809523D01*
X152990533Y-107809523D02*
X153133390Y-107857142D01*
X153133390Y-107857142D02*
X153704819Y-108428570D01*
X153704819Y-108428570D02*
X153704819Y-107809523D01*
X152800057Y-107428570D02*
X152752438Y-107380951D01*
X152752438Y-107380951D02*
X152704819Y-107285713D01*
X152704819Y-107285713D02*
X152704819Y-107047618D01*
X152704819Y-107047618D02*
X152752438Y-106952380D01*
X152752438Y-106952380D02*
X152800057Y-106904761D01*
X152800057Y-106904761D02*
X152895295Y-106857142D01*
X152895295Y-106857142D02*
X152990533Y-106857142D01*
X152990533Y-106857142D02*
X153133390Y-106904761D01*
X153133390Y-106904761D02*
X153704819Y-107476189D01*
X153704819Y-107476189D02*
X153704819Y-106857142D01*
X151204819Y-105642857D02*
X151204819Y-106119047D01*
X151204819Y-106119047D02*
X150204819Y-106119047D01*
X151204819Y-104785714D02*
X151204819Y-105357142D01*
X151204819Y-105071428D02*
X150204819Y-105071428D01*
X150204819Y-105071428D02*
X150347676Y-105166666D01*
X150347676Y-105166666D02*
X150442914Y-105261904D01*
X150442914Y-105261904D02*
X150490533Y-105357142D01*
X151204819Y-103833333D02*
X151204819Y-104404761D01*
X151204819Y-104119047D02*
X150204819Y-104119047D01*
X150204819Y-104119047D02*
X150347676Y-104214285D01*
X150347676Y-104214285D02*
X150442914Y-104309523D01*
X150442914Y-104309523D02*
X150490533Y-104404761D01*
X147607142Y-87859580D02*
X147559523Y-87907200D01*
X147559523Y-87907200D02*
X147416666Y-87954819D01*
X147416666Y-87954819D02*
X147321428Y-87954819D01*
X147321428Y-87954819D02*
X147178571Y-87907200D01*
X147178571Y-87907200D02*
X147083333Y-87811961D01*
X147083333Y-87811961D02*
X147035714Y-87716723D01*
X147035714Y-87716723D02*
X146988095Y-87526247D01*
X146988095Y-87526247D02*
X146988095Y-87383390D01*
X146988095Y-87383390D02*
X147035714Y-87192914D01*
X147035714Y-87192914D02*
X147083333Y-87097676D01*
X147083333Y-87097676D02*
X147178571Y-87002438D01*
X147178571Y-87002438D02*
X147321428Y-86954819D01*
X147321428Y-86954819D02*
X147416666Y-86954819D01*
X147416666Y-86954819D02*
X147559523Y-87002438D01*
X147559523Y-87002438D02*
X147607142Y-87050057D01*
X148464285Y-86954819D02*
X148273809Y-86954819D01*
X148273809Y-86954819D02*
X148178571Y-87002438D01*
X148178571Y-87002438D02*
X148130952Y-87050057D01*
X148130952Y-87050057D02*
X148035714Y-87192914D01*
X148035714Y-87192914D02*
X147988095Y-87383390D01*
X147988095Y-87383390D02*
X147988095Y-87764342D01*
X147988095Y-87764342D02*
X148035714Y-87859580D01*
X148035714Y-87859580D02*
X148083333Y-87907200D01*
X148083333Y-87907200D02*
X148178571Y-87954819D01*
X148178571Y-87954819D02*
X148369047Y-87954819D01*
X148369047Y-87954819D02*
X148464285Y-87907200D01*
X148464285Y-87907200D02*
X148511904Y-87859580D01*
X148511904Y-87859580D02*
X148559523Y-87764342D01*
X148559523Y-87764342D02*
X148559523Y-87526247D01*
X148559523Y-87526247D02*
X148511904Y-87431009D01*
X148511904Y-87431009D02*
X148464285Y-87383390D01*
X148464285Y-87383390D02*
X148369047Y-87335771D01*
X148369047Y-87335771D02*
X148178571Y-87335771D01*
X148178571Y-87335771D02*
X148083333Y-87383390D01*
X148083333Y-87383390D02*
X148035714Y-87431009D01*
X148035714Y-87431009D02*
X147988095Y-87526247D01*
X148892857Y-86954819D02*
X149511904Y-86954819D01*
X149511904Y-86954819D02*
X149178571Y-87335771D01*
X149178571Y-87335771D02*
X149321428Y-87335771D01*
X149321428Y-87335771D02*
X149416666Y-87383390D01*
X149416666Y-87383390D02*
X149464285Y-87431009D01*
X149464285Y-87431009D02*
X149511904Y-87526247D01*
X149511904Y-87526247D02*
X149511904Y-87764342D01*
X149511904Y-87764342D02*
X149464285Y-87859580D01*
X149464285Y-87859580D02*
X149416666Y-87907200D01*
X149416666Y-87907200D02*
X149321428Y-87954819D01*
X149321428Y-87954819D02*
X149035714Y-87954819D01*
X149035714Y-87954819D02*
X148940476Y-87907200D01*
X148940476Y-87907200D02*
X148892857Y-87859580D01*
X139838095Y-111042319D02*
X139838095Y-111851842D01*
X139838095Y-111851842D02*
X139885714Y-111947080D01*
X139885714Y-111947080D02*
X139933333Y-111994700D01*
X139933333Y-111994700D02*
X140028571Y-112042319D01*
X140028571Y-112042319D02*
X140219047Y-112042319D01*
X140219047Y-112042319D02*
X140314285Y-111994700D01*
X140314285Y-111994700D02*
X140361904Y-111947080D01*
X140361904Y-111947080D02*
X140409523Y-111851842D01*
X140409523Y-111851842D02*
X140409523Y-111042319D01*
X141314285Y-111375652D02*
X141314285Y-112042319D01*
X141076190Y-110994700D02*
X140838095Y-111708985D01*
X140838095Y-111708985D02*
X141457142Y-111708985D01*
X162954819Y-103738094D02*
X162954819Y-103166666D01*
X163954819Y-103452380D02*
X162954819Y-103452380D01*
X163954819Y-102833332D02*
X162954819Y-102833332D01*
X162954819Y-102833332D02*
X162954819Y-102452380D01*
X162954819Y-102452380D02*
X163002438Y-102357142D01*
X163002438Y-102357142D02*
X163050057Y-102309523D01*
X163050057Y-102309523D02*
X163145295Y-102261904D01*
X163145295Y-102261904D02*
X163288152Y-102261904D01*
X163288152Y-102261904D02*
X163383390Y-102309523D01*
X163383390Y-102309523D02*
X163431009Y-102357142D01*
X163431009Y-102357142D02*
X163478628Y-102452380D01*
X163478628Y-102452380D02*
X163478628Y-102833332D01*
X163954819Y-101309523D02*
X163954819Y-101880951D01*
X163954819Y-101595237D02*
X162954819Y-101595237D01*
X162954819Y-101595237D02*
X163097676Y-101690475D01*
X163097676Y-101690475D02*
X163192914Y-101785713D01*
X163192914Y-101785713D02*
X163240533Y-101880951D01*
X163954819Y-100357142D02*
X163954819Y-100928570D01*
X163954819Y-100642856D02*
X162954819Y-100642856D01*
X162954819Y-100642856D02*
X163097676Y-100738094D01*
X163097676Y-100738094D02*
X163192914Y-100833332D01*
X163192914Y-100833332D02*
X163240533Y-100928570D01*
X161757142Y-98694580D02*
X161709523Y-98742200D01*
X161709523Y-98742200D02*
X161566666Y-98789819D01*
X161566666Y-98789819D02*
X161471428Y-98789819D01*
X161471428Y-98789819D02*
X161328571Y-98742200D01*
X161328571Y-98742200D02*
X161233333Y-98646961D01*
X161233333Y-98646961D02*
X161185714Y-98551723D01*
X161185714Y-98551723D02*
X161138095Y-98361247D01*
X161138095Y-98361247D02*
X161138095Y-98218390D01*
X161138095Y-98218390D02*
X161185714Y-98027914D01*
X161185714Y-98027914D02*
X161233333Y-97932676D01*
X161233333Y-97932676D02*
X161328571Y-97837438D01*
X161328571Y-97837438D02*
X161471428Y-97789819D01*
X161471428Y-97789819D02*
X161566666Y-97789819D01*
X161566666Y-97789819D02*
X161709523Y-97837438D01*
X161709523Y-97837438D02*
X161757142Y-97885057D01*
X162661904Y-97789819D02*
X162185714Y-97789819D01*
X162185714Y-97789819D02*
X162138095Y-98266009D01*
X162138095Y-98266009D02*
X162185714Y-98218390D01*
X162185714Y-98218390D02*
X162280952Y-98170771D01*
X162280952Y-98170771D02*
X162519047Y-98170771D01*
X162519047Y-98170771D02*
X162614285Y-98218390D01*
X162614285Y-98218390D02*
X162661904Y-98266009D01*
X162661904Y-98266009D02*
X162709523Y-98361247D01*
X162709523Y-98361247D02*
X162709523Y-98599342D01*
X162709523Y-98599342D02*
X162661904Y-98694580D01*
X162661904Y-98694580D02*
X162614285Y-98742200D01*
X162614285Y-98742200D02*
X162519047Y-98789819D01*
X162519047Y-98789819D02*
X162280952Y-98789819D01*
X162280952Y-98789819D02*
X162185714Y-98742200D01*
X162185714Y-98742200D02*
X162138095Y-98694580D01*
X163328571Y-97789819D02*
X163423809Y-97789819D01*
X163423809Y-97789819D02*
X163519047Y-97837438D01*
X163519047Y-97837438D02*
X163566666Y-97885057D01*
X163566666Y-97885057D02*
X163614285Y-97980295D01*
X163614285Y-97980295D02*
X163661904Y-98170771D01*
X163661904Y-98170771D02*
X163661904Y-98408866D01*
X163661904Y-98408866D02*
X163614285Y-98599342D01*
X163614285Y-98599342D02*
X163566666Y-98694580D01*
X163566666Y-98694580D02*
X163519047Y-98742200D01*
X163519047Y-98742200D02*
X163423809Y-98789819D01*
X163423809Y-98789819D02*
X163328571Y-98789819D01*
X163328571Y-98789819D02*
X163233333Y-98742200D01*
X163233333Y-98742200D02*
X163185714Y-98694580D01*
X163185714Y-98694580D02*
X163138095Y-98599342D01*
X163138095Y-98599342D02*
X163090476Y-98408866D01*
X163090476Y-98408866D02*
X163090476Y-98170771D01*
X163090476Y-98170771D02*
X163138095Y-97980295D01*
X163138095Y-97980295D02*
X163185714Y-97885057D01*
X163185714Y-97885057D02*
X163233333Y-97837438D01*
X163233333Y-97837438D02*
X163328571Y-97789819D01*
X138482142Y-105454819D02*
X138005952Y-105454819D01*
X138005952Y-105454819D02*
X138005952Y-104454819D01*
X139339285Y-105454819D02*
X138767857Y-105454819D01*
X139053571Y-105454819D02*
X139053571Y-104454819D01*
X139053571Y-104454819D02*
X138958333Y-104597676D01*
X138958333Y-104597676D02*
X138863095Y-104692914D01*
X138863095Y-104692914D02*
X138767857Y-104740533D01*
X139958333Y-104454819D02*
X140053571Y-104454819D01*
X140053571Y-104454819D02*
X140148809Y-104502438D01*
X140148809Y-104502438D02*
X140196428Y-104550057D01*
X140196428Y-104550057D02*
X140244047Y-104645295D01*
X140244047Y-104645295D02*
X140291666Y-104835771D01*
X140291666Y-104835771D02*
X140291666Y-105073866D01*
X140291666Y-105073866D02*
X140244047Y-105264342D01*
X140244047Y-105264342D02*
X140196428Y-105359580D01*
X140196428Y-105359580D02*
X140148809Y-105407200D01*
X140148809Y-105407200D02*
X140053571Y-105454819D01*
X140053571Y-105454819D02*
X139958333Y-105454819D01*
X139958333Y-105454819D02*
X139863095Y-105407200D01*
X139863095Y-105407200D02*
X139815476Y-105359580D01*
X139815476Y-105359580D02*
X139767857Y-105264342D01*
X139767857Y-105264342D02*
X139720238Y-105073866D01*
X139720238Y-105073866D02*
X139720238Y-104835771D01*
X139720238Y-104835771D02*
X139767857Y-104645295D01*
X139767857Y-104645295D02*
X139815476Y-104550057D01*
X139815476Y-104550057D02*
X139863095Y-104502438D01*
X139863095Y-104502438D02*
X139958333Y-104454819D01*
X143363095Y-106329819D02*
X143934523Y-106329819D01*
X143648809Y-107329819D02*
X143648809Y-106329819D01*
X144267857Y-107329819D02*
X144267857Y-106329819D01*
X144267857Y-106329819D02*
X144648809Y-106329819D01*
X144648809Y-106329819D02*
X144744047Y-106377438D01*
X144744047Y-106377438D02*
X144791666Y-106425057D01*
X144791666Y-106425057D02*
X144839285Y-106520295D01*
X144839285Y-106520295D02*
X144839285Y-106663152D01*
X144839285Y-106663152D02*
X144791666Y-106758390D01*
X144791666Y-106758390D02*
X144744047Y-106806009D01*
X144744047Y-106806009D02*
X144648809Y-106853628D01*
X144648809Y-106853628D02*
X144267857Y-106853628D01*
X145791666Y-107329819D02*
X145220238Y-107329819D01*
X145505952Y-107329819D02*
X145505952Y-106329819D01*
X145505952Y-106329819D02*
X145410714Y-106472676D01*
X145410714Y-106472676D02*
X145315476Y-106567914D01*
X145315476Y-106567914D02*
X145220238Y-106615533D01*
X139877142Y-92474819D02*
X139400952Y-92474819D01*
X139400952Y-92474819D02*
X139400952Y-91474819D01*
X140734285Y-92474819D02*
X140162857Y-92474819D01*
X140448571Y-92474819D02*
X140448571Y-91474819D01*
X140448571Y-91474819D02*
X140353333Y-91617676D01*
X140353333Y-91617676D02*
X140258095Y-91712914D01*
X140258095Y-91712914D02*
X140162857Y-91760533D01*
X141591428Y-91474819D02*
X141400952Y-91474819D01*
X141400952Y-91474819D02*
X141305714Y-91522438D01*
X141305714Y-91522438D02*
X141258095Y-91570057D01*
X141258095Y-91570057D02*
X141162857Y-91712914D01*
X141162857Y-91712914D02*
X141115238Y-91903390D01*
X141115238Y-91903390D02*
X141115238Y-92284342D01*
X141115238Y-92284342D02*
X141162857Y-92379580D01*
X141162857Y-92379580D02*
X141210476Y-92427200D01*
X141210476Y-92427200D02*
X141305714Y-92474819D01*
X141305714Y-92474819D02*
X141496190Y-92474819D01*
X141496190Y-92474819D02*
X141591428Y-92427200D01*
X141591428Y-92427200D02*
X141639047Y-92379580D01*
X141639047Y-92379580D02*
X141686666Y-92284342D01*
X141686666Y-92284342D02*
X141686666Y-92046247D01*
X141686666Y-92046247D02*
X141639047Y-91951009D01*
X141639047Y-91951009D02*
X141591428Y-91903390D01*
X141591428Y-91903390D02*
X141496190Y-91855771D01*
X141496190Y-91855771D02*
X141305714Y-91855771D01*
X141305714Y-91855771D02*
X141210476Y-91903390D01*
X141210476Y-91903390D02*
X141162857Y-91951009D01*
X141162857Y-91951009D02*
X141115238Y-92046247D01*
X137809819Y-103517857D02*
X137333628Y-103851190D01*
X137809819Y-104089285D02*
X136809819Y-104089285D01*
X136809819Y-104089285D02*
X136809819Y-103708333D01*
X136809819Y-103708333D02*
X136857438Y-103613095D01*
X136857438Y-103613095D02*
X136905057Y-103565476D01*
X136905057Y-103565476D02*
X137000295Y-103517857D01*
X137000295Y-103517857D02*
X137143152Y-103517857D01*
X137143152Y-103517857D02*
X137238390Y-103565476D01*
X137238390Y-103565476D02*
X137286009Y-103613095D01*
X137286009Y-103613095D02*
X137333628Y-103708333D01*
X137333628Y-103708333D02*
X137333628Y-104089285D01*
X136905057Y-103136904D02*
X136857438Y-103089285D01*
X136857438Y-103089285D02*
X136809819Y-102994047D01*
X136809819Y-102994047D02*
X136809819Y-102755952D01*
X136809819Y-102755952D02*
X136857438Y-102660714D01*
X136857438Y-102660714D02*
X136905057Y-102613095D01*
X136905057Y-102613095D02*
X137000295Y-102565476D01*
X137000295Y-102565476D02*
X137095533Y-102565476D01*
X137095533Y-102565476D02*
X137238390Y-102613095D01*
X137238390Y-102613095D02*
X137809819Y-103184523D01*
X137809819Y-103184523D02*
X137809819Y-102565476D01*
X137143152Y-101708333D02*
X137809819Y-101708333D01*
X136762200Y-101946428D02*
X137476485Y-102184523D01*
X137476485Y-102184523D02*
X137476485Y-101565476D01*
X135793207Y-91119104D02*
X136269397Y-91119104D01*
X135697969Y-91404819D02*
X136031302Y-90404819D01*
X136031302Y-90404819D02*
X136364635Y-91404819D01*
X136697969Y-90881009D02*
X137031302Y-90881009D01*
X137174159Y-91404819D02*
X136697969Y-91404819D01*
X136697969Y-91404819D02*
X136697969Y-90404819D01*
X136697969Y-90404819D02*
X137174159Y-90404819D01*
X137555112Y-90500057D02*
X137602731Y-90452438D01*
X137602731Y-90452438D02*
X137697969Y-90404819D01*
X137697969Y-90404819D02*
X137936064Y-90404819D01*
X137936064Y-90404819D02*
X138031302Y-90452438D01*
X138031302Y-90452438D02*
X138078921Y-90500057D01*
X138078921Y-90500057D02*
X138126540Y-90595295D01*
X138126540Y-90595295D02*
X138126540Y-90690533D01*
X138126540Y-90690533D02*
X138078921Y-90833390D01*
X138078921Y-90833390D02*
X137507493Y-91404819D01*
X137507493Y-91404819D02*
X138126540Y-91404819D01*
X158738095Y-91454819D02*
X158738095Y-92264342D01*
X158738095Y-92264342D02*
X158785714Y-92359580D01*
X158785714Y-92359580D02*
X158833333Y-92407200D01*
X158833333Y-92407200D02*
X158928571Y-92454819D01*
X158928571Y-92454819D02*
X159119047Y-92454819D01*
X159119047Y-92454819D02*
X159214285Y-92407200D01*
X159214285Y-92407200D02*
X159261904Y-92359580D01*
X159261904Y-92359580D02*
X159309523Y-92264342D01*
X159309523Y-92264342D02*
X159309523Y-91454819D01*
X160261904Y-91454819D02*
X159785714Y-91454819D01*
X159785714Y-91454819D02*
X159738095Y-91931009D01*
X159738095Y-91931009D02*
X159785714Y-91883390D01*
X159785714Y-91883390D02*
X159880952Y-91835771D01*
X159880952Y-91835771D02*
X160119047Y-91835771D01*
X160119047Y-91835771D02*
X160214285Y-91883390D01*
X160214285Y-91883390D02*
X160261904Y-91931009D01*
X160261904Y-91931009D02*
X160309523Y-92026247D01*
X160309523Y-92026247D02*
X160309523Y-92264342D01*
X160309523Y-92264342D02*
X160261904Y-92359580D01*
X160261904Y-92359580D02*
X160214285Y-92407200D01*
X160214285Y-92407200D02*
X160119047Y-92454819D01*
X160119047Y-92454819D02*
X159880952Y-92454819D01*
X159880952Y-92454819D02*
X159785714Y-92407200D01*
X159785714Y-92407200D02*
X159738095Y-92359580D01*
X161597142Y-97444580D02*
X161549523Y-97492200D01*
X161549523Y-97492200D02*
X161406666Y-97539819D01*
X161406666Y-97539819D02*
X161311428Y-97539819D01*
X161311428Y-97539819D02*
X161168571Y-97492200D01*
X161168571Y-97492200D02*
X161073333Y-97396961D01*
X161073333Y-97396961D02*
X161025714Y-97301723D01*
X161025714Y-97301723D02*
X160978095Y-97111247D01*
X160978095Y-97111247D02*
X160978095Y-96968390D01*
X160978095Y-96968390D02*
X161025714Y-96777914D01*
X161025714Y-96777914D02*
X161073333Y-96682676D01*
X161073333Y-96682676D02*
X161168571Y-96587438D01*
X161168571Y-96587438D02*
X161311428Y-96539819D01*
X161311428Y-96539819D02*
X161406666Y-96539819D01*
X161406666Y-96539819D02*
X161549523Y-96587438D01*
X161549523Y-96587438D02*
X161597142Y-96635057D01*
X162501904Y-96539819D02*
X162025714Y-96539819D01*
X162025714Y-96539819D02*
X161978095Y-97016009D01*
X161978095Y-97016009D02*
X162025714Y-96968390D01*
X162025714Y-96968390D02*
X162120952Y-96920771D01*
X162120952Y-96920771D02*
X162359047Y-96920771D01*
X162359047Y-96920771D02*
X162454285Y-96968390D01*
X162454285Y-96968390D02*
X162501904Y-97016009D01*
X162501904Y-97016009D02*
X162549523Y-97111247D01*
X162549523Y-97111247D02*
X162549523Y-97349342D01*
X162549523Y-97349342D02*
X162501904Y-97444580D01*
X162501904Y-97444580D02*
X162454285Y-97492200D01*
X162454285Y-97492200D02*
X162359047Y-97539819D01*
X162359047Y-97539819D02*
X162120952Y-97539819D01*
X162120952Y-97539819D02*
X162025714Y-97492200D01*
X162025714Y-97492200D02*
X161978095Y-97444580D01*
X163454285Y-96539819D02*
X162978095Y-96539819D01*
X162978095Y-96539819D02*
X162930476Y-97016009D01*
X162930476Y-97016009D02*
X162978095Y-96968390D01*
X162978095Y-96968390D02*
X163073333Y-96920771D01*
X163073333Y-96920771D02*
X163311428Y-96920771D01*
X163311428Y-96920771D02*
X163406666Y-96968390D01*
X163406666Y-96968390D02*
X163454285Y-97016009D01*
X163454285Y-97016009D02*
X163501904Y-97111247D01*
X163501904Y-97111247D02*
X163501904Y-97349342D01*
X163501904Y-97349342D02*
X163454285Y-97444580D01*
X163454285Y-97444580D02*
X163406666Y-97492200D01*
X163406666Y-97492200D02*
X163311428Y-97539819D01*
X163311428Y-97539819D02*
X163073333Y-97539819D01*
X163073333Y-97539819D02*
X162978095Y-97492200D01*
X162978095Y-97492200D02*
X162930476Y-97444580D01*
X159357142Y-101109580D02*
X159309523Y-101157200D01*
X159309523Y-101157200D02*
X159166666Y-101204819D01*
X159166666Y-101204819D02*
X159071428Y-101204819D01*
X159071428Y-101204819D02*
X158928571Y-101157200D01*
X158928571Y-101157200D02*
X158833333Y-101061961D01*
X158833333Y-101061961D02*
X158785714Y-100966723D01*
X158785714Y-100966723D02*
X158738095Y-100776247D01*
X158738095Y-100776247D02*
X158738095Y-100633390D01*
X158738095Y-100633390D02*
X158785714Y-100442914D01*
X158785714Y-100442914D02*
X158833333Y-100347676D01*
X158833333Y-100347676D02*
X158928571Y-100252438D01*
X158928571Y-100252438D02*
X159071428Y-100204819D01*
X159071428Y-100204819D02*
X159166666Y-100204819D01*
X159166666Y-100204819D02*
X159309523Y-100252438D01*
X159309523Y-100252438D02*
X159357142Y-100300057D01*
X160214285Y-100538152D02*
X160214285Y-101204819D01*
X159976190Y-100157200D02*
X159738095Y-100871485D01*
X159738095Y-100871485D02*
X160357142Y-100871485D01*
X160880952Y-100633390D02*
X160785714Y-100585771D01*
X160785714Y-100585771D02*
X160738095Y-100538152D01*
X160738095Y-100538152D02*
X160690476Y-100442914D01*
X160690476Y-100442914D02*
X160690476Y-100395295D01*
X160690476Y-100395295D02*
X160738095Y-100300057D01*
X160738095Y-100300057D02*
X160785714Y-100252438D01*
X160785714Y-100252438D02*
X160880952Y-100204819D01*
X160880952Y-100204819D02*
X161071428Y-100204819D01*
X161071428Y-100204819D02*
X161166666Y-100252438D01*
X161166666Y-100252438D02*
X161214285Y-100300057D01*
X161214285Y-100300057D02*
X161261904Y-100395295D01*
X161261904Y-100395295D02*
X161261904Y-100442914D01*
X161261904Y-100442914D02*
X161214285Y-100538152D01*
X161214285Y-100538152D02*
X161166666Y-100585771D01*
X161166666Y-100585771D02*
X161071428Y-100633390D01*
X161071428Y-100633390D02*
X160880952Y-100633390D01*
X160880952Y-100633390D02*
X160785714Y-100681009D01*
X160785714Y-100681009D02*
X160738095Y-100728628D01*
X160738095Y-100728628D02*
X160690476Y-100823866D01*
X160690476Y-100823866D02*
X160690476Y-101014342D01*
X160690476Y-101014342D02*
X160738095Y-101109580D01*
X160738095Y-101109580D02*
X160785714Y-101157200D01*
X160785714Y-101157200D02*
X160880952Y-101204819D01*
X160880952Y-101204819D02*
X161071428Y-101204819D01*
X161071428Y-101204819D02*
X161166666Y-101157200D01*
X161166666Y-101157200D02*
X161214285Y-101109580D01*
X161214285Y-101109580D02*
X161261904Y-101014342D01*
X161261904Y-101014342D02*
X161261904Y-100823866D01*
X161261904Y-100823866D02*
X161214285Y-100728628D01*
X161214285Y-100728628D02*
X161166666Y-100681009D01*
X161166666Y-100681009D02*
X161071428Y-100633390D01*
D12*
%TO.C,C54*%
X155630000Y-99192836D02*
X155630000Y-98977164D01*
X156350000Y-99192836D02*
X156350000Y-98977164D01*
%TO.C,TP16*%
X150700000Y-110000000D02*
G75*
G02*
X149300000Y-110000000I-700000J0D01*
G01*
X149300000Y-110000000D02*
G75*
G02*
X150700000Y-110000000I700000J0D01*
G01*
%TO.C,C47*%
X159847836Y-94225000D02*
X159632164Y-94225000D01*
X159847836Y-94945000D02*
X159632164Y-94945000D01*
%TO.C,C45*%
X158207836Y-90340000D02*
X157992164Y-90340000D01*
X158207836Y-91060000D02*
X157992164Y-91060000D01*
%TO.C,TP7*%
X148200000Y-104000000D02*
G75*
G02*
X146800000Y-104000000I-700000J0D01*
G01*
X146800000Y-104000000D02*
G75*
G02*
X148200000Y-104000000I700000J0D01*
G01*
%TO.C,C49*%
X159847836Y-95475000D02*
X159632164Y-95475000D01*
X159847836Y-96195000D02*
X159632164Y-96195000D01*
%TO.C,C41*%
X142910000Y-97377836D02*
X142910000Y-97162164D01*
X143630000Y-97377836D02*
X143630000Y-97162164D01*
%TO.C,R12*%
X147620000Y-94596359D02*
X147620000Y-94903641D01*
X148380000Y-94596359D02*
X148380000Y-94903641D01*
%TO.C,C44*%
X149642164Y-93740000D02*
X149857836Y-93740000D01*
X149642164Y-94460000D02*
X149857836Y-94460000D01*
%TO.C,TP8*%
X153600000Y-101100000D02*
G75*
G02*
X152200000Y-101100000I-700000J0D01*
G01*
X152200000Y-101100000D02*
G75*
G02*
X153600000Y-101100000I700000J0D01*
G01*
%TO.C,R16*%
X149120000Y-103153641D02*
X149120000Y-102846359D01*
X149880000Y-103153641D02*
X149880000Y-102846359D01*
%TO.C,TP10*%
X155600000Y-100900000D02*
G75*
G02*
X154200000Y-100900000I-700000J0D01*
G01*
X154200000Y-100900000D02*
G75*
G02*
X155600000Y-100900000I700000J0D01*
G01*
%TO.C,TP9*%
X146200000Y-90500000D02*
G75*
G02*
X144800000Y-90500000I-700000J0D01*
G01*
X144800000Y-90500000D02*
G75*
G02*
X146200000Y-90500000I700000J0D01*
G01*
%TO.C,C39*%
X140627836Y-99140000D02*
X140412164Y-99140000D01*
X140627836Y-99860000D02*
X140412164Y-99860000D01*
%TO.C,C37*%
X141377836Y-100390000D02*
X141162164Y-100390000D01*
X141377836Y-101110000D02*
X141162164Y-101110000D01*
%TO.C,C66*%
X149992164Y-96740000D02*
X150207836Y-96740000D01*
X149992164Y-97460000D02*
X150207836Y-97460000D01*
%TO.C,C60*%
X150692164Y-100340000D02*
X150907836Y-100340000D01*
X150692164Y-101060000D02*
X150907836Y-101060000D01*
%TO.C,TP17*%
X156950000Y-110250000D02*
G75*
G02*
X155550000Y-110250000I-700000J0D01*
G01*
X155550000Y-110250000D02*
G75*
G02*
X156950000Y-110250000I700000J0D01*
G01*
%TO.C,C17*%
X143990000Y-117459420D02*
X143990000Y-117740580D01*
X145010000Y-117459420D02*
X145010000Y-117740580D01*
%TO.C,TP2*%
X158700000Y-114250000D02*
G75*
G02*
X157300000Y-114250000I-700000J0D01*
G01*
X157300000Y-114250000D02*
G75*
G02*
X158700000Y-114250000I700000J0D01*
G01*
%TO.C,C43*%
X138390000Y-102392164D02*
X138390000Y-102607836D01*
X139110000Y-102392164D02*
X139110000Y-102607836D01*
%TO.C,C46*%
X154640000Y-89992164D02*
X154640000Y-90207836D01*
X155360000Y-89992164D02*
X155360000Y-90207836D01*
%TO.C,TP19*%
X149700000Y-114500000D02*
G75*
G02*
X148300000Y-114500000I-700000J0D01*
G01*
X148300000Y-114500000D02*
G75*
G02*
X149700000Y-114500000I700000J0D01*
G01*
%TO.C,C16*%
X147559420Y-116390000D02*
X147840580Y-116390000D01*
X147559420Y-117410000D02*
X147840580Y-117410000D01*
%TO.C,TP23*%
X152600000Y-115650000D02*
X156400000Y-115650000D01*
X156400000Y-117850000D01*
X152600000Y-117850000D01*
X152600000Y-115650000D01*
%TO.C,C38*%
X141660000Y-97377836D02*
X141660000Y-97162164D01*
X142380000Y-97377836D02*
X142380000Y-97162164D01*
%TO.C,C61*%
X148140000Y-98192164D02*
X148140000Y-98407836D01*
X148860000Y-98192164D02*
X148860000Y-98407836D01*
%TO.C,TP12*%
X152825000Y-89000000D02*
G75*
G02*
X151425000Y-89000000I-700000J0D01*
G01*
X151425000Y-89000000D02*
G75*
G02*
X152825000Y-89000000I700000J0D01*
G01*
D13*
%TO.C,U7*%
G36*
X143840500Y-86187900D02*
G01*
X143459500Y-86187900D01*
X143459500Y-85933900D01*
X143840500Y-85933900D01*
X143840500Y-86187900D01*
G37*
D12*
%TO.C,TP20*%
X152700000Y-111250000D02*
G75*
G02*
X151300000Y-111250000I-700000J0D01*
G01*
X151300000Y-111250000D02*
G75*
G02*
X152700000Y-111250000I700000J0D01*
G01*
%TO.C,C40*%
X140357836Y-97890000D02*
X140142164Y-97890000D01*
X140357836Y-98610000D02*
X140142164Y-98610000D01*
%TO.C,TP18*%
X156950000Y-108250000D02*
G75*
G02*
X155550000Y-108250000I-700000J0D01*
G01*
X155550000Y-108250000D02*
G75*
G02*
X156950000Y-108250000I700000J0D01*
G01*
%TO.C,C42*%
X142890000Y-93877836D02*
X142890000Y-93662164D01*
X143610000Y-93877836D02*
X143610000Y-93662164D01*
%TO.C,TP15*%
X152700000Y-113750000D02*
G75*
G02*
X151300000Y-113750000I-700000J0D01*
G01*
X151300000Y-113750000D02*
G75*
G02*
X152700000Y-113750000I700000J0D01*
G01*
%TO.C,TP6*%
X143970000Y-100500000D02*
G75*
G02*
X142570000Y-100500000I-700000J0D01*
G01*
X142570000Y-100500000D02*
G75*
G02*
X143970000Y-100500000I700000J0D01*
G01*
%TO.C,TP14*%
X138450000Y-96750000D02*
G75*
G02*
X137050000Y-96750000I-700000J0D01*
G01*
X137050000Y-96750000D02*
G75*
G02*
X138450000Y-96750000I700000J0D01*
G01*
%TO.C,TP21*%
X150950000Y-89850000D02*
G75*
G02*
X149550000Y-89850000I-700000J0D01*
G01*
X149550000Y-89850000D02*
G75*
G02*
X150950000Y-89850000I700000J0D01*
G01*
%TO.C,TP4*%
X141099874Y-87750000D02*
G75*
G02*
X139699874Y-87750000I-700000J0D01*
G01*
X139699874Y-87750000D02*
G75*
G02*
X141099874Y-87750000I700000J0D01*
G01*
%TO.C,TP3*%
X143100000Y-117000000D02*
G75*
G02*
X141700000Y-117000000I-700000J0D01*
G01*
X141700000Y-117000000D02*
G75*
G02*
X143100000Y-117000000I700000J0D01*
G01*
%TO.C,R15*%
X152227064Y-97990000D02*
X150772936Y-97990000D01*
X152227064Y-99810000D02*
X150772936Y-99810000D01*
%TO.C,U3*%
X141160000Y-102102500D02*
X141635000Y-102102500D01*
X141160000Y-102577500D02*
X141160000Y-102102500D01*
X141160000Y-104847500D02*
X141160000Y-105022500D01*
X141635000Y-105322500D02*
X141400000Y-105322500D01*
X144380000Y-102102500D02*
X143905000Y-102102500D01*
X144380000Y-102577500D02*
X144380000Y-102102500D01*
X144380000Y-104847500D02*
X144380000Y-105322500D01*
X144380000Y-105322500D02*
X143905000Y-105322500D01*
X141160000Y-105322500D02*
X140830000Y-105562500D01*
X140830000Y-105082500D01*
X141160000Y-105322500D01*
G36*
X141160000Y-105322500D02*
G01*
X140830000Y-105562500D01*
X140830000Y-105082500D01*
X141160000Y-105322500D01*
G37*
%TO.C,C51*%
X149892164Y-95540000D02*
X150107836Y-95540000D01*
X149892164Y-96260000D02*
X150107836Y-96260000D01*
%TO.C,C65*%
X160357836Y-101655000D02*
X160142164Y-101655000D01*
X160357836Y-102375000D02*
X160142164Y-102375000D01*
%TO.C,C53*%
X153390000Y-89992164D02*
X153390000Y-90207836D01*
X154110000Y-89992164D02*
X154110000Y-90207836D01*
%TO.C,TP5*%
X143950000Y-90500000D02*
G75*
G02*
X142550000Y-90500000I-700000J0D01*
G01*
X142550000Y-90500000D02*
G75*
G02*
X143950000Y-90500000I700000J0D01*
G01*
%TO.C,C57*%
X157632164Y-98225000D02*
X157847836Y-98225000D01*
X157632164Y-98945000D02*
X157847836Y-98945000D01*
%TO.C,TP13*%
X155700000Y-106250000D02*
G75*
G02*
X154300000Y-106250000I-700000J0D01*
G01*
X154300000Y-106250000D02*
G75*
G02*
X155700000Y-106250000I700000J0D01*
G01*
%TO.C,C18*%
X148109420Y-107740000D02*
X148390580Y-107740000D01*
X148109420Y-108760000D02*
X148390580Y-108760000D01*
%TO.C,C64*%
X145892164Y-88390000D02*
X146107836Y-88390000D01*
X145892164Y-89110000D02*
X146107836Y-89110000D01*
%TO.C,C14*%
X137088748Y-105540000D02*
X138511252Y-105540000D01*
X137088748Y-108260000D02*
X138511252Y-108260000D01*
%TO.C,C56*%
X159847836Y-92975000D02*
X159632164Y-92975000D01*
X159847836Y-93695000D02*
X159632164Y-93695000D01*
%TO.C,C62*%
X152507836Y-102240000D02*
X152292164Y-102240000D01*
X152507836Y-102960000D02*
X152292164Y-102960000D01*
%TO.C,C19*%
X141990000Y-107765580D02*
X141990000Y-107484420D01*
X143010000Y-107765580D02*
X143010000Y-107484420D01*
%TO.C,C52*%
X149089664Y-92490000D02*
X149305336Y-92490000D01*
X149089664Y-93210000D02*
X149305336Y-93210000D01*
%TO.C,TP22*%
X153200000Y-106000000D02*
G75*
G02*
X151800000Y-106000000I-700000J0D01*
G01*
X151800000Y-106000000D02*
G75*
G02*
X153200000Y-106000000I700000J0D01*
G01*
%TO.C,C63*%
X145892164Y-87140000D02*
X146107836Y-87140000D01*
X145892164Y-87860000D02*
X146107836Y-87860000D01*
%TO.C,U4*%
X142090000Y-110127500D02*
X142965000Y-110127500D01*
X142090000Y-111002500D02*
X142090000Y-110127500D01*
X142090000Y-114472500D02*
X142090000Y-115347500D01*
X142090000Y-115347500D02*
X142965000Y-115347500D01*
X146435000Y-110127500D02*
X147070000Y-110127500D01*
X147310000Y-111002500D02*
X147310000Y-110427500D01*
X147310000Y-114472500D02*
X147310000Y-115347500D01*
X147310000Y-115347500D02*
X146435000Y-115347500D01*
X147640000Y-110367500D02*
X147310000Y-110127500D01*
X147640000Y-109887500D01*
X147640000Y-110367500D01*
G36*
X147640000Y-110367500D02*
G01*
X147310000Y-110127500D01*
X147640000Y-109887500D01*
X147640000Y-110367500D01*
G37*
%TO.C,TP11*%
X162950000Y-99750000D02*
G75*
G02*
X161550000Y-99750000I-700000J0D01*
G01*
X161550000Y-99750000D02*
G75*
G02*
X162950000Y-99750000I700000J0D01*
G01*
%TO.C,C50*%
X160007836Y-97975000D02*
X159792164Y-97975000D01*
X160007836Y-98695000D02*
X159792164Y-98695000D01*
%TO.C,TP1*%
X145075000Y-108125000D02*
G75*
G02*
X143675000Y-108125000I-700000J0D01*
G01*
X143675000Y-108125000D02*
G75*
G02*
X145075000Y-108125000I700000J0D01*
G01*
%TO.C,R24*%
X139495000Y-102221359D02*
X139495000Y-102528641D01*
X140255000Y-102221359D02*
X140255000Y-102528641D01*
%TO.C,AE2*%
X135049874Y-87130000D02*
X135049874Y-88370000D01*
X136299874Y-85880000D02*
X137539874Y-85880000D01*
X136299874Y-89620000D02*
X137539874Y-89620000D01*
X138789874Y-87130000D02*
X138789874Y-88370000D01*
%TO.C,U5*%
X152890000Y-91890000D02*
X153365000Y-91890000D01*
X152890000Y-92365000D02*
X152890000Y-91890000D01*
X152890000Y-96635000D02*
X152890000Y-97110000D01*
X152890000Y-97110000D02*
X153365000Y-97110000D01*
X157635000Y-91890000D02*
X157870000Y-91890000D01*
X158110000Y-92365000D02*
X158110000Y-92190000D01*
X158110000Y-96635000D02*
X158110000Y-97110000D01*
X158110000Y-97110000D02*
X157635000Y-97110000D01*
X158440000Y-92130000D02*
X158110000Y-91890000D01*
X158440000Y-91650000D01*
X158440000Y-92130000D01*
G36*
X158440000Y-92130000D02*
G01*
X158110000Y-91890000D01*
X158440000Y-91650000D01*
X158440000Y-92130000D01*
G37*
%TO.C,C55*%
X159847836Y-96725000D02*
X159632164Y-96725000D01*
X159847836Y-97445000D02*
X159632164Y-97445000D01*
%TO.C,C48*%
X157827836Y-99475000D02*
X157612164Y-99475000D01*
X157827836Y-100195000D02*
X157612164Y-100195000D01*
%TD*%
M02*
