%TF.GenerationSoftware,KiCad,Pcbnew,9.0.0*%
%TF.CreationDate,2025-11-27T12:56:11-07:00*%
%TF.ProjectId,OSS-Radio_2M70CM,4f53532d-5261-4646-996f-5f324d373043,rev?*%
%TF.SameCoordinates,Original*%
%TF.FileFunction,Soldermask,Top*%
%TF.FilePolarity,Negative*%
%FSLAX46Y46*%
G04 Gerber Fmt 4.6, Leading zero omitted, Abs format (unit mm)*
G04 Created by KiCad (PCBNEW 9.0.0) date 2025-11-27 12:56:11*
%MOMM*%
%LPD*%
G01*
G04 APERTURE LIST*
G04 Aperture macros list*
%AMRoundRect*
0 Rectangle with rounded corners*
0 $1 Rounding radius*
0 $2 $3 $4 $5 $6 $7 $8 $9 X,Y pos of 4 corners*
0 Add a 4 corners polygon primitive as box body*
4,1,4,$2,$3,$4,$5,$6,$7,$8,$9,$2,$3,0*
0 Add four circle primitives for the rounded corners*
1,1,$1+$1,$2,$3*
1,1,$1+$1,$4,$5*
1,1,$1+$1,$6,$7*
1,1,$1+$1,$8,$9*
0 Add four rect primitives between the rounded corners*
20,1,$1+$1,$2,$3,$4,$5,0*
20,1,$1+$1,$4,$5,$6,$7,0*
20,1,$1+$1,$6,$7,$8,$9,0*
20,1,$1+$1,$8,$9,$2,$3,0*%
%AMFreePoly0*
4,1,100,-1.631109,2.612558,-1.341386,2.546431,-1.060889,2.448281,-0.793145,2.319342,-0.541521,2.161236,-0.309182,1.975952,-0.099048,1.765818,0.086236,1.533479,0.244342,1.281855,0.373281,1.014111,0.471431,0.733614,0.537558,0.443891,0.570831,0.148587,0.570831,-0.148587,0.537558,-0.443891,0.471431,-0.733614,0.373281,-1.014111,0.244342,-1.281855,0.086236,-1.533479,-0.099048,-1.765818,
-0.309182,-1.975952,-0.541521,-2.161236,-0.793145,-2.319342,-1.060889,-2.448281,-1.341386,-2.546431,-1.631109,-2.612558,-1.926413,-2.645831,-2.223587,-2.645831,-2.518891,-2.612558,-2.808614,-2.546431,-3.089111,-2.448281,-3.356855,-2.319342,-3.608479,-2.161236,-3.840818,-1.975952,-4.050952,-1.765818,-4.236236,-1.533479,-4.394342,-1.281855,-4.523281,-1.014111,-4.621431,-0.733614,-4.687558,-0.443891,
-4.720831,-0.148587,-4.720831,0.118053,-3.575000,0.118053,-3.575000,-0.118053,-3.538065,-0.351251,-3.465104,-0.575800,-3.357915,-0.786171,-3.219136,-0.977184,-3.052184,-1.144136,-2.861171,-1.282915,-2.650800,-1.390104,-2.426251,-1.463065,-2.193053,-1.500000,-1.956947,-1.500000,-1.723749,-1.463065,-1.499200,-1.390104,-1.288829,-1.282915,-1.097816,-1.144136,-0.930864,-0.977184,-0.792085,-0.786171,
-0.684896,-0.575800,-0.611935,-0.351251,-0.575000,-0.118053,-0.575000,0.118053,-0.611935,0.351251,-0.684896,0.575800,-0.792085,0.786171,-0.930864,0.977184,-1.097816,1.144136,-1.288829,1.282915,-1.499200,1.390104,-1.723749,1.463065,-1.956947,1.500000,-2.193053,1.500000,-2.426251,1.463065,-2.650800,1.390104,-2.861171,1.282915,-3.052184,1.144136,-3.219136,0.977184,-3.357915,0.786171,
-3.465104,0.575800,-3.538065,0.351251,-3.575000,0.118053,-4.720831,0.118053,-4.720831,0.148587,-4.687558,0.443891,-4.621431,0.733614,-4.523281,1.014111,-4.394342,1.281855,-4.236236,1.533479,-4.050952,1.765818,-3.840818,1.975952,-3.608479,2.161236,-3.356855,2.319342,-3.089111,2.448281,-2.808614,2.546431,-2.518891,2.612558,-2.223587,2.645831,-1.926413,2.645831,-1.631109,2.612558,
-1.631109,2.612558,$1*%
G04 Aperture macros list end*
%ADD10RoundRect,0.140000X0.170000X-0.140000X0.170000X0.140000X-0.170000X0.140000X-0.170000X-0.140000X0*%
%ADD11RoundRect,0.147500X-0.147500X-0.172500X0.147500X-0.172500X0.147500X0.172500X-0.147500X0.172500X0*%
%ADD12C,1.000000*%
%ADD13RoundRect,0.140000X0.140000X0.170000X-0.140000X0.170000X-0.140000X-0.170000X0.140000X-0.170000X0*%
%ADD14C,3.800000*%
%ADD15RoundRect,0.135000X-0.185000X0.135000X-0.185000X-0.135000X0.185000X-0.135000X0.185000X0.135000X0*%
%ADD16RoundRect,0.140000X-0.140000X-0.170000X0.140000X-0.170000X0.140000X0.170000X-0.140000X0.170000X0*%
%ADD17RoundRect,0.135000X0.185000X-0.135000X0.185000X0.135000X-0.185000X0.135000X-0.185000X-0.135000X0*%
%ADD18RoundRect,0.147500X0.172500X-0.147500X0.172500X0.147500X-0.172500X0.147500X-0.172500X-0.147500X0*%
%ADD19RoundRect,0.225000X-0.250000X0.225000X-0.250000X-0.225000X0.250000X-0.225000X0.250000X0.225000X0*%
%ADD20RoundRect,0.140000X-0.170000X0.140000X-0.170000X-0.140000X0.170000X-0.140000X0.170000X0.140000X0*%
%ADD21RoundRect,0.225000X-0.225000X-0.250000X0.225000X-0.250000X0.225000X0.250000X-0.225000X0.250000X0*%
%ADD22RoundRect,0.250000X-1.450000X-0.650000X1.450000X-0.650000X1.450000X0.650000X-1.450000X0.650000X0*%
%ADD23RoundRect,0.147500X-0.172500X0.147500X-0.172500X-0.147500X0.172500X-0.147500X0.172500X0.147500X0*%
%ADD24R,0.609600X0.203200*%
%ADD25R,0.203200X0.609600*%
%ADD26R,0.863600X0.863600*%
%ADD27RoundRect,0.147500X0.147500X0.172500X-0.147500X0.172500X-0.147500X-0.172500X0.147500X-0.172500X0*%
%ADD28C,3.000000*%
%ADD29FreePoly0,0.000000*%
%ADD30RoundRect,0.250000X0.312500X0.625000X-0.312500X0.625000X-0.312500X-0.625000X0.312500X-0.625000X0*%
%ADD31RoundRect,0.062500X0.062500X-0.350000X0.062500X0.350000X-0.062500X0.350000X-0.062500X-0.350000X0*%
%ADD32RoundRect,0.062500X0.350000X-0.062500X0.350000X0.062500X-0.350000X0.062500X-0.350000X-0.062500X0*%
%ADD33R,1.700000X1.700000*%
%ADD34RoundRect,0.250000X-0.325000X-1.100000X0.325000X-1.100000X0.325000X1.100000X-0.325000X1.100000X0*%
%ADD35RoundRect,0.225000X0.250000X-0.225000X0.250000X0.225000X-0.250000X0.225000X-0.250000X-0.225000X0*%
%ADD36RoundRect,0.087500X-0.087500X0.425000X-0.087500X-0.425000X0.087500X-0.425000X0.087500X0.425000X0*%
%ADD37RoundRect,0.087500X-0.425000X0.087500X-0.425000X-0.087500X0.425000X-0.087500X0.425000X0.087500X0*%
%ADD38R,3.150000X3.150000*%
%ADD39C,1.240000*%
%ADD40RoundRect,0.062500X-0.062500X0.375000X-0.062500X-0.375000X0.062500X-0.375000X0.062500X0.375000X0*%
%ADD41RoundRect,0.062500X-0.375000X0.062500X-0.375000X-0.062500X0.375000X-0.062500X0.375000X0.062500X0*%
%ADD42R,3.450000X3.450000*%
G04 APERTURE END LIST*
D10*
%TO.C,C54*%
X155990000Y-99565000D03*
X155990000Y-98605000D03*
%TD*%
D11*
%TO.C,L3*%
X142285000Y-99020000D03*
X143255000Y-99020000D03*
%TD*%
D12*
%TO.C,TP16*%
X150000000Y-110000000D03*
%TD*%
D13*
%TO.C,C47*%
X160220000Y-94585000D03*
X159260000Y-94585000D03*
%TD*%
%TO.C,C45*%
X158580000Y-90700000D03*
X157620000Y-90700000D03*
%TD*%
D12*
%TO.C,TP7*%
X147500000Y-104000000D03*
%TD*%
D14*
%TO.C,H3*%
X137500000Y-111000000D03*
%TD*%
D13*
%TO.C,C49*%
X160220000Y-95835000D03*
X159260000Y-95835000D03*
%TD*%
D14*
%TO.C,H2*%
X136500000Y-82000000D03*
%TD*%
D10*
%TO.C,C41*%
X143270000Y-97750000D03*
X143270000Y-96790000D03*
%TD*%
D14*
%TO.C,H1*%
X163500000Y-82000000D03*
%TD*%
D15*
%TO.C,R12*%
X148000000Y-94240000D03*
X148000000Y-95260000D03*
%TD*%
D16*
%TO.C,C44*%
X149270000Y-94100000D03*
X150230000Y-94100000D03*
%TD*%
D12*
%TO.C,TP8*%
X152900000Y-101100000D03*
%TD*%
D11*
%TO.C,L15*%
X142285000Y-95520000D03*
X143255000Y-95520000D03*
%TD*%
D17*
%TO.C,R16*%
X149500000Y-103510000D03*
X149500000Y-102490000D03*
%TD*%
D12*
%TO.C,TP10*%
X154900000Y-100900000D03*
%TD*%
%TO.C,TP9*%
X145500000Y-90500000D03*
%TD*%
D13*
%TO.C,C39*%
X141000000Y-99500000D03*
X140040000Y-99500000D03*
%TD*%
%TO.C,C37*%
X141750000Y-100750000D03*
X140790000Y-100750000D03*
%TD*%
D18*
%TO.C,L12*%
X161750000Y-102235000D03*
X161750000Y-101265000D03*
%TD*%
D16*
%TO.C,C66*%
X149620000Y-97100000D03*
X150580000Y-97100000D03*
%TD*%
%TO.C,C60*%
X150320000Y-100700000D03*
X151280000Y-100700000D03*
%TD*%
D12*
%TO.C,TP17*%
X156250000Y-110250000D03*
%TD*%
D19*
%TO.C,C17*%
X144500000Y-116825000D03*
X144500000Y-118375000D03*
%TD*%
D12*
%TO.C,TP2*%
X158000000Y-114250000D03*
%TD*%
D20*
%TO.C,C43*%
X138750000Y-102020000D03*
X138750000Y-102980000D03*
%TD*%
%TO.C,C46*%
X155000000Y-89620000D03*
X155000000Y-90580000D03*
%TD*%
D12*
%TO.C,TP19*%
X149000000Y-114500000D03*
%TD*%
D21*
%TO.C,C16*%
X146925000Y-116900000D03*
X148475000Y-116900000D03*
%TD*%
D22*
%TO.C,TP23*%
X154500000Y-116750000D03*
%TD*%
D10*
%TO.C,C38*%
X142020000Y-97750000D03*
X142020000Y-96790000D03*
%TD*%
D20*
%TO.C,C61*%
X148500000Y-97820000D03*
X148500000Y-98780000D03*
%TD*%
D23*
%TO.C,L13*%
X158500000Y-102030000D03*
X158500000Y-103000000D03*
%TD*%
D12*
%TO.C,TP12*%
X152125000Y-89000000D03*
%TD*%
D24*
%TO.C,U7*%
X142146574Y-87249874D03*
X142146574Y-87750000D03*
X142146574Y-88250126D03*
D25*
X142649748Y-88753300D03*
X143149874Y-88753300D03*
X143650000Y-88753300D03*
D24*
X144153174Y-88250126D03*
X144153174Y-87750000D03*
X144153174Y-87249874D03*
D25*
X143650000Y-86746700D03*
X143149874Y-86746700D03*
X142649748Y-86746700D03*
D26*
X143149874Y-87750000D03*
%TD*%
D12*
%TO.C,TP20*%
X152000000Y-111250000D03*
%TD*%
D13*
%TO.C,C40*%
X140730000Y-98250000D03*
X139770000Y-98250000D03*
%TD*%
D12*
%TO.C,TP18*%
X156250000Y-108250000D03*
%TD*%
D10*
%TO.C,C42*%
X143250000Y-94250000D03*
X143250000Y-93290000D03*
%TD*%
D12*
%TO.C,TP15*%
X152000000Y-113750000D03*
%TD*%
D27*
%TO.C,L14*%
X157235000Y-102015000D03*
X156265000Y-102015000D03*
%TD*%
D12*
%TO.C,TP6*%
X143270000Y-100500000D03*
%TD*%
%TO.C,TP14*%
X137750000Y-96750000D03*
%TD*%
%TO.C,TP21*%
X150250000Y-89850000D03*
%TD*%
D28*
%TO.C,MP1*%
X137625000Y-116875000D03*
D29*
X139700000Y-116875000D03*
%TD*%
D12*
%TO.C,TP4*%
X140399874Y-87750000D03*
%TD*%
%TO.C,TP3*%
X142400000Y-117000000D03*
%TD*%
D30*
%TO.C,R15*%
X152962500Y-98900000D03*
X150037500Y-98900000D03*
%TD*%
D31*
%TO.C,U3*%
X142020000Y-105175000D03*
X142520000Y-105175000D03*
X143020000Y-105175000D03*
X143520000Y-105175000D03*
D32*
X144232500Y-104462500D03*
X144232500Y-103962500D03*
X144232500Y-103462500D03*
X144232500Y-102962500D03*
D31*
X143520000Y-102250000D03*
X143020000Y-102250000D03*
X142520000Y-102250000D03*
X142020000Y-102250000D03*
D32*
X141307500Y-102962500D03*
X141307500Y-103462500D03*
X141307500Y-103962500D03*
X141307500Y-104462500D03*
D33*
X142770000Y-103712500D03*
%TD*%
D16*
%TO.C,C51*%
X149520000Y-95900000D03*
X150480000Y-95900000D03*
%TD*%
D13*
%TO.C,C65*%
X160730000Y-102015000D03*
X159770000Y-102015000D03*
%TD*%
D20*
%TO.C,C53*%
X153750000Y-89620000D03*
X153750000Y-90580000D03*
%TD*%
D12*
%TO.C,TP5*%
X143250000Y-90500000D03*
%TD*%
D16*
%TO.C,C57*%
X157260000Y-98585000D03*
X158220000Y-98585000D03*
%TD*%
D12*
%TO.C,TP13*%
X155000000Y-106250000D03*
%TD*%
D21*
%TO.C,C18*%
X147475000Y-108250000D03*
X149025000Y-108250000D03*
%TD*%
D16*
%TO.C,C64*%
X145520000Y-88750000D03*
X146480000Y-88750000D03*
%TD*%
D28*
%TO.C,MP2*%
X158250000Y-83000000D03*
D29*
X160325000Y-83000000D03*
%TD*%
D14*
%TO.C,H4*%
X162500000Y-111000000D03*
%TD*%
D34*
%TO.C,C14*%
X136325000Y-106900000D03*
X139275000Y-106900000D03*
%TD*%
D13*
%TO.C,C56*%
X160220000Y-93335000D03*
X159260000Y-93335000D03*
%TD*%
%TO.C,C62*%
X152880000Y-102600000D03*
X151920000Y-102600000D03*
%TD*%
D28*
%TO.C,MP3*%
X162375000Y-116875000D03*
D29*
X164450000Y-116875000D03*
%TD*%
D35*
%TO.C,C19*%
X142500000Y-108400000D03*
X142500000Y-106850000D03*
%TD*%
D16*
%TO.C,C52*%
X148717500Y-92850000D03*
X149677500Y-92850000D03*
%TD*%
D12*
%TO.C,TP22*%
X152500000Y-106000000D03*
%TD*%
D18*
%TO.C,L11*%
X150750000Y-103485000D03*
X150750000Y-102515000D03*
%TD*%
D16*
%TO.C,C63*%
X145520000Y-87500000D03*
X146480000Y-87500000D03*
%TD*%
D36*
%TO.C,U4*%
X146000000Y-110375000D03*
X145350000Y-110375000D03*
X144700000Y-110375000D03*
X144050000Y-110375000D03*
X143400000Y-110375000D03*
D37*
X142337500Y-111437500D03*
X142337500Y-112087500D03*
X142337500Y-112737500D03*
X142337500Y-113387500D03*
X142337500Y-114037500D03*
D36*
X143400000Y-115100000D03*
X144050000Y-115100000D03*
X144700000Y-115100000D03*
X145350000Y-115100000D03*
X146000000Y-115100000D03*
D37*
X147062500Y-114037500D03*
X147062500Y-113387500D03*
X147062500Y-112737500D03*
X147062500Y-112087500D03*
X147062500Y-111437500D03*
D38*
X144700000Y-112737500D03*
%TD*%
D12*
%TO.C,TP11*%
X162250000Y-99750000D03*
%TD*%
D13*
%TO.C,C50*%
X160380000Y-98335000D03*
X159420000Y-98335000D03*
%TD*%
D11*
%TO.C,L10*%
X138765000Y-104000000D03*
X139735000Y-104000000D03*
%TD*%
D12*
%TO.C,TP1*%
X144375000Y-108125000D03*
%TD*%
D11*
%TO.C,L16*%
X142285000Y-92020000D03*
X143255000Y-92020000D03*
%TD*%
D15*
%TO.C,R24*%
X139875000Y-101865000D03*
X139875000Y-102885000D03*
%TD*%
D39*
%TO.C,AE2*%
X136919874Y-87750000D03*
X138189874Y-89020000D03*
X138189874Y-86480000D03*
X135649874Y-89020000D03*
X135649874Y-86480000D03*
%TD*%
D40*
%TO.C,U5*%
X157250000Y-92062500D03*
X156750000Y-92062500D03*
X156250000Y-92062500D03*
X155750000Y-92062500D03*
X155250000Y-92062500D03*
X154750000Y-92062500D03*
X154250000Y-92062500D03*
X153750000Y-92062500D03*
D41*
X153062500Y-92750000D03*
X153062500Y-93250000D03*
X153062500Y-93750000D03*
X153062500Y-94250000D03*
X153062500Y-94750000D03*
X153062500Y-95250000D03*
X153062500Y-95750000D03*
X153062500Y-96250000D03*
D40*
X153750000Y-96937500D03*
X154250000Y-96937500D03*
X154750000Y-96937500D03*
X155250000Y-96937500D03*
X155750000Y-96937500D03*
X156250000Y-96937500D03*
X156750000Y-96937500D03*
X157250000Y-96937500D03*
D41*
X157937500Y-96250000D03*
X157937500Y-95750000D03*
X157937500Y-95250000D03*
X157937500Y-94750000D03*
X157937500Y-94250000D03*
X157937500Y-93750000D03*
X157937500Y-93250000D03*
X157937500Y-92750000D03*
D42*
X155500000Y-94500000D03*
%TD*%
D13*
%TO.C,C55*%
X160220000Y-97085000D03*
X159260000Y-97085000D03*
%TD*%
%TO.C,C48*%
X158200000Y-99835000D03*
X157240000Y-99835000D03*
%TD*%
M02*
