M48
; DRILL file {KiCad 9.0.0} date 2025-11-27T12:56:08-0700
; FORMAT={-:-/ absolute / metric / decimal}
; #@! TF.CreationDate,2025-11-27T12:56:08-07:00
; #@! TF.GenerationSoftware,Kicad,Pcbnew,9.0.0
; #@! TF.FileFunction,Plated,1,4,PTH
FMAT,2
METRIC
; #@! TA.AperFunction,Plated,PTH,ViaDrill
T1C0.300
; #@! TA.AperFunction,Plated,PTH,ComponentDrill
T2C0.300
; #@! TA.AperFunction,Plated,PTH,ComponentDrill
T3C0.840
; #@! TA.AperFunction,Plated,PTH,ComponentDrill
T4C2.200
%
G90
G05
T1
X135.25Y-91.0
X135.25Y-93.0
X135.25Y-95.0
X135.25Y-97.0
X135.25Y-99.0
X135.25Y-101.0
X135.25Y-103.0
X135.25Y-105.0
X135.25Y-107.0
X135.25Y-109.25
X135.5Y-87.75
X136.0Y-114.0
X137.0Y-85.0
X137.0Y-86.5
X137.0Y-89.0
X137.0Y-91.0
X137.0Y-93.0
X137.0Y-95.0
X137.0Y-99.0
X137.0Y-101.0
X137.0Y-103.0
X137.0Y-105.0
X137.5Y-106.9
X138.0Y-103.0
X138.0Y-104.875
X138.25Y-97.5
X139.0Y-81.0
X139.0Y-83.0
X139.0Y-85.0
X139.0Y-91.0
X139.0Y-93.0
X139.0Y-95.0
X139.0Y-114.0
X139.25Y-99.0
X139.5Y-101.0
X139.969Y-89.998
X140.0Y-86.0
X140.0Y-89.0
X140.25Y-97.5
X140.478Y-104.312
X140.625Y-105.425
X140.8Y-106.4
X140.8Y-108.5
X141.0Y-83.0
X141.0Y-89.0
X141.0Y-92.0
X141.0Y-94.0
X141.0Y-96.0
X141.0Y-110.0
X141.0Y-112.0
X141.0Y-114.0
X141.0Y-119.0
X141.25Y-97.5
X141.25Y-101.625
X141.25Y-105.0
X141.5Y-86.5
X141.5Y-89.5
X141.5Y-99.0
X141.5Y-115.5
X141.5Y-116.25
X141.75Y-100.0
X142.125Y-90.5
X142.25Y-103.125
X142.25Y-115.5
X142.375Y-110.375
X142.5Y-85.5
X142.5Y-106.0
X142.77Y-103.712
X143.0Y-83.0
X143.0Y-119.0
X143.186Y-107.624
X143.25Y-84.75
X143.25Y-116.0
X143.75Y-108.875
X144.25Y-90.5
X144.25Y-91.5
X144.25Y-93.5
X144.25Y-95.5
X144.25Y-97.5
X144.5Y-84.5
X144.5Y-106.375
X144.7Y-115.9
X144.772Y-90.001
X144.8Y-86.5
X144.835Y-87.953
X145.0Y-83.0
X145.25Y-98.25
X145.25Y-102.5
X145.25Y-104.0
X145.5Y-86.75
X145.5Y-89.5
X145.794Y-116.024
X146.5Y-84.5
X146.5Y-86.5
X146.5Y-99.5
X146.7Y-110.9
X146.75Y-109.75
X147.0Y-83.0
X147.0Y-93.0
X147.0Y-95.0
X147.0Y-97.0
X147.0Y-101.0
X147.0Y-103.0
X147.125Y-110.375
X147.375Y-106.125
X147.5Y-90.25
X147.6Y-98.8
X147.75Y-102.5
X147.75Y-109.375
X147.8Y-114.6
X148.0Y-111.75
X148.001Y-107.25
X148.25Y-112.75
X148.5Y-84.5
X148.5Y-86.5
X148.75Y-91.5
X149.0Y-83.0
X149.105Y-110.0
X149.125Y-88.5
X149.477Y-100.71
X149.5Y-97.8
X149.5Y-106.25
X149.5Y-109.125
X149.505Y-92.25
X149.505Y-105.5
X149.6Y-101.5
X149.75Y-94.725
X149.75Y-111.25
X149.8Y-100.1
X150.0Y-119.275
X150.107Y-92.005
X150.25Y-104.25
X150.5Y-84.5
X150.5Y-86.5
X150.5Y-91.0
X150.5Y-112.0
X150.75Y-113.25
X150.77Y-109.487
X150.812Y-92.605
X151.0Y-81.0
X151.0Y-83.0
X151.0Y-90.35
X151.1Y-98.2
X151.1Y-99.0
X151.1Y-99.7
X151.3Y-101.5
X151.375Y-110.625
X151.4Y-95.775
X151.4Y-97.1
X151.5Y-119.275
X151.75Y-103.5
X151.75Y-112.25
X151.845Y-109.75
X151.885Y-92.115
X151.9Y-99.7
X152.35Y-107.0
X152.5Y-84.5
X152.5Y-86.6
X152.5Y-97.25
X152.5Y-105.0
X152.527Y-92.005
X152.75Y-89.775
X152.75Y-90.495
X153.0Y-81.0
X153.0Y-83.0
X153.25Y-113.25
X153.432Y-108.032
X153.5Y-109.75
X153.5Y-118.25
X153.5Y-119.0
X153.75Y-103.75
X153.75Y-114.925
X153.9Y-100.3
X153.975Y-111.0
X154.113Y-98.337
X154.125Y-106.625
X154.134Y-99.2
X154.25Y-105.5
X154.4Y-87.1
X154.5Y-85.0
X154.5Y-95.5
X154.5Y-115.25
X154.5Y-118.25
X154.5Y-119.0
X155.0Y-81.0
X155.0Y-83.0
X155.0Y-102.5
X155.088Y-91.095
X155.125Y-110.75
X155.137Y-108.256
X155.362Y-109.612
X155.5Y-95.5
X155.5Y-119.0
X155.737Y-91.0
X155.75Y-112.5
X155.9Y-90.1
X156.0Y-100.75
X156.3Y-88.1
X156.372Y-90.865
X156.433Y-97.817
X156.5Y-86.0
X156.5Y-93.5
X156.5Y-94.5
X156.5Y-95.5
X156.5Y-115.5
X156.5Y-119.0
X156.75Y-89.75
X156.75Y-103.0
X157.0Y-106.0
X157.24Y-100.5
X157.5Y-119.0
X157.6Y-90.0
X158.0Y-112.5
X158.125Y-92.25
X158.126Y-97.037
X158.25Y-89.25
X158.5Y-87.0
X158.5Y-101.25
X158.5Y-115.5
X158.5Y-119.0
X158.875Y-110.625
X158.875Y-111.5
X159.0Y-106.0
X159.5Y-95.25
X159.5Y-103.0
X159.5Y-119.0
X159.511Y-99.0
X159.625Y-107.25
X159.9Y-88.0
X160.0Y-91.0
X160.2Y-100.75
X160.875Y-99.75
X160.985Y-103.0
X161.0Y-81.0
X161.0Y-85.0
X161.0Y-87.0
X161.0Y-92.0
X161.0Y-106.0
X161.0Y-113.5
X161.25Y-89.25
X161.25Y-93.0
X161.25Y-94.5
X161.25Y-96.0
X161.25Y-97.5
X161.25Y-98.75
X162.0Y-90.25
X162.5Y-103.0
X162.625Y-91.25
X163.0Y-85.0
X163.0Y-87.0
X163.0Y-89.0
X163.0Y-92.5
X163.0Y-93.75
X163.0Y-95.0
X163.0Y-96.25
X163.0Y-97.5
X163.0Y-98.75
X163.0Y-102.0
X163.0Y-104.0
X163.0Y-106.0
X163.0Y-108.0
X163.25Y-101.0
X164.0Y-113.5
X164.5Y-85.0
X164.5Y-87.0
X164.5Y-89.0
X164.5Y-91.0
X164.5Y-93.0
X164.5Y-95.0
X164.5Y-97.0
X164.5Y-99.0
X164.5Y-101.0
X164.5Y-103.0
T2
X143.7Y-111.737
X143.7Y-112.737
X143.7Y-113.737
X144.7Y-111.737
X144.7Y-112.737
X144.7Y-113.737
X145.7Y-111.737
X145.7Y-112.737
X145.7Y-113.737
T3
X135.65Y-86.48
X135.65Y-89.02
X136.92Y-87.75
X138.19Y-86.48
X138.19Y-89.02
T4
X136.5Y-82.0
X137.5Y-111.0
X162.5Y-111.0
X163.5Y-82.0
M30
