%TF.GenerationSoftware,KiCad,Pcbnew,9.0.0*%
%TF.CreationDate,2025-11-27T12:56:11-07:00*%
%TF.ProjectId,OSS-Radio_2M70CM,4f53532d-5261-4646-996f-5f324d373043,rev?*%
%TF.SameCoordinates,Original*%
%TF.FileFunction,Paste,Top*%
%TF.FilePolarity,Positive*%
%FSLAX46Y46*%
G04 Gerber Fmt 4.6, Leading zero omitted, Abs format (unit mm)*
G04 Created by KiCad (PCBNEW 9.0.0) date 2025-11-27 12:56:11*
%MOMM*%
%LPD*%
G01*
G04 APERTURE LIST*
G04 Aperture macros list*
%AMRoundRect*
0 Rectangle with rounded corners*
0 $1 Rounding radius*
0 $2 $3 $4 $5 $6 $7 $8 $9 X,Y pos of 4 corners*
0 Add a 4 corners polygon primitive as box body*
4,1,4,$2,$3,$4,$5,$6,$7,$8,$9,$2,$3,0*
0 Add four circle primitives for the rounded corners*
1,1,$1+$1,$2,$3*
1,1,$1+$1,$4,$5*
1,1,$1+$1,$6,$7*
1,1,$1+$1,$8,$9*
0 Add four rect primitives between the rounded corners*
20,1,$1+$1,$2,$3,$4,$5,0*
20,1,$1+$1,$4,$5,$6,$7,0*
20,1,$1+$1,$6,$7,$8,$9,0*
20,1,$1+$1,$8,$9,$2,$3,0*%
%AMFreePoly0*
4,1,83,1.042816,1.072236,1.072613,1.072236,1.081945,1.068370,1.088357,1.067737,1.095036,1.062947,1.108661,1.057304,1.123242,1.042722,1.130424,1.037573,1.132104,1.033860,1.136251,1.029714,1.151183,0.993666,1.151427,0.991179,1.151773,0.990417,1.151637,0.989047,1.153104,0.974157,1.153104,0.147677,1.151183,0.128168,1.149302,0.123628,1.149244,0.120163,1.144799,0.112757,
1.136251,0.092120,1.126655,0.082524,1.122607,0.075779,1.116546,0.072415,1.108661,0.064530,1.083729,0.054202,1.077346,0.050660,1.077347,0.050660,0.975563,0.025306,0.780742,-0.052508,0.598179,-0.155859,0.431205,-0.282864,0.282864,-0.431205,0.155859,-0.598179,0.052508,-0.780742,-0.025306,-0.975563,-0.050660,-1.077347,-0.050660,-1.077346,-0.054202,-1.083729,-0.064530,-1.108661,
-0.072415,-1.116546,-0.075779,-1.122607,-0.082524,-1.126655,-0.092120,-1.136251,-0.112757,-1.144799,-0.120163,-1.149244,-0.123628,-1.149302,-0.128168,-1.151183,-0.147677,-1.153104,-0.974157,-1.153104,-0.989047,-1.151637,-0.990417,-1.151773,-0.991179,-1.151427,-0.993666,-1.151183,-1.029714,-1.136251,-1.033860,-1.132104,-1.037573,-1.130424,-1.042722,-1.123242,-1.057304,-1.108661,-1.062947,-1.095036,
-1.067737,-1.088357,-1.068370,-1.081945,-1.072236,-1.072613,-1.072236,-1.042816,-1.072826,-1.036844,-1.072236,-1.034204,-1.072236,-1.033595,-1.071940,-1.032881,-1.009706,-0.754420,-0.915115,-0.480924,-0.790260,-0.219852,-0.636738,0.025461,-0.456510,0.251879,-0.251879,0.456510,-0.025461,0.636738,0.219852,0.790260,0.480924,0.915115,0.754420,1.009706,1.032881,1.071940,1.033595,1.072236,
1.034204,1.072236,1.036844,1.072826,1.042816,1.072236,1.042816,1.072236,$1*%
%AMFreePoly1*
4,1,83,-0.128168,1.151183,-0.123628,1.149302,-0.120163,1.149244,-0.112757,1.144799,-0.092120,1.136251,-0.082524,1.126655,-0.075779,1.122607,-0.072415,1.116546,-0.064530,1.108661,-0.054202,1.083729,-0.050660,1.077346,-0.050660,1.077347,-0.025306,0.975563,0.052508,0.780742,0.155859,0.598179,0.282864,0.431205,0.431205,0.282864,0.598179,0.155859,0.780742,0.052508,0.975563,-0.025306,
1.077347,-0.050660,1.077346,-0.050660,1.083729,-0.054202,1.108661,-0.064530,1.116546,-0.072415,1.122607,-0.075779,1.126655,-0.082524,1.136251,-0.092120,1.144799,-0.112757,1.149244,-0.120163,1.149302,-0.123628,1.151183,-0.128168,1.153104,-0.147677,1.153104,-0.974157,1.151637,-0.989047,1.151773,-0.990417,1.151427,-0.991179,1.151183,-0.993666,1.136251,-1.029714,1.132104,-1.033860,
1.130424,-1.037573,1.123242,-1.042722,1.108661,-1.057304,1.095036,-1.062947,1.088357,-1.067737,1.081945,-1.068370,1.072613,-1.072236,1.042816,-1.072236,1.036844,-1.072826,1.034204,-1.072236,1.033595,-1.072236,1.032881,-1.071940,0.754420,-1.009706,0.480924,-0.915115,0.219852,-0.790260,-0.025461,-0.636738,-0.251879,-0.456510,-0.456510,-0.251879,-0.636738,-0.025461,-0.790260,0.219852,
-0.915115,0.480924,-1.009706,0.754420,-1.071940,1.032881,-1.072236,1.033595,-1.072236,1.034204,-1.072826,1.036844,-1.072236,1.042816,-1.072236,1.072613,-1.068370,1.081945,-1.067737,1.088357,-1.062947,1.095036,-1.057304,1.108661,-1.042722,1.123242,-1.037573,1.130424,-1.033860,1.132104,-1.029714,1.136251,-0.993666,1.151183,-0.991179,1.151427,-0.990417,1.151773,-0.989047,1.151637,
-0.974157,1.153104,-0.147677,1.153104,-0.128168,1.151183,-0.128168,1.151183,$1*%
%AMFreePoly2*
4,1,83,-1.034204,1.072236,-1.033595,1.072236,-1.032881,1.071940,-0.754420,1.009706,-0.480924,0.915115,-0.219852,0.790260,0.025461,0.636738,0.251879,0.456510,0.456510,0.251879,0.636738,0.025461,0.790260,-0.219852,0.915115,-0.480924,1.009706,-0.754420,1.071940,-1.032881,1.072236,-1.033595,1.072236,-1.034204,1.072826,-1.036844,1.072236,-1.042816,1.072236,-1.072613,1.068370,-1.081945,
1.067737,-1.088357,1.062947,-1.095036,1.057304,-1.108661,1.042722,-1.123242,1.037573,-1.130424,1.033860,-1.132104,1.029714,-1.136251,0.993666,-1.151183,0.991179,-1.151427,0.990417,-1.151773,0.989047,-1.151637,0.974157,-1.153104,0.147677,-1.153104,0.128168,-1.151183,0.123628,-1.149302,0.120163,-1.149244,0.112757,-1.144799,0.092120,-1.136251,0.082524,-1.126655,0.075779,-1.122607,
0.072415,-1.116546,0.064530,-1.108661,0.054202,-1.083729,0.050660,-1.077346,0.050660,-1.077347,0.025306,-0.975563,-0.052508,-0.780742,-0.155859,-0.598179,-0.282864,-0.431205,-0.431205,-0.282864,-0.598179,-0.155859,-0.780742,-0.052508,-0.975563,0.025306,-1.077347,0.050660,-1.077346,0.050660,-1.083729,0.054202,-1.108661,0.064530,-1.116546,0.072415,-1.122607,0.075779,-1.126655,0.082524,
-1.136251,0.092120,-1.144799,0.112757,-1.149244,0.120163,-1.149302,0.123628,-1.151183,0.128168,-1.153104,0.147677,-1.153104,0.974157,-1.151637,0.989047,-1.151773,0.990417,-1.151427,0.991179,-1.151183,0.993666,-1.136251,1.029714,-1.132104,1.033860,-1.130424,1.037573,-1.123242,1.042722,-1.108661,1.057304,-1.095036,1.062947,-1.088357,1.067737,-1.081945,1.068370,-1.072613,1.072236,
-1.042816,1.072236,-1.036844,1.072826,-1.034204,1.072236,-1.034204,1.072236,$1*%
%AMFreePoly3*
4,1,83,0.989047,1.151637,0.990417,1.151773,0.991179,1.151427,0.993666,1.151183,1.029714,1.136251,1.033860,1.132104,1.037573,1.130424,1.042722,1.123242,1.057304,1.108661,1.062947,1.095036,1.067737,1.088357,1.068370,1.081945,1.072236,1.072613,1.072236,1.042816,1.072826,1.036844,1.072236,1.034204,1.072236,1.033595,1.071940,1.032881,1.009706,0.754420,0.915115,0.480924,
0.790260,0.219852,0.636738,-0.025461,0.456510,-0.251879,0.251879,-0.456510,0.025461,-0.636738,-0.219852,-0.790260,-0.480924,-0.915115,-0.754420,-1.009706,-1.032881,-1.071940,-1.033595,-1.072236,-1.034204,-1.072236,-1.036844,-1.072826,-1.042816,-1.072236,-1.072613,-1.072236,-1.081945,-1.068370,-1.088357,-1.067737,-1.095036,-1.062947,-1.108661,-1.057304,-1.123242,-1.042722,-1.130424,-1.037573,
-1.132104,-1.033860,-1.136251,-1.029714,-1.151183,-0.993666,-1.151427,-0.991179,-1.151773,-0.990417,-1.151637,-0.989047,-1.153104,-0.974157,-1.153104,-0.147677,-1.151183,-0.128168,-1.149302,-0.123628,-1.149244,-0.120163,-1.144799,-0.112757,-1.136251,-0.092120,-1.126655,-0.082524,-1.122607,-0.075779,-1.116546,-0.072415,-1.108661,-0.064530,-1.083729,-0.054202,-1.077346,-0.050660,-1.077347,-0.050660,
-0.975563,-0.025306,-0.780742,0.052508,-0.598179,0.155859,-0.431205,0.282864,-0.282864,0.431205,-0.155859,0.598179,-0.052508,0.780742,0.025306,0.975563,0.050660,1.077347,0.050660,1.077346,0.054202,1.083729,0.064530,1.108661,0.072415,1.116546,0.075779,1.122607,0.082524,1.126655,0.092120,1.136251,0.112757,1.144799,0.120163,1.149244,0.123628,1.149302,0.128168,1.151183,
0.147677,1.153104,0.974157,1.153104,0.989047,1.151637,0.989047,1.151637,$1*%
%AMFreePoly4*
4,1,19,0.178553,0.213392,0.221317,0.164040,0.231790,0.115895,0.231790,-0.012362,0.213392,-0.075020,0.197845,-0.094312,0.094312,-0.197845,0.036997,-0.229141,0.012362,-0.231790,-0.115895,-0.231790,-0.178553,-0.213392,-0.221317,-0.164040,-0.231790,-0.115895,-0.231790,0.115895,-0.213392,0.178553,-0.164040,0.221317,-0.115895,0.231790,0.115895,0.231790,0.178553,0.213392,0.178553,0.213392,
$1*%
%AMFreePoly5*
4,1,21,0.122595,0.381565,0.128518,0.376137,0.204814,0.299841,0.231439,0.242746,0.231789,0.234719,0.231789,-0.234719,0.210242,-0.293918,0.204814,-0.299841,0.128518,-0.376137,0.071423,-0.402762,0.063396,-0.403112,-0.139692,-0.403112,-0.198891,-0.381565,-0.230390,-0.327007,-0.231789,-0.311015,-0.231789,0.311015,-0.210242,0.370214,-0.155684,0.401713,-0.139692,0.403112,0.063396,0.403112,
0.122595,0.381565,0.122595,0.381565,$1*%
%AMFreePoly6*
4,1,19,0.075020,0.213392,0.094312,0.197845,0.197845,0.094312,0.229141,0.036997,0.231790,0.012362,0.231790,-0.115895,0.213392,-0.178553,0.164040,-0.221317,0.115895,-0.231790,-0.115895,-0.231790,-0.178553,-0.213392,-0.221317,-0.164040,-0.231790,-0.115895,-0.231790,0.115895,-0.213392,0.178553,-0.164040,0.221317,-0.115895,0.231790,0.012362,0.231790,0.075020,0.213392,0.075020,0.213392,
$1*%
%AMFreePoly7*
4,1,21,0.370214,0.210242,0.401713,0.155684,0.403112,0.139692,0.403112,-0.063396,0.381565,-0.122595,0.376137,-0.128518,0.299841,-0.204814,0.242746,-0.231439,0.234719,-0.231789,-0.234719,-0.231789,-0.293918,-0.210242,-0.299841,-0.204814,-0.376137,-0.128518,-0.402762,-0.071423,-0.403112,-0.063396,-0.403112,0.139692,-0.381565,0.198891,-0.327007,0.230390,-0.311015,0.231789,0.311015,0.231789,
0.370214,0.210242,0.370214,0.210242,$1*%
%AMFreePoly8*
4,1,21,0.293918,0.210242,0.299841,0.204814,0.376137,0.128518,0.402762,0.071423,0.403112,0.063396,0.403112,-0.139692,0.381565,-0.198891,0.327007,-0.230390,0.311015,-0.231789,-0.311015,-0.231789,-0.370214,-0.210242,-0.401713,-0.155684,-0.403112,-0.139692,-0.403112,0.063396,-0.381565,0.122595,-0.376137,0.128518,-0.299841,0.204814,-0.242746,0.231439,-0.234719,0.231789,0.234719,0.231789,
0.293918,0.210242,0.293918,0.210242,$1*%
%AMFreePoly9*
4,1,19,0.178553,0.213392,0.221317,0.164040,0.231790,0.115895,0.231790,-0.115895,0.213392,-0.178553,0.164040,-0.221317,0.115895,-0.231790,-0.012362,-0.231790,-0.075020,-0.213392,-0.094312,-0.197845,-0.197845,-0.094312,-0.229141,-0.036997,-0.231790,-0.012362,-0.231790,0.115895,-0.213392,0.178553,-0.164040,0.221317,-0.115895,0.231790,0.115895,0.231790,0.178553,0.213392,0.178553,0.213392,
$1*%
%AMFreePoly10*
4,1,21,0.198891,0.381565,0.230390,0.327007,0.231789,0.311015,0.231789,-0.311015,0.210242,-0.370214,0.155684,-0.401713,0.139692,-0.403112,-0.063396,-0.403112,-0.122595,-0.381565,-0.128518,-0.376137,-0.204814,-0.299841,-0.231439,-0.242746,-0.231789,-0.234719,-0.231789,0.234719,-0.210242,0.293918,-0.204814,0.299841,-0.128518,0.376137,-0.071423,0.402762,-0.063396,0.403112,0.139692,0.403112,
0.198891,0.381565,0.198891,0.381565,$1*%
%AMFreePoly11*
4,1,19,0.178553,0.213392,0.221317,0.164040,0.231790,0.115895,0.231790,-0.115895,0.213392,-0.178553,0.164040,-0.221317,0.115895,-0.231790,-0.115895,-0.231790,-0.178553,-0.213392,-0.221317,-0.164040,-0.231790,-0.115895,-0.231790,0.012362,-0.213392,0.075020,-0.197845,0.094312,-0.094312,0.197845,-0.036997,0.229141,-0.012362,0.231790,0.115895,0.231790,0.178553,0.213392,0.178553,0.213392,
$1*%
G04 Aperture macros list end*
%ADD10RoundRect,0.140000X0.170000X-0.140000X0.170000X0.140000X-0.170000X0.140000X-0.170000X-0.140000X0*%
%ADD11RoundRect,0.147500X-0.147500X-0.172500X0.147500X-0.172500X0.147500X0.172500X-0.147500X0.172500X0*%
%ADD12RoundRect,0.140000X0.140000X0.170000X-0.140000X0.170000X-0.140000X-0.170000X0.140000X-0.170000X0*%
%ADD13RoundRect,0.135000X-0.185000X0.135000X-0.185000X-0.135000X0.185000X-0.135000X0.185000X0.135000X0*%
%ADD14RoundRect,0.140000X-0.140000X-0.170000X0.140000X-0.170000X0.140000X0.170000X-0.140000X0.170000X0*%
%ADD15RoundRect,0.135000X0.185000X-0.135000X0.185000X0.135000X-0.185000X0.135000X-0.185000X-0.135000X0*%
%ADD16RoundRect,0.147500X0.172500X-0.147500X0.172500X0.147500X-0.172500X0.147500X-0.172500X-0.147500X0*%
%ADD17RoundRect,0.225000X-0.250000X0.225000X-0.250000X-0.225000X0.250000X-0.225000X0.250000X0.225000X0*%
%ADD18RoundRect,0.140000X-0.170000X0.140000X-0.170000X-0.140000X0.170000X-0.140000X0.170000X0.140000X0*%
%ADD19RoundRect,0.225000X-0.225000X-0.250000X0.225000X-0.250000X0.225000X0.250000X-0.225000X0.250000X0*%
%ADD20RoundRect,0.250000X-1.450000X-0.650000X1.450000X-0.650000X1.450000X0.650000X-1.450000X0.650000X0*%
%ADD21RoundRect,0.147500X-0.172500X0.147500X-0.172500X-0.147500X0.172500X-0.147500X0.172500X0.147500X0*%
%ADD22R,0.609600X0.203200*%
%ADD23R,0.203200X0.609600*%
%ADD24R,0.863600X0.863600*%
%ADD25RoundRect,0.147500X0.147500X0.172500X-0.147500X0.172500X-0.147500X-0.172500X0.147500X-0.172500X0*%
%ADD26FreePoly0,0.000000*%
%ADD27FreePoly1,0.000000*%
%ADD28FreePoly2,0.000000*%
%ADD29FreePoly3,0.000000*%
%ADD30RoundRect,0.250000X0.312500X0.625000X-0.312500X0.625000X-0.312500X-0.625000X0.312500X-0.625000X0*%
%ADD31RoundRect,0.250000X0.435000X-0.435000X0.435000X0.435000X-0.435000X0.435000X-0.435000X-0.435000X0*%
%ADD32RoundRect,0.062500X0.062500X-0.350000X0.062500X0.350000X-0.062500X0.350000X-0.062500X-0.350000X0*%
%ADD33RoundRect,0.062500X0.350000X-0.062500X0.350000X0.062500X-0.350000X0.062500X-0.350000X-0.062500X0*%
%ADD34RoundRect,0.250000X-0.325000X-1.100000X0.325000X-1.100000X0.325000X1.100000X-0.325000X1.100000X0*%
%ADD35RoundRect,0.225000X0.250000X-0.225000X0.250000X0.225000X-0.250000X0.225000X-0.250000X-0.225000X0*%
%ADD36FreePoly4,270.000000*%
%ADD37FreePoly5,270.000000*%
%ADD38FreePoly6,270.000000*%
%ADD39FreePoly7,270.000000*%
%ADD40RoundRect,0.201557X-0.201556X0.201556X-0.201556X-0.201556X0.201556X-0.201556X0.201556X0.201556X0*%
%ADD41FreePoly8,270.000000*%
%ADD42FreePoly9,270.000000*%
%ADD43FreePoly10,270.000000*%
%ADD44FreePoly11,270.000000*%
%ADD45RoundRect,0.087500X-0.087500X0.425000X-0.087500X-0.425000X0.087500X-0.425000X0.087500X0.425000X0*%
%ADD46RoundRect,0.087500X-0.425000X0.087500X-0.425000X-0.087500X0.425000X-0.087500X0.425000X0.087500X0*%
%ADD47RoundRect,0.232500X-0.232500X0.232500X-0.232500X-0.232500X0.232500X-0.232500X0.232500X0.232500X0*%
%ADD48RoundRect,0.062500X-0.062500X0.375000X-0.062500X-0.375000X0.062500X-0.375000X0.062500X0.375000X0*%
%ADD49RoundRect,0.062500X-0.375000X0.062500X-0.375000X-0.062500X0.375000X-0.062500X0.375000X0.062500X0*%
G04 APERTURE END LIST*
D10*
%TO.C,C54*%
X155990000Y-99565000D03*
X155990000Y-98605000D03*
%TD*%
D11*
%TO.C,L3*%
X142285000Y-99020000D03*
X143255000Y-99020000D03*
%TD*%
D12*
%TO.C,C47*%
X160220000Y-94585000D03*
X159260000Y-94585000D03*
%TD*%
%TO.C,C45*%
X158580000Y-90700000D03*
X157620000Y-90700000D03*
%TD*%
%TO.C,C49*%
X160220000Y-95835000D03*
X159260000Y-95835000D03*
%TD*%
D10*
%TO.C,C41*%
X143270000Y-97750000D03*
X143270000Y-96790000D03*
%TD*%
D13*
%TO.C,R12*%
X148000000Y-94240000D03*
X148000000Y-95260000D03*
%TD*%
D14*
%TO.C,C44*%
X149270000Y-94100000D03*
X150230000Y-94100000D03*
%TD*%
D11*
%TO.C,L15*%
X142285000Y-95520000D03*
X143255000Y-95520000D03*
%TD*%
D15*
%TO.C,R16*%
X149500000Y-103510000D03*
X149500000Y-102490000D03*
%TD*%
D12*
%TO.C,C39*%
X141000000Y-99500000D03*
X140040000Y-99500000D03*
%TD*%
%TO.C,C37*%
X141750000Y-100750000D03*
X140790000Y-100750000D03*
%TD*%
D16*
%TO.C,L12*%
X161750000Y-102235000D03*
X161750000Y-101265000D03*
%TD*%
D14*
%TO.C,C66*%
X149620000Y-97100000D03*
X150580000Y-97100000D03*
%TD*%
%TO.C,C60*%
X150320000Y-100700000D03*
X151280000Y-100700000D03*
%TD*%
D17*
%TO.C,C17*%
X144500000Y-116825000D03*
X144500000Y-118375000D03*
%TD*%
D18*
%TO.C,C43*%
X138750000Y-102020000D03*
X138750000Y-102980000D03*
%TD*%
%TO.C,C46*%
X155000000Y-89620000D03*
X155000000Y-90580000D03*
%TD*%
D19*
%TO.C,C16*%
X146925000Y-116900000D03*
X148475000Y-116900000D03*
%TD*%
D20*
%TO.C,TP23*%
X154500000Y-116750000D03*
%TD*%
D10*
%TO.C,C38*%
X142020000Y-97750000D03*
X142020000Y-96790000D03*
%TD*%
D18*
%TO.C,C61*%
X148500000Y-97820000D03*
X148500000Y-98780000D03*
%TD*%
D21*
%TO.C,L13*%
X158500000Y-102030000D03*
X158500000Y-103000000D03*
%TD*%
D22*
%TO.C,U7*%
X142146574Y-87249874D03*
X142146574Y-87750000D03*
X142146574Y-88250126D03*
D23*
X142649748Y-88753300D03*
X143149874Y-88753300D03*
X143650000Y-88753300D03*
D22*
X144153174Y-88250126D03*
X144153174Y-87750000D03*
X144153174Y-87249874D03*
D23*
X143650000Y-86746700D03*
X143149874Y-86746700D03*
X142649748Y-86746700D03*
D24*
X143149874Y-87750000D03*
%TD*%
D12*
%TO.C,C40*%
X140730000Y-98250000D03*
X139770000Y-98250000D03*
%TD*%
D10*
%TO.C,C42*%
X143250000Y-94250000D03*
X143250000Y-93290000D03*
%TD*%
D25*
%TO.C,L14*%
X157235000Y-102015000D03*
X156265000Y-102015000D03*
%TD*%
D26*
%TO.C,MP1*%
X136171896Y-115421896D03*
D27*
X136171896Y-118328104D03*
D28*
X139078104Y-115421896D03*
D29*
X139078104Y-118328104D03*
%TD*%
D30*
%TO.C,R15*%
X152962500Y-98900000D03*
X150037500Y-98900000D03*
%TD*%
D31*
%TO.C,U3*%
X142770000Y-103712500D03*
D32*
X142020000Y-105175000D03*
X142520000Y-105175000D03*
X143020000Y-105175000D03*
X143520000Y-105175000D03*
D33*
X144232500Y-104462500D03*
X144232500Y-103962500D03*
X144232500Y-103462500D03*
X144232500Y-102962500D03*
D32*
X143520000Y-102250000D03*
X143020000Y-102250000D03*
X142520000Y-102250000D03*
X142020000Y-102250000D03*
D33*
X141307500Y-102962500D03*
X141307500Y-103462500D03*
X141307500Y-103962500D03*
X141307500Y-104462500D03*
%TD*%
D14*
%TO.C,C51*%
X149520000Y-95900000D03*
X150480000Y-95900000D03*
%TD*%
D12*
%TO.C,C65*%
X160730000Y-102015000D03*
X159770000Y-102015000D03*
%TD*%
D18*
%TO.C,C53*%
X153750000Y-89620000D03*
X153750000Y-90580000D03*
%TD*%
D14*
%TO.C,C57*%
X157260000Y-98585000D03*
X158220000Y-98585000D03*
%TD*%
D19*
%TO.C,C18*%
X147475000Y-108250000D03*
X149025000Y-108250000D03*
%TD*%
D14*
%TO.C,C64*%
X145520000Y-88750000D03*
X146480000Y-88750000D03*
%TD*%
D26*
%TO.C,MP2*%
X156796896Y-81546896D03*
D27*
X156796896Y-84453104D03*
D28*
X159703104Y-81546896D03*
D29*
X159703104Y-84453104D03*
%TD*%
D34*
%TO.C,C14*%
X136325000Y-106900000D03*
X139275000Y-106900000D03*
%TD*%
D12*
%TO.C,C56*%
X160220000Y-93335000D03*
X159260000Y-93335000D03*
%TD*%
%TO.C,C62*%
X152880000Y-102600000D03*
X151920000Y-102600000D03*
%TD*%
D26*
%TO.C,MP3*%
X160921896Y-115421896D03*
D27*
X160921896Y-118328104D03*
D28*
X163828104Y-115421896D03*
D29*
X163828104Y-118328104D03*
%TD*%
D35*
%TO.C,C19*%
X142500000Y-108400000D03*
X142500000Y-106850000D03*
%TD*%
D14*
%TO.C,C52*%
X148717500Y-92850000D03*
X149677500Y-92850000D03*
%TD*%
D16*
%TO.C,L11*%
X150750000Y-103485000D03*
X150750000Y-102515000D03*
%TD*%
D14*
%TO.C,C63*%
X145520000Y-87500000D03*
X146480000Y-87500000D03*
%TD*%
D36*
%TO.C,U4*%
X145987500Y-111450000D03*
D37*
X145200000Y-111450000D03*
X144200000Y-111450000D03*
D38*
X143412500Y-111450000D03*
D39*
X145987500Y-112237500D03*
D40*
X145200000Y-112237500D03*
X144200000Y-112237500D03*
D41*
X143412500Y-112237500D03*
D39*
X145987500Y-113237500D03*
D40*
X145200000Y-113237500D03*
X144200000Y-113237500D03*
D41*
X143412500Y-113237500D03*
D42*
X145987500Y-114025000D03*
D43*
X145200000Y-114025000D03*
X144200000Y-114025000D03*
D44*
X143412500Y-114025000D03*
D45*
X146000000Y-110375000D03*
X145350000Y-110375000D03*
X144700000Y-110375000D03*
X144050000Y-110375000D03*
X143400000Y-110375000D03*
D46*
X142337500Y-111437500D03*
X142337500Y-112087500D03*
X142337500Y-112737500D03*
X142337500Y-113387500D03*
X142337500Y-114037500D03*
D45*
X143400000Y-115100000D03*
X144050000Y-115100000D03*
X144700000Y-115100000D03*
X145350000Y-115100000D03*
X146000000Y-115100000D03*
D46*
X147062500Y-114037500D03*
X147062500Y-113387500D03*
X147062500Y-112737500D03*
X147062500Y-112087500D03*
X147062500Y-111437500D03*
%TD*%
D12*
%TO.C,C50*%
X160380000Y-98335000D03*
X159420000Y-98335000D03*
%TD*%
D11*
%TO.C,L10*%
X138765000Y-104000000D03*
X139735000Y-104000000D03*
%TD*%
%TO.C,L16*%
X142285000Y-92020000D03*
X143255000Y-92020000D03*
%TD*%
D13*
%TO.C,R24*%
X139875000Y-101865000D03*
X139875000Y-102885000D03*
%TD*%
D47*
%TO.C,U5*%
X156650000Y-93350000D03*
X155500000Y-93350000D03*
X154350000Y-93350000D03*
X156650000Y-94500000D03*
X155500000Y-94500000D03*
X154350000Y-94500000D03*
X156650000Y-95650000D03*
X155500000Y-95650000D03*
X154350000Y-95650000D03*
D48*
X157250000Y-92062500D03*
X156750000Y-92062500D03*
X156250000Y-92062500D03*
X155750000Y-92062500D03*
X155250000Y-92062500D03*
X154750000Y-92062500D03*
X154250000Y-92062500D03*
X153750000Y-92062500D03*
D49*
X153062500Y-92750000D03*
X153062500Y-93250000D03*
X153062500Y-93750000D03*
X153062500Y-94250000D03*
X153062500Y-94750000D03*
X153062500Y-95250000D03*
X153062500Y-95750000D03*
X153062500Y-96250000D03*
D48*
X153750000Y-96937500D03*
X154250000Y-96937500D03*
X154750000Y-96937500D03*
X155250000Y-96937500D03*
X155750000Y-96937500D03*
X156250000Y-96937500D03*
X156750000Y-96937500D03*
X157250000Y-96937500D03*
D49*
X157937500Y-96250000D03*
X157937500Y-95750000D03*
X157937500Y-95250000D03*
X157937500Y-94750000D03*
X157937500Y-94250000D03*
X157937500Y-93750000D03*
X157937500Y-93250000D03*
X157937500Y-92750000D03*
%TD*%
D12*
%TO.C,C55*%
X160220000Y-97085000D03*
X159260000Y-97085000D03*
%TD*%
%TO.C,C48*%
X158200000Y-99835000D03*
X157240000Y-99835000D03*
%TD*%
M02*
