%TF.GenerationSoftware,KiCad,Pcbnew,9.0.0*%
%TF.CreationDate,2025-11-27T12:56:11-07:00*%
%TF.ProjectId,OSS-Radio_2M70CM,4f53532d-5261-4646-996f-5f324d373043,rev?*%
%TF.SameCoordinates,Original*%
%TF.FileFunction,Copper,L2,Inr*%
%TF.FilePolarity,Positive*%
%FSLAX46Y46*%
G04 Gerber Fmt 4.6, Leading zero omitted, Abs format (unit mm)*
G04 Created by KiCad (PCBNEW 9.0.0) date 2025-11-27 12:56:11*
%MOMM*%
%LPD*%
G01*
G04 APERTURE LIST*
%TA.AperFunction,ComponentPad*%
%ADD10C,3.800000*%
%TD*%
%TA.AperFunction,HeatsinkPad*%
%ADD11C,0.500000*%
%TD*%
%TA.AperFunction,ComponentPad*%
%ADD12C,1.240000*%
%TD*%
%TA.AperFunction,ViaPad*%
%ADD13C,0.450000*%
%TD*%
%TA.AperFunction,ViaPad*%
%ADD14C,0.600000*%
%TD*%
G04 APERTURE END LIST*
D10*
%TO.N,N/C*%
%TO.C,H3*%
X137500000Y-111000000D03*
%TD*%
%TO.N,N/C*%
%TO.C,H2*%
X136500000Y-82000000D03*
%TD*%
%TO.N,N/C*%
%TO.C,H1*%
X163500000Y-82000000D03*
%TD*%
%TO.N,N/C*%
%TO.C,H4*%
X162500000Y-111000000D03*
%TD*%
D11*
%TO.N,GND*%
%TO.C,U4*%
X145700000Y-111737500D03*
X144700000Y-111737500D03*
X143700000Y-111737500D03*
X145700000Y-112737500D03*
X144700000Y-112737500D03*
X143700000Y-112737500D03*
X145700000Y-113737500D03*
X144700000Y-113737500D03*
X143700000Y-113737500D03*
%TD*%
D12*
%TO.N,Net-(AE2-A)*%
%TO.C,AE2*%
X136919874Y-87750000D03*
%TO.N,GND*%
X138189874Y-89020000D03*
X138189874Y-86480000D03*
X135649874Y-89020000D03*
X135649874Y-86480000D03*
%TD*%
D13*
%TO.N,GND*%
X135250000Y-103000000D03*
X164500000Y-93000000D03*
X135250000Y-91000000D03*
X146500000Y-86500000D03*
X150500000Y-84500000D03*
X142375000Y-110375000D03*
X144250000Y-97500000D03*
X139000000Y-95000000D03*
X141000000Y-110000000D03*
X151000000Y-81000000D03*
X148500000Y-86500000D03*
X137000000Y-89000000D03*
X139000000Y-93000000D03*
X152500000Y-97250000D03*
X161000000Y-113500000D03*
X139500000Y-101000000D03*
X141000000Y-83000000D03*
X160200000Y-100750000D03*
X153000000Y-81000000D03*
X161000000Y-106000000D03*
X143000000Y-119000000D03*
X146500000Y-99500000D03*
X156500000Y-119000000D03*
X149750000Y-111250000D03*
X161000000Y-92000000D03*
X135250000Y-109250000D03*
X140000000Y-86000000D03*
X161250000Y-96000000D03*
X135500000Y-87750000D03*
X153432089Y-108032089D03*
X156300000Y-88100000D03*
X159500000Y-103000000D03*
X164500000Y-87000000D03*
X150250000Y-104250000D03*
X144250000Y-95500000D03*
X139000000Y-81000000D03*
X163000000Y-92500000D03*
X155000000Y-83000000D03*
X137000000Y-85000000D03*
X163000000Y-106000000D03*
X154250000Y-105500000D03*
X162500000Y-103000000D03*
X160000000Y-91000000D03*
X137000000Y-91000000D03*
X135250000Y-97000000D03*
X158500000Y-115500000D03*
X163000000Y-102000000D03*
X151900000Y-99700000D03*
X144250000Y-91500000D03*
X137000000Y-95000000D03*
X153500000Y-109750000D03*
X140477901Y-104312280D03*
X163000000Y-108000000D03*
X145250000Y-98250000D03*
X163000000Y-96250000D03*
X162625000Y-91250000D03*
X137500000Y-106900000D03*
X155000000Y-102500000D03*
X152526710Y-92004999D03*
X146500000Y-84500000D03*
X149125000Y-88500000D03*
X155500000Y-119000000D03*
X163250000Y-101000000D03*
X154500000Y-118250000D03*
X139000000Y-114000000D03*
X151750000Y-103500000D03*
X139250000Y-99000000D03*
X163000000Y-87000000D03*
X152500000Y-84500000D03*
X139000000Y-85000000D03*
X145250000Y-102500000D03*
X147000000Y-101000000D03*
X135250000Y-105000000D03*
X163000000Y-93750000D03*
X147600000Y-98800000D03*
X142500000Y-106000000D03*
X147750000Y-109375000D03*
X147000000Y-97000000D03*
X160985000Y-103000000D03*
X154500000Y-119000000D03*
X151500000Y-119275000D03*
X162000000Y-90250000D03*
X164500000Y-103000000D03*
X136000000Y-114000000D03*
X149500000Y-109125000D03*
X141000000Y-96000000D03*
X151000000Y-83000000D03*
X154500000Y-85000000D03*
X147000000Y-93000000D03*
X145000000Y-83000000D03*
X151750000Y-112250000D03*
X141000000Y-89000000D03*
X135250000Y-101000000D03*
X161250000Y-97500000D03*
X141000000Y-94000000D03*
X156500000Y-93500000D03*
X142125000Y-90500000D03*
X164500000Y-101000000D03*
X147000000Y-103000000D03*
X143250000Y-84750000D03*
X164500000Y-89000000D03*
X139000000Y-91000000D03*
X142250000Y-103125000D03*
X153500000Y-119000000D03*
X161250000Y-89250000D03*
X141000000Y-92000000D03*
X135250000Y-107000000D03*
X155000000Y-81000000D03*
X153250000Y-113250000D03*
X159000000Y-106000000D03*
X158250000Y-89250000D03*
X156000000Y-100750000D03*
X161000000Y-85000000D03*
X135250000Y-93000000D03*
X157500000Y-119000000D03*
X156750000Y-103000000D03*
X141000000Y-119000000D03*
X161250000Y-93000000D03*
X156500000Y-86000000D03*
X158500000Y-87000000D03*
X158500000Y-101250000D03*
X144500000Y-106375000D03*
X140000000Y-89000000D03*
X137000000Y-103000000D03*
X164500000Y-97000000D03*
X156500000Y-94500000D03*
X161000000Y-87000000D03*
X141000000Y-114000000D03*
X164500000Y-99000000D03*
X137000000Y-105000000D03*
X156500000Y-115500000D03*
X153000000Y-83000000D03*
X144500000Y-84500000D03*
X164000000Y-113500000D03*
X163000000Y-104000000D03*
X154500000Y-95500000D03*
X164500000Y-95000000D03*
X156500000Y-95500000D03*
X163000000Y-89000000D03*
X163000000Y-97500000D03*
X163000000Y-95000000D03*
X155500000Y-95500000D03*
X164500000Y-91000000D03*
X152500000Y-86600000D03*
X153750000Y-103750000D03*
X148500000Y-84500000D03*
X161250000Y-98750000D03*
X144250000Y-90500000D03*
X149600000Y-101500000D03*
X137000000Y-101000000D03*
X163000000Y-98750000D03*
X157000000Y-106000000D03*
X143000000Y-83000000D03*
X141000000Y-112000000D03*
X137000000Y-86500000D03*
X147375000Y-106125000D03*
X152500000Y-105000000D03*
X159500000Y-119000000D03*
X150500000Y-86500000D03*
X164500000Y-85000000D03*
X137000000Y-99000000D03*
X139969423Y-89997634D03*
X158500000Y-119000000D03*
X147500000Y-90250000D03*
X140625000Y-105425000D03*
X155900000Y-90100000D03*
X151400000Y-97100000D03*
X141250000Y-101625000D03*
X139000000Y-83000000D03*
X135250000Y-99000000D03*
X142500000Y-85500000D03*
X144800000Y-86500000D03*
X135250000Y-95000000D03*
X142770000Y-103712500D03*
X144250000Y-93500000D03*
X161250000Y-94500000D03*
X160875000Y-99750000D03*
X150000000Y-119275000D03*
X147800000Y-114600000D03*
X154400000Y-87100000D03*
X153500000Y-118250000D03*
X147000000Y-83000000D03*
X152750000Y-90495000D03*
X149000000Y-83000000D03*
X151300000Y-101500000D03*
X137000000Y-93000000D03*
X153900000Y-100300000D03*
X145250000Y-104000000D03*
X147000000Y-95000000D03*
X161000000Y-81000000D03*
X148000000Y-111750000D03*
X163000000Y-85000000D03*
X154134000Y-99200000D03*
X159900000Y-88000000D03*
X147750000Y-102500000D03*
X149500000Y-106250000D03*
%TO.N,5V_RF*%
X140800000Y-106400000D03*
X146700000Y-110900000D03*
X138000000Y-103000000D03*
X140250000Y-97500000D03*
X146750000Y-109750000D03*
X138000000Y-104875000D03*
X147125000Y-110375000D03*
X143186500Y-107624014D03*
X143750000Y-108875000D03*
X141250000Y-97500000D03*
X141750000Y-100000000D03*
X140800000Y-108500000D03*
X141500000Y-99000000D03*
%TO.N,Net-(U4-NR)*%
X145793652Y-116023896D03*
%TO.N,V_BAT*%
X142250000Y-115500000D03*
X143250000Y-116000000D03*
X141500000Y-116250000D03*
X141500000Y-115500000D03*
%TO.N,3V3*%
X159625000Y-107250000D03*
X151100000Y-99000000D03*
X141500000Y-86500000D03*
X141500000Y-89500000D03*
X158000000Y-112500000D03*
X149800000Y-100100000D03*
X149504999Y-92250000D03*
X151100000Y-99700000D03*
X159500000Y-95250000D03*
X151400000Y-95775000D03*
X149500000Y-97800000D03*
X155750000Y-112500000D03*
X151100000Y-98200000D03*
X158875000Y-111500000D03*
X157600000Y-90000000D03*
X155087654Y-91095190D03*
X145500000Y-89500000D03*
X156433369Y-97816631D03*
X149750000Y-94725000D03*
X155125000Y-110750000D03*
X158875000Y-110625000D03*
X159511000Y-99000000D03*
X157240000Y-100500000D03*
X158126000Y-97037500D03*
X145500000Y-86750000D03*
%TO.N,Net-(Y4-OUT)*%
X152750000Y-89775000D03*
%TO.N,Net-(U5-EXT_XOSC)*%
X158125000Y-92250000D03*
%TO.N,RF_GPIO2*%
X155736628Y-91000000D03*
D14*
X152350468Y-107000000D03*
D13*
%TO.N,RF_SEL*%
X150500000Y-112000000D03*
X150769649Y-109486901D03*
X150812000Y-92605000D03*
%TO.N,RF_GPIO1*%
X138250000Y-97500000D03*
X148001000Y-107250000D03*
X150750000Y-113250000D03*
%TO.N,RF_GPIO0*%
X151845468Y-109750000D03*
X149504999Y-105500000D03*
X150107059Y-92005000D03*
X151000000Y-90350000D03*
%TO.N,RF_SDI*%
X149105000Y-110000000D03*
X150500000Y-91000000D03*
%TO.N,RF_SCLK*%
X148250000Y-112750000D03*
X148750000Y-91500000D03*
%TO.N,RF_GPIO3*%
X154125000Y-106625000D03*
X156372436Y-90864911D03*
%TO.N,I2C_SCL*%
X153975000Y-111000000D03*
X155362500Y-109612500D03*
X153750000Y-114925000D03*
%TO.N,I2C_SDA*%
X155137500Y-108255756D03*
X154500000Y-115250000D03*
%TO.N,RF_SDO*%
X151375000Y-110625000D03*
X151885459Y-92114541D03*
%TO.N,Net-(Q2-D)*%
X141250000Y-105000000D03*
%TO.N,ENABLE_5V_RF*%
X144700000Y-115900000D03*
%TO.N,TX_SW*%
X154112645Y-98337355D03*
X144772153Y-90000866D03*
X149477000Y-100709796D03*
%TO.N,Net-(U7-ENABLE)*%
X144835090Y-87952542D03*
%TO.N,Net-(U5-~{RESET})*%
X156750000Y-89750000D03*
%TD*%
%TA.AperFunction,Conductor*%
%TO.N,GND*%
G36*
X161755553Y-80520185D02*
G01*
X161801308Y-80572989D01*
X161811252Y-80642147D01*
X161786890Y-80699986D01*
X161708094Y-80802674D01*
X161708083Y-80802690D01*
X161567140Y-81046809D01*
X161567135Y-81046820D01*
X161459259Y-81307256D01*
X161386295Y-81579560D01*
X161349500Y-81859041D01*
X161349500Y-82140958D01*
X161386295Y-82420439D01*
X161459259Y-82692743D01*
X161567135Y-82953179D01*
X161567140Y-82953190D01*
X161708083Y-83197309D01*
X161708088Y-83197317D01*
X161819292Y-83342240D01*
X161879704Y-83420970D01*
X162079029Y-83620295D01*
X162079033Y-83620298D01*
X162079035Y-83620300D01*
X162302683Y-83791912D01*
X162302690Y-83791916D01*
X162546809Y-83932859D01*
X162546814Y-83932861D01*
X162546817Y-83932863D01*
X162807261Y-84040742D01*
X163079558Y-84113704D01*
X163359049Y-84150500D01*
X163359056Y-84150500D01*
X163640944Y-84150500D01*
X163640951Y-84150500D01*
X163920442Y-84113704D01*
X164192739Y-84040742D01*
X164453183Y-83932863D01*
X164697317Y-83791912D01*
X164800013Y-83713109D01*
X164865182Y-83687915D01*
X164933627Y-83701953D01*
X164983617Y-83750767D01*
X164999500Y-83811485D01*
X164999500Y-117995572D01*
X164999184Y-118004418D01*
X164999184Y-118004419D01*
X164984869Y-118204557D01*
X164982351Y-118222068D01*
X164940646Y-118413787D01*
X164935662Y-118430763D01*
X164867090Y-118614609D01*
X164859740Y-118630701D01*
X164765711Y-118802904D01*
X164756146Y-118817789D01*
X164638558Y-118974867D01*
X164626972Y-118988237D01*
X164488237Y-119126972D01*
X164474867Y-119138558D01*
X164317789Y-119256146D01*
X164302904Y-119265711D01*
X164130701Y-119359740D01*
X164114609Y-119367090D01*
X163930763Y-119435662D01*
X163913787Y-119440646D01*
X163722068Y-119482351D01*
X163704557Y-119484869D01*
X163523779Y-119497799D01*
X163504417Y-119499184D01*
X163495572Y-119499500D01*
X136504428Y-119499500D01*
X136495582Y-119499184D01*
X136473622Y-119497613D01*
X136295442Y-119484869D01*
X136277931Y-119482351D01*
X136086212Y-119440646D01*
X136069236Y-119435662D01*
X135885390Y-119367090D01*
X135869298Y-119359740D01*
X135697095Y-119265711D01*
X135682210Y-119256146D01*
X135525132Y-119138558D01*
X135511762Y-119126972D01*
X135373027Y-118988237D01*
X135361441Y-118974867D01*
X135243849Y-118817784D01*
X135234288Y-118802904D01*
X135140259Y-118630701D01*
X135132909Y-118614609D01*
X135103648Y-118536158D01*
X135064334Y-118430755D01*
X135059355Y-118413797D01*
X135017647Y-118222063D01*
X135015130Y-118204556D01*
X135014369Y-118193919D01*
X135000816Y-118004418D01*
X135000500Y-117995572D01*
X135000500Y-116760258D01*
X135874500Y-116760258D01*
X135874500Y-116989741D01*
X135899446Y-117179215D01*
X135904452Y-117217238D01*
X135904453Y-117217240D01*
X135963842Y-117438887D01*
X136051650Y-117650876D01*
X136051657Y-117650890D01*
X136166392Y-117849617D01*
X136306081Y-118031661D01*
X136306089Y-118031670D01*
X136468330Y-118193911D01*
X136468338Y-118193918D01*
X136468339Y-118193919D01*
X136482203Y-118204557D01*
X136650382Y-118333607D01*
X136650385Y-118333608D01*
X136650388Y-118333611D01*
X136849112Y-118448344D01*
X136849117Y-118448346D01*
X136849123Y-118448349D01*
X136940480Y-118486190D01*
X137061113Y-118536158D01*
X137282762Y-118595548D01*
X137510266Y-118625500D01*
X137510273Y-118625500D01*
X137739727Y-118625500D01*
X137739734Y-118625500D01*
X137967238Y-118595548D01*
X138188887Y-118536158D01*
X138400888Y-118448344D01*
X138599612Y-118333611D01*
X138781661Y-118193919D01*
X138781665Y-118193914D01*
X138781670Y-118193911D01*
X138943911Y-118031670D01*
X138943914Y-118031665D01*
X138943919Y-118031661D01*
X139083611Y-117849612D01*
X139198344Y-117650888D01*
X139286158Y-117438887D01*
X139345548Y-117217238D01*
X139375500Y-116989734D01*
X139375500Y-116760266D01*
X139375499Y-116760258D01*
X160624500Y-116760258D01*
X160624500Y-116989741D01*
X160649446Y-117179215D01*
X160654452Y-117217238D01*
X160654453Y-117217240D01*
X160713842Y-117438887D01*
X160801650Y-117650876D01*
X160801657Y-117650890D01*
X160916392Y-117849617D01*
X161056081Y-118031661D01*
X161056089Y-118031670D01*
X161218330Y-118193911D01*
X161218338Y-118193918D01*
X161218339Y-118193919D01*
X161232203Y-118204557D01*
X161400382Y-118333607D01*
X161400385Y-118333608D01*
X161400388Y-118333611D01*
X161599112Y-118448344D01*
X161599117Y-118448346D01*
X161599123Y-118448349D01*
X161690480Y-118486190D01*
X161811113Y-118536158D01*
X162032762Y-118595548D01*
X162260266Y-118625500D01*
X162260273Y-118625500D01*
X162489727Y-118625500D01*
X162489734Y-118625500D01*
X162717238Y-118595548D01*
X162938887Y-118536158D01*
X163150888Y-118448344D01*
X163349612Y-118333611D01*
X163531661Y-118193919D01*
X163531665Y-118193914D01*
X163531670Y-118193911D01*
X163693911Y-118031670D01*
X163693914Y-118031665D01*
X163693919Y-118031661D01*
X163833611Y-117849612D01*
X163948344Y-117650888D01*
X164036158Y-117438887D01*
X164095548Y-117217238D01*
X164125500Y-116989734D01*
X164125500Y-116760266D01*
X164095548Y-116532762D01*
X164036158Y-116311113D01*
X163972768Y-116158076D01*
X163948349Y-116099123D01*
X163948346Y-116099117D01*
X163948344Y-116099112D01*
X163833611Y-115900388D01*
X163833608Y-115900385D01*
X163833607Y-115900382D01*
X163723856Y-115757354D01*
X163693919Y-115718339D01*
X163693918Y-115718338D01*
X163693911Y-115718330D01*
X163531670Y-115556089D01*
X163531661Y-115556081D01*
X163349617Y-115416392D01*
X163322089Y-115400499D01*
X163174309Y-115315178D01*
X163150890Y-115301657D01*
X163150876Y-115301650D01*
X162938887Y-115213842D01*
X162917211Y-115208034D01*
X162717238Y-115154452D01*
X162670852Y-115148345D01*
X162489741Y-115124500D01*
X162489734Y-115124500D01*
X162260266Y-115124500D01*
X162260258Y-115124500D01*
X162043715Y-115153009D01*
X162032762Y-115154452D01*
X161939076Y-115179554D01*
X161811112Y-115213842D01*
X161599123Y-115301650D01*
X161599109Y-115301657D01*
X161400382Y-115416392D01*
X161218338Y-115556081D01*
X161056081Y-115718338D01*
X160916392Y-115900382D01*
X160801657Y-116099109D01*
X160801650Y-116099123D01*
X160713842Y-116311112D01*
X160654453Y-116532759D01*
X160654451Y-116532770D01*
X160624500Y-116760258D01*
X139375499Y-116760258D01*
X139345548Y-116532762D01*
X139286158Y-116311113D01*
X139222768Y-116158076D01*
X139198349Y-116099123D01*
X139198346Y-116099117D01*
X139198344Y-116099112D01*
X139083611Y-115900388D01*
X139083608Y-115900385D01*
X139083607Y-115900382D01*
X138973856Y-115757354D01*
X138943919Y-115718339D01*
X138943918Y-115718338D01*
X138943911Y-115718330D01*
X138781670Y-115556089D01*
X138781661Y-115556081D01*
X138744604Y-115527646D01*
X138626993Y-115437399D01*
X141024500Y-115437399D01*
X141024500Y-115562601D01*
X141056905Y-115683536D01*
X141119505Y-115791964D01*
X141119507Y-115791966D01*
X141124451Y-115798409D01*
X141121959Y-115800320D01*
X141148345Y-115848642D01*
X141143361Y-115918334D01*
X141122801Y-115950324D01*
X141124451Y-115951591D01*
X141119504Y-115958037D01*
X141056905Y-116066463D01*
X141048158Y-116099109D01*
X141024500Y-116187399D01*
X141024500Y-116312601D01*
X141056905Y-116433536D01*
X141119505Y-116541964D01*
X141208036Y-116630495D01*
X141316464Y-116693095D01*
X141437399Y-116725500D01*
X141437401Y-116725500D01*
X141562599Y-116725500D01*
X141562601Y-116725500D01*
X141683536Y-116693095D01*
X141791964Y-116630495D01*
X141880495Y-116541964D01*
X141943095Y-116433536D01*
X141975500Y-116312601D01*
X141975500Y-116187399D01*
X141953526Y-116105392D01*
X141955189Y-116035546D01*
X141994351Y-115977683D01*
X142058579Y-115950178D01*
X142105391Y-115953525D01*
X142187399Y-115975500D01*
X142187401Y-115975500D01*
X142312599Y-115975500D01*
X142312601Y-115975500D01*
X142433536Y-115943095D01*
X142541964Y-115880495D01*
X142562819Y-115859640D01*
X142624142Y-115826155D01*
X142693834Y-115831139D01*
X142749767Y-115873011D01*
X142774184Y-115938475D01*
X142774500Y-115947321D01*
X142774500Y-116062601D01*
X142806905Y-116183536D01*
X142869505Y-116291964D01*
X142958036Y-116380495D01*
X143066464Y-116443095D01*
X143187399Y-116475500D01*
X143187401Y-116475500D01*
X143312599Y-116475500D01*
X143312601Y-116475500D01*
X143433536Y-116443095D01*
X143541964Y-116380495D01*
X143630495Y-116291964D01*
X143693095Y-116183536D01*
X143725500Y-116062601D01*
X143725500Y-115937399D01*
X143698705Y-115837399D01*
X144224500Y-115837399D01*
X144224500Y-115962601D01*
X144256905Y-116083536D01*
X144319505Y-116191964D01*
X144408036Y-116280495D01*
X144516464Y-116343095D01*
X144637399Y-116375500D01*
X144637401Y-116375500D01*
X144762599Y-116375500D01*
X144762601Y-116375500D01*
X144883536Y-116343095D01*
X144991964Y-116280495D01*
X145080495Y-116191964D01*
X145112438Y-116136635D01*
X145163003Y-116088421D01*
X145231610Y-116075196D01*
X145296475Y-116101163D01*
X145337004Y-116158076D01*
X145339599Y-116166539D01*
X145350556Y-116207429D01*
X145350557Y-116207432D01*
X145413157Y-116315860D01*
X145501688Y-116404391D01*
X145610116Y-116466991D01*
X145731051Y-116499396D01*
X145731053Y-116499396D01*
X145856251Y-116499396D01*
X145856253Y-116499396D01*
X145977188Y-116466991D01*
X146085616Y-116404391D01*
X146174147Y-116315860D01*
X146236747Y-116207432D01*
X146269152Y-116086497D01*
X146269152Y-115961295D01*
X146236747Y-115840360D01*
X146174147Y-115731932D01*
X146085616Y-115643401D01*
X145977188Y-115580801D01*
X145977189Y-115580801D01*
X145936876Y-115569999D01*
X145856253Y-115548396D01*
X145731051Y-115548396D01*
X145650427Y-115569999D01*
X145610115Y-115580801D01*
X145501689Y-115643400D01*
X145501686Y-115643402D01*
X145413158Y-115731930D01*
X145413154Y-115731935D01*
X145381213Y-115787260D01*
X145330646Y-115835476D01*
X145262039Y-115848699D01*
X145197174Y-115822731D01*
X145156646Y-115765816D01*
X145154056Y-115757370D01*
X145143095Y-115716464D01*
X145080495Y-115608036D01*
X144991964Y-115519505D01*
X144883536Y-115456905D01*
X144883537Y-115456905D01*
X144843224Y-115446103D01*
X144762601Y-115424500D01*
X144637399Y-115424500D01*
X144556775Y-115446103D01*
X144516463Y-115456905D01*
X144408037Y-115519504D01*
X144408034Y-115519506D01*
X144319506Y-115608034D01*
X144319504Y-115608037D01*
X144256905Y-115716463D01*
X144254484Y-115725500D01*
X144224500Y-115837399D01*
X143698705Y-115837399D01*
X143693095Y-115816464D01*
X143630495Y-115708036D01*
X143541964Y-115619505D01*
X143433536Y-115556905D01*
X143433537Y-115556905D01*
X143377769Y-115541962D01*
X143312601Y-115524500D01*
X143187399Y-115524500D01*
X143122231Y-115541962D01*
X143066463Y-115556905D01*
X142958037Y-115619504D01*
X142958034Y-115619506D01*
X142937181Y-115640360D01*
X142875858Y-115673845D01*
X142806166Y-115668861D01*
X142750233Y-115626989D01*
X142725816Y-115561525D01*
X142725500Y-115552679D01*
X142725500Y-115437400D01*
X142723688Y-115430636D01*
X142693095Y-115316464D01*
X142630495Y-115208036D01*
X142541964Y-115119505D01*
X142433536Y-115056905D01*
X142433537Y-115056905D01*
X142393224Y-115046103D01*
X142312601Y-115024500D01*
X142187399Y-115024500D01*
X142106775Y-115046103D01*
X142066463Y-115056905D01*
X141958037Y-115119504D01*
X141951591Y-115124451D01*
X141949679Y-115121959D01*
X141901358Y-115148345D01*
X141831666Y-115143361D01*
X141799675Y-115122801D01*
X141798409Y-115124451D01*
X141791965Y-115119506D01*
X141791964Y-115119505D01*
X141683536Y-115056905D01*
X141683537Y-115056905D01*
X141643224Y-115046103D01*
X141562601Y-115024500D01*
X141437399Y-115024500D01*
X141356775Y-115046103D01*
X141316463Y-115056905D01*
X141208037Y-115119504D01*
X141208034Y-115119506D01*
X141119506Y-115208034D01*
X141119504Y-115208037D01*
X141056905Y-115316463D01*
X141056905Y-115316464D01*
X141024500Y-115437399D01*
X138626993Y-115437399D01*
X138599617Y-115416392D01*
X138572089Y-115400499D01*
X138424309Y-115315178D01*
X138400890Y-115301657D01*
X138400876Y-115301650D01*
X138188887Y-115213842D01*
X138167211Y-115208034D01*
X137967238Y-115154452D01*
X137920852Y-115148345D01*
X137739741Y-115124500D01*
X137739734Y-115124500D01*
X137510266Y-115124500D01*
X137510258Y-115124500D01*
X137293715Y-115153009D01*
X137282762Y-115154452D01*
X137189076Y-115179554D01*
X137061112Y-115213842D01*
X136849123Y-115301650D01*
X136849109Y-115301657D01*
X136650382Y-115416392D01*
X136468338Y-115556081D01*
X136306081Y-115718338D01*
X136166392Y-115900382D01*
X136051657Y-116099109D01*
X136051650Y-116099123D01*
X135963842Y-116311112D01*
X135904453Y-116532759D01*
X135904451Y-116532770D01*
X135874500Y-116760258D01*
X135000500Y-116760258D01*
X135000500Y-114862399D01*
X153274500Y-114862399D01*
X153274500Y-114987601D01*
X153306905Y-115108536D01*
X153369505Y-115216964D01*
X153458036Y-115305495D01*
X153566464Y-115368095D01*
X153687399Y-115400500D01*
X153687401Y-115400500D01*
X153812600Y-115400500D01*
X153812601Y-115400500D01*
X153915749Y-115372861D01*
X153985598Y-115374523D01*
X154043461Y-115413684D01*
X154055231Y-115430636D01*
X154056904Y-115433535D01*
X154056905Y-115433536D01*
X154119505Y-115541964D01*
X154208036Y-115630495D01*
X154316464Y-115693095D01*
X154437399Y-115725500D01*
X154437401Y-115725500D01*
X154562599Y-115725500D01*
X154562601Y-115725500D01*
X154683536Y-115693095D01*
X154791964Y-115630495D01*
X154880495Y-115541964D01*
X154943095Y-115433536D01*
X154975500Y-115312601D01*
X154975500Y-115187399D01*
X154943095Y-115066464D01*
X154880495Y-114958036D01*
X154791964Y-114869505D01*
X154683536Y-114806905D01*
X154683537Y-114806905D01*
X154643224Y-114796103D01*
X154562601Y-114774500D01*
X154437399Y-114774500D01*
X154437398Y-114774500D01*
X154334249Y-114802139D01*
X154264400Y-114800476D01*
X154206537Y-114761314D01*
X154194768Y-114744363D01*
X154193095Y-114741466D01*
X154193095Y-114741464D01*
X154130495Y-114633036D01*
X154041964Y-114544505D01*
X153933536Y-114481905D01*
X153933537Y-114481905D01*
X153893224Y-114471103D01*
X153812601Y-114449500D01*
X153687399Y-114449500D01*
X153606775Y-114471103D01*
X153566463Y-114481905D01*
X153458037Y-114544504D01*
X153458034Y-114544506D01*
X153369506Y-114633034D01*
X153369504Y-114633037D01*
X153306905Y-114741463D01*
X153306905Y-114741464D01*
X153274500Y-114862399D01*
X135000500Y-114862399D01*
X135000500Y-114220461D01*
X143570590Y-114220461D01*
X143634176Y-114237500D01*
X143765825Y-114237500D01*
X143765828Y-114237499D01*
X143829408Y-114220462D01*
X143829409Y-114220461D01*
X144570590Y-114220461D01*
X144634176Y-114237500D01*
X144765825Y-114237500D01*
X144765828Y-114237499D01*
X144829408Y-114220462D01*
X144829409Y-114220461D01*
X145570590Y-114220461D01*
X145634176Y-114237500D01*
X145765825Y-114237500D01*
X145765828Y-114237499D01*
X145829408Y-114220462D01*
X145829409Y-114220461D01*
X145700001Y-114091053D01*
X145570590Y-114220461D01*
X144829409Y-114220461D01*
X144700001Y-114091053D01*
X144570590Y-114220461D01*
X143829409Y-114220461D01*
X143700001Y-114091053D01*
X143570590Y-114220461D01*
X135000500Y-114220461D01*
X135000500Y-113671674D01*
X143200000Y-113671674D01*
X143200000Y-113803325D01*
X143217036Y-113866908D01*
X143346446Y-113737500D01*
X143316609Y-113707663D01*
X143550000Y-113707663D01*
X143550000Y-113767337D01*
X143572836Y-113822468D01*
X143615032Y-113864664D01*
X143670163Y-113887500D01*
X143729837Y-113887500D01*
X143784968Y-113864664D01*
X143827164Y-113822468D01*
X143850000Y-113767337D01*
X143850000Y-113737500D01*
X144053553Y-113737500D01*
X144053553Y-113737501D01*
X144186995Y-113870943D01*
X144213003Y-113870943D01*
X144346446Y-113737500D01*
X144316609Y-113707663D01*
X144550000Y-113707663D01*
X144550000Y-113767337D01*
X144572836Y-113822468D01*
X144615032Y-113864664D01*
X144670163Y-113887500D01*
X144729837Y-113887500D01*
X144784968Y-113864664D01*
X144827164Y-113822468D01*
X144850000Y-113767337D01*
X144850000Y-113737500D01*
X145053553Y-113737500D01*
X145053553Y-113737501D01*
X145186995Y-113870943D01*
X145213003Y-113870943D01*
X145346446Y-113737500D01*
X145316609Y-113707663D01*
X145550000Y-113707663D01*
X145550000Y-113767337D01*
X145572836Y-113822468D01*
X145615032Y-113864664D01*
X145670163Y-113887500D01*
X145729837Y-113887500D01*
X145784968Y-113864664D01*
X145827164Y-113822468D01*
X145850000Y-113767337D01*
X145850000Y-113737500D01*
X146053553Y-113737500D01*
X146053553Y-113737501D01*
X146182961Y-113866909D01*
X146182962Y-113866908D01*
X146199999Y-113803328D01*
X146200000Y-113803325D01*
X146200000Y-113671675D01*
X146182961Y-113608090D01*
X146053553Y-113737500D01*
X145850000Y-113737500D01*
X145850000Y-113707663D01*
X145827164Y-113652532D01*
X145784968Y-113610336D01*
X145729837Y-113587500D01*
X145670163Y-113587500D01*
X145615032Y-113610336D01*
X145572836Y-113652532D01*
X145550000Y-113707663D01*
X145316609Y-113707663D01*
X145213003Y-113604056D01*
X145186996Y-113604056D01*
X145053553Y-113737500D01*
X144850000Y-113737500D01*
X144850000Y-113707663D01*
X144827164Y-113652532D01*
X144784968Y-113610336D01*
X144729837Y-113587500D01*
X144670163Y-113587500D01*
X144615032Y-113610336D01*
X144572836Y-113652532D01*
X144550000Y-113707663D01*
X144316609Y-113707663D01*
X144213003Y-113604056D01*
X144186996Y-113604056D01*
X144053553Y-113737500D01*
X143850000Y-113737500D01*
X143850000Y-113707663D01*
X143827164Y-113652532D01*
X143784968Y-113610336D01*
X143729837Y-113587500D01*
X143670163Y-113587500D01*
X143615032Y-113610336D01*
X143572836Y-113652532D01*
X143550000Y-113707663D01*
X143316609Y-113707663D01*
X143217037Y-113608090D01*
X143200000Y-113671674D01*
X135000500Y-113671674D01*
X135000500Y-113224496D01*
X143566556Y-113224496D01*
X143566556Y-113250502D01*
X143700000Y-113383946D01*
X143832703Y-113251242D01*
X143829253Y-113240448D01*
X143831160Y-113224496D01*
X144566556Y-113224496D01*
X144566556Y-113250502D01*
X144700000Y-113383946D01*
X144832703Y-113251242D01*
X144829253Y-113240448D01*
X144831160Y-113224496D01*
X145566556Y-113224496D01*
X145566556Y-113250502D01*
X145700000Y-113383946D01*
X145833443Y-113250503D01*
X145833443Y-113224495D01*
X145700001Y-113091053D01*
X145566556Y-113224496D01*
X144831160Y-113224496D01*
X144831404Y-113222456D01*
X144700001Y-113091053D01*
X144566556Y-113224496D01*
X143831160Y-113224496D01*
X143831404Y-113222456D01*
X143700001Y-113091053D01*
X143566556Y-113224496D01*
X135000500Y-113224496D01*
X135000500Y-110859041D01*
X135349500Y-110859041D01*
X135349500Y-111140958D01*
X135386295Y-111420439D01*
X135459259Y-111692743D01*
X135567135Y-111953179D01*
X135567140Y-111953190D01*
X135708083Y-112197309D01*
X135708088Y-112197317D01*
X135840214Y-112369506D01*
X135879704Y-112420970D01*
X136079029Y-112620295D01*
X136079033Y-112620298D01*
X136079035Y-112620300D01*
X136302683Y-112791912D01*
X136302690Y-112791916D01*
X136546809Y-112932859D01*
X136546814Y-112932861D01*
X136546817Y-112932863D01*
X136807261Y-113040742D01*
X137079558Y-113113704D01*
X137359049Y-113150500D01*
X137359056Y-113150500D01*
X137640944Y-113150500D01*
X137640951Y-113150500D01*
X137920442Y-113113704D01*
X138192739Y-113040742D01*
X138453183Y-112932863D01*
X138697317Y-112791912D01*
X138854013Y-112671674D01*
X143200000Y-112671674D01*
X143200000Y-112803325D01*
X143217036Y-112866908D01*
X143346446Y-112737500D01*
X143316609Y-112707663D01*
X143550000Y-112707663D01*
X143550000Y-112767337D01*
X143572836Y-112822468D01*
X143615032Y-112864664D01*
X143670163Y-112887500D01*
X143729837Y-112887500D01*
X143784968Y-112864664D01*
X143827164Y-112822468D01*
X143850000Y-112767337D01*
X143850000Y-112737500D01*
X144053553Y-112737500D01*
X144053553Y-112737501D01*
X144186995Y-112870943D01*
X144213003Y-112870943D01*
X144346446Y-112737500D01*
X144316609Y-112707663D01*
X144550000Y-112707663D01*
X144550000Y-112767337D01*
X144572836Y-112822468D01*
X144615032Y-112864664D01*
X144670163Y-112887500D01*
X144729837Y-112887500D01*
X144784968Y-112864664D01*
X144827164Y-112822468D01*
X144850000Y-112767337D01*
X144850000Y-112737500D01*
X145053553Y-112737500D01*
X145053553Y-112737501D01*
X145186995Y-112870943D01*
X145213003Y-112870943D01*
X145346446Y-112737500D01*
X145316609Y-112707663D01*
X145550000Y-112707663D01*
X145550000Y-112767337D01*
X145572836Y-112822468D01*
X145615032Y-112864664D01*
X145670163Y-112887500D01*
X145729837Y-112887500D01*
X145784968Y-112864664D01*
X145827164Y-112822468D01*
X145850000Y-112767337D01*
X145850000Y-112737500D01*
X146053553Y-112737500D01*
X146053553Y-112737501D01*
X146182961Y-112866909D01*
X146182962Y-112866908D01*
X146199999Y-112803328D01*
X146200000Y-112803325D01*
X146200000Y-112687399D01*
X147774500Y-112687399D01*
X147774500Y-112812601D01*
X147806905Y-112933536D01*
X147869505Y-113041964D01*
X147958036Y-113130495D01*
X148066464Y-113193095D01*
X148187399Y-113225500D01*
X148187401Y-113225500D01*
X148312599Y-113225500D01*
X148312601Y-113225500D01*
X148433536Y-113193095D01*
X148443402Y-113187399D01*
X150274500Y-113187399D01*
X150274500Y-113312601D01*
X150306905Y-113433536D01*
X150369505Y-113541964D01*
X150458036Y-113630495D01*
X150566464Y-113693095D01*
X150687399Y-113725500D01*
X150687401Y-113725500D01*
X150812599Y-113725500D01*
X150812601Y-113725500D01*
X150933536Y-113693095D01*
X151041964Y-113630495D01*
X151130495Y-113541964D01*
X151193095Y-113433536D01*
X151225500Y-113312601D01*
X151225500Y-113187399D01*
X151193095Y-113066464D01*
X151130495Y-112958036D01*
X151041964Y-112869505D01*
X150933536Y-112806905D01*
X150933537Y-112806905D01*
X150877582Y-112791912D01*
X150812601Y-112774500D01*
X150687399Y-112774500D01*
X150622418Y-112791912D01*
X150566463Y-112806905D01*
X150458037Y-112869504D01*
X150458034Y-112869506D01*
X150369506Y-112958034D01*
X150369504Y-112958037D01*
X150306905Y-113066463D01*
X150306905Y-113066464D01*
X150274500Y-113187399D01*
X148443402Y-113187399D01*
X148541964Y-113130495D01*
X148630495Y-113041964D01*
X148693095Y-112933536D01*
X148725500Y-112812601D01*
X148725500Y-112687399D01*
X148693095Y-112566464D01*
X148630495Y-112458036D01*
X148541964Y-112369505D01*
X148433536Y-112306905D01*
X148433537Y-112306905D01*
X148377769Y-112291962D01*
X148312601Y-112274500D01*
X148187399Y-112274500D01*
X148122231Y-112291962D01*
X148066463Y-112306905D01*
X147958037Y-112369504D01*
X147958034Y-112369506D01*
X147869506Y-112458034D01*
X147869504Y-112458037D01*
X147806905Y-112566463D01*
X147801268Y-112587500D01*
X147774500Y-112687399D01*
X146200000Y-112687399D01*
X146200000Y-112671675D01*
X146182961Y-112608090D01*
X146053553Y-112737500D01*
X145850000Y-112737500D01*
X145850000Y-112707663D01*
X145827164Y-112652532D01*
X145784968Y-112610336D01*
X145729837Y-112587500D01*
X145670163Y-112587500D01*
X145615032Y-112610336D01*
X145572836Y-112652532D01*
X145550000Y-112707663D01*
X145316609Y-112707663D01*
X145213003Y-112604056D01*
X145186996Y-112604056D01*
X145053553Y-112737500D01*
X144850000Y-112737500D01*
X144850000Y-112707663D01*
X144827164Y-112652532D01*
X144784968Y-112610336D01*
X144729837Y-112587500D01*
X144670163Y-112587500D01*
X144615032Y-112610336D01*
X144572836Y-112652532D01*
X144550000Y-112707663D01*
X144316609Y-112707663D01*
X144213003Y-112604056D01*
X144186996Y-112604056D01*
X144053553Y-112737500D01*
X143850000Y-112737500D01*
X143850000Y-112707663D01*
X143827164Y-112652532D01*
X143784968Y-112610336D01*
X143729837Y-112587500D01*
X143670163Y-112587500D01*
X143615032Y-112610336D01*
X143572836Y-112652532D01*
X143550000Y-112707663D01*
X143316609Y-112707663D01*
X143217037Y-112608090D01*
X143200000Y-112671674D01*
X138854013Y-112671674D01*
X138920965Y-112620300D01*
X138937209Y-112604056D01*
X138965400Y-112575866D01*
X139120295Y-112420970D01*
X139120300Y-112420965D01*
X139271057Y-112224496D01*
X143566556Y-112224496D01*
X143566556Y-112250502D01*
X143700000Y-112383946D01*
X143832703Y-112251242D01*
X143829253Y-112240448D01*
X143831160Y-112224496D01*
X144566556Y-112224496D01*
X144566556Y-112250502D01*
X144700000Y-112383946D01*
X144832703Y-112251242D01*
X144829253Y-112240448D01*
X144831160Y-112224496D01*
X145566556Y-112224496D01*
X145566556Y-112250502D01*
X145700000Y-112383946D01*
X145833443Y-112250503D01*
X145833443Y-112224495D01*
X145700001Y-112091053D01*
X145566556Y-112224496D01*
X144831160Y-112224496D01*
X144831404Y-112222456D01*
X144700001Y-112091053D01*
X144566556Y-112224496D01*
X143831160Y-112224496D01*
X143831404Y-112222456D01*
X143700001Y-112091053D01*
X143566556Y-112224496D01*
X139271057Y-112224496D01*
X139291912Y-112197317D01*
X139432863Y-111953183D01*
X139439401Y-111937399D01*
X150024500Y-111937399D01*
X150024500Y-112062601D01*
X150056905Y-112183536D01*
X150119505Y-112291964D01*
X150208036Y-112380495D01*
X150316464Y-112443095D01*
X150437399Y-112475500D01*
X150437401Y-112475500D01*
X150562599Y-112475500D01*
X150562601Y-112475500D01*
X150683536Y-112443095D01*
X150693402Y-112437399D01*
X155274500Y-112437399D01*
X155274500Y-112562601D01*
X155306905Y-112683536D01*
X155369505Y-112791964D01*
X155458036Y-112880495D01*
X155566464Y-112943095D01*
X155687399Y-112975500D01*
X155687401Y-112975500D01*
X155812599Y-112975500D01*
X155812601Y-112975500D01*
X155933536Y-112943095D01*
X156041964Y-112880495D01*
X156130495Y-112791964D01*
X156193095Y-112683536D01*
X156225500Y-112562601D01*
X156225500Y-112437399D01*
X157524500Y-112437399D01*
X157524500Y-112562601D01*
X157556905Y-112683536D01*
X157619505Y-112791964D01*
X157708036Y-112880495D01*
X157816464Y-112943095D01*
X157937399Y-112975500D01*
X157937401Y-112975500D01*
X158062599Y-112975500D01*
X158062601Y-112975500D01*
X158183536Y-112943095D01*
X158291964Y-112880495D01*
X158380495Y-112791964D01*
X158443095Y-112683536D01*
X158475500Y-112562601D01*
X158475500Y-112437399D01*
X158443095Y-112316464D01*
X158380495Y-112208036D01*
X158291964Y-112119505D01*
X158183536Y-112056905D01*
X158183537Y-112056905D01*
X158143224Y-112046103D01*
X158062601Y-112024500D01*
X157937399Y-112024500D01*
X157856775Y-112046103D01*
X157816463Y-112056905D01*
X157708037Y-112119504D01*
X157708034Y-112119506D01*
X157619506Y-112208034D01*
X157619504Y-112208037D01*
X157556905Y-112316463D01*
X157556905Y-112316464D01*
X157524500Y-112437399D01*
X156225500Y-112437399D01*
X156193095Y-112316464D01*
X156130495Y-112208036D01*
X156041964Y-112119505D01*
X155933536Y-112056905D01*
X155933537Y-112056905D01*
X155893224Y-112046103D01*
X155812601Y-112024500D01*
X155687399Y-112024500D01*
X155606775Y-112046103D01*
X155566463Y-112056905D01*
X155458037Y-112119504D01*
X155458034Y-112119506D01*
X155369506Y-112208034D01*
X155369504Y-112208037D01*
X155306905Y-112316463D01*
X155306905Y-112316464D01*
X155274500Y-112437399D01*
X150693402Y-112437399D01*
X150791964Y-112380495D01*
X150880495Y-112291964D01*
X150943095Y-112183536D01*
X150975500Y-112062601D01*
X150975500Y-111937399D01*
X150943095Y-111816464D01*
X150880495Y-111708036D01*
X150791964Y-111619505D01*
X150683536Y-111556905D01*
X150683537Y-111556905D01*
X150643224Y-111546103D01*
X150562601Y-111524500D01*
X150437399Y-111524500D01*
X150356775Y-111546103D01*
X150316463Y-111556905D01*
X150208037Y-111619504D01*
X150208034Y-111619506D01*
X150119506Y-111708034D01*
X150119504Y-111708037D01*
X150056905Y-111816463D01*
X150056905Y-111816464D01*
X150024500Y-111937399D01*
X139439401Y-111937399D01*
X139540742Y-111692739D01*
X139546386Y-111671674D01*
X143200000Y-111671674D01*
X143200000Y-111803325D01*
X143217036Y-111866908D01*
X143346446Y-111737500D01*
X143316609Y-111707663D01*
X143550000Y-111707663D01*
X143550000Y-111767337D01*
X143572836Y-111822468D01*
X143615032Y-111864664D01*
X143670163Y-111887500D01*
X143729837Y-111887500D01*
X143784968Y-111864664D01*
X143827164Y-111822468D01*
X143850000Y-111767337D01*
X143850000Y-111737500D01*
X144053553Y-111737500D01*
X144053553Y-111737501D01*
X144186995Y-111870943D01*
X144213003Y-111870943D01*
X144346446Y-111737500D01*
X144316609Y-111707663D01*
X144550000Y-111707663D01*
X144550000Y-111767337D01*
X144572836Y-111822468D01*
X144615032Y-111864664D01*
X144670163Y-111887500D01*
X144729837Y-111887500D01*
X144784968Y-111864664D01*
X144827164Y-111822468D01*
X144850000Y-111767337D01*
X144850000Y-111737500D01*
X145053553Y-111737500D01*
X145053553Y-111737501D01*
X145186995Y-111870943D01*
X145213003Y-111870943D01*
X145346446Y-111737500D01*
X145316609Y-111707663D01*
X145550000Y-111707663D01*
X145550000Y-111767337D01*
X145572836Y-111822468D01*
X145615032Y-111864664D01*
X145670163Y-111887500D01*
X145729837Y-111887500D01*
X145784968Y-111864664D01*
X145827164Y-111822468D01*
X145850000Y-111767337D01*
X145850000Y-111737500D01*
X146053553Y-111737500D01*
X146053553Y-111737501D01*
X146182961Y-111866909D01*
X146182962Y-111866908D01*
X146199999Y-111803328D01*
X146200000Y-111803325D01*
X146200000Y-111671675D01*
X146182961Y-111608090D01*
X146053553Y-111737500D01*
X145850000Y-111737500D01*
X145850000Y-111707663D01*
X145827164Y-111652532D01*
X145784968Y-111610336D01*
X145729837Y-111587500D01*
X145670163Y-111587500D01*
X145615032Y-111610336D01*
X145572836Y-111652532D01*
X145550000Y-111707663D01*
X145316609Y-111707663D01*
X145213003Y-111604056D01*
X145186996Y-111604056D01*
X145053553Y-111737500D01*
X144850000Y-111737500D01*
X144850000Y-111707663D01*
X144827164Y-111652532D01*
X144784968Y-111610336D01*
X144729837Y-111587500D01*
X144670163Y-111587500D01*
X144615032Y-111610336D01*
X144572836Y-111652532D01*
X144550000Y-111707663D01*
X144316609Y-111707663D01*
X144213003Y-111604056D01*
X144186996Y-111604056D01*
X144053553Y-111737500D01*
X143850000Y-111737500D01*
X143850000Y-111707663D01*
X143827164Y-111652532D01*
X143784968Y-111610336D01*
X143729837Y-111587500D01*
X143670163Y-111587500D01*
X143615032Y-111610336D01*
X143572836Y-111652532D01*
X143550000Y-111707663D01*
X143316609Y-111707663D01*
X143217037Y-111608090D01*
X143200000Y-111671674D01*
X139546386Y-111671674D01*
X139613704Y-111420442D01*
X139635546Y-111254537D01*
X143570590Y-111254537D01*
X143700000Y-111383946D01*
X143829409Y-111254537D01*
X144570590Y-111254537D01*
X144700000Y-111383946D01*
X144829409Y-111254537D01*
X145570590Y-111254537D01*
X145700000Y-111383946D01*
X145829409Y-111254537D01*
X145765825Y-111237500D01*
X145634174Y-111237500D01*
X145570590Y-111254537D01*
X144829409Y-111254537D01*
X144765825Y-111237500D01*
X144634174Y-111237500D01*
X144570590Y-111254537D01*
X143829409Y-111254537D01*
X143765825Y-111237500D01*
X143634174Y-111237500D01*
X143570590Y-111254537D01*
X139635546Y-111254537D01*
X139650500Y-111140951D01*
X139650500Y-110859049D01*
X139650498Y-110859033D01*
X139648711Y-110845459D01*
X139648711Y-110845457D01*
X139647650Y-110837399D01*
X146224500Y-110837399D01*
X146224500Y-110962601D01*
X146256905Y-111083536D01*
X146319505Y-111191964D01*
X146408036Y-111280495D01*
X146516464Y-111343095D01*
X146637399Y-111375500D01*
X146637401Y-111375500D01*
X146762599Y-111375500D01*
X146762601Y-111375500D01*
X146883536Y-111343095D01*
X146991964Y-111280495D01*
X147080495Y-111191964D01*
X147143095Y-111083536D01*
X147175500Y-110962601D01*
X147175500Y-110948890D01*
X147195185Y-110881851D01*
X147247989Y-110836096D01*
X147267399Y-110829117D01*
X147308536Y-110818095D01*
X147416964Y-110755495D01*
X147505495Y-110666964D01*
X147568095Y-110558536D01*
X147600500Y-110437601D01*
X147600500Y-110312399D01*
X147568095Y-110191464D01*
X147505495Y-110083036D01*
X147416964Y-109994505D01*
X147318052Y-109937399D01*
X148629500Y-109937399D01*
X148629500Y-110062601D01*
X148661905Y-110183536D01*
X148724505Y-110291964D01*
X148813036Y-110380495D01*
X148921464Y-110443095D01*
X149042399Y-110475500D01*
X149042401Y-110475500D01*
X149167599Y-110475500D01*
X149167601Y-110475500D01*
X149288536Y-110443095D01*
X149396964Y-110380495D01*
X149485495Y-110291964D01*
X149548095Y-110183536D01*
X149580500Y-110062601D01*
X149580500Y-109937399D01*
X149548095Y-109816464D01*
X149485495Y-109708036D01*
X149396964Y-109619505D01*
X149288536Y-109556905D01*
X149288537Y-109556905D01*
X149260901Y-109549500D01*
X149167601Y-109524500D01*
X149042399Y-109524500D01*
X148961775Y-109546103D01*
X148921463Y-109556905D01*
X148813037Y-109619504D01*
X148813034Y-109619506D01*
X148724506Y-109708034D01*
X148724504Y-109708037D01*
X148661905Y-109816463D01*
X148648645Y-109865950D01*
X148629500Y-109937399D01*
X147318052Y-109937399D01*
X147308536Y-109931905D01*
X147298215Y-109929139D01*
X147282260Y-109918842D01*
X147266464Y-109900542D01*
X147247643Y-109885374D01*
X147244047Y-109874569D01*
X147236607Y-109865950D01*
X147233212Y-109842015D01*
X147225579Y-109819080D01*
X147225500Y-109814656D01*
X147225500Y-109687400D01*
X147225500Y-109687399D01*
X147193095Y-109566464D01*
X147130495Y-109458036D01*
X147096759Y-109424300D01*
X150294149Y-109424300D01*
X150294149Y-109549502D01*
X150326554Y-109670437D01*
X150389154Y-109778865D01*
X150477685Y-109867396D01*
X150586113Y-109929996D01*
X150707048Y-109962401D01*
X150707050Y-109962401D01*
X150832248Y-109962401D01*
X150832250Y-109962401D01*
X150953185Y-109929996D01*
X151061613Y-109867396D01*
X151150144Y-109778865D01*
X151150147Y-109778858D01*
X151153302Y-109774749D01*
X151161224Y-109768964D01*
X151166132Y-109760469D01*
X151188976Y-109748699D01*
X151209730Y-109733546D01*
X151219523Y-109732962D01*
X151228244Y-109728470D01*
X151253822Y-109730919D01*
X151279476Y-109729391D01*
X151288030Y-109734194D01*
X151297795Y-109735130D01*
X151317989Y-109751019D01*
X151340396Y-109763603D01*
X151346458Y-109773419D01*
X151352705Y-109778335D01*
X151363025Y-109800247D01*
X151368869Y-109809710D01*
X151370309Y-109813876D01*
X151402373Y-109933536D01*
X151425600Y-109973767D01*
X151429476Y-109984975D01*
X151430590Y-110008509D01*
X151436144Y-110031402D01*
X151432213Y-110042758D01*
X151432782Y-110054767D01*
X151420995Y-110075169D01*
X151413291Y-110097428D01*
X151403844Y-110104856D01*
X151397831Y-110115266D01*
X151376887Y-110126055D01*
X151358370Y-110140618D01*
X151342794Y-110143619D01*
X151335719Y-110147265D01*
X151327810Y-110146507D01*
X151320391Y-110147937D01*
X151320458Y-110148439D01*
X151312401Y-110149499D01*
X151191463Y-110181905D01*
X151083037Y-110244504D01*
X151083034Y-110244506D01*
X150994506Y-110333034D01*
X150994504Y-110333037D01*
X150931905Y-110441463D01*
X150927465Y-110458034D01*
X150899500Y-110562399D01*
X150899500Y-110687601D01*
X150931905Y-110808536D01*
X150994505Y-110916964D01*
X151083036Y-111005495D01*
X151191464Y-111068095D01*
X151312399Y-111100500D01*
X151312401Y-111100500D01*
X151437599Y-111100500D01*
X151437601Y-111100500D01*
X151558536Y-111068095D01*
X151666964Y-111005495D01*
X151735060Y-110937399D01*
X153499500Y-110937399D01*
X153499500Y-111062601D01*
X153531905Y-111183536D01*
X153594505Y-111291964D01*
X153683036Y-111380495D01*
X153791464Y-111443095D01*
X153912399Y-111475500D01*
X153912401Y-111475500D01*
X154037599Y-111475500D01*
X154037601Y-111475500D01*
X154158536Y-111443095D01*
X154266964Y-111380495D01*
X154355495Y-111291964D01*
X154418095Y-111183536D01*
X154450500Y-111062601D01*
X154450500Y-110937399D01*
X154418095Y-110816464D01*
X154408011Y-110798998D01*
X154408011Y-110798996D01*
X154355497Y-110708039D01*
X154355496Y-110708037D01*
X154355495Y-110708036D01*
X154334858Y-110687399D01*
X154649500Y-110687399D01*
X154649500Y-110812601D01*
X154681905Y-110933536D01*
X154744505Y-111041964D01*
X154833036Y-111130495D01*
X154941464Y-111193095D01*
X155062399Y-111225500D01*
X155062401Y-111225500D01*
X155187599Y-111225500D01*
X155187601Y-111225500D01*
X155308536Y-111193095D01*
X155416964Y-111130495D01*
X155505495Y-111041964D01*
X155568095Y-110933536D01*
X155600500Y-110812601D01*
X155600500Y-110687399D01*
X155568095Y-110566464D01*
X155565748Y-110562399D01*
X158399500Y-110562399D01*
X158399500Y-110687601D01*
X158431905Y-110808536D01*
X158494504Y-110916963D01*
X158494506Y-110916965D01*
X158552360Y-110974819D01*
X158585845Y-111036142D01*
X158580861Y-111105834D01*
X158552360Y-111150181D01*
X158494506Y-111208034D01*
X158494504Y-111208037D01*
X158431905Y-111316463D01*
X158431905Y-111316464D01*
X158399500Y-111437399D01*
X158399500Y-111562601D01*
X158431905Y-111683536D01*
X158494505Y-111791964D01*
X158583036Y-111880495D01*
X158691464Y-111943095D01*
X158812399Y-111975500D01*
X158812401Y-111975500D01*
X158937599Y-111975500D01*
X158937601Y-111975500D01*
X159058536Y-111943095D01*
X159166964Y-111880495D01*
X159255495Y-111791964D01*
X159318095Y-111683536D01*
X159350500Y-111562601D01*
X159350500Y-111437399D01*
X159318095Y-111316464D01*
X159255495Y-111208036D01*
X159197640Y-111150181D01*
X159164155Y-111088858D01*
X159169139Y-111019166D01*
X159197640Y-110974819D01*
X159223569Y-110948890D01*
X159255495Y-110916964D01*
X159288936Y-110859041D01*
X160349500Y-110859041D01*
X160349500Y-111140958D01*
X160386295Y-111420439D01*
X160459259Y-111692743D01*
X160567135Y-111953179D01*
X160567140Y-111953190D01*
X160708083Y-112197309D01*
X160708088Y-112197317D01*
X160840214Y-112369506D01*
X160879704Y-112420970D01*
X161079029Y-112620295D01*
X161079033Y-112620298D01*
X161079035Y-112620300D01*
X161302683Y-112791912D01*
X161302690Y-112791916D01*
X161546809Y-112932859D01*
X161546814Y-112932861D01*
X161546817Y-112932863D01*
X161807261Y-113040742D01*
X162079558Y-113113704D01*
X162359049Y-113150500D01*
X162359056Y-113150500D01*
X162640944Y-113150500D01*
X162640951Y-113150500D01*
X162920442Y-113113704D01*
X163192739Y-113040742D01*
X163453183Y-112932863D01*
X163697317Y-112791912D01*
X163920965Y-112620300D01*
X164120300Y-112420965D01*
X164291912Y-112197317D01*
X164432863Y-111953183D01*
X164540742Y-111692739D01*
X164613704Y-111420442D01*
X164650500Y-111140951D01*
X164650500Y-110859049D01*
X164649374Y-110850500D01*
X164630619Y-110708037D01*
X164613704Y-110579558D01*
X164540742Y-110307261D01*
X164538960Y-110302960D01*
X164493453Y-110193094D01*
X164432863Y-110046817D01*
X164432861Y-110046814D01*
X164432859Y-110046809D01*
X164291916Y-109802690D01*
X164291912Y-109802683D01*
X164120300Y-109579035D01*
X164120298Y-109579033D01*
X164120295Y-109579029D01*
X163920970Y-109379704D01*
X163907680Y-109369506D01*
X163697317Y-109208088D01*
X163697311Y-109208084D01*
X163697309Y-109208083D01*
X163453190Y-109067140D01*
X163453179Y-109067135D01*
X163192743Y-108959259D01*
X162920439Y-108886295D01*
X162640958Y-108849500D01*
X162640951Y-108849500D01*
X162359049Y-108849500D01*
X162359041Y-108849500D01*
X162079560Y-108886295D01*
X161807256Y-108959259D01*
X161546820Y-109067135D01*
X161546809Y-109067140D01*
X161302690Y-109208083D01*
X161302682Y-109208089D01*
X161079029Y-109379704D01*
X160879704Y-109579029D01*
X160780713Y-109708037D01*
X160713189Y-109796036D01*
X160708089Y-109802682D01*
X160708083Y-109802690D01*
X160567140Y-110046809D01*
X160567135Y-110046820D01*
X160459259Y-110307256D01*
X160386295Y-110579560D01*
X160349500Y-110859041D01*
X159288936Y-110859041D01*
X159318095Y-110808536D01*
X159350500Y-110687601D01*
X159350500Y-110562399D01*
X159318095Y-110441464D01*
X159255495Y-110333036D01*
X159166964Y-110244505D01*
X159058536Y-110181905D01*
X159058537Y-110181905D01*
X159018224Y-110171103D01*
X158937601Y-110149500D01*
X158812399Y-110149500D01*
X158731775Y-110171103D01*
X158691463Y-110181905D01*
X158583037Y-110244504D01*
X158583034Y-110244506D01*
X158494506Y-110333034D01*
X158494504Y-110333037D01*
X158431905Y-110441463D01*
X158427465Y-110458034D01*
X158399500Y-110562399D01*
X155565748Y-110562399D01*
X155505495Y-110458036D01*
X155416964Y-110369505D01*
X155330156Y-110319387D01*
X155281941Y-110268821D01*
X155268717Y-110200214D01*
X155294685Y-110135349D01*
X155351599Y-110094820D01*
X155392156Y-110088000D01*
X155425099Y-110088000D01*
X155425101Y-110088000D01*
X155546036Y-110055595D01*
X155654464Y-109992995D01*
X155742995Y-109904464D01*
X155805595Y-109796036D01*
X155838000Y-109675101D01*
X155838000Y-109549899D01*
X155805595Y-109428964D01*
X155742995Y-109320536D01*
X155654464Y-109232005D01*
X155546036Y-109169405D01*
X155546037Y-109169405D01*
X155505724Y-109158603D01*
X155425101Y-109137000D01*
X155299899Y-109137000D01*
X155219275Y-109158603D01*
X155178963Y-109169405D01*
X155070537Y-109232004D01*
X155070534Y-109232006D01*
X154982006Y-109320534D01*
X154982004Y-109320537D01*
X154919405Y-109428963D01*
X154911615Y-109458036D01*
X154887000Y-109549899D01*
X154887000Y-109675101D01*
X154919405Y-109796036D01*
X154982005Y-109904464D01*
X155070536Y-109992995D01*
X155157343Y-110043112D01*
X155205559Y-110093679D01*
X155218783Y-110162286D01*
X155192815Y-110227151D01*
X155135901Y-110267680D01*
X155095344Y-110274500D01*
X155062399Y-110274500D01*
X154997231Y-110291962D01*
X154941463Y-110306905D01*
X154833037Y-110369504D01*
X154833034Y-110369506D01*
X154744506Y-110458034D01*
X154744504Y-110458037D01*
X154681905Y-110566463D01*
X154676572Y-110586365D01*
X154649500Y-110687399D01*
X154334858Y-110687399D01*
X154266964Y-110619505D01*
X154158536Y-110556905D01*
X154158537Y-110556905D01*
X154118224Y-110546103D01*
X154037601Y-110524500D01*
X153912399Y-110524500D01*
X153831775Y-110546103D01*
X153791463Y-110556905D01*
X153683037Y-110619504D01*
X153683034Y-110619506D01*
X153594506Y-110708034D01*
X153594504Y-110708037D01*
X153531905Y-110816463D01*
X153518291Y-110867272D01*
X153499500Y-110937399D01*
X151735060Y-110937399D01*
X151755495Y-110916964D01*
X151818095Y-110808536D01*
X151850500Y-110687601D01*
X151850500Y-110562399D01*
X151818095Y-110441464D01*
X151808301Y-110424500D01*
X151800795Y-110411498D01*
X151784324Y-110343598D01*
X151807177Y-110277572D01*
X151862098Y-110234382D01*
X151900076Y-110227062D01*
X151900010Y-110226561D01*
X151908066Y-110225500D01*
X151908069Y-110225500D01*
X152029004Y-110193095D01*
X152137432Y-110130495D01*
X152225963Y-110041964D01*
X152288563Y-109933536D01*
X152320968Y-109812601D01*
X152320968Y-109687399D01*
X152288563Y-109566464D01*
X152225963Y-109458036D01*
X152137432Y-109369505D01*
X152029004Y-109306905D01*
X152029005Y-109306905D01*
X151988692Y-109296103D01*
X151908069Y-109274500D01*
X151782867Y-109274500D01*
X151702243Y-109296103D01*
X151661931Y-109306905D01*
X151553505Y-109369504D01*
X151553502Y-109369506D01*
X151464971Y-109458037D01*
X151461806Y-109462162D01*
X151405374Y-109503359D01*
X151335628Y-109507506D01*
X151274711Y-109473288D01*
X151243664Y-109418761D01*
X151212744Y-109303365D01*
X151150144Y-109194937D01*
X151061613Y-109106406D01*
X150953185Y-109043806D01*
X150953186Y-109043806D01*
X150912873Y-109033004D01*
X150832250Y-109011401D01*
X150707048Y-109011401D01*
X150626424Y-109033004D01*
X150586112Y-109043806D01*
X150477686Y-109106405D01*
X150477683Y-109106407D01*
X150389155Y-109194935D01*
X150389153Y-109194938D01*
X150326554Y-109303364D01*
X150321953Y-109320536D01*
X150294149Y-109424300D01*
X147096759Y-109424300D01*
X147041964Y-109369505D01*
X146933536Y-109306905D01*
X146933537Y-109306905D01*
X146893224Y-109296103D01*
X146812601Y-109274500D01*
X146687399Y-109274500D01*
X146606775Y-109296103D01*
X146566463Y-109306905D01*
X146458037Y-109369504D01*
X146458034Y-109369506D01*
X146369506Y-109458034D01*
X146369504Y-109458037D01*
X146306905Y-109566463D01*
X146292693Y-109619504D01*
X146274500Y-109687399D01*
X146274500Y-109812601D01*
X146306905Y-109933536D01*
X146369505Y-110041964D01*
X146458036Y-110130495D01*
X146566464Y-110193095D01*
X146566468Y-110193096D01*
X146572948Y-110195780D01*
X146588516Y-110208324D01*
X146606703Y-110216630D01*
X146615165Y-110229797D01*
X146627353Y-110239618D01*
X146633667Y-110258588D01*
X146644477Y-110275408D01*
X146648438Y-110302960D01*
X146649421Y-110305912D01*
X146649500Y-110310343D01*
X146649500Y-110326109D01*
X146629815Y-110393148D01*
X146577011Y-110438903D01*
X146557595Y-110445883D01*
X146516468Y-110456903D01*
X146516463Y-110456905D01*
X146408037Y-110519504D01*
X146408034Y-110519506D01*
X146319506Y-110608034D01*
X146319504Y-110608037D01*
X146256905Y-110716463D01*
X146256905Y-110716464D01*
X146224500Y-110837399D01*
X139647650Y-110837399D01*
X139613704Y-110579561D01*
X139613704Y-110579560D01*
X139613704Y-110579558D01*
X139540742Y-110307261D01*
X139538960Y-110302960D01*
X139493453Y-110193094D01*
X139432863Y-110046817D01*
X139432861Y-110046814D01*
X139432859Y-110046809D01*
X139291916Y-109802690D01*
X139291912Y-109802683D01*
X139120300Y-109579035D01*
X139120298Y-109579033D01*
X139120295Y-109579029D01*
X138920970Y-109379704D01*
X138907680Y-109369506D01*
X138697317Y-109208088D01*
X138697311Y-109208084D01*
X138697309Y-109208083D01*
X138453190Y-109067140D01*
X138453179Y-109067135D01*
X138192743Y-108959259D01*
X137920439Y-108886295D01*
X137640958Y-108849500D01*
X137640951Y-108849500D01*
X137359049Y-108849500D01*
X137359041Y-108849500D01*
X137079560Y-108886295D01*
X136807256Y-108959259D01*
X136546820Y-109067135D01*
X136546809Y-109067140D01*
X136302690Y-109208083D01*
X136302682Y-109208089D01*
X136079029Y-109379704D01*
X135879704Y-109579029D01*
X135780713Y-109708037D01*
X135713189Y-109796036D01*
X135708089Y-109802682D01*
X135708083Y-109802690D01*
X135567140Y-110046809D01*
X135567135Y-110046820D01*
X135459259Y-110307256D01*
X135386295Y-110579560D01*
X135349500Y-110859041D01*
X135000500Y-110859041D01*
X135000500Y-108437399D01*
X140324500Y-108437399D01*
X140324500Y-108562601D01*
X140356905Y-108683536D01*
X140419505Y-108791964D01*
X140508036Y-108880495D01*
X140616464Y-108943095D01*
X140737399Y-108975500D01*
X140737401Y-108975500D01*
X140862599Y-108975500D01*
X140862601Y-108975500D01*
X140983536Y-108943095D01*
X141091964Y-108880495D01*
X141160060Y-108812399D01*
X143274500Y-108812399D01*
X143274500Y-108937601D01*
X143306905Y-109058536D01*
X143369505Y-109166964D01*
X143458036Y-109255495D01*
X143566464Y-109318095D01*
X143687399Y-109350500D01*
X143687401Y-109350500D01*
X143812599Y-109350500D01*
X143812601Y-109350500D01*
X143933536Y-109318095D01*
X144041964Y-109255495D01*
X144130495Y-109166964D01*
X144193095Y-109058536D01*
X144225500Y-108937601D01*
X144225500Y-108812399D01*
X144193095Y-108691464D01*
X144130495Y-108583036D01*
X144041964Y-108494505D01*
X143933536Y-108431905D01*
X143933537Y-108431905D01*
X143893224Y-108421103D01*
X143812601Y-108399500D01*
X143687399Y-108399500D01*
X143606775Y-108421103D01*
X143566463Y-108431905D01*
X143458037Y-108494504D01*
X143458034Y-108494506D01*
X143369506Y-108583034D01*
X143369504Y-108583037D01*
X143306905Y-108691463D01*
X143293291Y-108742272D01*
X143274500Y-108812399D01*
X141160060Y-108812399D01*
X141180495Y-108791964D01*
X141243095Y-108683536D01*
X141275500Y-108562601D01*
X141275500Y-108437399D01*
X141243095Y-108316464D01*
X141180495Y-108208036D01*
X141165614Y-108193155D01*
X154662000Y-108193155D01*
X154662000Y-108318357D01*
X154694405Y-108439292D01*
X154757005Y-108547720D01*
X154845536Y-108636251D01*
X154953964Y-108698851D01*
X155074899Y-108731256D01*
X155074901Y-108731256D01*
X155200099Y-108731256D01*
X155200101Y-108731256D01*
X155321036Y-108698851D01*
X155429464Y-108636251D01*
X155517995Y-108547720D01*
X155580595Y-108439292D01*
X155613000Y-108318357D01*
X155613000Y-108193155D01*
X155580595Y-108072220D01*
X155517995Y-107963792D01*
X155429464Y-107875261D01*
X155321036Y-107812661D01*
X155321037Y-107812661D01*
X155280724Y-107801859D01*
X155200101Y-107780256D01*
X155074899Y-107780256D01*
X154994275Y-107801859D01*
X154953963Y-107812661D01*
X154845537Y-107875260D01*
X154845534Y-107875262D01*
X154757006Y-107963790D01*
X154757004Y-107963793D01*
X154694405Y-108072219D01*
X154678202Y-108132687D01*
X154662000Y-108193155D01*
X141165614Y-108193155D01*
X141091964Y-108119505D01*
X140983536Y-108056905D01*
X140983537Y-108056905D01*
X140943224Y-108046103D01*
X140862601Y-108024500D01*
X140737399Y-108024500D01*
X140656775Y-108046103D01*
X140616463Y-108056905D01*
X140508037Y-108119504D01*
X140508034Y-108119506D01*
X140419506Y-108208034D01*
X140419504Y-108208037D01*
X140356905Y-108316463D01*
X140356905Y-108316464D01*
X140324500Y-108437399D01*
X135000500Y-108437399D01*
X135000500Y-107561413D01*
X142711000Y-107561413D01*
X142711000Y-107686615D01*
X142743405Y-107807550D01*
X142806005Y-107915978D01*
X142894536Y-108004509D01*
X143002964Y-108067109D01*
X143123899Y-108099514D01*
X143123901Y-108099514D01*
X143249099Y-108099514D01*
X143249101Y-108099514D01*
X143370036Y-108067109D01*
X143478464Y-108004509D01*
X143566995Y-107915978D01*
X143629595Y-107807550D01*
X143662000Y-107686615D01*
X143662000Y-107561413D01*
X143629595Y-107440478D01*
X143566995Y-107332050D01*
X143478464Y-107243519D01*
X143381260Y-107187399D01*
X147525500Y-107187399D01*
X147525500Y-107312601D01*
X147557905Y-107433536D01*
X147620505Y-107541964D01*
X147709036Y-107630495D01*
X147817464Y-107693095D01*
X147938399Y-107725500D01*
X147938401Y-107725500D01*
X148063599Y-107725500D01*
X148063601Y-107725500D01*
X148184536Y-107693095D01*
X148292964Y-107630495D01*
X148381495Y-107541964D01*
X148444095Y-107433536D01*
X148476500Y-107312601D01*
X148476500Y-107187399D01*
X148444095Y-107066464D01*
X148381495Y-106958036D01*
X148350984Y-106927525D01*
X151799968Y-106927525D01*
X151799968Y-107072475D01*
X151837484Y-107212485D01*
X151837485Y-107212488D01*
X151909956Y-107338011D01*
X151909958Y-107338013D01*
X151909959Y-107338015D01*
X152012453Y-107440509D01*
X152012454Y-107440510D01*
X152012456Y-107440511D01*
X152137979Y-107512982D01*
X152137980Y-107512982D01*
X152137983Y-107512984D01*
X152277993Y-107550500D01*
X152277996Y-107550500D01*
X152422940Y-107550500D01*
X152422943Y-107550500D01*
X152562953Y-107512984D01*
X152688483Y-107440509D01*
X152790977Y-107338015D01*
X152863452Y-107212485D01*
X152870174Y-107187399D01*
X159149500Y-107187399D01*
X159149500Y-107312601D01*
X159181905Y-107433536D01*
X159244505Y-107541964D01*
X159333036Y-107630495D01*
X159441464Y-107693095D01*
X159562399Y-107725500D01*
X159562401Y-107725500D01*
X159687599Y-107725500D01*
X159687601Y-107725500D01*
X159808536Y-107693095D01*
X159916964Y-107630495D01*
X160005495Y-107541964D01*
X160068095Y-107433536D01*
X160100500Y-107312601D01*
X160100500Y-107187399D01*
X160068095Y-107066464D01*
X160005495Y-106958036D01*
X159916964Y-106869505D01*
X159808536Y-106806905D01*
X159808537Y-106806905D01*
X159768224Y-106796103D01*
X159687601Y-106774500D01*
X159562399Y-106774500D01*
X159481775Y-106796103D01*
X159441463Y-106806905D01*
X159333037Y-106869504D01*
X159333034Y-106869506D01*
X159244506Y-106958034D01*
X159244504Y-106958037D01*
X159181905Y-107066463D01*
X159181905Y-107066464D01*
X159149500Y-107187399D01*
X152870174Y-107187399D01*
X152900968Y-107072475D01*
X152900968Y-106927525D01*
X152863452Y-106787515D01*
X152808285Y-106691964D01*
X152790979Y-106661988D01*
X152790974Y-106661982D01*
X152691391Y-106562399D01*
X153649500Y-106562399D01*
X153649500Y-106687601D01*
X153681905Y-106808536D01*
X153744505Y-106916964D01*
X153833036Y-107005495D01*
X153941464Y-107068095D01*
X154062399Y-107100500D01*
X154062401Y-107100500D01*
X154187599Y-107100500D01*
X154187601Y-107100500D01*
X154308536Y-107068095D01*
X154416964Y-107005495D01*
X154505495Y-106916964D01*
X154568095Y-106808536D01*
X154600500Y-106687601D01*
X154600500Y-106562399D01*
X154568095Y-106441464D01*
X154505495Y-106333036D01*
X154416964Y-106244505D01*
X154308536Y-106181905D01*
X154308537Y-106181905D01*
X154268224Y-106171103D01*
X154187601Y-106149500D01*
X154062399Y-106149500D01*
X153981775Y-106171103D01*
X153941463Y-106181905D01*
X153833037Y-106244504D01*
X153833034Y-106244506D01*
X153744506Y-106333034D01*
X153744504Y-106333037D01*
X153681905Y-106441463D01*
X153676242Y-106462599D01*
X153649500Y-106562399D01*
X152691391Y-106562399D01*
X152688485Y-106559493D01*
X152688479Y-106559488D01*
X152562956Y-106487017D01*
X152562957Y-106487017D01*
X152551474Y-106483940D01*
X152422943Y-106449500D01*
X152277993Y-106449500D01*
X152149461Y-106483940D01*
X152137979Y-106487017D01*
X152012456Y-106559488D01*
X152012450Y-106559493D01*
X151909961Y-106661982D01*
X151909956Y-106661988D01*
X151837485Y-106787511D01*
X151837484Y-106787515D01*
X151799968Y-106927525D01*
X148350984Y-106927525D01*
X148292964Y-106869505D01*
X148184536Y-106806905D01*
X148184537Y-106806905D01*
X148144224Y-106796103D01*
X148063601Y-106774500D01*
X147938399Y-106774500D01*
X147857775Y-106796103D01*
X147817463Y-106806905D01*
X147709037Y-106869504D01*
X147709034Y-106869506D01*
X147620506Y-106958034D01*
X147620504Y-106958037D01*
X147557905Y-107066463D01*
X147557905Y-107066464D01*
X147525500Y-107187399D01*
X143381260Y-107187399D01*
X143370036Y-107180919D01*
X143370037Y-107180919D01*
X143329724Y-107170117D01*
X143249101Y-107148514D01*
X143123899Y-107148514D01*
X143043275Y-107170117D01*
X143002963Y-107180919D01*
X142894537Y-107243518D01*
X142894534Y-107243520D01*
X142806006Y-107332048D01*
X142806004Y-107332051D01*
X142743405Y-107440477D01*
X142743396Y-107440511D01*
X142711000Y-107561413D01*
X135000500Y-107561413D01*
X135000500Y-106337399D01*
X140324500Y-106337399D01*
X140324500Y-106462601D01*
X140356905Y-106583536D01*
X140419505Y-106691964D01*
X140508036Y-106780495D01*
X140616464Y-106843095D01*
X140737399Y-106875500D01*
X140737401Y-106875500D01*
X140862599Y-106875500D01*
X140862601Y-106875500D01*
X140983536Y-106843095D01*
X141091964Y-106780495D01*
X141180495Y-106691964D01*
X141243095Y-106583536D01*
X141275500Y-106462601D01*
X141275500Y-106337399D01*
X141243095Y-106216464D01*
X141180495Y-106108036D01*
X141091964Y-106019505D01*
X140983536Y-105956905D01*
X140983537Y-105956905D01*
X140931997Y-105943095D01*
X140862601Y-105924500D01*
X140737399Y-105924500D01*
X140668003Y-105943095D01*
X140616463Y-105956905D01*
X140508037Y-106019504D01*
X140508034Y-106019506D01*
X140419506Y-106108034D01*
X140419504Y-106108037D01*
X140356905Y-106216463D01*
X140349391Y-106244505D01*
X140324500Y-106337399D01*
X135000500Y-106337399D01*
X135000500Y-104812399D01*
X137524500Y-104812399D01*
X137524500Y-104937601D01*
X137556905Y-105058536D01*
X137619505Y-105166964D01*
X137708036Y-105255495D01*
X137816464Y-105318095D01*
X137937399Y-105350500D01*
X137937401Y-105350500D01*
X138062599Y-105350500D01*
X138062601Y-105350500D01*
X138183536Y-105318095D01*
X138291964Y-105255495D01*
X138380495Y-105166964D01*
X138443095Y-105058536D01*
X138475500Y-104937601D01*
X138475500Y-104937399D01*
X140774500Y-104937399D01*
X140774500Y-105062601D01*
X140806905Y-105183536D01*
X140869505Y-105291964D01*
X140958036Y-105380495D01*
X141066464Y-105443095D01*
X141187399Y-105475500D01*
X141187401Y-105475500D01*
X141312599Y-105475500D01*
X141312601Y-105475500D01*
X141433536Y-105443095D01*
X141443402Y-105437399D01*
X149029499Y-105437399D01*
X149029499Y-105562601D01*
X149061904Y-105683536D01*
X149124504Y-105791964D01*
X149213035Y-105880495D01*
X149321463Y-105943095D01*
X149442398Y-105975500D01*
X149442400Y-105975500D01*
X149567598Y-105975500D01*
X149567600Y-105975500D01*
X149688535Y-105943095D01*
X149796963Y-105880495D01*
X149885494Y-105791964D01*
X149948094Y-105683536D01*
X149980499Y-105562601D01*
X149980499Y-105437399D01*
X149948094Y-105316464D01*
X149885494Y-105208036D01*
X149796963Y-105119505D01*
X149688535Y-105056905D01*
X149688536Y-105056905D01*
X149648223Y-105046103D01*
X149567600Y-105024500D01*
X149442398Y-105024500D01*
X149361774Y-105046103D01*
X149321462Y-105056905D01*
X149213036Y-105119504D01*
X149213033Y-105119506D01*
X149124505Y-105208034D01*
X149124503Y-105208037D01*
X149061904Y-105316463D01*
X149061904Y-105316464D01*
X149029499Y-105437399D01*
X141443402Y-105437399D01*
X141541964Y-105380495D01*
X141630495Y-105291964D01*
X141693095Y-105183536D01*
X141725500Y-105062601D01*
X141725500Y-104937399D01*
X141693095Y-104816464D01*
X141630495Y-104708036D01*
X141541964Y-104619505D01*
X141433536Y-104556905D01*
X141433537Y-104556905D01*
X141393224Y-104546103D01*
X141312601Y-104524500D01*
X141187399Y-104524500D01*
X141106775Y-104546103D01*
X141066463Y-104556905D01*
X140958037Y-104619504D01*
X140958034Y-104619506D01*
X140869506Y-104708034D01*
X140869504Y-104708037D01*
X140806905Y-104816463D01*
X140806905Y-104816464D01*
X140774500Y-104937399D01*
X138475500Y-104937399D01*
X138475500Y-104812399D01*
X138443095Y-104691464D01*
X138380495Y-104583036D01*
X138291964Y-104494505D01*
X138183536Y-104431905D01*
X138183537Y-104431905D01*
X138143224Y-104421103D01*
X138062601Y-104399500D01*
X137937399Y-104399500D01*
X137856775Y-104421103D01*
X137816463Y-104431905D01*
X137708037Y-104494504D01*
X137708034Y-104494506D01*
X137619506Y-104583034D01*
X137619504Y-104583037D01*
X137556905Y-104691463D01*
X137556905Y-104691464D01*
X137524500Y-104812399D01*
X135000500Y-104812399D01*
X135000500Y-102937399D01*
X137524500Y-102937399D01*
X137524500Y-103062601D01*
X137556905Y-103183536D01*
X137619505Y-103291964D01*
X137708036Y-103380495D01*
X137816464Y-103443095D01*
X137937399Y-103475500D01*
X137937401Y-103475500D01*
X138062599Y-103475500D01*
X138062601Y-103475500D01*
X138183536Y-103443095D01*
X138291964Y-103380495D01*
X138380495Y-103291964D01*
X138443095Y-103183536D01*
X138475500Y-103062601D01*
X138475500Y-102937399D01*
X138443095Y-102816464D01*
X138380495Y-102708036D01*
X138291964Y-102619505D01*
X138183536Y-102556905D01*
X138183537Y-102556905D01*
X138143224Y-102546103D01*
X138062601Y-102524500D01*
X137937399Y-102524500D01*
X137856775Y-102546103D01*
X137816463Y-102556905D01*
X137708037Y-102619504D01*
X137708034Y-102619506D01*
X137619506Y-102708034D01*
X137619504Y-102708037D01*
X137556905Y-102816463D01*
X137556905Y-102816464D01*
X137524500Y-102937399D01*
X135000500Y-102937399D01*
X135000500Y-100647195D01*
X149001500Y-100647195D01*
X149001500Y-100772397D01*
X149033905Y-100893332D01*
X149096505Y-101001760D01*
X149185036Y-101090291D01*
X149293464Y-101152891D01*
X149414399Y-101185296D01*
X149414401Y-101185296D01*
X149539599Y-101185296D01*
X149539601Y-101185296D01*
X149660536Y-101152891D01*
X149768964Y-101090291D01*
X149857495Y-101001760D01*
X149920095Y-100893332D01*
X149952500Y-100772397D01*
X149952500Y-100647195D01*
X149952500Y-100639067D01*
X149954359Y-100639067D01*
X149963533Y-100580216D01*
X150009911Y-100527958D01*
X150013681Y-100525690D01*
X150091964Y-100480495D01*
X150135060Y-100437399D01*
X156764500Y-100437399D01*
X156764500Y-100562601D01*
X156796905Y-100683536D01*
X156859505Y-100791964D01*
X156948036Y-100880495D01*
X157056464Y-100943095D01*
X157177399Y-100975500D01*
X157177401Y-100975500D01*
X157302599Y-100975500D01*
X157302601Y-100975500D01*
X157423536Y-100943095D01*
X157531964Y-100880495D01*
X157620495Y-100791964D01*
X157683095Y-100683536D01*
X157715500Y-100562601D01*
X157715500Y-100437399D01*
X157683095Y-100316464D01*
X157620495Y-100208036D01*
X157531964Y-100119505D01*
X157423536Y-100056905D01*
X157423537Y-100056905D01*
X157383224Y-100046103D01*
X157302601Y-100024500D01*
X157177399Y-100024500D01*
X157096775Y-100046103D01*
X157056463Y-100056905D01*
X156948037Y-100119504D01*
X156948034Y-100119506D01*
X156859506Y-100208034D01*
X156859504Y-100208037D01*
X156796905Y-100316463D01*
X156796905Y-100316464D01*
X156764500Y-100437399D01*
X150135060Y-100437399D01*
X150180495Y-100391964D01*
X150187118Y-100380493D01*
X150194752Y-100367271D01*
X150224085Y-100316463D01*
X150243095Y-100283536D01*
X150275500Y-100162601D01*
X150275500Y-100037399D01*
X150243095Y-99916464D01*
X150180495Y-99808036D01*
X150091964Y-99719505D01*
X149983536Y-99656905D01*
X149983537Y-99656905D01*
X149943224Y-99646103D01*
X149862601Y-99624500D01*
X149737399Y-99624500D01*
X149656775Y-99646103D01*
X149616463Y-99656905D01*
X149508037Y-99719504D01*
X149508034Y-99719506D01*
X149419506Y-99808034D01*
X149419504Y-99808037D01*
X149356905Y-99916463D01*
X149356905Y-99916464D01*
X149327957Y-100024500D01*
X149324500Y-100037400D01*
X149324500Y-100170728D01*
X149322645Y-100170728D01*
X149313457Y-100229597D01*
X149267071Y-100281847D01*
X149263290Y-100284121D01*
X149185039Y-100329298D01*
X149185034Y-100329302D01*
X149096506Y-100417830D01*
X149096504Y-100417833D01*
X149033905Y-100526259D01*
X149024168Y-100562599D01*
X149001500Y-100647195D01*
X135000500Y-100647195D01*
X135000500Y-98937399D01*
X141024500Y-98937399D01*
X141024500Y-99062601D01*
X141056905Y-99183536D01*
X141119505Y-99291964D01*
X141208036Y-99380495D01*
X141316464Y-99443095D01*
X141359794Y-99454705D01*
X141419452Y-99491068D01*
X141449982Y-99553915D01*
X141441688Y-99623291D01*
X141415381Y-99662159D01*
X141369506Y-99708034D01*
X141369504Y-99708037D01*
X141306905Y-99816463D01*
X141306905Y-99816464D01*
X141274500Y-99937399D01*
X141274500Y-100062601D01*
X141306905Y-100183536D01*
X141369505Y-100291964D01*
X141458036Y-100380495D01*
X141566464Y-100443095D01*
X141687399Y-100475500D01*
X141687401Y-100475500D01*
X141812599Y-100475500D01*
X141812601Y-100475500D01*
X141933536Y-100443095D01*
X142041964Y-100380495D01*
X142130495Y-100291964D01*
X142193095Y-100183536D01*
X142225500Y-100062601D01*
X142225500Y-99937399D01*
X142193095Y-99816464D01*
X142130495Y-99708036D01*
X142041964Y-99619505D01*
X141933536Y-99556905D01*
X141933537Y-99556905D01*
X141917153Y-99552515D01*
X141890204Y-99545294D01*
X141830545Y-99508929D01*
X141800017Y-99446082D01*
X141808312Y-99376707D01*
X141834617Y-99337841D01*
X141880495Y-99291964D01*
X141943095Y-99183536D01*
X141975500Y-99062601D01*
X141975500Y-98937399D01*
X141943095Y-98816464D01*
X141880495Y-98708036D01*
X141791964Y-98619505D01*
X141683536Y-98556905D01*
X141683537Y-98556905D01*
X141643224Y-98546103D01*
X141562601Y-98524500D01*
X141437399Y-98524500D01*
X141356775Y-98546103D01*
X141316463Y-98556905D01*
X141208037Y-98619504D01*
X141208034Y-98619506D01*
X141119506Y-98708034D01*
X141119504Y-98708037D01*
X141056905Y-98816463D01*
X141056905Y-98816464D01*
X141024500Y-98937399D01*
X135000500Y-98937399D01*
X135000500Y-97437399D01*
X137774500Y-97437399D01*
X137774500Y-97562601D01*
X137806905Y-97683536D01*
X137869505Y-97791964D01*
X137958036Y-97880495D01*
X138066464Y-97943095D01*
X138187399Y-97975500D01*
X138187401Y-97975500D01*
X138312599Y-97975500D01*
X138312601Y-97975500D01*
X138433536Y-97943095D01*
X138541964Y-97880495D01*
X138630495Y-97791964D01*
X138693095Y-97683536D01*
X138725500Y-97562601D01*
X138725500Y-97437399D01*
X139774500Y-97437399D01*
X139774500Y-97562601D01*
X139806905Y-97683536D01*
X139869505Y-97791964D01*
X139958036Y-97880495D01*
X140066464Y-97943095D01*
X140187399Y-97975500D01*
X140187401Y-97975500D01*
X140312599Y-97975500D01*
X140312601Y-97975500D01*
X140433536Y-97943095D01*
X140541964Y-97880495D01*
X140630495Y-97791964D01*
X140642612Y-97770975D01*
X140693179Y-97722760D01*
X140761786Y-97709536D01*
X140826651Y-97735504D01*
X140857388Y-97770976D01*
X140869503Y-97791962D01*
X140869505Y-97791964D01*
X140958036Y-97880495D01*
X141066464Y-97943095D01*
X141187399Y-97975500D01*
X141187401Y-97975500D01*
X141312599Y-97975500D01*
X141312601Y-97975500D01*
X141433536Y-97943095D01*
X141541964Y-97880495D01*
X141630495Y-97791964D01*
X141661998Y-97737399D01*
X149024500Y-97737399D01*
X149024500Y-97862601D01*
X149056905Y-97983536D01*
X149119505Y-98091964D01*
X149208036Y-98180495D01*
X149316464Y-98243095D01*
X149437399Y-98275500D01*
X149437401Y-98275500D01*
X149562599Y-98275500D01*
X149562601Y-98275500D01*
X149683536Y-98243095D01*
X149791964Y-98180495D01*
X149835060Y-98137399D01*
X150624500Y-98137399D01*
X150624500Y-98262601D01*
X150632413Y-98292131D01*
X150656905Y-98383536D01*
X150719504Y-98491962D01*
X150719506Y-98491965D01*
X150739860Y-98512319D01*
X150773345Y-98573642D01*
X150768361Y-98643334D01*
X150739860Y-98687681D01*
X150719506Y-98708034D01*
X150719504Y-98708037D01*
X150656905Y-98816463D01*
X150656905Y-98816464D01*
X150624500Y-98937399D01*
X150624500Y-99062601D01*
X150656905Y-99183536D01*
X150717217Y-99288001D01*
X150733688Y-99355901D01*
X150717217Y-99411999D01*
X150656905Y-99516463D01*
X150646870Y-99553915D01*
X150624500Y-99637399D01*
X150624500Y-99762601D01*
X150656905Y-99883536D01*
X150719505Y-99991964D01*
X150808036Y-100080495D01*
X150916464Y-100143095D01*
X151037399Y-100175500D01*
X151037401Y-100175500D01*
X151162599Y-100175500D01*
X151162601Y-100175500D01*
X151283536Y-100143095D01*
X151391964Y-100080495D01*
X151480495Y-99991964D01*
X151543095Y-99883536D01*
X151575500Y-99762601D01*
X151575500Y-99637399D01*
X151543095Y-99516464D01*
X151482782Y-99411998D01*
X151466310Y-99344100D01*
X151482783Y-99288001D01*
X151543095Y-99183536D01*
X151575500Y-99062601D01*
X151575500Y-98937399D01*
X159035500Y-98937399D01*
X159035500Y-99062601D01*
X159067905Y-99183536D01*
X159130505Y-99291964D01*
X159219036Y-99380495D01*
X159327464Y-99443095D01*
X159448399Y-99475500D01*
X159448401Y-99475500D01*
X159573599Y-99475500D01*
X159573601Y-99475500D01*
X159694536Y-99443095D01*
X159802964Y-99380495D01*
X159891495Y-99291964D01*
X159954095Y-99183536D01*
X159986500Y-99062601D01*
X159986500Y-98937399D01*
X159954095Y-98816464D01*
X159891495Y-98708036D01*
X159802964Y-98619505D01*
X159694536Y-98556905D01*
X159694537Y-98556905D01*
X159654224Y-98546103D01*
X159573601Y-98524500D01*
X159448399Y-98524500D01*
X159367775Y-98546103D01*
X159327463Y-98556905D01*
X159219037Y-98619504D01*
X159219034Y-98619506D01*
X159130506Y-98708034D01*
X159130504Y-98708037D01*
X159067905Y-98816463D01*
X159067905Y-98816464D01*
X159035500Y-98937399D01*
X151575500Y-98937399D01*
X151543095Y-98816464D01*
X151480495Y-98708036D01*
X151460140Y-98687681D01*
X151426655Y-98626358D01*
X151431639Y-98556666D01*
X151460140Y-98512319D01*
X151480495Y-98491964D01*
X151543095Y-98383536D01*
X151572244Y-98274754D01*
X153637145Y-98274754D01*
X153637145Y-98399956D01*
X153669550Y-98520891D01*
X153732150Y-98629319D01*
X153820681Y-98717850D01*
X153929109Y-98780450D01*
X154050044Y-98812855D01*
X154050046Y-98812855D01*
X154175244Y-98812855D01*
X154175246Y-98812855D01*
X154296181Y-98780450D01*
X154404609Y-98717850D01*
X154493140Y-98629319D01*
X154555740Y-98520891D01*
X154588145Y-98399956D01*
X154588145Y-98274754D01*
X154555740Y-98153819D01*
X154493140Y-98045391D01*
X154404609Y-97956860D01*
X154296181Y-97894260D01*
X154296182Y-97894260D01*
X154244810Y-97880495D01*
X154175246Y-97861855D01*
X154050044Y-97861855D01*
X153980480Y-97880495D01*
X153929108Y-97894260D01*
X153820682Y-97956859D01*
X153820679Y-97956861D01*
X153732151Y-98045389D01*
X153732149Y-98045392D01*
X153669550Y-98153818D01*
X153662402Y-98180495D01*
X153637145Y-98274754D01*
X151572244Y-98274754D01*
X151575500Y-98262601D01*
X151575500Y-98137399D01*
X151543095Y-98016464D01*
X151480495Y-97908036D01*
X151391964Y-97819505D01*
X151283536Y-97756905D01*
X151283537Y-97756905D01*
X151272808Y-97754030D01*
X155957869Y-97754030D01*
X155957869Y-97879232D01*
X155990274Y-98000167D01*
X156052874Y-98108595D01*
X156141405Y-98197126D01*
X156249833Y-98259726D01*
X156370768Y-98292131D01*
X156370770Y-98292131D01*
X156495968Y-98292131D01*
X156495970Y-98292131D01*
X156616905Y-98259726D01*
X156725333Y-98197126D01*
X156813864Y-98108595D01*
X156876464Y-98000167D01*
X156908869Y-97879232D01*
X156908869Y-97754030D01*
X156876464Y-97633095D01*
X156813864Y-97524667D01*
X156725333Y-97436136D01*
X156616905Y-97373536D01*
X156616906Y-97373536D01*
X156554838Y-97356905D01*
X156495970Y-97341131D01*
X156370768Y-97341131D01*
X156311900Y-97356905D01*
X156249832Y-97373536D01*
X156141406Y-97436135D01*
X156141403Y-97436137D01*
X156052875Y-97524665D01*
X156052873Y-97524668D01*
X155990274Y-97633094D01*
X155990274Y-97633095D01*
X155957869Y-97754030D01*
X151272808Y-97754030D01*
X151243224Y-97746103D01*
X151162601Y-97724500D01*
X151037399Y-97724500D01*
X150956775Y-97746103D01*
X150916463Y-97756905D01*
X150808037Y-97819504D01*
X150808034Y-97819506D01*
X150719506Y-97908034D01*
X150719504Y-97908037D01*
X150656905Y-98016463D01*
X150643291Y-98067271D01*
X150624500Y-98137399D01*
X149835060Y-98137399D01*
X149880495Y-98091964D01*
X149884854Y-98084413D01*
X149894752Y-98067271D01*
X149933493Y-98000167D01*
X149943095Y-97983536D01*
X149975500Y-97862601D01*
X149975500Y-97737399D01*
X149943095Y-97616464D01*
X149880495Y-97508036D01*
X149791964Y-97419505D01*
X149683536Y-97356905D01*
X149683537Y-97356905D01*
X149643224Y-97346103D01*
X149562601Y-97324500D01*
X149437399Y-97324500D01*
X149356775Y-97346103D01*
X149316463Y-97356905D01*
X149208037Y-97419504D01*
X149208034Y-97419506D01*
X149119506Y-97508034D01*
X149119504Y-97508037D01*
X149056905Y-97616463D01*
X149040702Y-97676931D01*
X149024500Y-97737399D01*
X141661998Y-97737399D01*
X141693095Y-97683536D01*
X141725500Y-97562601D01*
X141725500Y-97437399D01*
X141693095Y-97316464D01*
X141630495Y-97208036D01*
X141541964Y-97119505D01*
X141433536Y-97056905D01*
X141433537Y-97056905D01*
X141393224Y-97046103D01*
X141312601Y-97024500D01*
X141187399Y-97024500D01*
X141106775Y-97046103D01*
X141066463Y-97056905D01*
X140958037Y-97119504D01*
X140958034Y-97119506D01*
X140869504Y-97208036D01*
X140857387Y-97229025D01*
X140806820Y-97277240D01*
X140738212Y-97290462D01*
X140673348Y-97264494D01*
X140642613Y-97229025D01*
X140630495Y-97208036D01*
X140541965Y-97119506D01*
X140541964Y-97119505D01*
X140433536Y-97056905D01*
X140433537Y-97056905D01*
X140393224Y-97046103D01*
X140312601Y-97024500D01*
X140187399Y-97024500D01*
X140106775Y-97046103D01*
X140066463Y-97056905D01*
X139958037Y-97119504D01*
X139958034Y-97119506D01*
X139869506Y-97208034D01*
X139869504Y-97208037D01*
X139806905Y-97316463D01*
X139803421Y-97329465D01*
X139774500Y-97437399D01*
X138725500Y-97437399D01*
X138693095Y-97316464D01*
X138630495Y-97208036D01*
X138541964Y-97119505D01*
X138433536Y-97056905D01*
X138433537Y-97056905D01*
X138393224Y-97046103D01*
X138312601Y-97024500D01*
X138187399Y-97024500D01*
X138106775Y-97046103D01*
X138066463Y-97056905D01*
X137958037Y-97119504D01*
X137958034Y-97119506D01*
X137869506Y-97208034D01*
X137869504Y-97208037D01*
X137806905Y-97316463D01*
X137803421Y-97329465D01*
X137774500Y-97437399D01*
X135000500Y-97437399D01*
X135000500Y-96974899D01*
X157650500Y-96974899D01*
X157650500Y-97100101D01*
X157682905Y-97221036D01*
X157745505Y-97329464D01*
X157834036Y-97417995D01*
X157942464Y-97480595D01*
X158063399Y-97513000D01*
X158063401Y-97513000D01*
X158188599Y-97513000D01*
X158188601Y-97513000D01*
X158309536Y-97480595D01*
X158417964Y-97417995D01*
X158506495Y-97329464D01*
X158569095Y-97221036D01*
X158601500Y-97100101D01*
X158601500Y-96974899D01*
X158569095Y-96853964D01*
X158506495Y-96745536D01*
X158417964Y-96657005D01*
X158309536Y-96594405D01*
X158309537Y-96594405D01*
X158269224Y-96583603D01*
X158188601Y-96562000D01*
X158063399Y-96562000D01*
X157982775Y-96583603D01*
X157942463Y-96594405D01*
X157834037Y-96657004D01*
X157834034Y-96657006D01*
X157745506Y-96745534D01*
X157745504Y-96745537D01*
X157682905Y-96853963D01*
X157682905Y-96853964D01*
X157650500Y-96974899D01*
X135000500Y-96974899D01*
X135000500Y-95712399D01*
X150924500Y-95712399D01*
X150924500Y-95837601D01*
X150956905Y-95958536D01*
X151019505Y-96066964D01*
X151108036Y-96155495D01*
X151216464Y-96218095D01*
X151337399Y-96250500D01*
X151337401Y-96250500D01*
X151462599Y-96250500D01*
X151462601Y-96250500D01*
X151583536Y-96218095D01*
X151691964Y-96155495D01*
X151780495Y-96066964D01*
X151843095Y-95958536D01*
X151875500Y-95837601D01*
X151875500Y-95712399D01*
X151843095Y-95591464D01*
X151780495Y-95483036D01*
X151691964Y-95394505D01*
X151583536Y-95331905D01*
X151583537Y-95331905D01*
X151543224Y-95321103D01*
X151462601Y-95299500D01*
X151337399Y-95299500D01*
X151256775Y-95321103D01*
X151216463Y-95331905D01*
X151108037Y-95394504D01*
X151108034Y-95394506D01*
X151019506Y-95483034D01*
X151019504Y-95483037D01*
X150956905Y-95591463D01*
X150956905Y-95591464D01*
X150924500Y-95712399D01*
X135000500Y-95712399D01*
X135000500Y-94662399D01*
X149274500Y-94662399D01*
X149274500Y-94787601D01*
X149306905Y-94908536D01*
X149369505Y-95016964D01*
X149458036Y-95105495D01*
X149566464Y-95168095D01*
X149687399Y-95200500D01*
X149687401Y-95200500D01*
X149812599Y-95200500D01*
X149812601Y-95200500D01*
X149861494Y-95187399D01*
X159024500Y-95187399D01*
X159024500Y-95312601D01*
X159056905Y-95433536D01*
X159119505Y-95541964D01*
X159208036Y-95630495D01*
X159316464Y-95693095D01*
X159437399Y-95725500D01*
X159437401Y-95725500D01*
X159562599Y-95725500D01*
X159562601Y-95725500D01*
X159683536Y-95693095D01*
X159791964Y-95630495D01*
X159880495Y-95541964D01*
X159943095Y-95433536D01*
X159975500Y-95312601D01*
X159975500Y-95187399D01*
X159943095Y-95066464D01*
X159880495Y-94958036D01*
X159791964Y-94869505D01*
X159683536Y-94806905D01*
X159683537Y-94806905D01*
X159643224Y-94796103D01*
X159562601Y-94774500D01*
X159437399Y-94774500D01*
X159356775Y-94796103D01*
X159316463Y-94806905D01*
X159208037Y-94869504D01*
X159208034Y-94869506D01*
X159119506Y-94958034D01*
X159119504Y-94958037D01*
X159056905Y-95066463D01*
X159056905Y-95066464D01*
X159024500Y-95187399D01*
X149861494Y-95187399D01*
X149933536Y-95168095D01*
X150041964Y-95105495D01*
X150130495Y-95016964D01*
X150193095Y-94908536D01*
X150225500Y-94787601D01*
X150225500Y-94662399D01*
X150193095Y-94541464D01*
X150130495Y-94433036D01*
X150041964Y-94344505D01*
X149933536Y-94281905D01*
X149933537Y-94281905D01*
X149893224Y-94271103D01*
X149812601Y-94249500D01*
X149687399Y-94249500D01*
X149606775Y-94271103D01*
X149566463Y-94281905D01*
X149458037Y-94344504D01*
X149458034Y-94344506D01*
X149369506Y-94433034D01*
X149369504Y-94433037D01*
X149306905Y-94541463D01*
X149306905Y-94541464D01*
X149274500Y-94662399D01*
X135000500Y-94662399D01*
X135000500Y-91437399D01*
X148274500Y-91437399D01*
X148274500Y-91562601D01*
X148306905Y-91683536D01*
X148369505Y-91791964D01*
X148458036Y-91880495D01*
X148566464Y-91943095D01*
X148687399Y-91975500D01*
X148687401Y-91975500D01*
X148812599Y-91975500D01*
X148812601Y-91975500D01*
X148899992Y-91952083D01*
X148969839Y-91953746D01*
X149027702Y-91992908D01*
X149055207Y-92057136D01*
X149051859Y-92103951D01*
X149029499Y-92187399D01*
X149029499Y-92312601D01*
X149061904Y-92433536D01*
X149124504Y-92541964D01*
X149213035Y-92630495D01*
X149321463Y-92693095D01*
X149442398Y-92725500D01*
X149442400Y-92725500D01*
X149567598Y-92725500D01*
X149567600Y-92725500D01*
X149688535Y-92693095D01*
X149796963Y-92630495D01*
X149885494Y-92541964D01*
X149889946Y-92534251D01*
X149940508Y-92486035D01*
X149997997Y-92472249D01*
X150013983Y-92472334D01*
X150044458Y-92480500D01*
X150169660Y-92480500D01*
X150196500Y-92473308D01*
X150213162Y-92473397D01*
X150231313Y-92478832D01*
X150250255Y-92479283D01*
X150264090Y-92488646D01*
X150280095Y-92493439D01*
X150292425Y-92507823D01*
X150308118Y-92518444D01*
X150314694Y-92533801D01*
X150325568Y-92546486D01*
X150328164Y-92565254D01*
X150335623Y-92582672D01*
X150336500Y-92597395D01*
X150336500Y-92667601D01*
X150368905Y-92788536D01*
X150431505Y-92896964D01*
X150520036Y-92985495D01*
X150628464Y-93048095D01*
X150749399Y-93080500D01*
X150749401Y-93080500D01*
X150874599Y-93080500D01*
X150874601Y-93080500D01*
X150995536Y-93048095D01*
X151103964Y-92985495D01*
X151192495Y-92896964D01*
X151255095Y-92788536D01*
X151287500Y-92667601D01*
X151287500Y-92542399D01*
X151255095Y-92421464D01*
X151192495Y-92313036D01*
X151103964Y-92224505D01*
X150995536Y-92161905D01*
X150995537Y-92161905D01*
X150955224Y-92151103D01*
X150874601Y-92129500D01*
X150749399Y-92129500D01*
X150749396Y-92129500D01*
X150738648Y-92132380D01*
X150668798Y-92130715D01*
X150610937Y-92091550D01*
X150593977Y-92051940D01*
X151409959Y-92051940D01*
X151409959Y-92177142D01*
X151412708Y-92187400D01*
X151419962Y-92214475D01*
X151419963Y-92214477D01*
X151442364Y-92298077D01*
X151504964Y-92406505D01*
X151593495Y-92495036D01*
X151701923Y-92557636D01*
X151822858Y-92590041D01*
X151822860Y-92590041D01*
X151948058Y-92590041D01*
X151948060Y-92590041D01*
X152068995Y-92557636D01*
X152177423Y-92495036D01*
X152265954Y-92406505D01*
X152328554Y-92298077D01*
X152358211Y-92187399D01*
X157649500Y-92187399D01*
X157649500Y-92312601D01*
X157681905Y-92433536D01*
X157744505Y-92541964D01*
X157833036Y-92630495D01*
X157941464Y-92693095D01*
X158062399Y-92725500D01*
X158062401Y-92725500D01*
X158187599Y-92725500D01*
X158187601Y-92725500D01*
X158308536Y-92693095D01*
X158416964Y-92630495D01*
X158505495Y-92541964D01*
X158568095Y-92433536D01*
X158600500Y-92312601D01*
X158600500Y-92187399D01*
X158568095Y-92066464D01*
X158505495Y-91958036D01*
X158416964Y-91869505D01*
X158308536Y-91806905D01*
X158308537Y-91806905D01*
X158252769Y-91791962D01*
X158187601Y-91774500D01*
X158062399Y-91774500D01*
X157997231Y-91791962D01*
X157941463Y-91806905D01*
X157833037Y-91869504D01*
X157833034Y-91869506D01*
X157744506Y-91958034D01*
X157744504Y-91958037D01*
X157681905Y-92066463D01*
X157681905Y-92066464D01*
X157649500Y-92187399D01*
X152358211Y-92187399D01*
X152360959Y-92177142D01*
X152360959Y-92051940D01*
X152328554Y-91931005D01*
X152265954Y-91822577D01*
X152177423Y-91734046D01*
X152068995Y-91671446D01*
X152068996Y-91671446D01*
X152028683Y-91660644D01*
X151948060Y-91639041D01*
X151822858Y-91639041D01*
X151742234Y-91660644D01*
X151701922Y-91671446D01*
X151593496Y-91734045D01*
X151593493Y-91734047D01*
X151504965Y-91822575D01*
X151504963Y-91822578D01*
X151442364Y-91931004D01*
X151439124Y-91943095D01*
X151409959Y-92051940D01*
X150593977Y-92051940D01*
X150583435Y-92027320D01*
X150582559Y-92012604D01*
X150582559Y-91942400D01*
X150579506Y-91931005D01*
X150550154Y-91821464D01*
X150487554Y-91713036D01*
X150461699Y-91687181D01*
X150428214Y-91625858D01*
X150433198Y-91556166D01*
X150475070Y-91500233D01*
X150540534Y-91475816D01*
X150549380Y-91475500D01*
X150562599Y-91475500D01*
X150562601Y-91475500D01*
X150683536Y-91443095D01*
X150791964Y-91380495D01*
X150880495Y-91291964D01*
X150943095Y-91183536D01*
X150975500Y-91062601D01*
X150975500Y-91032589D01*
X154612154Y-91032589D01*
X154612154Y-91157791D01*
X154644559Y-91278726D01*
X154707159Y-91387154D01*
X154795690Y-91475685D01*
X154904118Y-91538285D01*
X155025053Y-91570690D01*
X155025055Y-91570690D01*
X155150253Y-91570690D01*
X155150255Y-91570690D01*
X155271190Y-91538285D01*
X155379618Y-91475685D01*
X155396493Y-91458810D01*
X155457815Y-91425323D01*
X155527507Y-91430306D01*
X155546175Y-91439101D01*
X155553092Y-91443095D01*
X155674027Y-91475500D01*
X155674029Y-91475500D01*
X155799227Y-91475500D01*
X155799229Y-91475500D01*
X155920164Y-91443095D01*
X156028592Y-91380495D01*
X156069017Y-91340069D01*
X156130338Y-91306585D01*
X156188791Y-91307976D01*
X156188897Y-91308004D01*
X156188900Y-91308006D01*
X156309835Y-91340411D01*
X156309837Y-91340411D01*
X156435035Y-91340411D01*
X156435037Y-91340411D01*
X156555972Y-91308006D01*
X156664400Y-91245406D01*
X156752931Y-91156875D01*
X156815531Y-91048447D01*
X156847936Y-90927512D01*
X156847936Y-90802310D01*
X156815531Y-90681375D01*
X156752931Y-90572947D01*
X156664400Y-90484416D01*
X156664399Y-90484415D01*
X156664396Y-90484413D01*
X156626259Y-90462395D01*
X156626256Y-90462394D01*
X156555972Y-90421816D01*
X156435037Y-90389411D01*
X156309835Y-90389411D01*
X156229211Y-90411014D01*
X156188899Y-90421816D01*
X156080473Y-90484415D01*
X156080470Y-90484417D01*
X156040046Y-90524841D01*
X155978723Y-90558325D01*
X155920272Y-90556934D01*
X155920164Y-90556905D01*
X155799229Y-90524500D01*
X155674027Y-90524500D01*
X155593403Y-90546103D01*
X155553091Y-90556905D01*
X155444660Y-90619506D01*
X155427784Y-90636383D01*
X155366460Y-90669867D01*
X155296769Y-90664881D01*
X155278107Y-90656088D01*
X155271194Y-90652097D01*
X155271191Y-90652095D01*
X155212553Y-90636383D01*
X155150255Y-90619690D01*
X155025053Y-90619690D01*
X154962755Y-90636383D01*
X154904117Y-90652095D01*
X154795691Y-90714694D01*
X154795688Y-90714696D01*
X154707160Y-90803224D01*
X154707158Y-90803227D01*
X154644559Y-90911653D01*
X154637660Y-90937400D01*
X154612154Y-91032589D01*
X150975500Y-91032589D01*
X150975500Y-90943987D01*
X150995185Y-90876948D01*
X151047989Y-90831193D01*
X151067400Y-90824213D01*
X151183536Y-90793095D01*
X151291964Y-90730495D01*
X151380495Y-90641964D01*
X151443095Y-90533536D01*
X151475500Y-90412601D01*
X151475500Y-90287399D01*
X151443095Y-90166464D01*
X151380495Y-90058036D01*
X151291964Y-89969505D01*
X151183536Y-89906905D01*
X151183537Y-89906905D01*
X151143224Y-89896103D01*
X151062601Y-89874500D01*
X150937399Y-89874500D01*
X150856775Y-89896103D01*
X150816463Y-89906905D01*
X150708037Y-89969504D01*
X150708034Y-89969506D01*
X150619506Y-90058034D01*
X150619504Y-90058037D01*
X150556905Y-90166463D01*
X150524500Y-90287400D01*
X150524500Y-90406012D01*
X150504815Y-90473051D01*
X150452011Y-90518806D01*
X150432595Y-90525786D01*
X150316468Y-90556903D01*
X150316463Y-90556905D01*
X150208037Y-90619504D01*
X150208034Y-90619506D01*
X150119506Y-90708034D01*
X150119504Y-90708037D01*
X150056905Y-90816463D01*
X150056905Y-90816464D01*
X150024500Y-90937399D01*
X150024500Y-91062601D01*
X150039748Y-91119505D01*
X150056905Y-91183536D01*
X150119504Y-91291962D01*
X150119506Y-91291965D01*
X150145360Y-91317819D01*
X150178845Y-91379142D01*
X150173861Y-91448834D01*
X150131989Y-91504767D01*
X150066525Y-91529184D01*
X150057679Y-91529500D01*
X150044458Y-91529500D01*
X149963834Y-91551103D01*
X149923522Y-91561905D01*
X149815096Y-91624504D01*
X149815093Y-91624506D01*
X149726565Y-91713034D01*
X149722107Y-91720756D01*
X149671538Y-91768970D01*
X149602930Y-91782190D01*
X149582630Y-91778527D01*
X149567601Y-91774500D01*
X149567600Y-91774500D01*
X149442398Y-91774500D01*
X149442397Y-91774500D01*
X149355007Y-91797916D01*
X149285157Y-91796253D01*
X149227295Y-91757090D01*
X149199791Y-91692862D01*
X149203139Y-91646049D01*
X149225500Y-91562601D01*
X149225500Y-91437399D01*
X149193095Y-91316464D01*
X149130495Y-91208036D01*
X149041964Y-91119505D01*
X148933536Y-91056905D01*
X148933537Y-91056905D01*
X148893224Y-91046103D01*
X148812601Y-91024500D01*
X148687399Y-91024500D01*
X148606775Y-91046103D01*
X148566463Y-91056905D01*
X148458037Y-91119504D01*
X148458034Y-91119506D01*
X148369506Y-91208034D01*
X148369504Y-91208037D01*
X148306905Y-91316463D01*
X148306905Y-91316464D01*
X148274500Y-91437399D01*
X135000500Y-91437399D01*
X135000500Y-89864430D01*
X135020185Y-89797391D01*
X135072989Y-89751636D01*
X135142147Y-89741692D01*
X135193392Y-89761329D01*
X135237765Y-89790979D01*
X135237777Y-89790985D01*
X135396103Y-89856566D01*
X135396111Y-89856568D01*
X135564181Y-89889999D01*
X135564185Y-89890000D01*
X135735563Y-89890000D01*
X135735566Y-89889999D01*
X135903636Y-89856568D01*
X135903644Y-89856566D01*
X136061972Y-89790984D01*
X136065169Y-89788847D01*
X135713964Y-89437643D01*
X135811988Y-89411378D01*
X135907760Y-89356084D01*
X135985958Y-89277886D01*
X136041252Y-89182114D01*
X136067517Y-89084090D01*
X136418721Y-89435295D01*
X136420858Y-89432098D01*
X136486440Y-89273770D01*
X136486442Y-89273762D01*
X136519873Y-89105692D01*
X136519874Y-89105689D01*
X136519874Y-88934311D01*
X136519873Y-88934307D01*
X136486442Y-88766237D01*
X136486439Y-88766225D01*
X136474231Y-88736753D01*
X136466761Y-88667284D01*
X136498035Y-88604805D01*
X136558123Y-88569151D01*
X136627948Y-88571644D01*
X136636218Y-88574728D01*
X136665959Y-88587047D01*
X136665963Y-88587047D01*
X136665964Y-88587048D01*
X136834134Y-88620500D01*
X136834137Y-88620500D01*
X137005613Y-88620500D01*
X137118755Y-88597993D01*
X137173789Y-88587047D01*
X137203503Y-88574738D01*
X137272970Y-88567269D01*
X137335450Y-88598542D01*
X137371104Y-88658630D01*
X137368611Y-88728456D01*
X137365518Y-88736751D01*
X137353305Y-88766234D01*
X137353305Y-88766237D01*
X137319874Y-88934307D01*
X137319874Y-89105692D01*
X137353305Y-89273762D01*
X137353307Y-89273770D01*
X137418890Y-89432100D01*
X137421025Y-89435294D01*
X137772230Y-89084089D01*
X137798496Y-89182114D01*
X137853790Y-89277886D01*
X137931988Y-89356084D01*
X138027760Y-89411378D01*
X138125783Y-89437643D01*
X137774578Y-89788847D01*
X137774578Y-89788848D01*
X137777772Y-89790982D01*
X137936103Y-89856566D01*
X137936111Y-89856568D01*
X138104181Y-89889999D01*
X138104185Y-89890000D01*
X138275563Y-89890000D01*
X138275566Y-89889999D01*
X138443636Y-89856568D01*
X138443644Y-89856566D01*
X138601972Y-89790984D01*
X138605169Y-89788847D01*
X138253964Y-89437642D01*
X138254871Y-89437399D01*
X141024500Y-89437399D01*
X141024500Y-89562601D01*
X141056905Y-89683536D01*
X141119505Y-89791964D01*
X141208036Y-89880495D01*
X141316464Y-89943095D01*
X141437399Y-89975500D01*
X141437401Y-89975500D01*
X141562599Y-89975500D01*
X141562601Y-89975500D01*
X141683536Y-89943095D01*
X141691902Y-89938265D01*
X144296653Y-89938265D01*
X144296653Y-90063467D01*
X144329058Y-90184402D01*
X144391658Y-90292830D01*
X144480189Y-90381361D01*
X144588617Y-90443961D01*
X144709552Y-90476366D01*
X144709554Y-90476366D01*
X144834752Y-90476366D01*
X144834754Y-90476366D01*
X144955689Y-90443961D01*
X145064117Y-90381361D01*
X145152648Y-90292830D01*
X145215248Y-90184402D01*
X145247653Y-90063467D01*
X145247653Y-90063465D01*
X145249756Y-90055617D01*
X145252678Y-90056400D01*
X145275105Y-90005687D01*
X145333425Y-89967209D01*
X145401881Y-89965983D01*
X145437399Y-89975500D01*
X145437400Y-89975500D01*
X145562599Y-89975500D01*
X145562601Y-89975500D01*
X145683536Y-89943095D01*
X145791964Y-89880495D01*
X145880495Y-89791964D01*
X145926431Y-89712399D01*
X152274500Y-89712399D01*
X152274500Y-89837601D01*
X152306905Y-89958536D01*
X152369505Y-90066964D01*
X152458036Y-90155495D01*
X152566464Y-90218095D01*
X152687399Y-90250500D01*
X152687401Y-90250500D01*
X152812599Y-90250500D01*
X152812601Y-90250500D01*
X152933536Y-90218095D01*
X153041964Y-90155495D01*
X153130495Y-90066964D01*
X153193095Y-89958536D01*
X153225500Y-89837601D01*
X153225500Y-89712399D01*
X153218801Y-89687399D01*
X156274500Y-89687399D01*
X156274500Y-89812601D01*
X156306905Y-89933536D01*
X156369505Y-90041964D01*
X156458036Y-90130495D01*
X156566464Y-90193095D01*
X156687399Y-90225500D01*
X156700320Y-90225500D01*
X156812599Y-90225500D01*
X156812601Y-90225500D01*
X156933536Y-90193095D01*
X156997815Y-90155983D01*
X157065714Y-90139511D01*
X157131741Y-90162363D01*
X157167201Y-90201371D01*
X157219502Y-90291960D01*
X157219504Y-90291962D01*
X157219505Y-90291964D01*
X157308036Y-90380495D01*
X157416464Y-90443095D01*
X157537399Y-90475500D01*
X157537401Y-90475500D01*
X157662599Y-90475500D01*
X157662601Y-90475500D01*
X157783536Y-90443095D01*
X157891964Y-90380495D01*
X157980495Y-90291964D01*
X158043095Y-90183536D01*
X158075500Y-90062601D01*
X158075500Y-89937399D01*
X158043095Y-89816464D01*
X157980495Y-89708036D01*
X157891964Y-89619505D01*
X157783536Y-89556905D01*
X157783537Y-89556905D01*
X157743224Y-89546103D01*
X157662601Y-89524500D01*
X157537399Y-89524500D01*
X157476931Y-89540702D01*
X157416462Y-89556905D01*
X157416459Y-89556907D01*
X157352183Y-89594016D01*
X157284283Y-89610487D01*
X157218256Y-89587634D01*
X157182798Y-89548627D01*
X157130499Y-89458042D01*
X157130496Y-89458038D01*
X157130495Y-89458036D01*
X157041964Y-89369505D01*
X156933536Y-89306905D01*
X156933537Y-89306905D01*
X156893224Y-89296103D01*
X156812601Y-89274500D01*
X156687399Y-89274500D01*
X156606775Y-89296103D01*
X156566463Y-89306905D01*
X156458037Y-89369504D01*
X156458034Y-89369506D01*
X156369506Y-89458034D01*
X156369504Y-89458037D01*
X156306905Y-89566463D01*
X156306905Y-89566464D01*
X156274500Y-89687399D01*
X153218801Y-89687399D01*
X153193095Y-89591464D01*
X153130495Y-89483036D01*
X153041964Y-89394505D01*
X152933536Y-89331905D01*
X152933537Y-89331905D01*
X152875910Y-89316464D01*
X152812601Y-89299500D01*
X152687399Y-89299500D01*
X152624090Y-89316464D01*
X152566463Y-89331905D01*
X152458037Y-89394504D01*
X152458034Y-89394506D01*
X152369506Y-89483034D01*
X152369504Y-89483037D01*
X152306905Y-89591463D01*
X152299159Y-89620371D01*
X152274500Y-89712399D01*
X145926431Y-89712399D01*
X145943095Y-89683536D01*
X145975500Y-89562601D01*
X145975500Y-89437399D01*
X145943095Y-89316464D01*
X145880495Y-89208036D01*
X145791964Y-89119505D01*
X145683536Y-89056905D01*
X145683537Y-89056905D01*
X145643224Y-89046103D01*
X145562601Y-89024500D01*
X145437399Y-89024500D01*
X145356775Y-89046103D01*
X145316463Y-89056905D01*
X145208037Y-89119504D01*
X145208034Y-89119506D01*
X145119506Y-89208034D01*
X145119504Y-89208037D01*
X145056905Y-89316463D01*
X145046289Y-89356084D01*
X145025921Y-89432098D01*
X145022397Y-89445249D01*
X145019484Y-89444468D01*
X144997001Y-89495232D01*
X144938659Y-89533677D01*
X144870271Y-89534882D01*
X144834754Y-89525366D01*
X144709552Y-89525366D01*
X144628928Y-89546969D01*
X144588616Y-89557771D01*
X144480190Y-89620370D01*
X144480187Y-89620372D01*
X144391659Y-89708900D01*
X144391657Y-89708903D01*
X144329058Y-89817329D01*
X144318544Y-89856568D01*
X144296653Y-89938265D01*
X141691902Y-89938265D01*
X141791964Y-89880495D01*
X141880495Y-89791964D01*
X141943095Y-89683536D01*
X141975500Y-89562601D01*
X141975500Y-89437399D01*
X141943095Y-89316464D01*
X141880495Y-89208036D01*
X141791964Y-89119505D01*
X141683536Y-89056905D01*
X141683537Y-89056905D01*
X141643224Y-89046103D01*
X141562601Y-89024500D01*
X141437399Y-89024500D01*
X141356775Y-89046103D01*
X141316463Y-89056905D01*
X141208037Y-89119504D01*
X141208034Y-89119506D01*
X141119506Y-89208034D01*
X141119504Y-89208037D01*
X141056905Y-89316463D01*
X141046289Y-89356084D01*
X141024500Y-89437399D01*
X138254871Y-89437399D01*
X138351988Y-89411378D01*
X138447760Y-89356084D01*
X138525958Y-89277886D01*
X138581252Y-89182114D01*
X138607516Y-89084090D01*
X138958721Y-89435295D01*
X138960858Y-89432098D01*
X138981686Y-89381818D01*
X139026440Y-89273770D01*
X139026442Y-89273762D01*
X139059873Y-89105692D01*
X139059874Y-89105689D01*
X139059874Y-88934311D01*
X139059873Y-88934307D01*
X139026442Y-88766237D01*
X139026440Y-88766229D01*
X138960856Y-88607898D01*
X138958721Y-88604704D01*
X138607516Y-88955908D01*
X138581252Y-88857886D01*
X138525958Y-88762114D01*
X138447760Y-88683916D01*
X138351988Y-88628622D01*
X138253962Y-88602356D01*
X138605168Y-88251151D01*
X138601974Y-88249016D01*
X138443644Y-88183433D01*
X138443636Y-88183431D01*
X138275566Y-88150000D01*
X138104181Y-88150000D01*
X137936111Y-88183431D01*
X137936108Y-88183431D01*
X137906625Y-88195644D01*
X137837155Y-88203112D01*
X137774676Y-88171836D01*
X137739024Y-88111747D01*
X137738685Y-88051778D01*
X137740945Y-88042482D01*
X137756921Y-88003915D01*
X137779592Y-87889941D01*
X144359590Y-87889941D01*
X144359590Y-88015143D01*
X144391995Y-88136078D01*
X144454595Y-88244506D01*
X144543126Y-88333037D01*
X144651554Y-88395637D01*
X144772489Y-88428042D01*
X144772491Y-88428042D01*
X144897689Y-88428042D01*
X144897691Y-88428042D01*
X145018626Y-88395637D01*
X145127054Y-88333037D01*
X145215585Y-88244506D01*
X145278185Y-88136078D01*
X145310590Y-88015143D01*
X145310590Y-87889941D01*
X145278185Y-87769006D01*
X145215585Y-87660578D01*
X145127054Y-87572047D01*
X145018626Y-87509447D01*
X145018627Y-87509447D01*
X144968759Y-87496085D01*
X144897691Y-87477042D01*
X144772489Y-87477042D01*
X144701421Y-87496085D01*
X144651553Y-87509447D01*
X144543127Y-87572046D01*
X144543124Y-87572048D01*
X144454596Y-87660576D01*
X144454594Y-87660579D01*
X144391995Y-87769005D01*
X144391995Y-87769006D01*
X144359590Y-87889941D01*
X137779592Y-87889941D01*
X137790374Y-87835737D01*
X137790374Y-87664263D01*
X137790374Y-87664260D01*
X137756922Y-87496090D01*
X137756921Y-87496089D01*
X137756921Y-87496085D01*
X137744611Y-87466367D01*
X137737143Y-87396902D01*
X137768417Y-87334422D01*
X137828506Y-87298769D01*
X137898331Y-87301262D01*
X137906627Y-87304357D01*
X137936099Y-87316565D01*
X137936111Y-87316568D01*
X138104181Y-87349999D01*
X138104185Y-87350000D01*
X138275563Y-87350000D01*
X138275566Y-87349999D01*
X138443636Y-87316568D01*
X138443644Y-87316566D01*
X138601972Y-87250984D01*
X138605169Y-87248847D01*
X138253963Y-86897643D01*
X138351988Y-86871378D01*
X138447760Y-86816084D01*
X138525958Y-86737886D01*
X138581252Y-86642114D01*
X138607516Y-86544090D01*
X138958721Y-86895295D01*
X138960858Y-86892098D01*
X139026440Y-86733770D01*
X139026442Y-86733762D01*
X139059873Y-86565692D01*
X139059874Y-86565689D01*
X139059874Y-86437399D01*
X141024500Y-86437399D01*
X141024500Y-86562601D01*
X141056905Y-86683536D01*
X141119505Y-86791964D01*
X141208036Y-86880495D01*
X141316464Y-86943095D01*
X141437399Y-86975500D01*
X141437401Y-86975500D01*
X141562599Y-86975500D01*
X141562601Y-86975500D01*
X141683536Y-86943095D01*
X141791964Y-86880495D01*
X141880495Y-86791964D01*
X141940865Y-86687399D01*
X145024500Y-86687399D01*
X145024500Y-86812601D01*
X145056905Y-86933536D01*
X145119505Y-87041964D01*
X145208036Y-87130495D01*
X145316464Y-87193095D01*
X145437399Y-87225500D01*
X145437401Y-87225500D01*
X145562599Y-87225500D01*
X145562601Y-87225500D01*
X145683536Y-87193095D01*
X145791964Y-87130495D01*
X145880495Y-87041964D01*
X145943095Y-86933536D01*
X145975500Y-86812601D01*
X145975500Y-86687399D01*
X145943095Y-86566464D01*
X145880495Y-86458036D01*
X145791964Y-86369505D01*
X145683536Y-86306905D01*
X145683537Y-86306905D01*
X145643224Y-86296103D01*
X145562601Y-86274500D01*
X145437399Y-86274500D01*
X145356775Y-86296103D01*
X145316463Y-86306905D01*
X145208037Y-86369504D01*
X145208034Y-86369506D01*
X145119506Y-86458034D01*
X145119504Y-86458037D01*
X145056905Y-86566463D01*
X145040702Y-86626931D01*
X145024500Y-86687399D01*
X141940865Y-86687399D01*
X141943095Y-86683536D01*
X141975500Y-86562601D01*
X141975500Y-86437399D01*
X141943095Y-86316464D01*
X141880495Y-86208036D01*
X141791964Y-86119505D01*
X141683536Y-86056905D01*
X141683537Y-86056905D01*
X141643224Y-86046103D01*
X141562601Y-86024500D01*
X141437399Y-86024500D01*
X141356775Y-86046103D01*
X141316463Y-86056905D01*
X141208037Y-86119504D01*
X141208034Y-86119506D01*
X141119506Y-86208034D01*
X141119504Y-86208037D01*
X141056905Y-86316463D01*
X141056905Y-86316464D01*
X141024500Y-86437399D01*
X139059874Y-86437399D01*
X139059874Y-86394311D01*
X139059873Y-86394307D01*
X139026442Y-86226237D01*
X139026440Y-86226229D01*
X138960856Y-86067898D01*
X138958721Y-86064704D01*
X138607516Y-86415908D01*
X138581252Y-86317886D01*
X138525958Y-86222114D01*
X138447760Y-86143916D01*
X138351988Y-86088622D01*
X138253963Y-86062356D01*
X138605168Y-85711151D01*
X138601974Y-85709016D01*
X138443644Y-85643433D01*
X138443636Y-85643431D01*
X138275566Y-85610000D01*
X138104181Y-85610000D01*
X137936111Y-85643431D01*
X137936103Y-85643433D01*
X137777770Y-85709017D01*
X137774578Y-85711150D01*
X138125784Y-86062356D01*
X138027760Y-86088622D01*
X137931988Y-86143916D01*
X137853790Y-86222114D01*
X137798496Y-86317886D01*
X137772230Y-86415910D01*
X137421024Y-86064704D01*
X137418891Y-86067896D01*
X137353307Y-86226229D01*
X137353305Y-86226237D01*
X137319874Y-86394307D01*
X137319874Y-86565692D01*
X137353305Y-86733762D01*
X137353307Y-86733770D01*
X137365517Y-86763247D01*
X137372986Y-86832716D01*
X137341711Y-86895196D01*
X137281622Y-86930848D01*
X137211797Y-86928354D01*
X137203504Y-86925261D01*
X137173793Y-86912954D01*
X137173783Y-86912951D01*
X137005613Y-86879500D01*
X137005611Y-86879500D01*
X136834137Y-86879500D01*
X136834135Y-86879500D01*
X136665964Y-86912951D01*
X136665959Y-86912953D01*
X136636242Y-86925262D01*
X136566773Y-86932729D01*
X136504294Y-86901454D01*
X136468642Y-86841364D01*
X136471137Y-86771539D01*
X136474231Y-86763244D01*
X136486441Y-86733766D01*
X136486442Y-86733762D01*
X136519873Y-86565692D01*
X136519874Y-86565689D01*
X136519874Y-86394311D01*
X136519873Y-86394307D01*
X136486442Y-86226237D01*
X136486440Y-86226229D01*
X136420856Y-86067898D01*
X136418721Y-86064704D01*
X136067516Y-86415908D01*
X136041252Y-86317886D01*
X135985958Y-86222114D01*
X135907760Y-86143916D01*
X135811988Y-86088622D01*
X135713963Y-86062356D01*
X136065168Y-85711151D01*
X136061974Y-85709016D01*
X135903644Y-85643433D01*
X135903636Y-85643431D01*
X135735566Y-85610000D01*
X135564181Y-85610000D01*
X135396111Y-85643431D01*
X135396103Y-85643433D01*
X135237777Y-85709014D01*
X135237767Y-85709019D01*
X135193391Y-85738671D01*
X135126713Y-85759549D01*
X135059333Y-85741064D01*
X135012643Y-85689085D01*
X135000500Y-85635569D01*
X135000500Y-83811485D01*
X135020185Y-83744446D01*
X135072989Y-83698691D01*
X135142147Y-83688747D01*
X135199987Y-83713110D01*
X135302672Y-83791904D01*
X135302676Y-83791906D01*
X135302683Y-83791912D01*
X135302690Y-83791916D01*
X135546809Y-83932859D01*
X135546814Y-83932861D01*
X135546817Y-83932863D01*
X135807261Y-84040742D01*
X136079558Y-84113704D01*
X136359049Y-84150500D01*
X136359056Y-84150500D01*
X136640944Y-84150500D01*
X136640951Y-84150500D01*
X136920442Y-84113704D01*
X137192739Y-84040742D01*
X137453183Y-83932863D01*
X137697317Y-83791912D01*
X137920965Y-83620300D01*
X138120300Y-83420965D01*
X138291912Y-83197317D01*
X138432863Y-82953183D01*
X138460995Y-82885266D01*
X138460998Y-82885258D01*
X156499500Y-82885258D01*
X156499500Y-83114741D01*
X156510371Y-83197309D01*
X156529452Y-83342238D01*
X156588842Y-83563887D01*
X156676650Y-83775876D01*
X156676657Y-83775890D01*
X156791392Y-83974617D01*
X156931081Y-84156661D01*
X156931089Y-84156670D01*
X157093330Y-84318911D01*
X157093338Y-84318918D01*
X157275382Y-84458607D01*
X157275385Y-84458608D01*
X157275388Y-84458611D01*
X157474112Y-84573344D01*
X157474117Y-84573346D01*
X157474123Y-84573349D01*
X157565480Y-84611190D01*
X157686113Y-84661158D01*
X157907762Y-84720548D01*
X158135266Y-84750500D01*
X158135273Y-84750500D01*
X158364727Y-84750500D01*
X158364734Y-84750500D01*
X158592238Y-84720548D01*
X158813887Y-84661158D01*
X159025888Y-84573344D01*
X159224612Y-84458611D01*
X159406661Y-84318919D01*
X159406665Y-84318914D01*
X159406670Y-84318911D01*
X159568911Y-84156670D01*
X159568914Y-84156665D01*
X159568919Y-84156661D01*
X159708611Y-83974612D01*
X159823344Y-83775888D01*
X159911158Y-83563887D01*
X159970548Y-83342238D01*
X160000500Y-83114734D01*
X160000500Y-82885266D01*
X159970548Y-82657762D01*
X159911158Y-82436113D01*
X159823344Y-82224112D01*
X159708611Y-82025388D01*
X159708608Y-82025385D01*
X159708607Y-82025382D01*
X159580974Y-81859049D01*
X159568919Y-81843339D01*
X159568918Y-81843338D01*
X159568911Y-81843330D01*
X159406670Y-81681089D01*
X159406661Y-81681081D01*
X159224617Y-81541392D01*
X159025890Y-81426657D01*
X159025876Y-81426650D01*
X158813887Y-81338842D01*
X158592238Y-81279452D01*
X158554215Y-81274446D01*
X158364741Y-81249500D01*
X158364734Y-81249500D01*
X158135266Y-81249500D01*
X158135258Y-81249500D01*
X157918715Y-81278009D01*
X157907762Y-81279452D01*
X157814076Y-81304554D01*
X157686112Y-81338842D01*
X157474123Y-81426650D01*
X157474109Y-81426657D01*
X157275382Y-81541392D01*
X157093338Y-81681081D01*
X156931081Y-81843338D01*
X156791392Y-82025382D01*
X156676657Y-82224109D01*
X156676650Y-82224123D01*
X156588842Y-82436112D01*
X156529453Y-82657759D01*
X156529451Y-82657770D01*
X156499500Y-82885258D01*
X138460998Y-82885258D01*
X138482332Y-82833755D01*
X138482332Y-82833754D01*
X138540740Y-82692743D01*
X138540742Y-82692739D01*
X138613704Y-82420442D01*
X138650500Y-82140951D01*
X138650500Y-81859049D01*
X138613704Y-81579558D01*
X138540742Y-81307261D01*
X138432863Y-81046817D01*
X138432861Y-81046814D01*
X138432859Y-81046809D01*
X138291916Y-80802690D01*
X138291912Y-80802683D01*
X138280777Y-80788171D01*
X138213110Y-80699986D01*
X138187916Y-80634817D01*
X138201954Y-80566372D01*
X138250768Y-80516383D01*
X138311486Y-80500500D01*
X161688514Y-80500500D01*
X161755553Y-80520185D01*
G37*
%TD.AperFunction*%
%TA.AperFunction,Conductor*%
G36*
X135193392Y-87221329D02*
G01*
X135237765Y-87250979D01*
X135237777Y-87250985D01*
X135396103Y-87316566D01*
X135396111Y-87316568D01*
X135564181Y-87349999D01*
X135564185Y-87350000D01*
X135735563Y-87350000D01*
X135735566Y-87349999D01*
X135903636Y-87316568D01*
X135903640Y-87316567D01*
X135933118Y-87304357D01*
X136002588Y-87296887D01*
X136065068Y-87328160D01*
X136100721Y-87388248D01*
X136098229Y-87458073D01*
X136095136Y-87466368D01*
X136082827Y-87496085D01*
X136082825Y-87496090D01*
X136049374Y-87664260D01*
X136049374Y-87664263D01*
X136049374Y-87835737D01*
X136049374Y-87835739D01*
X136049373Y-87835739D01*
X136082825Y-88003909D01*
X136082828Y-88003919D01*
X136095135Y-88033630D01*
X136102604Y-88103099D01*
X136071329Y-88165578D01*
X136011240Y-88201230D01*
X135941414Y-88198736D01*
X135933121Y-88195643D01*
X135903644Y-88183433D01*
X135903636Y-88183431D01*
X135735566Y-88150000D01*
X135564181Y-88150000D01*
X135396111Y-88183431D01*
X135396103Y-88183433D01*
X135237777Y-88249014D01*
X135237767Y-88249019D01*
X135193391Y-88278671D01*
X135126713Y-88299549D01*
X135059333Y-88281064D01*
X135012643Y-88229085D01*
X135000500Y-88175569D01*
X135000500Y-87324430D01*
X135020185Y-87257391D01*
X135072989Y-87211636D01*
X135142147Y-87201692D01*
X135193392Y-87221329D01*
G37*
%TD.AperFunction*%
%TD*%
M02*
