%TF.GenerationSoftware,KiCad,Pcbnew,9.0.0*%
%TF.CreationDate,2025-11-27T12:56:11-07:00*%
%TF.ProjectId,OSS-Radio_2M70CM,4f53532d-5261-4646-996f-5f324d373043,rev?*%
%TF.SameCoordinates,Original*%
%TF.FileFunction,Copper,L4,Bot*%
%TF.FilePolarity,Positive*%
%FSLAX46Y46*%
G04 Gerber Fmt 4.6, Leading zero omitted, Abs format (unit mm)*
G04 Created by KiCad (PCBNEW 9.0.0) date 2025-11-27 12:56:11*
%MOMM*%
%LPD*%
G01*
G04 APERTURE LIST*
G04 Aperture macros list*
%AMRoundRect*
0 Rectangle with rounded corners*
0 $1 Rounding radius*
0 $2 $3 $4 $5 $6 $7 $8 $9 X,Y pos of 4 corners*
0 Add a 4 corners polygon primitive as box body*
4,1,4,$2,$3,$4,$5,$6,$7,$8,$9,$2,$3,0*
0 Add four circle primitives for the rounded corners*
1,1,$1+$1,$2,$3*
1,1,$1+$1,$4,$5*
1,1,$1+$1,$6,$7*
1,1,$1+$1,$8,$9*
0 Add four rect primitives between the rounded corners*
20,1,$1+$1,$2,$3,$4,$5,0*
20,1,$1+$1,$4,$5,$6,$7,0*
20,1,$1+$1,$6,$7,$8,$9,0*
20,1,$1+$1,$8,$9,$2,$3,0*%
G04 Aperture macros list end*
%TA.AperFunction,ComponentPad*%
%ADD10C,3.800000*%
%TD*%
%TA.AperFunction,HeatsinkPad*%
%ADD11C,0.500000*%
%TD*%
%TA.AperFunction,HeatsinkPad*%
%ADD12R,2.500000X2.500000*%
%TD*%
%TA.AperFunction,ComponentPad*%
%ADD13C,1.240000*%
%TD*%
%TA.AperFunction,SMDPad,CuDef*%
%ADD14R,0.127000X1.320800*%
%TD*%
%TA.AperFunction,SMDPad,CuDef*%
%ADD15R,0.355600X1.320800*%
%TD*%
%TA.AperFunction,SMDPad,CuDef*%
%ADD16RoundRect,0.135000X0.185000X-0.135000X0.185000X0.135000X-0.185000X0.135000X-0.185000X-0.135000X0*%
%TD*%
%TA.AperFunction,SMDPad,CuDef*%
%ADD17RoundRect,0.135000X0.135000X0.185000X-0.135000X0.185000X-0.135000X-0.185000X0.135000X-0.185000X0*%
%TD*%
%TA.AperFunction,SMDPad,CuDef*%
%ADD18RoundRect,0.150000X-0.150000X0.587500X-0.150000X-0.587500X0.150000X-0.587500X0.150000X0.587500X0*%
%TD*%
%TA.AperFunction,SMDPad,CuDef*%
%ADD19RoundRect,0.150000X-0.512500X-0.150000X0.512500X-0.150000X0.512500X0.150000X-0.512500X0.150000X0*%
%TD*%
%TA.AperFunction,SMDPad,CuDef*%
%ADD20RoundRect,0.140000X-0.170000X0.140000X-0.170000X-0.140000X0.170000X-0.140000X0.170000X0.140000X0*%
%TD*%
%TA.AperFunction,SMDPad,CuDef*%
%ADD21RoundRect,0.225000X0.250000X-0.225000X0.250000X0.225000X-0.250000X0.225000X-0.250000X-0.225000X0*%
%TD*%
%TA.AperFunction,SMDPad,CuDef*%
%ADD22RoundRect,0.135000X-0.185000X0.135000X-0.185000X-0.135000X0.185000X-0.135000X0.185000X0.135000X0*%
%TD*%
%TA.AperFunction,SMDPad,CuDef*%
%ADD23RoundRect,0.135000X-0.135000X-0.185000X0.135000X-0.185000X0.135000X0.185000X-0.135000X0.185000X0*%
%TD*%
%TA.AperFunction,SMDPad,CuDef*%
%ADD24RoundRect,0.250000X0.350000X-0.275000X0.350000X0.275000X-0.350000X0.275000X-0.350000X-0.275000X0*%
%TD*%
%TA.AperFunction,SMDPad,CuDef*%
%ADD25RoundRect,0.140000X0.170000X-0.140000X0.170000X0.140000X-0.170000X0.140000X-0.170000X-0.140000X0*%
%TD*%
%TA.AperFunction,SMDPad,CuDef*%
%ADD26RoundRect,0.250000X-0.275000X-0.350000X0.275000X-0.350000X0.275000X0.350000X-0.275000X0.350000X0*%
%TD*%
%TA.AperFunction,SMDPad,CuDef*%
%ADD27RoundRect,0.200000X-0.300000X-0.200000X0.300000X-0.200000X0.300000X0.200000X-0.300000X0.200000X0*%
%TD*%
%TA.AperFunction,SMDPad,CuDef*%
%ADD28RoundRect,0.150000X0.587500X0.150000X-0.587500X0.150000X-0.587500X-0.150000X0.587500X-0.150000X0*%
%TD*%
%TA.AperFunction,SMDPad,CuDef*%
%ADD29RoundRect,0.140000X-0.140000X-0.170000X0.140000X-0.170000X0.140000X0.170000X-0.140000X0.170000X0*%
%TD*%
%TA.AperFunction,SMDPad,CuDef*%
%ADD30RoundRect,0.250000X-1.450000X-0.650000X1.450000X-0.650000X1.450000X0.650000X-1.450000X0.650000X0*%
%TD*%
%TA.AperFunction,ViaPad*%
%ADD31C,0.450000*%
%TD*%
%TA.AperFunction,ViaPad*%
%ADD32C,0.600000*%
%TD*%
%TA.AperFunction,Conductor*%
%ADD33C,0.200000*%
%TD*%
%TA.AperFunction,Conductor*%
%ADD34C,0.340000*%
%TD*%
%TA.AperFunction,Conductor*%
%ADD35C,0.500000*%
%TD*%
%TA.AperFunction,Conductor*%
%ADD36C,0.160000*%
%TD*%
G04 APERTURE END LIST*
D10*
%TO.P,H3,1*%
%TO.N,N/C*%
X137500000Y-111000000D03*
%TD*%
%TO.P,H2,1*%
%TO.N,N/C*%
X136500000Y-82000000D03*
%TD*%
%TO.P,H1,1*%
%TO.N,N/C*%
X163500000Y-82000000D03*
%TD*%
%TO.P,H4,1*%
%TO.N,N/C*%
X162500000Y-111000000D03*
%TD*%
D11*
%TO.P,U4,21,EP*%
%TO.N,GND*%
X145700000Y-111737500D03*
X144700000Y-111737500D03*
X143700000Y-111737500D03*
X145700000Y-112737500D03*
X144700000Y-112737500D03*
D12*
X144700000Y-112737500D03*
D11*
X143700000Y-112737500D03*
X145700000Y-113737500D03*
X144700000Y-113737500D03*
X143700000Y-113737500D03*
%TD*%
D13*
%TO.P,AE2,1,A*%
%TO.N,Net-(AE2-A)*%
X136919874Y-87750000D03*
%TO.P,AE2,2,Shield*%
%TO.N,GND*%
X138189874Y-89020000D03*
X138189874Y-86480000D03*
X135649874Y-89020000D03*
X135649874Y-86480000D03*
%TD*%
D14*
%TO.P,J1,1,1*%
%TO.N,Net-(FB1-Pad1)*%
X152200001Y-115717300D03*
%TO.P,J1,2,2*%
%TO.N,GND*%
X152200001Y-118282700D03*
%TO.P,J1,3,3*%
%TO.N,Net-(FB1-Pad1)*%
X151799999Y-115717300D03*
%TO.P,J1,4,4*%
%TO.N,GND*%
X151799999Y-118282700D03*
%TO.P,J1,5,5*%
%TO.N,RF_GPIO3*%
X151400000Y-115717300D03*
%TO.P,J1,6,6*%
%TO.N,GND*%
X151400000Y-118282700D03*
%TO.P,J1,7,7*%
%TO.N,RF_GPIO2*%
X151000001Y-115717300D03*
%TO.P,J1,8,8*%
%TO.N,GND*%
X151000001Y-118282700D03*
%TO.P,J1,9,9*%
%TO.N,RF_GPIO1*%
X150599999Y-115717300D03*
%TO.P,J1,10,10*%
%TO.N,GND*%
X150599999Y-118282700D03*
%TO.P,J1,11,11*%
%TO.N,RF_GPIO0*%
X150200000Y-115717300D03*
%TO.P,J1,12,12*%
%TO.N,GND*%
X150200000Y-118282700D03*
%TO.P,J1,13,13*%
%TO.N,RF_SEL*%
X149800000Y-115717300D03*
%TO.P,J1,14,14*%
%TO.N,GND*%
X149800000Y-118282700D03*
%TO.P,J1,15,15*%
%TO.N,RF_SDO*%
X149400001Y-115717300D03*
%TO.P,J1,16,16*%
%TO.N,Net-(FB2-Pad2)*%
X149400001Y-118282700D03*
%TO.P,J1,17,17*%
%TO.N,RF_SDI*%
X148999999Y-115717300D03*
%TO.P,J1,18,18*%
%TO.N,Net-(FB2-Pad2)*%
X148999999Y-118282700D03*
%TO.P,J1,19,19*%
%TO.N,RF_SCLK*%
X148600000Y-115717300D03*
%TO.P,J1,20,20*%
%TO.N,Net-(FB2-Pad2)*%
X148600000Y-118282700D03*
%TO.P,J1,21,21*%
%TO.N,I2C_SCL*%
X148200001Y-115717300D03*
%TO.P,J1,22,22*%
%TO.N,Net-(FB2-Pad2)*%
X148200001Y-118282700D03*
%TO.P,J1,23,23*%
%TO.N,I2C_SDA*%
X147799999Y-115717300D03*
%TO.P,J1,24,24*%
%TO.N,Net-(FB2-Pad2)*%
X147799999Y-118282700D03*
D15*
%TO.P,J1,25*%
%TO.N,N/C*%
X147325000Y-118278890D03*
%TO.P,J1,26*%
X152675000Y-118278890D03*
%TO.P,J1,27*%
X147325000Y-115721110D03*
%TO.P,J1,28*%
X152675000Y-115721110D03*
%TD*%
D16*
%TO.P,R22,1*%
%TO.N,PA_ST1_DISABLE*%
X142520000Y-99697500D03*
%TO.P,R22,2*%
%TO.N,RF_GPIO1*%
X142520000Y-98677500D03*
%TD*%
D17*
%TO.P,R18,1*%
%TO.N,TX_SW*%
X142910000Y-88753300D03*
%TO.P,R18,2*%
%TO.N,3V3*%
X141890000Y-88753300D03*
%TD*%
%TO.P,R10,1*%
%TO.N,GND*%
X140700000Y-99687500D03*
%TO.P,R10,2*%
%TO.N,PA_ST2_DISABLE*%
X139680000Y-99687500D03*
%TD*%
D18*
%TO.P,Q1,1,G*%
%TO.N,PA_ST1_DISABLE*%
X142570000Y-101275000D03*
%TO.P,Q1,2,S*%
%TO.N,GND*%
X144470000Y-101275000D03*
%TO.P,Q1,3,D*%
%TO.N,Net-(Q1-D)*%
X143520000Y-103150000D03*
%TD*%
D17*
%TO.P,R11,1*%
%TO.N,GND*%
X144780000Y-99687500D03*
%TO.P,R11,2*%
%TO.N,PA_ST1_DISABLE*%
X143760000Y-99687500D03*
%TD*%
D19*
%TO.P,U6,1,SCL*%
%TO.N,I2C_SCL*%
X156225000Y-109150000D03*
%TO.P,U6,2,GND*%
%TO.N,GND*%
X156225000Y-108200000D03*
%TO.P,U6,3,SDA*%
%TO.N,I2C_SDA*%
X156225000Y-107250000D03*
%TO.P,U6,4,VCC*%
%TO.N,3V3*%
X158500000Y-107250000D03*
%TO.P,U6,5,WP*%
%TO.N,GND*%
X158500000Y-109150000D03*
%TD*%
D20*
%TO.P,C59,1*%
%TO.N,GND*%
X152125000Y-93220000D03*
%TO.P,C59,2*%
%TO.N,3V3*%
X152125000Y-94180000D03*
%TD*%
%TO.P,C20,1*%
%TO.N,3V3*%
X160112500Y-107720000D03*
%TO.P,C20,2*%
%TO.N,GND*%
X160112500Y-108680000D03*
%TD*%
D21*
%TO.P,C23,1*%
%TO.N,GND*%
X159250000Y-114275000D03*
%TO.P,C23,2*%
%TO.N,3V3*%
X159250000Y-112725000D03*
%TD*%
D22*
%TO.P,R23,1*%
%TO.N,RF_GPIO1*%
X138440000Y-98677500D03*
%TO.P,R23,2*%
%TO.N,PA_ST2_DISABLE*%
X138440000Y-99697500D03*
%TD*%
D16*
%TO.P,R25,1*%
%TO.N,RF_GPIO0*%
X152000000Y-91260000D03*
%TO.P,R25,2*%
%TO.N,Net-(U5-~{RESET})*%
X152000000Y-90240000D03*
%TD*%
%TO.P,R27,1*%
%TO.N,Net-(Q3-G)*%
X146000000Y-108260000D03*
%TO.P,R27,2*%
%TO.N,RF_GPIO1*%
X146000000Y-107240000D03*
%TD*%
D18*
%TO.P,Q2,1,G*%
%TO.N,PA_ST2_DISABLE*%
X138500000Y-101275000D03*
%TO.P,Q2,2,S*%
%TO.N,GND*%
X140400000Y-101275000D03*
%TO.P,Q2,3,D*%
%TO.N,Net-(Q2-D)*%
X139450000Y-103150000D03*
%TD*%
D22*
%TO.P,R21,1*%
%TO.N,GND*%
X144150000Y-86493300D03*
%TO.P,R21,2*%
%TO.N,Net-(U7-ENABLE)*%
X144150000Y-87513300D03*
%TD*%
D23*
%TO.P,R26,1*%
%TO.N,V_BAT*%
X143240000Y-115250000D03*
%TO.P,R26,2*%
%TO.N,ENABLE_5V_RF*%
X144260000Y-115250000D03*
%TD*%
%TO.P,R13,1*%
%TO.N,3V3*%
X149490000Y-93350000D03*
%TO.P,R13,2*%
%TO.N,RF_GPIO0*%
X150510000Y-93350000D03*
%TD*%
D24*
%TO.P,FB1,1*%
%TO.N,Net-(FB1-Pad1)*%
X154750000Y-114150000D03*
%TO.P,FB1,2*%
%TO.N,3V3*%
X154750000Y-111850000D03*
%TD*%
D17*
%TO.P,R9,1*%
%TO.N,Net-(Q2-D)*%
X139950000Y-104900000D03*
%TO.P,R9,2*%
%TO.N,5V_RF*%
X138930000Y-104900000D03*
%TD*%
D25*
%TO.P,C15,1*%
%TO.N,Net-(U4-NR)*%
X146750000Y-114230000D03*
%TO.P,C15,2*%
%TO.N,GND*%
X146750000Y-113270000D03*
%TD*%
D22*
%TO.P,R14,1*%
%TO.N,RF_GPIO0*%
X150500000Y-94590000D03*
%TO.P,R14,2*%
%TO.N,GND*%
X150500000Y-95610000D03*
%TD*%
D26*
%TO.P,FB2,1*%
%TO.N,V_BAT*%
X142600000Y-117000000D03*
%TO.P,FB2,2*%
%TO.N,Net-(FB2-Pad2)*%
X144900000Y-117000000D03*
%TD*%
D16*
%TO.P,R19,1*%
%TO.N,GND*%
X144150000Y-89513300D03*
%TO.P,R19,2*%
%TO.N,TX_SW*%
X144150000Y-88493300D03*
%TD*%
D27*
%TO.P,Y4,1,GND*%
%TO.N,unconnected-(Y4-GND-Pad1)*%
X153550000Y-94150000D03*
%TO.P,Y4,2,GND*%
%TO.N,GND*%
X153550000Y-92050000D03*
%TO.P,Y4,3,OUT*%
%TO.N,Net-(Y4-OUT)*%
X154950000Y-92050000D03*
%TO.P,Y4,4,Vcc*%
%TO.N,3V3*%
X154950000Y-94150000D03*
%TD*%
D28*
%TO.P,Q3,1,G*%
%TO.N,Net-(Q3-G)*%
X144375000Y-107800000D03*
%TO.P,Q3,2,S*%
%TO.N,GND*%
X144375000Y-109700000D03*
%TO.P,Q3,3,D*%
%TO.N,ENABLE_5V_RF*%
X142500000Y-108750000D03*
%TD*%
D17*
%TO.P,R20,1*%
%TO.N,Net-(U7-ENABLE)*%
X142910000Y-87253300D03*
%TO.P,R20,2*%
%TO.N,3V3*%
X141890000Y-87253300D03*
%TD*%
D29*
%TO.P,C58,1*%
%TO.N,Net-(Y4-OUT)*%
X156520000Y-92100000D03*
%TO.P,C58,2*%
%TO.N,Net-(U5-EXT_XOSC)*%
X157480000Y-92100000D03*
%TD*%
D23*
%TO.P,R8,1*%
%TO.N,Net-(Q1-D)*%
X142260000Y-104900000D03*
%TO.P,R8,2*%
%TO.N,5V_RF*%
X143280000Y-104900000D03*
%TD*%
D30*
%TO.P,TP24,1,1*%
%TO.N,GND*%
X157000000Y-117250000D03*
%TD*%
D22*
%TO.P,R28,1*%
%TO.N,Net-(Q3-G)*%
X146000000Y-109490000D03*
%TO.P,R28,2*%
%TO.N,GND*%
X146000000Y-110510000D03*
%TD*%
D31*
%TO.N,GND*%
X135250000Y-103000000D03*
X164500000Y-93000000D03*
X135250000Y-91000000D03*
X146500000Y-86500000D03*
X150500000Y-84500000D03*
X142375000Y-110375000D03*
X144250000Y-97500000D03*
X139000000Y-95000000D03*
X141000000Y-110000000D03*
X151000000Y-81000000D03*
X148500000Y-86500000D03*
X137000000Y-89000000D03*
X139000000Y-93000000D03*
X152500000Y-97250000D03*
X161000000Y-113500000D03*
X139500000Y-101000000D03*
X141000000Y-83000000D03*
X160200000Y-100750000D03*
X153000000Y-81000000D03*
X161000000Y-106000000D03*
X143000000Y-119000000D03*
X146500000Y-99500000D03*
X156500000Y-119000000D03*
X149750000Y-111250000D03*
X161000000Y-92000000D03*
X135250000Y-109250000D03*
X140000000Y-86000000D03*
X161250000Y-96000000D03*
X135500000Y-87750000D03*
X153432089Y-108032089D03*
X156300000Y-88100000D03*
X159500000Y-103000000D03*
X164500000Y-87000000D03*
X150250000Y-104250000D03*
X144250000Y-95500000D03*
X139000000Y-81000000D03*
X163000000Y-92500000D03*
X155000000Y-83000000D03*
X137000000Y-85000000D03*
X163000000Y-106000000D03*
X154250000Y-105500000D03*
X162500000Y-103000000D03*
X160000000Y-91000000D03*
X137000000Y-91000000D03*
X135250000Y-97000000D03*
X158500000Y-115500000D03*
X163000000Y-102000000D03*
X151900000Y-99700000D03*
X144250000Y-91500000D03*
X137000000Y-95000000D03*
X153500000Y-109750000D03*
X140477901Y-104312280D03*
X163000000Y-108000000D03*
X145250000Y-98250000D03*
X163000000Y-96250000D03*
X162625000Y-91250000D03*
X137500000Y-106900000D03*
X155000000Y-102500000D03*
X152526710Y-92004999D03*
X146500000Y-84500000D03*
X149125000Y-88500000D03*
X155500000Y-119000000D03*
X163250000Y-101000000D03*
X154500000Y-118250000D03*
X139000000Y-114000000D03*
X151750000Y-103500000D03*
X139250000Y-99000000D03*
X163000000Y-87000000D03*
X152500000Y-84500000D03*
X139000000Y-85000000D03*
X145250000Y-102500000D03*
X147000000Y-101000000D03*
X135250000Y-105000000D03*
X163000000Y-93750000D03*
X147600000Y-98800000D03*
X142500000Y-106000000D03*
X147750000Y-109375000D03*
X147000000Y-97000000D03*
X160985000Y-103000000D03*
X154500000Y-119000000D03*
X151500000Y-119275000D03*
X162000000Y-90250000D03*
X164500000Y-103000000D03*
X136000000Y-114000000D03*
X149500000Y-109125000D03*
X141000000Y-96000000D03*
X151000000Y-83000000D03*
X154500000Y-85000000D03*
X147000000Y-93000000D03*
X145000000Y-83000000D03*
X151750000Y-112250000D03*
X141000000Y-89000000D03*
X135250000Y-101000000D03*
X161250000Y-97500000D03*
X141000000Y-94000000D03*
X156500000Y-93500000D03*
X142125000Y-90500000D03*
X164500000Y-101000000D03*
X147000000Y-103000000D03*
X143250000Y-84750000D03*
X164500000Y-89000000D03*
X139000000Y-91000000D03*
X142250000Y-103125000D03*
X153500000Y-119000000D03*
X161250000Y-89250000D03*
X141000000Y-92000000D03*
X135250000Y-107000000D03*
X155000000Y-81000000D03*
X153250000Y-113250000D03*
X159000000Y-106000000D03*
X158250000Y-89250000D03*
X156000000Y-100750000D03*
X161000000Y-85000000D03*
X135250000Y-93000000D03*
X157500000Y-119000000D03*
X156750000Y-103000000D03*
X141000000Y-119000000D03*
X161250000Y-93000000D03*
X156500000Y-86000000D03*
X158500000Y-87000000D03*
X158500000Y-101250000D03*
X144500000Y-106375000D03*
X140000000Y-89000000D03*
X137000000Y-103000000D03*
X164500000Y-97000000D03*
X156500000Y-94500000D03*
X161000000Y-87000000D03*
X141000000Y-114000000D03*
X164500000Y-99000000D03*
X137000000Y-105000000D03*
X156500000Y-115500000D03*
X153000000Y-83000000D03*
X144500000Y-84500000D03*
X164000000Y-113500000D03*
X163000000Y-104000000D03*
X154500000Y-95500000D03*
X164500000Y-95000000D03*
X156500000Y-95500000D03*
X163000000Y-89000000D03*
X163000000Y-97500000D03*
X163000000Y-95000000D03*
X155500000Y-95500000D03*
X164500000Y-91000000D03*
X152500000Y-86600000D03*
X153750000Y-103750000D03*
X148500000Y-84500000D03*
X161250000Y-98750000D03*
X144250000Y-90500000D03*
X149600000Y-101500000D03*
X137000000Y-101000000D03*
X163000000Y-98750000D03*
X157000000Y-106000000D03*
X143000000Y-83000000D03*
X141000000Y-112000000D03*
X137000000Y-86500000D03*
X147375000Y-106125000D03*
X152500000Y-105000000D03*
X159500000Y-119000000D03*
X150500000Y-86500000D03*
X164500000Y-85000000D03*
X137000000Y-99000000D03*
X139969423Y-89997634D03*
X158500000Y-119000000D03*
X147500000Y-90250000D03*
X140625000Y-105425000D03*
X155900000Y-90100000D03*
X151400000Y-97100000D03*
X141250000Y-101625000D03*
X139000000Y-83000000D03*
X135250000Y-99000000D03*
X142500000Y-85500000D03*
X144800000Y-86500000D03*
X135250000Y-95000000D03*
X142770000Y-103712500D03*
X144250000Y-93500000D03*
X161250000Y-94500000D03*
X160875000Y-99750000D03*
X150000000Y-119275000D03*
X147800000Y-114600000D03*
X154400000Y-87100000D03*
X153500000Y-118250000D03*
X147000000Y-83000000D03*
X152750000Y-90495000D03*
X149000000Y-83000000D03*
X151300000Y-101500000D03*
X137000000Y-93000000D03*
X153900000Y-100300000D03*
X145250000Y-104000000D03*
X147000000Y-95000000D03*
X161000000Y-81000000D03*
X148000000Y-111750000D03*
X163000000Y-85000000D03*
X154134000Y-99200000D03*
X159900000Y-88000000D03*
X147750000Y-102500000D03*
X149500000Y-106250000D03*
%TO.N,5V_RF*%
X140800000Y-106400000D03*
X146700000Y-110900000D03*
X138000000Y-103000000D03*
X140250000Y-97500000D03*
X146750000Y-109750000D03*
X138000000Y-104875000D03*
X147125000Y-110375000D03*
X143186500Y-107624014D03*
X143750000Y-108875000D03*
X141250000Y-97500000D03*
X141750000Y-100000000D03*
X140800000Y-108500000D03*
X141500000Y-99000000D03*
%TO.N,Net-(U4-NR)*%
X145793652Y-116023896D03*
%TO.N,V_BAT*%
X142250000Y-115500000D03*
X143250000Y-116000000D03*
X141500000Y-116250000D03*
X141500000Y-115500000D03*
%TO.N,3V3*%
X159625000Y-107250000D03*
X151100000Y-99000000D03*
X141500000Y-86500000D03*
X141500000Y-89500000D03*
X158000000Y-112500000D03*
X149800000Y-100100000D03*
X149504999Y-92250000D03*
X151100000Y-99700000D03*
X159500000Y-95250000D03*
X151400000Y-95775000D03*
X149500000Y-97800000D03*
X155750000Y-112500000D03*
X151100000Y-98200000D03*
X158875000Y-111500000D03*
X157600000Y-90000000D03*
X155087654Y-91095190D03*
X145500000Y-89500000D03*
X156433369Y-97816631D03*
X149750000Y-94725000D03*
X155125000Y-110750000D03*
X158875000Y-110625000D03*
X159511000Y-99000000D03*
X157240000Y-100500000D03*
X158126000Y-97037500D03*
X145500000Y-86750000D03*
%TO.N,Net-(Y4-OUT)*%
X152750000Y-89775000D03*
%TO.N,Net-(U5-EXT_XOSC)*%
X158125000Y-92250000D03*
%TO.N,RF_GPIO2*%
X155736628Y-91000000D03*
D32*
X152350468Y-107000000D03*
D31*
%TO.N,RF_SEL*%
X150500000Y-112000000D03*
X150769649Y-109486901D03*
X150812000Y-92605000D03*
%TO.N,RF_GPIO1*%
X138250000Y-97500000D03*
X148001000Y-107250000D03*
X150750000Y-113250000D03*
%TO.N,RF_GPIO0*%
X151845468Y-109750000D03*
X149504999Y-105500000D03*
X150107059Y-92005000D03*
X151000000Y-90350000D03*
%TO.N,RF_SDI*%
X149105000Y-110000000D03*
X150500000Y-91000000D03*
%TO.N,RF_SCLK*%
X148250000Y-112750000D03*
X148750000Y-91500000D03*
%TO.N,RF_GPIO3*%
X154125000Y-106625000D03*
X156372436Y-90864911D03*
%TO.N,I2C_SCL*%
X153975000Y-111000000D03*
X155362500Y-109612500D03*
X153750000Y-114925000D03*
%TO.N,I2C_SDA*%
X155137500Y-108255756D03*
X154500000Y-115250000D03*
%TO.N,RF_SDO*%
X151375000Y-110625000D03*
X151885459Y-92114541D03*
%TO.N,Net-(Q2-D)*%
X141250000Y-105000000D03*
%TO.N,ENABLE_5V_RF*%
X144700000Y-115900000D03*
%TO.N,TX_SW*%
X154112645Y-98337355D03*
X144772153Y-90000866D03*
X149477000Y-100709796D03*
%TO.N,Net-(U7-ENABLE)*%
X144835090Y-87952542D03*
%TO.N,Net-(U5-~{RESET})*%
X156750000Y-89750000D03*
%TD*%
D33*
%TO.N,GND*%
X140400000Y-99987500D02*
X140700000Y-99687500D01*
X144780000Y-99780000D02*
X145375000Y-100375000D01*
X145375000Y-101125000D02*
X145225000Y-101275000D01*
X145375000Y-100375000D02*
X145375000Y-101125000D01*
X140400000Y-101275000D02*
X140400000Y-99987500D01*
X152571711Y-92050000D02*
X152526710Y-92004999D01*
D34*
X151535290Y-119310290D02*
X153189710Y-119310290D01*
D33*
X140700000Y-99950000D02*
X141250000Y-100500000D01*
X152526710Y-92818290D02*
X152526710Y-92004999D01*
X140700000Y-99687500D02*
X140700000Y-99950000D01*
D34*
X153189710Y-119310290D02*
X153500000Y-119000000D01*
X151500000Y-119275000D02*
X151535290Y-119310290D01*
D33*
X153550000Y-92050000D02*
X152571711Y-92050000D01*
X145225000Y-101275000D02*
X144470000Y-101275000D01*
X152125000Y-93220000D02*
X152526710Y-92818290D01*
D35*
%TO.N,5V_RF*%
X143280000Y-104900000D02*
X143186500Y-104993500D01*
X143186500Y-104993500D02*
X143186500Y-107624014D01*
X138000000Y-104875000D02*
X138905000Y-104875000D01*
X138905000Y-104875000D02*
X138930000Y-104900000D01*
X139000000Y-104970000D02*
X138930000Y-104900000D01*
D33*
%TO.N,Net-(U4-NR)*%
X145793652Y-116023896D02*
X145820804Y-116023896D01*
X146750000Y-115094700D02*
X146750000Y-114230000D01*
X145820804Y-116023896D02*
X146315740Y-115528960D01*
X146315740Y-115528960D02*
X146472350Y-115372350D01*
X146472350Y-115372350D02*
X146750000Y-115094700D01*
D35*
%TO.N,3V3*%
X158500000Y-107250000D02*
X159625000Y-107250000D01*
D33*
X149490000Y-93350000D02*
X149490000Y-94465000D01*
X141500000Y-89500000D02*
X141890000Y-89110000D01*
D35*
X159625000Y-107250000D02*
X159642500Y-107250000D01*
D33*
X152125000Y-94180000D02*
X152796000Y-94851000D01*
X141890000Y-89110000D02*
X141890000Y-88753300D01*
X152796000Y-94851000D02*
X154249000Y-94851000D01*
X141890000Y-87253300D02*
X141890000Y-88753300D01*
X141500000Y-86500000D02*
X141890000Y-86890000D01*
X149504999Y-92250000D02*
X149504999Y-93114999D01*
D35*
X159642500Y-107250000D02*
X160112500Y-107720000D01*
D33*
X154249000Y-94851000D02*
X154950000Y-94150000D01*
X141890000Y-86890000D02*
X141890000Y-87253300D01*
X149490000Y-94465000D02*
X149750000Y-94725000D01*
%TO.N,Net-(Y4-OUT)*%
X154950000Y-91700000D02*
X154950000Y-92050000D01*
D36*
X154950000Y-92050000D02*
X156470000Y-92050000D01*
D33*
X152750000Y-89775000D02*
X153025000Y-89775000D01*
X153025000Y-89775000D02*
X154950000Y-91700000D01*
%TO.N,Net-(U5-EXT_XOSC)*%
X157480000Y-92100000D02*
X157975000Y-92100000D01*
X157975000Y-92100000D02*
X158125000Y-92250000D01*
D35*
%TO.N,Net-(FB1-Pad1)*%
X154750000Y-114150000D02*
X152750000Y-114150000D01*
X152000000Y-114900000D02*
X152000000Y-116150000D01*
X152750000Y-114150000D02*
X152000000Y-114900000D01*
D36*
%TO.N,RF_GPIO2*%
X158631000Y-100369000D02*
X152350468Y-106649532D01*
X158631000Y-92040407D02*
X158631000Y-100369000D01*
X152350468Y-112399532D02*
X151000001Y-113749999D01*
X152350468Y-106649532D02*
X152350468Y-107000000D01*
X158090593Y-91500000D02*
X158631000Y-92040407D01*
X155736628Y-91000000D02*
X156236628Y-91500000D01*
X152350468Y-107000000D02*
X152350468Y-112399532D01*
X151000001Y-113749999D02*
X151000001Y-115717300D01*
X156236628Y-91500000D02*
X158090593Y-91500000D01*
%TO.N,RF_SEL*%
X150500000Y-112000000D02*
X149800000Y-112700000D01*
X151139000Y-92932000D02*
X151139000Y-94649532D01*
X149800000Y-115717300D02*
X149800000Y-112700000D01*
X151139000Y-94649532D02*
X154639000Y-98149532D01*
X154639000Y-98149532D02*
X154639000Y-101350468D01*
X154639000Y-101350468D02*
X150750000Y-105239468D01*
X150750000Y-109467252D02*
X150769649Y-109486901D01*
X150750000Y-105239468D02*
X150750000Y-109467252D01*
X150812000Y-92605000D02*
X151139000Y-92932000D01*
D33*
%TO.N,RF_GPIO1*%
X139000000Y-98250000D02*
X138867500Y-98250000D01*
X146000000Y-99967160D02*
X144710340Y-98677500D01*
D36*
X150599999Y-113400001D02*
X150750000Y-113250000D01*
D33*
X138867500Y-98250000D02*
X138440000Y-98677500D01*
X142520000Y-98677500D02*
X142092500Y-98250000D01*
X146000000Y-106700000D02*
X146000000Y-99967160D01*
X146000000Y-106700000D02*
X146000000Y-107240000D01*
X146010000Y-107250000D02*
X146000000Y-107240000D01*
D36*
X150599999Y-115717300D02*
X150599999Y-113400001D01*
D33*
X148001000Y-107250000D02*
X146010000Y-107250000D01*
X142092500Y-98250000D02*
X139000000Y-98250000D01*
X138250000Y-97500000D02*
X139000000Y-98250000D01*
X144710340Y-98677500D02*
X142520000Y-98677500D01*
D36*
%TO.N,RF_GPIO0*%
X150500000Y-94697946D02*
X148972000Y-96225946D01*
X151881000Y-111369000D02*
X151881000Y-109785532D01*
D33*
X150107059Y-92947059D02*
X150510000Y-93350000D01*
D36*
X149228000Y-102206936D02*
X149228000Y-105250000D01*
X148972000Y-96225946D02*
X148972000Y-101950938D01*
X150107059Y-91892941D02*
X150494000Y-91506000D01*
X149016531Y-101995469D02*
X149228000Y-102206936D01*
X150200000Y-113050000D02*
X151881000Y-111369000D01*
X150500000Y-94590000D02*
X150500000Y-94697946D01*
D33*
X150107059Y-92005000D02*
X150107059Y-92947059D01*
D36*
X150200000Y-115717300D02*
X150200000Y-113050000D01*
X149478000Y-105500000D02*
X149504999Y-105500000D01*
D33*
X151910000Y-91260000D02*
X151000000Y-90350000D01*
D36*
X148972000Y-101950938D02*
X149016531Y-101995468D01*
X150107059Y-92005000D02*
X150107059Y-91892941D01*
D33*
X150510000Y-93350000D02*
X150510000Y-94580000D01*
D36*
X150744000Y-91506000D02*
X150990000Y-91260000D01*
X150494000Y-91506000D02*
X150744000Y-91506000D01*
X151881000Y-109785532D02*
X151845468Y-109750000D01*
X149016531Y-101995468D02*
X149016531Y-101995469D01*
X150990000Y-91260000D02*
X152000000Y-91260000D01*
X149228000Y-105250000D02*
X149478000Y-105500000D01*
%TO.N,RF_SDI*%
X150500000Y-91000000D02*
X150000000Y-91000000D01*
X148611000Y-92389000D02*
X148611000Y-102100468D01*
X148867000Y-108640875D02*
X148867000Y-108939939D01*
X148867000Y-109762000D02*
X149105000Y-110000000D01*
X148867000Y-102655532D02*
X148867000Y-108640875D01*
X148867000Y-102356469D02*
X148867000Y-102367000D01*
X148611000Y-102100468D02*
X148867000Y-102356468D01*
X150000000Y-91000000D02*
X148611000Y-92389000D01*
X148999999Y-110105001D02*
X148999999Y-115717300D01*
X148867000Y-102356468D02*
X148867000Y-102356469D01*
X149105000Y-110000000D02*
X148999999Y-110105001D01*
X148867000Y-102367000D02*
X148867000Y-102655532D01*
X148867000Y-108939939D02*
X148867000Y-109762000D01*
%TO.N,RF_SCLK*%
X148250000Y-102250000D02*
X148250000Y-92000000D01*
X148250000Y-92000000D02*
X148750000Y-91500000D01*
X148600000Y-115717300D02*
X148600000Y-114384407D01*
X148506000Y-111959593D02*
X148506000Y-102506000D01*
X148506000Y-102506000D02*
X148250000Y-102250000D01*
X148600000Y-114384407D02*
X148250000Y-114034407D01*
X148250000Y-112215593D02*
X148506000Y-111959593D01*
X148250000Y-114034407D02*
X148250000Y-112215593D01*
%TO.N,RF_GPIO3*%
X156372436Y-90863388D02*
X156409048Y-90900000D01*
X151400000Y-114100000D02*
X151400000Y-115717300D01*
X152711468Y-112788532D02*
X151400000Y-114100000D01*
X158001126Y-90900000D02*
X159006000Y-91904874D01*
X156409048Y-90900000D02*
X158001126Y-90900000D01*
X159006000Y-91904874D02*
X159006000Y-95028407D01*
X158994000Y-95459593D02*
X159006000Y-95471593D01*
X158994000Y-95040407D02*
X158994000Y-95459593D01*
X152711468Y-108038532D02*
X152711468Y-112788532D01*
X159006000Y-95471593D02*
X159006000Y-101744000D01*
X159006000Y-101744000D02*
X152711468Y-108038532D01*
X159006000Y-95028407D02*
X158994000Y-95040407D01*
X156372436Y-90864911D02*
X156372436Y-90863388D01*
D33*
%TO.N,I2C_SCL*%
X155362500Y-109612500D02*
X155825000Y-109150000D01*
X153975000Y-111000000D02*
X155362500Y-109612500D01*
D36*
X148200001Y-115717300D02*
X148200001Y-116603201D01*
X148485800Y-116889000D02*
X152907310Y-116889000D01*
X148200001Y-116603200D02*
X148485800Y-116889000D01*
X153750000Y-116046310D02*
X153750000Y-114925000D01*
X148200001Y-116603201D02*
X148200001Y-116603200D01*
X152907310Y-116889000D02*
X153750000Y-116046310D01*
%TO.N,I2C_SDA*%
X147799999Y-115717300D02*
X147799999Y-116713730D01*
X154500000Y-115806842D02*
X154500000Y-115250000D01*
X148336269Y-117250000D02*
X153056842Y-117250000D01*
X147799999Y-116713730D02*
X148336269Y-117250000D01*
D33*
X155137500Y-108255756D02*
X155137500Y-107675001D01*
X155562501Y-107250000D02*
X156225000Y-107250000D01*
X155137500Y-107675001D02*
X155562501Y-107250000D01*
D36*
X153056842Y-117250000D02*
X154500000Y-115806842D01*
%TO.N,RF_SDO*%
X151339468Y-105160532D02*
X155000000Y-101500000D01*
X151339468Y-110410532D02*
X151339468Y-105160532D01*
X149400001Y-115717300D02*
X149400001Y-112349999D01*
X151765266Y-92234734D02*
X151885459Y-92114541D01*
X151765266Y-92236049D02*
X151765266Y-92234734D01*
X155000000Y-98000000D02*
X151500000Y-94500000D01*
X151500000Y-92501315D02*
X151765266Y-92236049D01*
X151500000Y-94500000D02*
X151500000Y-92501315D01*
X155000000Y-101500000D02*
X155000000Y-98000000D01*
X149400001Y-112349999D02*
X151339468Y-110410532D01*
X151375000Y-110625000D02*
X151267468Y-110517468D01*
D33*
%TO.N,Net-(Q1-D)*%
X142960660Y-104279000D02*
X142971000Y-104279000D01*
X142971000Y-104279000D02*
X143520000Y-103730000D01*
X142260000Y-104900000D02*
X142350000Y-104900000D01*
X142709000Y-104530660D02*
X142960660Y-104279000D01*
X142350000Y-104900000D02*
X142709000Y-104541000D01*
X143520000Y-103730000D02*
X143520000Y-103150000D01*
X142709000Y-104541000D02*
X142709000Y-104530660D01*
%TO.N,PA_ST1_DISABLE*%
X142570000Y-101275000D02*
X142570000Y-99747500D01*
X143760000Y-99687500D02*
X142530000Y-99687500D01*
%TO.N,Net-(Q2-D)*%
X139950000Y-104280000D02*
X139450000Y-103780000D01*
X141250000Y-105000000D02*
X141150000Y-104900000D01*
X141150000Y-104900000D02*
X139950000Y-104900000D01*
X139950000Y-104900000D02*
X139950000Y-104280000D01*
%TO.N,PA_ST2_DISABLE*%
X138500000Y-101275000D02*
X138500000Y-99757500D01*
X138440000Y-99697500D02*
X139670000Y-99697500D01*
%TO.N,ENABLE_5V_RF*%
X143000000Y-113990000D02*
X143000000Y-109250000D01*
X144260000Y-115250000D02*
X144260000Y-115460000D01*
X144260000Y-115460000D02*
X144700000Y-115900000D01*
X144260000Y-115250000D02*
X143000000Y-113990000D01*
X143000000Y-109250000D02*
X142500000Y-108750000D01*
%TO.N,Net-(Q3-G)*%
X146000000Y-109490000D02*
X146000000Y-108260000D01*
X145990000Y-108250000D02*
X145250000Y-108250000D01*
X145250000Y-108250000D02*
X144800000Y-107800000D01*
%TO.N,TX_SW*%
X144771000Y-89999713D02*
X144771000Y-89114300D01*
X144772153Y-90000866D02*
X144771000Y-89999713D01*
D36*
X154112645Y-98337355D02*
X154112645Y-98362355D01*
D33*
X144150000Y-88493300D02*
X143170000Y-88493300D01*
D36*
X151775000Y-100700000D02*
X149486796Y-100700000D01*
X149486796Y-100700000D02*
X149477000Y-100709796D01*
D33*
X143170000Y-88493300D02*
X142910000Y-88753300D01*
X144771000Y-89114300D02*
X144150000Y-88493300D01*
D36*
X154112645Y-98362355D02*
X151775000Y-100700000D01*
D33*
%TO.N,Net-(U7-ENABLE)*%
X144589242Y-87952542D02*
X144150000Y-87513300D01*
X143890000Y-87253300D02*
X144150000Y-87513300D01*
X144835090Y-87952542D02*
X144589242Y-87952542D01*
X142910000Y-87253300D02*
X143890000Y-87253300D01*
%TO.N,Net-(U5-~{RESET})*%
X156250000Y-89250000D02*
X152500000Y-89250000D01*
X156750000Y-89750000D02*
X156250000Y-89250000D01*
X152500000Y-89250000D02*
X152000000Y-89750000D01*
X152000000Y-89750000D02*
X152000000Y-90240000D01*
%TD*%
%TA.AperFunction,Conductor*%
%TO.N,GND*%
G36*
X161702137Y-80504500D02*
G01*
X161716312Y-80503656D01*
X161734996Y-80514148D01*
X161755553Y-80520185D01*
X161764850Y-80530914D01*
X161777232Y-80537868D01*
X161787277Y-80556796D01*
X161801308Y-80572989D01*
X161803328Y-80587043D01*
X161809985Y-80599586D01*
X161808202Y-80620937D01*
X161811252Y-80642147D01*
X161805240Y-80656420D01*
X161804172Y-80669213D01*
X161786890Y-80699986D01*
X161708094Y-80802674D01*
X161708083Y-80802690D01*
X161567140Y-81046809D01*
X161567135Y-81046820D01*
X161459259Y-81307256D01*
X161386295Y-81579560D01*
X161349500Y-81859041D01*
X161349500Y-82140958D01*
X161386295Y-82420439D01*
X161459259Y-82692743D01*
X161567135Y-82953179D01*
X161567140Y-82953190D01*
X161708083Y-83197309D01*
X161708088Y-83197317D01*
X161819292Y-83342240D01*
X161879704Y-83420970D01*
X162079029Y-83620295D01*
X162079033Y-83620298D01*
X162079035Y-83620300D01*
X162302683Y-83791912D01*
X162302690Y-83791916D01*
X162546809Y-83932859D01*
X162546814Y-83932861D01*
X162546817Y-83932863D01*
X162807261Y-84040742D01*
X163079558Y-84113704D01*
X163359049Y-84150500D01*
X163359056Y-84150500D01*
X163640944Y-84150500D01*
X163640951Y-84150500D01*
X163920442Y-84113704D01*
X164192739Y-84040742D01*
X164453183Y-83932863D01*
X164697317Y-83791912D01*
X164800013Y-83713109D01*
X164865182Y-83687915D01*
X164933627Y-83701953D01*
X164983617Y-83750767D01*
X164999500Y-83811485D01*
X164999500Y-117995572D01*
X164999184Y-118004418D01*
X164999184Y-118004419D01*
X164984869Y-118204557D01*
X164982351Y-118222068D01*
X164940646Y-118413787D01*
X164935662Y-118430763D01*
X164867090Y-118614609D01*
X164859740Y-118630701D01*
X164765711Y-118802904D01*
X164756146Y-118817789D01*
X164638558Y-118974867D01*
X164626972Y-118988237D01*
X164488237Y-119126972D01*
X164474867Y-119138558D01*
X164317789Y-119256146D01*
X164302904Y-119265711D01*
X164130701Y-119359740D01*
X164114609Y-119367090D01*
X163930763Y-119435662D01*
X163913787Y-119440646D01*
X163722068Y-119482351D01*
X163704557Y-119484869D01*
X163523779Y-119497799D01*
X163504417Y-119499184D01*
X163495572Y-119499500D01*
X153300000Y-119499500D01*
X153300000Y-117947844D01*
X155050000Y-117947844D01*
X155056401Y-118007372D01*
X155056403Y-118007379D01*
X155106645Y-118142086D01*
X155106649Y-118142093D01*
X155192809Y-118257187D01*
X155192812Y-118257190D01*
X155307906Y-118343350D01*
X155307913Y-118343354D01*
X155442620Y-118393596D01*
X155442627Y-118393598D01*
X155502155Y-118399999D01*
X155502172Y-118400000D01*
X156750000Y-118400000D01*
X157250000Y-118400000D01*
X158497828Y-118400000D01*
X158497844Y-118399999D01*
X158557372Y-118393598D01*
X158557379Y-118393596D01*
X158692086Y-118343354D01*
X158692093Y-118343350D01*
X158807187Y-118257190D01*
X158807190Y-118257187D01*
X158893350Y-118142093D01*
X158893354Y-118142086D01*
X158943596Y-118007379D01*
X158943598Y-118007372D01*
X158949999Y-117947844D01*
X158950000Y-117947827D01*
X158950000Y-117500000D01*
X157250000Y-117500000D01*
X157250000Y-118400000D01*
X156750000Y-118400000D01*
X156750000Y-117500000D01*
X155050000Y-117500000D01*
X155050000Y-117947844D01*
X153300000Y-117947844D01*
X153300000Y-117474240D01*
X154222085Y-116552155D01*
X155050000Y-116552155D01*
X155050000Y-117000000D01*
X156750000Y-117000000D01*
X157250000Y-117000000D01*
X158950000Y-117000000D01*
X158950000Y-116760258D01*
X160624500Y-116760258D01*
X160624500Y-116989741D01*
X160649446Y-117179215D01*
X160654452Y-117217238D01*
X160654453Y-117217240D01*
X160713842Y-117438887D01*
X160801650Y-117650876D01*
X160801657Y-117650890D01*
X160916392Y-117849617D01*
X161056081Y-118031661D01*
X161056089Y-118031670D01*
X161218330Y-118193911D01*
X161218338Y-118193918D01*
X161218339Y-118193919D01*
X161232203Y-118204557D01*
X161400382Y-118333607D01*
X161400385Y-118333608D01*
X161400388Y-118333611D01*
X161599112Y-118448344D01*
X161599117Y-118448346D01*
X161599123Y-118448349D01*
X161690480Y-118486190D01*
X161811113Y-118536158D01*
X162032762Y-118595548D01*
X162260266Y-118625500D01*
X162260273Y-118625500D01*
X162489727Y-118625500D01*
X162489734Y-118625500D01*
X162717238Y-118595548D01*
X162938887Y-118536158D01*
X163150888Y-118448344D01*
X163349612Y-118333611D01*
X163531661Y-118193919D01*
X163531665Y-118193914D01*
X163531670Y-118193911D01*
X163693911Y-118031670D01*
X163693914Y-118031665D01*
X163693919Y-118031661D01*
X163833611Y-117849612D01*
X163948344Y-117650888D01*
X164036158Y-117438887D01*
X164095548Y-117217238D01*
X164125500Y-116989734D01*
X164125500Y-116760266D01*
X164095548Y-116532762D01*
X164036158Y-116311113D01*
X163951364Y-116106403D01*
X163948349Y-116099123D01*
X163948346Y-116099117D01*
X163948344Y-116099112D01*
X163833611Y-115900388D01*
X163833608Y-115900385D01*
X163833607Y-115900382D01*
X163727072Y-115761545D01*
X163693919Y-115718339D01*
X163693918Y-115718338D01*
X163693911Y-115718330D01*
X163531670Y-115556089D01*
X163531661Y-115556081D01*
X163349617Y-115416392D01*
X163150890Y-115301657D01*
X163150876Y-115301650D01*
X162938887Y-115213842D01*
X162933931Y-115212514D01*
X162717238Y-115154452D01*
X162679215Y-115149446D01*
X162489741Y-115124500D01*
X162489734Y-115124500D01*
X162260266Y-115124500D01*
X162260258Y-115124500D01*
X162043715Y-115153009D01*
X162032762Y-115154452D01*
X162024533Y-115156657D01*
X161811112Y-115213842D01*
X161599123Y-115301650D01*
X161599109Y-115301657D01*
X161400382Y-115416392D01*
X161218338Y-115556081D01*
X161056081Y-115718338D01*
X160916392Y-115900382D01*
X160801657Y-116099109D01*
X160801650Y-116099123D01*
X160713842Y-116311112D01*
X160654453Y-116532759D01*
X160654451Y-116532770D01*
X160624500Y-116760258D01*
X158950000Y-116760258D01*
X158950000Y-116552172D01*
X158949999Y-116552155D01*
X158943598Y-116492627D01*
X158943596Y-116492620D01*
X158893354Y-116357913D01*
X158893350Y-116357906D01*
X158807190Y-116242812D01*
X158807187Y-116242809D01*
X158692093Y-116156649D01*
X158692086Y-116156645D01*
X158557379Y-116106403D01*
X158557372Y-116106401D01*
X158497844Y-116100000D01*
X157250000Y-116100000D01*
X157250000Y-117000000D01*
X156750000Y-117000000D01*
X156750000Y-116100000D01*
X155502155Y-116100000D01*
X155442627Y-116106401D01*
X155442620Y-116106403D01*
X155307913Y-116156645D01*
X155307906Y-116156649D01*
X155192812Y-116242809D01*
X155192809Y-116242812D01*
X155106649Y-116357906D01*
X155106645Y-116357913D01*
X155056403Y-116492620D01*
X155056401Y-116492627D01*
X155050000Y-116552155D01*
X154222085Y-116552155D01*
X154764466Y-116009774D01*
X154807977Y-115934410D01*
X154830501Y-115850353D01*
X154830501Y-115763331D01*
X154830501Y-115755736D01*
X154830500Y-115755718D01*
X154830500Y-115643321D01*
X154850185Y-115576282D01*
X154866819Y-115555640D01*
X154871099Y-115551360D01*
X154880495Y-115541964D01*
X154943095Y-115433536D01*
X154975500Y-115312601D01*
X154975500Y-115187399D01*
X154947148Y-115081590D01*
X154948811Y-115011744D01*
X154987973Y-114953881D01*
X155052201Y-114926376D01*
X155066923Y-114925499D01*
X155147871Y-114925499D01*
X155147872Y-114925499D01*
X155207483Y-114919091D01*
X155342331Y-114868796D01*
X155457546Y-114782546D01*
X155543796Y-114667331D01*
X155589259Y-114545439D01*
X158525001Y-114545439D01*
X158531081Y-114602007D01*
X158578813Y-114729981D01*
X158578815Y-114729984D01*
X158660670Y-114839329D01*
X158770015Y-114921184D01*
X158770016Y-114921185D01*
X158897991Y-114968917D01*
X158897994Y-114968918D01*
X158954555Y-114974999D01*
X158999999Y-114974999D01*
X159500000Y-114974999D01*
X159545433Y-114974999D01*
X159545439Y-114974998D01*
X159602007Y-114968918D01*
X159729981Y-114921186D01*
X159729984Y-114921184D01*
X159839329Y-114839329D01*
X159921184Y-114729984D01*
X159921185Y-114729983D01*
X159968916Y-114602010D01*
X159974999Y-114545428D01*
X159975000Y-114545427D01*
X159975000Y-114525000D01*
X159500000Y-114525000D01*
X159500000Y-114974999D01*
X158999999Y-114974999D01*
X159000000Y-114974998D01*
X159000000Y-114525000D01*
X158525001Y-114525000D01*
X158525001Y-114545439D01*
X155589259Y-114545439D01*
X155594091Y-114532483D01*
X155600500Y-114472873D01*
X155600499Y-113827128D01*
X155599734Y-113820016D01*
X155594091Y-113767516D01*
X155543797Y-113632671D01*
X155543793Y-113632664D01*
X155457547Y-113517455D01*
X155457544Y-113517452D01*
X155342335Y-113431206D01*
X155342328Y-113431202D01*
X155207482Y-113380908D01*
X155207483Y-113380908D01*
X155147883Y-113374501D01*
X155147881Y-113374500D01*
X155147873Y-113374500D01*
X155147864Y-113374500D01*
X154352129Y-113374500D01*
X154352123Y-113374501D01*
X154292516Y-113380908D01*
X154157671Y-113431202D01*
X154157664Y-113431206D01*
X154042456Y-113517452D01*
X154042455Y-113517453D01*
X154042454Y-113517454D01*
X153990018Y-113587500D01*
X153980802Y-113599811D01*
X153924868Y-113641682D01*
X153881535Y-113649500D01*
X152684105Y-113649500D01*
X152630859Y-113663767D01*
X152561009Y-113662104D01*
X152503147Y-113622940D01*
X152475644Y-113558711D01*
X152487231Y-113489809D01*
X152511083Y-113456314D01*
X152975934Y-112991464D01*
X153019445Y-112916100D01*
X153041968Y-112832043D01*
X153041968Y-112745021D01*
X153041968Y-110937399D01*
X153499500Y-110937399D01*
X153499500Y-111062601D01*
X153531905Y-111183536D01*
X153594505Y-111291964D01*
X153683036Y-111380495D01*
X153791464Y-111443095D01*
X153807593Y-111447416D01*
X153867253Y-111483780D01*
X153897783Y-111546626D01*
X153899500Y-111567191D01*
X153899500Y-112172870D01*
X153899501Y-112172876D01*
X153905908Y-112232483D01*
X153956202Y-112367328D01*
X153956206Y-112367335D01*
X154042452Y-112482544D01*
X154042455Y-112482547D01*
X154157664Y-112568793D01*
X154157671Y-112568797D01*
X154202618Y-112585561D01*
X154292517Y-112619091D01*
X154352127Y-112625500D01*
X154987306Y-112625499D01*
X155054345Y-112645183D01*
X155100100Y-112697987D01*
X155107982Y-112720980D01*
X155116776Y-112758194D01*
X155116779Y-112758200D01*
X155166105Y-112844822D01*
X155166107Y-112844825D01*
X155166109Y-112844828D01*
X155181217Y-112862263D01*
X155211860Y-112897628D01*
X155211863Y-112897631D01*
X155211864Y-112897632D01*
X155244638Y-112929257D01*
X155332973Y-112975465D01*
X155332974Y-112975465D01*
X155332974Y-112975466D01*
X155383102Y-112990184D01*
X155400012Y-112995150D01*
X155400016Y-112995150D01*
X155400018Y-112995151D01*
X155408462Y-112996365D01*
X155471997Y-113005500D01*
X158427107Y-113005500D01*
X158494146Y-113025185D01*
X158539901Y-113077989D01*
X158543288Y-113086165D01*
X158578331Y-113180116D01*
X158578372Y-113180226D01*
X158660313Y-113289687D01*
X158769774Y-113371628D01*
X158803174Y-113384085D01*
X158859105Y-113425956D01*
X158883522Y-113491420D01*
X158868670Y-113559693D01*
X158819265Y-113609098D01*
X158803172Y-113616447D01*
X158770023Y-113628811D01*
X158770015Y-113628815D01*
X158660670Y-113710670D01*
X158578815Y-113820015D01*
X158578814Y-113820016D01*
X158531083Y-113947989D01*
X158525000Y-114004571D01*
X158525000Y-114025000D01*
X159974999Y-114025000D01*
X159974999Y-114004566D01*
X159974998Y-114004560D01*
X159968918Y-113947992D01*
X159921186Y-113820018D01*
X159921184Y-113820015D01*
X159839329Y-113710670D01*
X159729984Y-113628815D01*
X159729983Y-113628814D01*
X159696827Y-113616448D01*
X159640894Y-113574576D01*
X159616477Y-113509112D01*
X159631329Y-113440839D01*
X159680734Y-113391434D01*
X159696816Y-113384089D01*
X159730226Y-113371628D01*
X159839687Y-113289687D01*
X159921628Y-113180226D01*
X159969412Y-113052114D01*
X159972856Y-113020079D01*
X159975499Y-112995501D01*
X159975499Y-112995494D01*
X159975500Y-112995485D01*
X159975499Y-112454516D01*
X159969412Y-112397886D01*
X159921628Y-112269774D01*
X159921626Y-112269771D01*
X159921626Y-112269770D01*
X159839692Y-112160318D01*
X159839686Y-112160312D01*
X159805188Y-112134487D01*
X159763318Y-112078553D01*
X159755500Y-112035221D01*
X159755500Y-110859041D01*
X160349500Y-110859041D01*
X160349500Y-111140958D01*
X160386295Y-111420439D01*
X160459259Y-111692743D01*
X160567135Y-111953179D01*
X160567140Y-111953190D01*
X160693977Y-112172876D01*
X160708088Y-112197317D01*
X160838543Y-112367328D01*
X160879704Y-112420970D01*
X161079029Y-112620295D01*
X161079033Y-112620298D01*
X161079035Y-112620300D01*
X161302683Y-112791912D01*
X161302690Y-112791916D01*
X161546809Y-112932859D01*
X161546814Y-112932861D01*
X161546817Y-112932863D01*
X161807261Y-113040742D01*
X162079558Y-113113704D01*
X162359049Y-113150500D01*
X162359056Y-113150500D01*
X162640944Y-113150500D01*
X162640951Y-113150500D01*
X162920442Y-113113704D01*
X163192739Y-113040742D01*
X163453183Y-112932863D01*
X163459431Y-112929256D01*
X163572876Y-112863758D01*
X163697317Y-112791912D01*
X163920965Y-112620300D01*
X164120300Y-112420965D01*
X164291912Y-112197317D01*
X164432863Y-111953183D01*
X164540742Y-111692739D01*
X164613704Y-111420442D01*
X164650500Y-111140951D01*
X164650500Y-110859049D01*
X164649374Y-110850500D01*
X164637460Y-110760000D01*
X164613704Y-110579558D01*
X164540742Y-110307261D01*
X164432863Y-110046817D01*
X164432861Y-110046814D01*
X164432859Y-110046809D01*
X164291916Y-109802690D01*
X164291912Y-109802683D01*
X164120300Y-109579035D01*
X164120298Y-109579033D01*
X164120295Y-109579029D01*
X163920970Y-109379704D01*
X163907680Y-109369506D01*
X163697317Y-109208088D01*
X163697311Y-109208084D01*
X163697309Y-109208083D01*
X163453190Y-109067140D01*
X163453179Y-109067135D01*
X163192743Y-108959259D01*
X162920439Y-108886295D01*
X162640958Y-108849500D01*
X162640951Y-108849500D01*
X162359049Y-108849500D01*
X162359041Y-108849500D01*
X162079560Y-108886295D01*
X161807256Y-108959259D01*
X161546820Y-109067135D01*
X161546809Y-109067140D01*
X161302690Y-109208083D01*
X161302684Y-109208087D01*
X161302683Y-109208088D01*
X161284080Y-109222363D01*
X161079029Y-109379704D01*
X160879704Y-109579029D01*
X160780713Y-109708037D01*
X160712441Y-109797011D01*
X160708089Y-109802682D01*
X160708083Y-109802690D01*
X160567140Y-110046809D01*
X160567135Y-110046820D01*
X160459259Y-110307256D01*
X160386295Y-110579560D01*
X160349500Y-110859041D01*
X159755500Y-110859041D01*
X159755500Y-110676360D01*
X159754996Y-110666962D01*
X159754036Y-110649048D01*
X159751202Y-110622690D01*
X159721413Y-110527556D01*
X159719744Y-110524500D01*
X159687931Y-110466238D01*
X159687926Y-110466230D01*
X159644350Y-110408019D01*
X159644349Y-110408018D01*
X159644347Y-110408015D01*
X159644342Y-110408010D01*
X159644334Y-110408001D01*
X159216998Y-109980666D01*
X159216985Y-109980653D01*
X159196635Y-109962374D01*
X159196629Y-109962369D01*
X159196620Y-109962361D01*
X159175996Y-109945741D01*
X159175995Y-109945740D01*
X159115318Y-109914001D01*
X159065039Y-109865485D01*
X159048971Y-109797488D01*
X159072216Y-109731599D01*
X159127393Y-109688736D01*
X159134488Y-109686191D01*
X159137655Y-109685162D01*
X159250541Y-109627643D01*
X159250550Y-109627636D01*
X159340136Y-109538050D01*
X159340139Y-109538046D01*
X159397666Y-109425143D01*
X159401649Y-109400000D01*
X157598351Y-109400000D01*
X157602333Y-109425143D01*
X157659860Y-109538046D01*
X157659863Y-109538050D01*
X157749449Y-109627636D01*
X157749456Y-109627641D01*
X157763928Y-109635015D01*
X157814724Y-109682989D01*
X157831520Y-109750810D01*
X157808983Y-109816945D01*
X157754268Y-109860397D01*
X157707634Y-109869500D01*
X157018466Y-109869500D01*
X156951427Y-109849815D01*
X156905672Y-109797011D01*
X156895728Y-109727853D01*
X156924753Y-109664297D01*
X156962168Y-109635017D01*
X156975842Y-109628050D01*
X157065550Y-109538342D01*
X157123146Y-109425304D01*
X157123146Y-109425302D01*
X157123147Y-109425301D01*
X157137999Y-109331524D01*
X157138000Y-109331519D01*
X157137999Y-108997436D01*
X159595201Y-108997436D01*
X159623048Y-109052089D01*
X159623055Y-109052098D01*
X159710401Y-109139444D01*
X159710406Y-109139448D01*
X159820484Y-109195536D01*
X159862500Y-109202190D01*
X159862500Y-109202188D01*
X160362500Y-109202188D01*
X160404522Y-109195533D01*
X160514591Y-109139449D01*
X160514598Y-109139444D01*
X160601944Y-109052098D01*
X160601949Y-109052091D01*
X160658033Y-108942022D01*
X160658034Y-108942019D01*
X160659938Y-108930000D01*
X160362500Y-108930000D01*
X160362500Y-109202188D01*
X159862500Y-109202188D01*
X159862500Y-108930000D01*
X159607829Y-108930000D01*
X159595201Y-108997436D01*
X157137999Y-108997436D01*
X157137999Y-108968482D01*
X157127153Y-108900000D01*
X157598351Y-108900000D01*
X158250000Y-108900000D01*
X158750000Y-108900000D01*
X159361135Y-108900000D01*
X159374395Y-108829184D01*
X159340139Y-108761953D01*
X159340136Y-108761949D01*
X159250550Y-108672363D01*
X159250546Y-108672360D01*
X159137644Y-108614833D01*
X159043986Y-108600000D01*
X158750000Y-108600000D01*
X158750000Y-108900000D01*
X158250000Y-108900000D01*
X158250000Y-108600000D01*
X157956020Y-108600000D01*
X157862350Y-108614835D01*
X157862344Y-108614837D01*
X157749458Y-108672356D01*
X157749449Y-108672363D01*
X157659863Y-108761949D01*
X157659860Y-108761953D01*
X157602333Y-108874856D01*
X157598351Y-108900000D01*
X157127153Y-108900000D01*
X157123146Y-108874696D01*
X157065550Y-108761658D01*
X157065545Y-108761653D01*
X157059811Y-108753759D01*
X157061051Y-108752858D01*
X157032737Y-108701015D01*
X157037716Y-108631323D01*
X157060117Y-108596464D01*
X157059402Y-108595944D01*
X157065139Y-108588046D01*
X157122666Y-108475143D01*
X157126649Y-108450000D01*
X156349000Y-108450000D01*
X156281961Y-108430315D01*
X156236206Y-108377511D01*
X156225000Y-108326000D01*
X156225000Y-108074000D01*
X156244685Y-108006961D01*
X156297489Y-107961206D01*
X156349000Y-107950000D01*
X157126648Y-107950000D01*
X157122666Y-107924856D01*
X157065139Y-107811953D01*
X157059402Y-107804056D01*
X157060773Y-107803059D01*
X157032735Y-107751710D01*
X157037719Y-107682018D01*
X157060428Y-107646689D01*
X157059811Y-107646241D01*
X157065542Y-107638349D01*
X157065550Y-107638342D01*
X157123146Y-107525304D01*
X157123146Y-107525302D01*
X157123147Y-107525301D01*
X157137999Y-107431524D01*
X157138000Y-107431519D01*
X157137999Y-107068482D01*
X157137998Y-107068475D01*
X157587000Y-107068475D01*
X157587000Y-107431517D01*
X157593575Y-107473028D01*
X157601854Y-107525304D01*
X157659450Y-107638342D01*
X157659452Y-107638344D01*
X157659454Y-107638347D01*
X157749152Y-107728045D01*
X157749154Y-107728046D01*
X157749158Y-107728050D01*
X157862194Y-107785645D01*
X157862198Y-107785647D01*
X157955975Y-107800499D01*
X157955981Y-107800500D01*
X159044018Y-107800499D01*
X159137804Y-107785646D01*
X159180257Y-107764014D01*
X159193260Y-107760893D01*
X159201617Y-107755523D01*
X159236552Y-107750500D01*
X159383824Y-107750500D01*
X159450863Y-107770185D01*
X159471505Y-107786819D01*
X159519104Y-107834418D01*
X159552589Y-107895741D01*
X159553893Y-107902682D01*
X159566483Y-107982175D01*
X159622641Y-108092391D01*
X159642922Y-108112672D01*
X159676407Y-108173993D01*
X159671424Y-108243684D01*
X159642924Y-108288033D01*
X159623053Y-108307904D01*
X159623050Y-108307908D01*
X159566966Y-108417977D01*
X159566965Y-108417980D01*
X159565061Y-108429999D01*
X159565061Y-108430000D01*
X160659938Y-108430000D01*
X160658035Y-108417983D01*
X160601947Y-108307906D01*
X160601944Y-108307901D01*
X160582077Y-108288034D01*
X160548592Y-108226711D01*
X160553576Y-108157019D01*
X160582078Y-108112671D01*
X160602359Y-108092391D01*
X160658517Y-107982175D01*
X160658517Y-107982173D01*
X160658518Y-107982172D01*
X160658518Y-107982171D01*
X160666570Y-107931330D01*
X160673000Y-107890735D01*
X160672999Y-107549266D01*
X160672999Y-107549260D01*
X160658518Y-107457829D01*
X160658518Y-107457828D01*
X160658517Y-107457826D01*
X160658517Y-107457825D01*
X160602359Y-107347609D01*
X160602357Y-107347607D01*
X160602354Y-107347603D01*
X160514896Y-107260145D01*
X160514893Y-107260143D01*
X160514891Y-107260141D01*
X160439984Y-107221974D01*
X160404672Y-107203981D01*
X160325200Y-107191395D01*
X160262066Y-107161466D01*
X160256917Y-107156603D01*
X159949816Y-106849502D01*
X159949814Y-106849500D01*
X159892750Y-106816554D01*
X159835687Y-106783608D01*
X159735666Y-106756808D01*
X159708392Y-106749500D01*
X159708391Y-106749500D01*
X159236552Y-106749500D01*
X159180258Y-106735985D01*
X159137801Y-106714352D01*
X159044024Y-106699500D01*
X157955982Y-106699500D01*
X157875019Y-106712323D01*
X157862196Y-106714354D01*
X157749158Y-106771950D01*
X157749157Y-106771951D01*
X157749152Y-106771954D01*
X157659454Y-106861652D01*
X157659451Y-106861657D01*
X157659450Y-106861658D01*
X157650199Y-106879815D01*
X157601852Y-106974698D01*
X157587000Y-107068475D01*
X157137998Y-107068475D01*
X157123146Y-106974696D01*
X157065550Y-106861658D01*
X157065546Y-106861654D01*
X157065545Y-106861652D01*
X156975847Y-106771954D01*
X156975844Y-106771952D01*
X156975842Y-106771950D01*
X156882795Y-106724540D01*
X156862801Y-106714352D01*
X156769024Y-106699500D01*
X155680982Y-106699500D01*
X155600019Y-106712323D01*
X155587196Y-106714354D01*
X155474158Y-106771950D01*
X155474157Y-106771951D01*
X155474152Y-106771954D01*
X155384454Y-106861652D01*
X155384449Y-106861659D01*
X155322423Y-106983391D01*
X155320491Y-106982406D01*
X155298454Y-107018363D01*
X154857031Y-107459787D01*
X154857027Y-107459792D01*
X154810887Y-107539710D01*
X154810886Y-107539713D01*
X154787000Y-107628857D01*
X154787000Y-107882609D01*
X154767315Y-107949648D01*
X154761377Y-107958094D01*
X154757005Y-107963790D01*
X154694405Y-108072219D01*
X154680393Y-108124514D01*
X154662000Y-108193155D01*
X154662000Y-108318357D01*
X154694405Y-108439292D01*
X154757005Y-108547720D01*
X154845536Y-108636251D01*
X154953964Y-108698851D01*
X155074899Y-108731256D01*
X155074901Y-108731256D01*
X155204387Y-108731256D01*
X155218353Y-108735356D01*
X155232890Y-108734576D01*
X155251207Y-108745004D01*
X155271426Y-108750941D01*
X155280957Y-108761940D01*
X155293610Y-108769144D01*
X155303382Y-108787820D01*
X155317181Y-108803745D01*
X155319841Y-108819277D01*
X155326002Y-108831051D01*
X155326539Y-108858382D01*
X155327895Y-108866294D01*
X155327205Y-108874005D01*
X155326854Y-108874696D01*
X155312000Y-108968481D01*
X155312000Y-109044142D01*
X155311508Y-109049647D01*
X155300662Y-109077221D01*
X155292315Y-109105648D01*
X155288015Y-109109373D01*
X155285933Y-109114668D01*
X155261901Y-109132001D01*
X155239511Y-109151403D01*
X155230523Y-109154633D01*
X155229266Y-109155541D01*
X155227778Y-109155620D01*
X155220095Y-109158383D01*
X155178968Y-109169403D01*
X155178963Y-109169405D01*
X155070537Y-109232004D01*
X155070534Y-109232006D01*
X154982006Y-109320534D01*
X154982004Y-109320537D01*
X154919405Y-109428963D01*
X154886998Y-109549906D01*
X154886061Y-109557024D01*
X154857791Y-109620919D01*
X154850804Y-109628513D01*
X153991013Y-110488304D01*
X153929690Y-110521789D01*
X153919524Y-110523561D01*
X153912406Y-110524498D01*
X153791463Y-110556905D01*
X153683037Y-110619504D01*
X153683034Y-110619506D01*
X153594506Y-110708034D01*
X153594504Y-110708037D01*
X153531905Y-110816463D01*
X153517075Y-110871810D01*
X153499500Y-110937399D01*
X153041968Y-110937399D01*
X153041968Y-108226792D01*
X153061653Y-108159753D01*
X153078287Y-108139111D01*
X154080579Y-107136819D01*
X154141902Y-107103334D01*
X154168260Y-107100500D01*
X154187599Y-107100500D01*
X154187601Y-107100500D01*
X154308536Y-107068095D01*
X154416964Y-107005495D01*
X154505495Y-106916964D01*
X154568095Y-106808536D01*
X154600500Y-106687601D01*
X154600500Y-106668260D01*
X154620185Y-106601221D01*
X154636819Y-106580579D01*
X156949169Y-104268229D01*
X159270466Y-101946932D01*
X159313977Y-101871568D01*
X159336501Y-101787511D01*
X159336501Y-101700489D01*
X159336501Y-101692894D01*
X159336500Y-101692876D01*
X159336500Y-99599500D01*
X159356185Y-99532461D01*
X159408989Y-99486706D01*
X159460500Y-99475500D01*
X159573599Y-99475500D01*
X159573601Y-99475500D01*
X159694536Y-99443095D01*
X159802964Y-99380495D01*
X159891495Y-99291964D01*
X159954095Y-99183536D01*
X159986500Y-99062601D01*
X159986500Y-98937399D01*
X159954095Y-98816464D01*
X159891495Y-98708036D01*
X159802964Y-98619505D01*
X159694536Y-98556905D01*
X159694537Y-98556905D01*
X159654224Y-98546103D01*
X159573601Y-98524500D01*
X159460500Y-98524500D01*
X159393461Y-98504815D01*
X159347706Y-98452011D01*
X159336500Y-98400500D01*
X159336500Y-95849500D01*
X159356185Y-95782461D01*
X159408989Y-95736706D01*
X159460500Y-95725500D01*
X159562599Y-95725500D01*
X159562601Y-95725500D01*
X159683536Y-95693095D01*
X159791964Y-95630495D01*
X159880495Y-95541964D01*
X159943095Y-95433536D01*
X159975500Y-95312601D01*
X159975500Y-95187399D01*
X159943095Y-95066464D01*
X159880495Y-94958036D01*
X159791964Y-94869505D01*
X159683536Y-94806905D01*
X159683537Y-94806905D01*
X159643224Y-94796103D01*
X159562601Y-94774500D01*
X159460500Y-94774500D01*
X159393461Y-94754815D01*
X159347706Y-94702011D01*
X159336500Y-94650500D01*
X159336500Y-91861365D01*
X159336499Y-91861361D01*
X159332840Y-91847706D01*
X159327207Y-91826681D01*
X159325809Y-91821463D01*
X159325809Y-91821464D01*
X159313977Y-91777305D01*
X159295852Y-91745913D01*
X159270466Y-91701942D01*
X159208932Y-91640408D01*
X159208929Y-91640406D01*
X158204058Y-90635534D01*
X158128694Y-90592023D01*
X158044637Y-90569500D01*
X158044636Y-90569500D01*
X158002321Y-90569500D01*
X157935282Y-90549815D01*
X157889527Y-90497011D01*
X157879583Y-90427853D01*
X157908608Y-90364297D01*
X157914640Y-90357819D01*
X157933220Y-90339239D01*
X157980495Y-90291964D01*
X158043095Y-90183536D01*
X158075500Y-90062601D01*
X158075500Y-89937399D01*
X158043095Y-89816464D01*
X157980495Y-89708036D01*
X157891964Y-89619505D01*
X157783536Y-89556905D01*
X157783537Y-89556905D01*
X157733833Y-89543587D01*
X157662601Y-89524500D01*
X157537399Y-89524500D01*
X157493530Y-89536255D01*
X157416462Y-89556905D01*
X157416459Y-89556907D01*
X157352183Y-89594016D01*
X157284283Y-89610487D01*
X157218256Y-89587634D01*
X157182798Y-89548627D01*
X157130499Y-89458042D01*
X157130493Y-89458034D01*
X157041965Y-89369506D01*
X157041964Y-89369505D01*
X156933536Y-89306905D01*
X156933537Y-89306905D01*
X156854798Y-89285807D01*
X156812601Y-89274500D01*
X156812600Y-89274500D01*
X156812593Y-89274498D01*
X156805476Y-89273561D01*
X156741580Y-89245292D01*
X156733986Y-89238304D01*
X156465213Y-88969531D01*
X156465208Y-88969527D01*
X156385290Y-88923387D01*
X156385289Y-88923386D01*
X156385288Y-88923386D01*
X156296144Y-88899500D01*
X152546144Y-88899500D01*
X152453856Y-88899500D01*
X152364712Y-88923386D01*
X152364709Y-88923387D01*
X152284791Y-88969527D01*
X152284786Y-88969531D01*
X151719529Y-89534788D01*
X151700728Y-89567353D01*
X151700726Y-89567356D01*
X151695382Y-89576614D01*
X151673386Y-89614712D01*
X151649500Y-89703856D01*
X151649500Y-89707032D01*
X151644423Y-89720876D01*
X151626819Y-89744661D01*
X151611416Y-89769933D01*
X151604788Y-89774431D01*
X151602859Y-89777038D01*
X151598525Y-89778681D01*
X151595903Y-89780460D01*
X151596257Y-89780956D01*
X151587895Y-89786926D01*
X151496923Y-89877897D01*
X151496923Y-89877898D01*
X151475038Y-89922664D01*
X151427910Y-89974246D01*
X151360376Y-89992160D01*
X151299585Y-89972559D01*
X151299003Y-89973569D01*
X151294306Y-89970857D01*
X151293877Y-89970719D01*
X151293125Y-89970175D01*
X151183536Y-89906905D01*
X151183537Y-89906905D01*
X151143224Y-89896103D01*
X151062601Y-89874500D01*
X150937399Y-89874500D01*
X150856775Y-89896103D01*
X150816463Y-89906905D01*
X150708037Y-89969504D01*
X150708034Y-89969506D01*
X150619506Y-90058034D01*
X150619504Y-90058037D01*
X150556905Y-90166463D01*
X150546883Y-90203865D01*
X150525573Y-90283397D01*
X150524500Y-90287400D01*
X150524500Y-90406012D01*
X150504815Y-90473051D01*
X150452011Y-90518806D01*
X150432595Y-90525786D01*
X150316468Y-90556903D01*
X150316463Y-90556905D01*
X150208037Y-90619504D01*
X150208034Y-90619506D01*
X150194360Y-90633181D01*
X150167432Y-90647884D01*
X150141614Y-90664477D01*
X150135413Y-90665368D01*
X150133037Y-90666666D01*
X150106679Y-90669500D01*
X150051123Y-90669500D01*
X150051107Y-90669499D01*
X150043511Y-90669499D01*
X149956489Y-90669499D01*
X149893446Y-90686392D01*
X149872431Y-90692023D01*
X149797069Y-90735533D01*
X149797066Y-90735535D01*
X149314736Y-91217864D01*
X149253413Y-91251349D01*
X149183721Y-91246365D01*
X149137689Y-91212335D01*
X149136242Y-91213783D01*
X149041965Y-91119506D01*
X149041964Y-91119505D01*
X148933536Y-91056905D01*
X148933537Y-91056905D01*
X148893224Y-91046103D01*
X148812601Y-91024500D01*
X148687399Y-91024500D01*
X148606775Y-91046103D01*
X148566463Y-91056905D01*
X148458037Y-91119504D01*
X148458034Y-91119506D01*
X148369506Y-91208034D01*
X148369504Y-91208037D01*
X148306905Y-91316463D01*
X148306905Y-91316464D01*
X148275678Y-91433005D01*
X148274500Y-91437400D01*
X148274500Y-91456740D01*
X148254815Y-91523779D01*
X148238181Y-91544421D01*
X147985535Y-91797066D01*
X147985533Y-91797069D01*
X147942023Y-91872431D01*
X147942023Y-91872432D01*
X147919500Y-91956489D01*
X147919500Y-102206489D01*
X147919500Y-102293511D01*
X147942023Y-102377568D01*
X147976449Y-102437197D01*
X147985533Y-102452930D01*
X147985535Y-102452933D01*
X148139181Y-102606579D01*
X148172666Y-102667902D01*
X148175500Y-102694260D01*
X148175500Y-106650500D01*
X148155815Y-106717539D01*
X148103011Y-106763294D01*
X148051500Y-106774500D01*
X147938399Y-106774500D01*
X147857775Y-106796103D01*
X147817463Y-106806905D01*
X147709037Y-106869504D01*
X147703343Y-106873874D01*
X147638175Y-106899070D01*
X147627854Y-106899500D01*
X146576040Y-106899500D01*
X146548175Y-106891317D01*
X146519632Y-106885927D01*
X146512736Y-106880911D01*
X146509001Y-106879815D01*
X146490806Y-106865562D01*
X146489574Y-106864396D01*
X146412102Y-106786924D01*
X146403023Y-106782485D01*
X146389266Y-106769466D01*
X146380824Y-106754969D01*
X146368441Y-106743650D01*
X146363104Y-106724540D01*
X146354106Y-106709088D01*
X146354741Y-106694594D01*
X146350500Y-106679404D01*
X146350500Y-99921018D01*
X146350500Y-99921016D01*
X146326614Y-99831872D01*
X146312852Y-99808036D01*
X146312852Y-99808035D01*
X146312850Y-99808033D01*
X146280472Y-99751951D01*
X146280468Y-99751946D01*
X144925553Y-98397031D01*
X144925548Y-98397027D01*
X144845630Y-98350887D01*
X144845629Y-98350886D01*
X144845628Y-98350886D01*
X144756484Y-98327000D01*
X144756483Y-98327000D01*
X143086041Y-98327000D01*
X143019002Y-98307315D01*
X142998360Y-98290681D01*
X142932102Y-98224423D01*
X142932099Y-98224421D01*
X142816521Y-98167919D01*
X142816519Y-98167918D01*
X142816518Y-98167918D01*
X142741582Y-98157000D01*
X142741577Y-98157000D01*
X142546544Y-98157000D01*
X142479505Y-98137315D01*
X142458863Y-98120681D01*
X142307713Y-97969531D01*
X142307708Y-97969527D01*
X142227790Y-97923387D01*
X142227789Y-97923386D01*
X142227788Y-97923386D01*
X142138644Y-97899500D01*
X142138643Y-97899500D01*
X141783183Y-97899500D01*
X141716144Y-97879815D01*
X141670389Y-97827011D01*
X141660445Y-97757853D01*
X141675795Y-97713502D01*
X141683975Y-97699331D01*
X141693095Y-97683536D01*
X141725500Y-97562601D01*
X141725500Y-97437399D01*
X141693095Y-97316464D01*
X141630495Y-97208036D01*
X141541964Y-97119505D01*
X141433536Y-97056905D01*
X141433537Y-97056905D01*
X141393224Y-97046103D01*
X141312601Y-97024500D01*
X141187399Y-97024500D01*
X141106775Y-97046103D01*
X141066463Y-97056905D01*
X140958037Y-97119504D01*
X140958034Y-97119506D01*
X140869504Y-97208036D01*
X140857387Y-97229025D01*
X140806820Y-97277240D01*
X140738212Y-97290462D01*
X140673348Y-97264494D01*
X140642613Y-97229025D01*
X140630495Y-97208036D01*
X140541965Y-97119506D01*
X140541964Y-97119505D01*
X140433536Y-97056905D01*
X140433537Y-97056905D01*
X140393224Y-97046103D01*
X140312601Y-97024500D01*
X140187399Y-97024500D01*
X140106775Y-97046103D01*
X140066463Y-97056905D01*
X139958037Y-97119504D01*
X139958034Y-97119506D01*
X139869506Y-97208034D01*
X139869504Y-97208037D01*
X139806905Y-97316463D01*
X139803421Y-97329465D01*
X139774500Y-97437399D01*
X139774500Y-97562601D01*
X139796103Y-97643224D01*
X139806905Y-97683537D01*
X139806907Y-97683540D01*
X139824205Y-97713502D01*
X139840676Y-97781402D01*
X139817823Y-97847428D01*
X139762902Y-97890618D01*
X139716817Y-97899500D01*
X139196544Y-97899500D01*
X139129505Y-97879815D01*
X139108863Y-97863181D01*
X138761695Y-97516013D01*
X138728210Y-97454690D01*
X138726437Y-97444517D01*
X138725500Y-97437401D01*
X138725500Y-97437400D01*
X138725500Y-97437399D01*
X138693095Y-97316464D01*
X138630495Y-97208036D01*
X138541964Y-97119505D01*
X138433536Y-97056905D01*
X138433537Y-97056905D01*
X138393224Y-97046103D01*
X138312601Y-97024500D01*
X138187399Y-97024500D01*
X138106775Y-97046103D01*
X138066463Y-97056905D01*
X137958037Y-97119504D01*
X137958034Y-97119506D01*
X137869506Y-97208034D01*
X137869504Y-97208037D01*
X137806905Y-97316463D01*
X137803421Y-97329465D01*
X137774500Y-97437399D01*
X137774500Y-97562601D01*
X137806905Y-97683536D01*
X137869505Y-97791964D01*
X137958036Y-97880495D01*
X138066464Y-97943095D01*
X138093371Y-97950305D01*
X138153032Y-97986668D01*
X138183562Y-98049514D01*
X138175268Y-98118890D01*
X138130784Y-98172768D01*
X138115740Y-98181479D01*
X138027898Y-98224423D01*
X138027897Y-98224423D01*
X137936923Y-98315397D01*
X137936921Y-98315400D01*
X137880419Y-98430978D01*
X137880418Y-98430980D01*
X137880418Y-98430982D01*
X137869500Y-98505918D01*
X137869500Y-98849082D01*
X137880418Y-98924018D01*
X137880418Y-98924019D01*
X137880419Y-98924021D01*
X137936921Y-99039599D01*
X137936923Y-99039602D01*
X137997140Y-99099819D01*
X138030625Y-99161142D01*
X138025641Y-99230834D01*
X137997140Y-99275181D01*
X137936923Y-99335397D01*
X137936921Y-99335400D01*
X137880419Y-99450978D01*
X137880418Y-99450980D01*
X137880418Y-99450982D01*
X137869500Y-99525918D01*
X137869500Y-99869082D01*
X137880418Y-99944018D01*
X137880418Y-99944019D01*
X137880419Y-99944021D01*
X137936921Y-100059599D01*
X137936923Y-100059602D01*
X138027896Y-100150575D01*
X138027897Y-100150575D01*
X138027898Y-100150576D01*
X138052495Y-100162601D01*
X138068418Y-100170385D01*
X138120000Y-100217513D01*
X138137915Y-100285047D01*
X138116474Y-100351546D01*
X138101640Y-100369467D01*
X138021951Y-100449156D01*
X138021951Y-100449157D01*
X138021950Y-100449158D01*
X138008529Y-100475499D01*
X137964352Y-100562198D01*
X137949500Y-100655975D01*
X137949500Y-101894017D01*
X137957881Y-101946930D01*
X137964354Y-101987804D01*
X138021950Y-102100842D01*
X138021952Y-102100844D01*
X138021954Y-102100847D01*
X138111652Y-102190545D01*
X138111654Y-102190546D01*
X138111658Y-102190550D01*
X138220349Y-102245931D01*
X138224698Y-102248147D01*
X138318475Y-102262999D01*
X138318481Y-102263000D01*
X138681518Y-102262999D01*
X138775304Y-102248146D01*
X138775305Y-102248145D01*
X138784943Y-102246619D01*
X138785263Y-102248643D01*
X138842500Y-102247004D01*
X138902335Y-102283080D01*
X138933168Y-102345779D01*
X138925209Y-102415193D01*
X138921472Y-102423226D01*
X138914353Y-102437197D01*
X138914352Y-102437198D01*
X138899500Y-102530975D01*
X138899500Y-103769017D01*
X138905851Y-103809115D01*
X138914354Y-103862804D01*
X138971950Y-103975842D01*
X138971952Y-103975844D01*
X138971954Y-103975847D01*
X139061652Y-104065545D01*
X139061654Y-104065546D01*
X139061658Y-104065550D01*
X139119488Y-104095016D01*
X139170283Y-104142990D01*
X139187078Y-104210811D01*
X139164540Y-104276946D01*
X139109825Y-104320397D01*
X139063192Y-104329500D01*
X138758418Y-104329500D01*
X138711583Y-104336323D01*
X138683479Y-104340418D01*
X138639540Y-104361900D01*
X138585079Y-104374500D01*
X137934108Y-104374500D01*
X137806812Y-104408608D01*
X137692686Y-104474500D01*
X137692683Y-104474502D01*
X137599502Y-104567683D01*
X137599500Y-104567686D01*
X137533608Y-104681812D01*
X137499500Y-104809108D01*
X137499500Y-104940891D01*
X137533608Y-105068187D01*
X137563237Y-105119505D01*
X137599500Y-105182314D01*
X137692686Y-105275500D01*
X137806814Y-105341392D01*
X137934108Y-105375500D01*
X138489551Y-105375500D01*
X138556590Y-105395185D01*
X138561607Y-105398584D01*
X138567903Y-105403080D01*
X138680263Y-105458008D01*
X138683482Y-105459582D01*
X138758418Y-105470500D01*
X138758423Y-105470500D01*
X139101577Y-105470500D01*
X139101582Y-105470500D01*
X139176518Y-105459582D01*
X139234310Y-105431329D01*
X139292099Y-105403078D01*
X139292102Y-105403076D01*
X139352319Y-105342860D01*
X139413642Y-105309375D01*
X139483334Y-105314359D01*
X139527681Y-105342860D01*
X139587897Y-105403076D01*
X139587900Y-105403078D01*
X139678406Y-105447323D01*
X139703482Y-105459582D01*
X139778418Y-105470500D01*
X139778423Y-105470500D01*
X140121577Y-105470500D01*
X140121582Y-105470500D01*
X140196518Y-105459582D01*
X140254310Y-105431329D01*
X140312099Y-105403078D01*
X140312102Y-105403076D01*
X140403074Y-105312105D01*
X140409044Y-105303743D01*
X140412091Y-105305918D01*
X140446350Y-105268441D01*
X140510596Y-105250500D01*
X140776679Y-105250500D01*
X140843718Y-105270185D01*
X140864360Y-105286819D01*
X140869505Y-105291964D01*
X140958036Y-105380495D01*
X141066464Y-105443095D01*
X141187399Y-105475500D01*
X141187401Y-105475500D01*
X141312599Y-105475500D01*
X141312601Y-105475500D01*
X141433536Y-105443095D01*
X141541964Y-105380495D01*
X141621518Y-105300940D01*
X141682837Y-105267458D01*
X141752529Y-105272442D01*
X141798008Y-105306486D01*
X141799658Y-105304837D01*
X141897897Y-105403076D01*
X141897900Y-105403078D01*
X141988406Y-105447323D01*
X142013482Y-105459582D01*
X142088418Y-105470500D01*
X142088423Y-105470500D01*
X142431577Y-105470500D01*
X142431582Y-105470500D01*
X142506518Y-105459582D01*
X142507539Y-105459082D01*
X142508870Y-105458855D01*
X142515720Y-105456739D01*
X142515997Y-105457638D01*
X142576411Y-105447323D01*
X142640709Y-105474666D01*
X142680017Y-105532429D01*
X142686000Y-105570483D01*
X142686000Y-107689906D01*
X142687503Y-107695516D01*
X142720108Y-107817201D01*
X142738756Y-107849500D01*
X142786000Y-107931328D01*
X142786002Y-107931330D01*
X142842491Y-107987819D01*
X142875976Y-108049142D01*
X142870992Y-108118834D01*
X142829120Y-108174767D01*
X142763656Y-108199184D01*
X142754810Y-108199500D01*
X141880982Y-108199500D01*
X141800019Y-108212323D01*
X141787196Y-108214354D01*
X141674158Y-108271950D01*
X141674157Y-108271951D01*
X141674152Y-108271954D01*
X141584454Y-108361652D01*
X141584451Y-108361657D01*
X141584450Y-108361658D01*
X141571630Y-108386818D01*
X141526852Y-108474698D01*
X141526852Y-108474699D01*
X141522676Y-108501063D01*
X141522673Y-108501088D01*
X141512000Y-108568481D01*
X141512000Y-108627079D01*
X141512000Y-108627081D01*
X141512000Y-108931517D01*
X141522792Y-108999657D01*
X141526854Y-109025304D01*
X141584450Y-109138342D01*
X141584452Y-109138344D01*
X141584454Y-109138347D01*
X141674152Y-109228045D01*
X141674154Y-109228046D01*
X141674158Y-109228050D01*
X141780892Y-109282434D01*
X141787198Y-109285647D01*
X141880975Y-109300499D01*
X141880981Y-109300500D01*
X142503455Y-109300499D01*
X142532901Y-109309145D01*
X142562882Y-109315667D01*
X142567895Y-109319419D01*
X142570494Y-109320183D01*
X142591136Y-109336818D01*
X142613181Y-109358863D01*
X142646666Y-109420186D01*
X142649500Y-109446544D01*
X142649500Y-114036144D01*
X142660693Y-114077917D01*
X142671953Y-114119941D01*
X142673385Y-114125288D01*
X142719527Y-114205208D01*
X142719531Y-114205213D01*
X143012565Y-114498247D01*
X143026516Y-114523796D01*
X143042901Y-114547874D01*
X143043064Y-114554103D01*
X143046050Y-114559570D01*
X143043973Y-114588612D01*
X143044739Y-114617720D01*
X143041510Y-114623046D01*
X143041066Y-114629262D01*
X143023617Y-114652570D01*
X143008525Y-114677472D01*
X143001289Y-114682395D01*
X142999194Y-114685195D01*
X142979346Y-114697328D01*
X142908630Y-114731900D01*
X142854168Y-114744500D01*
X141551361Y-114744500D01*
X141524065Y-114745963D01*
X141524060Y-114745963D01*
X141524048Y-114745964D01*
X141524040Y-114745964D01*
X141524011Y-114745967D01*
X141497689Y-114748797D01*
X141497687Y-114748798D01*
X141402558Y-114778586D01*
X141402548Y-114778590D01*
X141341238Y-114812068D01*
X141341230Y-114812073D01*
X141283019Y-114855649D01*
X141283001Y-114855665D01*
X140855666Y-115283001D01*
X140855638Y-115283031D01*
X140837361Y-115303379D01*
X140820744Y-115324000D01*
X140820740Y-115324005D01*
X140820740Y-115324007D01*
X140804680Y-115354709D01*
X140774534Y-115412340D01*
X140754850Y-115479375D01*
X140754848Y-115479383D01*
X140744500Y-115551360D01*
X140744500Y-117448638D01*
X140745963Y-117475934D01*
X140745967Y-117475988D01*
X140748797Y-117502310D01*
X140748798Y-117502312D01*
X140778586Y-117597441D01*
X140778590Y-117597451D01*
X140812068Y-117658761D01*
X140812073Y-117658769D01*
X140855649Y-117716980D01*
X140855665Y-117716998D01*
X141072776Y-117934108D01*
X141283015Y-118144347D01*
X141303365Y-118162626D01*
X141303371Y-118162631D01*
X141303379Y-118162638D01*
X141324000Y-118179255D01*
X141324002Y-118179256D01*
X141324007Y-118179260D01*
X141412338Y-118225465D01*
X141479377Y-118245150D01*
X141479381Y-118245150D01*
X141479383Y-118245151D01*
X141491014Y-118246823D01*
X141551362Y-118255500D01*
X141551363Y-118255500D01*
X143048556Y-118255500D01*
X143048558Y-118255500D01*
X143098404Y-118250591D01*
X143145857Y-118241152D01*
X143193787Y-118226612D01*
X143323048Y-118173069D01*
X143392516Y-118165601D01*
X143454995Y-118196876D01*
X143490648Y-118256964D01*
X143494500Y-118287631D01*
X143494500Y-119375500D01*
X143474815Y-119442539D01*
X143422011Y-119488294D01*
X143370500Y-119499500D01*
X136504428Y-119499500D01*
X136495582Y-119499184D01*
X136473622Y-119497613D01*
X136295442Y-119484869D01*
X136277931Y-119482351D01*
X136086212Y-119440646D01*
X136069236Y-119435662D01*
X135885390Y-119367090D01*
X135869298Y-119359740D01*
X135697095Y-119265711D01*
X135682210Y-119256146D01*
X135674081Y-119250061D01*
X135525132Y-119138558D01*
X135511762Y-119126972D01*
X135373027Y-118988237D01*
X135361441Y-118974867D01*
X135353279Y-118963964D01*
X135243849Y-118817784D01*
X135234288Y-118802904D01*
X135140259Y-118630701D01*
X135132909Y-118614609D01*
X135103648Y-118536158D01*
X135064334Y-118430755D01*
X135059355Y-118413797D01*
X135017647Y-118222063D01*
X135015130Y-118204556D01*
X135014369Y-118193919D01*
X135000816Y-118004418D01*
X135000500Y-117995572D01*
X135000500Y-116760258D01*
X135874500Y-116760258D01*
X135874500Y-116989741D01*
X135899446Y-117179215D01*
X135904452Y-117217238D01*
X135904453Y-117217240D01*
X135963842Y-117438887D01*
X136051650Y-117650876D01*
X136051657Y-117650890D01*
X136166392Y-117849617D01*
X136306081Y-118031661D01*
X136306089Y-118031670D01*
X136468330Y-118193911D01*
X136468338Y-118193918D01*
X136468339Y-118193919D01*
X136482203Y-118204557D01*
X136650382Y-118333607D01*
X136650385Y-118333608D01*
X136650388Y-118333611D01*
X136849112Y-118448344D01*
X136849117Y-118448346D01*
X136849123Y-118448349D01*
X136940480Y-118486190D01*
X137061113Y-118536158D01*
X137282762Y-118595548D01*
X137510266Y-118625500D01*
X137510273Y-118625500D01*
X137739727Y-118625500D01*
X137739734Y-118625500D01*
X137967238Y-118595548D01*
X138188887Y-118536158D01*
X138400888Y-118448344D01*
X138599612Y-118333611D01*
X138781661Y-118193919D01*
X138781665Y-118193914D01*
X138781670Y-118193911D01*
X138943911Y-118031670D01*
X138943914Y-118031665D01*
X138943919Y-118031661D01*
X139083611Y-117849612D01*
X139198344Y-117650888D01*
X139286158Y-117438887D01*
X139345548Y-117217238D01*
X139375500Y-116989734D01*
X139375500Y-116760266D01*
X139345548Y-116532762D01*
X139286158Y-116311113D01*
X139201364Y-116106403D01*
X139198349Y-116099123D01*
X139198346Y-116099117D01*
X139198344Y-116099112D01*
X139083611Y-115900388D01*
X139083608Y-115900385D01*
X139083607Y-115900382D01*
X138977072Y-115761545D01*
X138943919Y-115718339D01*
X138943918Y-115718338D01*
X138943911Y-115718330D01*
X138781670Y-115556089D01*
X138781661Y-115556081D01*
X138599617Y-115416392D01*
X138400890Y-115301657D01*
X138400876Y-115301650D01*
X138188887Y-115213842D01*
X138183931Y-115212514D01*
X137967238Y-115154452D01*
X137929215Y-115149446D01*
X137739741Y-115124500D01*
X137739734Y-115124500D01*
X137510266Y-115124500D01*
X137510258Y-115124500D01*
X137293715Y-115153009D01*
X137282762Y-115154452D01*
X137274533Y-115156657D01*
X137061112Y-115213842D01*
X136849123Y-115301650D01*
X136849109Y-115301657D01*
X136650382Y-115416392D01*
X136468338Y-115556081D01*
X136306081Y-115718338D01*
X136166392Y-115900382D01*
X136051657Y-116099109D01*
X136051650Y-116099123D01*
X135963842Y-116311112D01*
X135904453Y-116532759D01*
X135904451Y-116532770D01*
X135874500Y-116760258D01*
X135000500Y-116760258D01*
X135000500Y-110859041D01*
X135349500Y-110859041D01*
X135349500Y-111140958D01*
X135386295Y-111420439D01*
X135459259Y-111692743D01*
X135567135Y-111953179D01*
X135567140Y-111953190D01*
X135693977Y-112172876D01*
X135708088Y-112197317D01*
X135838543Y-112367328D01*
X135879704Y-112420970D01*
X136079029Y-112620295D01*
X136079033Y-112620298D01*
X136079035Y-112620300D01*
X136302683Y-112791912D01*
X136302690Y-112791916D01*
X136546809Y-112932859D01*
X136546814Y-112932861D01*
X136546817Y-112932863D01*
X136807261Y-113040742D01*
X137079558Y-113113704D01*
X137359049Y-113150500D01*
X137359056Y-113150500D01*
X137640944Y-113150500D01*
X137640951Y-113150500D01*
X137920442Y-113113704D01*
X138192739Y-113040742D01*
X138453183Y-112932863D01*
X138459431Y-112929256D01*
X138572876Y-112863758D01*
X138697317Y-112791912D01*
X138920965Y-112620300D01*
X139120300Y-112420965D01*
X139291912Y-112197317D01*
X139432863Y-111953183D01*
X139540742Y-111692739D01*
X139613704Y-111420442D01*
X139650500Y-111140951D01*
X139650500Y-110859049D01*
X139649374Y-110850500D01*
X139637460Y-110760000D01*
X139613704Y-110579558D01*
X139540742Y-110307261D01*
X139432863Y-110046817D01*
X139432861Y-110046814D01*
X139432859Y-110046809D01*
X139291916Y-109802690D01*
X139291912Y-109802683D01*
X139120300Y-109579035D01*
X139120298Y-109579033D01*
X139120295Y-109579029D01*
X138920970Y-109379704D01*
X138907680Y-109369506D01*
X138697317Y-109208088D01*
X138697311Y-109208084D01*
X138697309Y-109208083D01*
X138453190Y-109067140D01*
X138453179Y-109067135D01*
X138192743Y-108959259D01*
X137920439Y-108886295D01*
X137640958Y-108849500D01*
X137640951Y-108849500D01*
X137359049Y-108849500D01*
X137359041Y-108849500D01*
X137079560Y-108886295D01*
X136807256Y-108959259D01*
X136546820Y-109067135D01*
X136546809Y-109067140D01*
X136302690Y-109208083D01*
X136302684Y-109208087D01*
X136302683Y-109208088D01*
X136284080Y-109222363D01*
X136079029Y-109379704D01*
X135879704Y-109579029D01*
X135780713Y-109708037D01*
X135712441Y-109797011D01*
X135708089Y-109802682D01*
X135708083Y-109802690D01*
X135567140Y-110046809D01*
X135567135Y-110046820D01*
X135459259Y-110307256D01*
X135386295Y-110579560D01*
X135349500Y-110859041D01*
X135000500Y-110859041D01*
X135000500Y-108437399D01*
X140324500Y-108437399D01*
X140324500Y-108562601D01*
X140356905Y-108683536D01*
X140419505Y-108791964D01*
X140508036Y-108880495D01*
X140616464Y-108943095D01*
X140737399Y-108975500D01*
X140737401Y-108975500D01*
X140862599Y-108975500D01*
X140862601Y-108975500D01*
X140983536Y-108943095D01*
X141091964Y-108880495D01*
X141180495Y-108791964D01*
X141243095Y-108683536D01*
X141275500Y-108562601D01*
X141275500Y-108437399D01*
X141243095Y-108316464D01*
X141180495Y-108208036D01*
X141091964Y-108119505D01*
X140983536Y-108056905D01*
X140983537Y-108056905D01*
X140943224Y-108046103D01*
X140862601Y-108024500D01*
X140737399Y-108024500D01*
X140656775Y-108046103D01*
X140616463Y-108056905D01*
X140508037Y-108119504D01*
X140508034Y-108119506D01*
X140419506Y-108208034D01*
X140419504Y-108208037D01*
X140356905Y-108316463D01*
X140341158Y-108375232D01*
X140324500Y-108437399D01*
X135000500Y-108437399D01*
X135000500Y-106337399D01*
X140324500Y-106337399D01*
X140324500Y-106462601D01*
X140356905Y-106583536D01*
X140419505Y-106691964D01*
X140508036Y-106780495D01*
X140616464Y-106843095D01*
X140737399Y-106875500D01*
X140737401Y-106875500D01*
X140862599Y-106875500D01*
X140862601Y-106875500D01*
X140983536Y-106843095D01*
X141091964Y-106780495D01*
X141180495Y-106691964D01*
X141243095Y-106583536D01*
X141275500Y-106462601D01*
X141275500Y-106337399D01*
X141243095Y-106216464D01*
X141180495Y-106108036D01*
X141091964Y-106019505D01*
X140983536Y-105956905D01*
X140983537Y-105956905D01*
X140931997Y-105943095D01*
X140862601Y-105924500D01*
X140737399Y-105924500D01*
X140668003Y-105943095D01*
X140616463Y-105956905D01*
X140508037Y-106019504D01*
X140508034Y-106019506D01*
X140419506Y-106108034D01*
X140419504Y-106108037D01*
X140356905Y-106216463D01*
X140349391Y-106244505D01*
X140324500Y-106337399D01*
X135000500Y-106337399D01*
X135000500Y-102937399D01*
X137524500Y-102937399D01*
X137524500Y-103062601D01*
X137556905Y-103183536D01*
X137619505Y-103291964D01*
X137708036Y-103380495D01*
X137816464Y-103443095D01*
X137937399Y-103475500D01*
X137937401Y-103475500D01*
X138062599Y-103475500D01*
X138062601Y-103475500D01*
X138183536Y-103443095D01*
X138291964Y-103380495D01*
X138380495Y-103291964D01*
X138443095Y-103183536D01*
X138475500Y-103062601D01*
X138475500Y-102937399D01*
X138443095Y-102816464D01*
X138380495Y-102708036D01*
X138291964Y-102619505D01*
X138183536Y-102556905D01*
X138183537Y-102556905D01*
X138143224Y-102546103D01*
X138062601Y-102524500D01*
X137937399Y-102524500D01*
X137856775Y-102546103D01*
X137816463Y-102556905D01*
X137708037Y-102619504D01*
X137708034Y-102619506D01*
X137619506Y-102708034D01*
X137619504Y-102708037D01*
X137556905Y-102816463D01*
X137556905Y-102816464D01*
X137524500Y-102937399D01*
X135000500Y-102937399D01*
X135000500Y-89864430D01*
X135020185Y-89797391D01*
X135072989Y-89751636D01*
X135142147Y-89741692D01*
X135193392Y-89761329D01*
X135237765Y-89790979D01*
X135237777Y-89790985D01*
X135396103Y-89856566D01*
X135396111Y-89856568D01*
X135564181Y-89889999D01*
X135564185Y-89890000D01*
X135735563Y-89890000D01*
X135735566Y-89889999D01*
X135903636Y-89856568D01*
X135903644Y-89856566D01*
X136061972Y-89790984D01*
X136065169Y-89788847D01*
X135713964Y-89437643D01*
X135811988Y-89411378D01*
X135907760Y-89356084D01*
X135985958Y-89277886D01*
X136041252Y-89182114D01*
X136067517Y-89084090D01*
X136418721Y-89435295D01*
X136420858Y-89432098D01*
X136486440Y-89273770D01*
X136486442Y-89273762D01*
X136519873Y-89105692D01*
X136519874Y-89105689D01*
X136519874Y-88934311D01*
X136519873Y-88934307D01*
X136486442Y-88766237D01*
X136486439Y-88766225D01*
X136474231Y-88736753D01*
X136466761Y-88667284D01*
X136498035Y-88604805D01*
X136558123Y-88569151D01*
X136627948Y-88571644D01*
X136636218Y-88574728D01*
X136665959Y-88587047D01*
X136665963Y-88587047D01*
X136665964Y-88587048D01*
X136834134Y-88620500D01*
X136834137Y-88620500D01*
X137005613Y-88620500D01*
X137118755Y-88597993D01*
X137173789Y-88587047D01*
X137203503Y-88574738D01*
X137272970Y-88567269D01*
X137335450Y-88598542D01*
X137371104Y-88658630D01*
X137368611Y-88728456D01*
X137365518Y-88736751D01*
X137353305Y-88766234D01*
X137353305Y-88766237D01*
X137319874Y-88934307D01*
X137319874Y-89105692D01*
X137353305Y-89273762D01*
X137353307Y-89273770D01*
X137418890Y-89432100D01*
X137421025Y-89435294D01*
X137772230Y-89084089D01*
X137798496Y-89182114D01*
X137853790Y-89277886D01*
X137931988Y-89356084D01*
X138027760Y-89411378D01*
X138125783Y-89437643D01*
X137774578Y-89788847D01*
X137774578Y-89788848D01*
X137777772Y-89790982D01*
X137936103Y-89856566D01*
X137936111Y-89856568D01*
X138104181Y-89889999D01*
X138104185Y-89890000D01*
X138275563Y-89890000D01*
X138275566Y-89889999D01*
X138443636Y-89856568D01*
X138443644Y-89856566D01*
X138601972Y-89790984D01*
X138605169Y-89788847D01*
X138253964Y-89437642D01*
X138351988Y-89411378D01*
X138447760Y-89356084D01*
X138525958Y-89277886D01*
X138581252Y-89182114D01*
X138607516Y-89084090D01*
X138958721Y-89435295D01*
X138960858Y-89432098D01*
X139026440Y-89273770D01*
X139026442Y-89273762D01*
X139059873Y-89105692D01*
X139059874Y-89105689D01*
X139059874Y-88934311D01*
X139059873Y-88934307D01*
X139026442Y-88766237D01*
X139026440Y-88766229D01*
X138960856Y-88607898D01*
X138958721Y-88604704D01*
X138607516Y-88955908D01*
X138581252Y-88857886D01*
X138525958Y-88762114D01*
X138447760Y-88683916D01*
X138351988Y-88628622D01*
X138253962Y-88602356D01*
X138605168Y-88251151D01*
X138601974Y-88249016D01*
X138443644Y-88183433D01*
X138443636Y-88183431D01*
X138275566Y-88150000D01*
X138104181Y-88150000D01*
X137936111Y-88183431D01*
X137936108Y-88183431D01*
X137906625Y-88195644D01*
X137837155Y-88203112D01*
X137774676Y-88171836D01*
X137739024Y-88111747D01*
X137741519Y-88041922D01*
X137744604Y-88033649D01*
X137756921Y-88003915D01*
X137790374Y-87835737D01*
X137790374Y-87664263D01*
X137790374Y-87664260D01*
X137756922Y-87496090D01*
X137756921Y-87496089D01*
X137756921Y-87496085D01*
X137744611Y-87466367D01*
X137737143Y-87396902D01*
X137768417Y-87334422D01*
X137828506Y-87298769D01*
X137898331Y-87301262D01*
X137906627Y-87304357D01*
X137936099Y-87316565D01*
X137936111Y-87316568D01*
X138104181Y-87349999D01*
X138104185Y-87350000D01*
X138275563Y-87350000D01*
X138275566Y-87349999D01*
X138443636Y-87316568D01*
X138443644Y-87316566D01*
X138601972Y-87250984D01*
X138605169Y-87248847D01*
X138253963Y-86897643D01*
X138351988Y-86871378D01*
X138447760Y-86816084D01*
X138525958Y-86737886D01*
X138581252Y-86642114D01*
X138607516Y-86544090D01*
X138958721Y-86895295D01*
X138960858Y-86892098D01*
X139026440Y-86733770D01*
X139026442Y-86733762D01*
X139059873Y-86565692D01*
X139059874Y-86565689D01*
X139059874Y-86437399D01*
X141024500Y-86437399D01*
X141024500Y-86562601D01*
X141056905Y-86683536D01*
X141119505Y-86791964D01*
X141208036Y-86880495D01*
X141307501Y-86937920D01*
X141355715Y-86988484D01*
X141369500Y-87045306D01*
X141369500Y-87474882D01*
X141380418Y-87549818D01*
X141380418Y-87549819D01*
X141380419Y-87549821D01*
X141436921Y-87665399D01*
X141436923Y-87665401D01*
X141436924Y-87665402D01*
X141503182Y-87731660D01*
X141536666Y-87792981D01*
X141539500Y-87819340D01*
X141539500Y-88187259D01*
X141519815Y-88254298D01*
X141503181Y-88274940D01*
X141436923Y-88341197D01*
X141436921Y-88341200D01*
X141380419Y-88456778D01*
X141380418Y-88456780D01*
X141380418Y-88456782D01*
X141369500Y-88531718D01*
X141369500Y-88531723D01*
X141369500Y-88954693D01*
X141349815Y-89021732D01*
X141307499Y-89062080D01*
X141296012Y-89068713D01*
X141208037Y-89119504D01*
X141208034Y-89119506D01*
X141119506Y-89208034D01*
X141119504Y-89208037D01*
X141056905Y-89316463D01*
X141056905Y-89316464D01*
X141024500Y-89437399D01*
X141024500Y-89562601D01*
X141056905Y-89683536D01*
X141119505Y-89791964D01*
X141208036Y-89880495D01*
X141316464Y-89943095D01*
X141437399Y-89975500D01*
X141437401Y-89975500D01*
X141562599Y-89975500D01*
X141562601Y-89975500D01*
X141683536Y-89943095D01*
X141791964Y-89880495D01*
X141880495Y-89791964D01*
X141897044Y-89763300D01*
X143592676Y-89763300D01*
X143647336Y-89875110D01*
X143738189Y-89965963D01*
X143853625Y-90022396D01*
X143900000Y-90029152D01*
X143900000Y-89763300D01*
X143592676Y-89763300D01*
X141897044Y-89763300D01*
X141928950Y-89708036D01*
X141929780Y-89706599D01*
X141929780Y-89706598D01*
X141943095Y-89683536D01*
X141975500Y-89562601D01*
X141975500Y-89553168D01*
X141980540Y-89536255D01*
X141994396Y-89514882D01*
X142004702Y-89491586D01*
X142011672Y-89484008D01*
X142170469Y-89325212D01*
X142174813Y-89317686D01*
X142203942Y-89283500D01*
X142214966Y-89274530D01*
X142252102Y-89256376D01*
X142316810Y-89191667D01*
X142321741Y-89187656D01*
X142348334Y-89176493D01*
X142373642Y-89162675D01*
X142380149Y-89163140D01*
X142386166Y-89160615D01*
X142414567Y-89165601D01*
X142443334Y-89167659D01*
X142449743Y-89171777D01*
X142454983Y-89172698D01*
X142463736Y-89180771D01*
X142487681Y-89196160D01*
X142547897Y-89256376D01*
X142547900Y-89256378D01*
X142651256Y-89306905D01*
X142663482Y-89312882D01*
X142738418Y-89323800D01*
X142738423Y-89323800D01*
X143081577Y-89323800D01*
X143081582Y-89323800D01*
X143156518Y-89312882D01*
X143235029Y-89274500D01*
X143272099Y-89256378D01*
X143272102Y-89256376D01*
X143363076Y-89165402D01*
X143363078Y-89165399D01*
X143407127Y-89075294D01*
X143419582Y-89049818D01*
X143430500Y-88974882D01*
X143430500Y-88967800D01*
X143433050Y-88959114D01*
X143431762Y-88950153D01*
X143442740Y-88926112D01*
X143450185Y-88900761D01*
X143457025Y-88894833D01*
X143460787Y-88886597D01*
X143483021Y-88872307D01*
X143502989Y-88855006D01*
X143513503Y-88852718D01*
X143519565Y-88848823D01*
X143554500Y-88843800D01*
X143583959Y-88843800D01*
X143650998Y-88863485D01*
X143671640Y-88880119D01*
X143707492Y-88915971D01*
X143740977Y-88977294D01*
X143735993Y-89046986D01*
X143707493Y-89091333D01*
X143647335Y-89151491D01*
X143592676Y-89263300D01*
X144026000Y-89263300D01*
X144093039Y-89282985D01*
X144138794Y-89335789D01*
X144150000Y-89387300D01*
X144150000Y-89513300D01*
X144276000Y-89513300D01*
X144284685Y-89515850D01*
X144293647Y-89514562D01*
X144317687Y-89525540D01*
X144343039Y-89532985D01*
X144348966Y-89539825D01*
X144357203Y-89543587D01*
X144371492Y-89565821D01*
X144388794Y-89585789D01*
X144391081Y-89596303D01*
X144394977Y-89602365D01*
X144400000Y-89637300D01*
X144400000Y-89661227D01*
X144383388Y-89723226D01*
X144329058Y-89817329D01*
X144318544Y-89856568D01*
X144296653Y-89938265D01*
X144296653Y-90063467D01*
X144329058Y-90184402D01*
X144391658Y-90292830D01*
X144480189Y-90381361D01*
X144588617Y-90443961D01*
X144709552Y-90476366D01*
X144709554Y-90476366D01*
X144834752Y-90476366D01*
X144834754Y-90476366D01*
X144955689Y-90443961D01*
X145064117Y-90381361D01*
X145152648Y-90292830D01*
X145215248Y-90184402D01*
X145247653Y-90063467D01*
X145247653Y-90063465D01*
X145249756Y-90055617D01*
X145252678Y-90056400D01*
X145275105Y-90005687D01*
X145333425Y-89967209D01*
X145401881Y-89965983D01*
X145437399Y-89975500D01*
X145437400Y-89975500D01*
X145562599Y-89975500D01*
X145562601Y-89975500D01*
X145683536Y-89943095D01*
X145791964Y-89880495D01*
X145880495Y-89791964D01*
X145943095Y-89683536D01*
X145975500Y-89562601D01*
X145975500Y-89437399D01*
X145943095Y-89316464D01*
X145880495Y-89208036D01*
X145791964Y-89119505D01*
X145683536Y-89056905D01*
X145683537Y-89056905D01*
X145643224Y-89046103D01*
X145562601Y-89024500D01*
X145437399Y-89024500D01*
X145379012Y-89040145D01*
X145316462Y-89056905D01*
X145316459Y-89056907D01*
X145284956Y-89075095D01*
X145217056Y-89091566D01*
X145151029Y-89068713D01*
X145107840Y-89013791D01*
X145103188Y-88999817D01*
X145097614Y-88979012D01*
X145065499Y-88923387D01*
X145051472Y-88899091D01*
X145051468Y-88899086D01*
X144792105Y-88639723D01*
X144758620Y-88578400D01*
X144763604Y-88508708D01*
X144805476Y-88452775D01*
X144870940Y-88428358D01*
X144879786Y-88428042D01*
X144897689Y-88428042D01*
X144897691Y-88428042D01*
X145018626Y-88395637D01*
X145127054Y-88333037D01*
X145215585Y-88244506D01*
X145278185Y-88136078D01*
X145310590Y-88015143D01*
X145310590Y-87889941D01*
X145278185Y-87769006D01*
X145215585Y-87660578D01*
X145127054Y-87572047D01*
X145018626Y-87509447D01*
X145018627Y-87509447D01*
X144968759Y-87496085D01*
X144897691Y-87477042D01*
X144844500Y-87477042D01*
X144777461Y-87457357D01*
X144731706Y-87404553D01*
X144720500Y-87353042D01*
X144720500Y-87341723D01*
X144720500Y-87341718D01*
X144709582Y-87266782D01*
X144700814Y-87248847D01*
X144653078Y-87151200D01*
X144653076Y-87151197D01*
X144592507Y-87090628D01*
X144559022Y-87029305D01*
X144564006Y-86959613D01*
X144592507Y-86915265D01*
X144652664Y-86855108D01*
X144707324Y-86743300D01*
X143592676Y-86743300D01*
X143588145Y-86750557D01*
X143589549Y-86760320D01*
X143595165Y-86793214D01*
X143594502Y-86794770D01*
X143594744Y-86796447D01*
X143580877Y-86826809D01*
X143567822Y-86857510D01*
X143566422Y-86858462D01*
X143565719Y-86860003D01*
X143537630Y-86878054D01*
X143510057Y-86896817D01*
X143507909Y-86897154D01*
X143506941Y-86897777D01*
X143472006Y-86902800D01*
X143470596Y-86902800D01*
X143403557Y-86883115D01*
X143371884Y-86847529D01*
X143369044Y-86849557D01*
X143363074Y-86841195D01*
X143272102Y-86750223D01*
X143272099Y-86750221D01*
X143156521Y-86693719D01*
X143156519Y-86693718D01*
X143156518Y-86693718D01*
X143113147Y-86687399D01*
X145024500Y-86687399D01*
X145024500Y-86812601D01*
X145056905Y-86933536D01*
X145119505Y-87041964D01*
X145208036Y-87130495D01*
X145316464Y-87193095D01*
X145437399Y-87225500D01*
X145437401Y-87225500D01*
X145562599Y-87225500D01*
X145562601Y-87225500D01*
X145683536Y-87193095D01*
X145791964Y-87130495D01*
X145880495Y-87041964D01*
X145943095Y-86933536D01*
X145975500Y-86812601D01*
X145975500Y-86687399D01*
X145943095Y-86566464D01*
X145880495Y-86458036D01*
X145791964Y-86369505D01*
X145683536Y-86306905D01*
X145683537Y-86306905D01*
X145643224Y-86296103D01*
X145562601Y-86274500D01*
X145437399Y-86274500D01*
X145356775Y-86296103D01*
X145316463Y-86306905D01*
X145208037Y-86369504D01*
X145208034Y-86369506D01*
X145119506Y-86458034D01*
X145119504Y-86458037D01*
X145056905Y-86566463D01*
X145045365Y-86609531D01*
X145024500Y-86687399D01*
X143113147Y-86687399D01*
X143081582Y-86682800D01*
X142738418Y-86682800D01*
X142663482Y-86693718D01*
X142663480Y-86693718D01*
X142663478Y-86693719D01*
X142547900Y-86750221D01*
X142547897Y-86750223D01*
X142487681Y-86810440D01*
X142484890Y-86811963D01*
X142483230Y-86814676D01*
X142454427Y-86828598D01*
X142426358Y-86843925D01*
X142423186Y-86843698D01*
X142420324Y-86845082D01*
X142388570Y-86841222D01*
X142356666Y-86838941D01*
X142353174Y-86836920D01*
X142350965Y-86836652D01*
X142340821Y-86829771D01*
X142320864Y-86818223D01*
X142316402Y-86814524D01*
X142252102Y-86750224D01*
X142219764Y-86734414D01*
X142208374Y-86724973D01*
X142196781Y-86707773D01*
X142181467Y-86693781D01*
X142180122Y-86691508D01*
X142177750Y-86687399D01*
X142170469Y-86674788D01*
X142105212Y-86609531D01*
X142011694Y-86516012D01*
X141978210Y-86454688D01*
X141976437Y-86444517D01*
X141975500Y-86437401D01*
X141975500Y-86437400D01*
X141975500Y-86437399D01*
X141943095Y-86316464D01*
X141900854Y-86243300D01*
X143592676Y-86243300D01*
X143900000Y-86243300D01*
X144400000Y-86243300D01*
X144707323Y-86243300D01*
X144652663Y-86131489D01*
X144561810Y-86040636D01*
X144446373Y-85984203D01*
X144446370Y-85984201D01*
X144400000Y-85977445D01*
X144400000Y-86243300D01*
X143900000Y-86243300D01*
X143900000Y-85977447D01*
X143853625Y-85984203D01*
X143738189Y-86040636D01*
X143647336Y-86131489D01*
X143592676Y-86243300D01*
X141900854Y-86243300D01*
X141880495Y-86208036D01*
X141791964Y-86119505D01*
X141683536Y-86056905D01*
X141683537Y-86056905D01*
X141622820Y-86040636D01*
X141562601Y-86024500D01*
X141437399Y-86024500D01*
X141377180Y-86040636D01*
X141316463Y-86056905D01*
X141208037Y-86119504D01*
X141208034Y-86119506D01*
X141119506Y-86208034D01*
X141119504Y-86208037D01*
X141056905Y-86316463D01*
X141056905Y-86316464D01*
X141024500Y-86437399D01*
X139059874Y-86437399D01*
X139059874Y-86394311D01*
X139059873Y-86394307D01*
X139026442Y-86226237D01*
X139026440Y-86226229D01*
X138960856Y-86067898D01*
X138958721Y-86064704D01*
X138607516Y-86415908D01*
X138581252Y-86317886D01*
X138525958Y-86222114D01*
X138447760Y-86143916D01*
X138351988Y-86088622D01*
X138253963Y-86062356D01*
X138605168Y-85711151D01*
X138601974Y-85709016D01*
X138443644Y-85643433D01*
X138443636Y-85643431D01*
X138275566Y-85610000D01*
X138104181Y-85610000D01*
X137936111Y-85643431D01*
X137936103Y-85643433D01*
X137777770Y-85709017D01*
X137774578Y-85711150D01*
X138125784Y-86062356D01*
X138027760Y-86088622D01*
X137931988Y-86143916D01*
X137853790Y-86222114D01*
X137798496Y-86317886D01*
X137772230Y-86415910D01*
X137421024Y-86064704D01*
X137418891Y-86067896D01*
X137353307Y-86226229D01*
X137353305Y-86226237D01*
X137319874Y-86394307D01*
X137319874Y-86565692D01*
X137353305Y-86733762D01*
X137353307Y-86733770D01*
X137365517Y-86763247D01*
X137372986Y-86832716D01*
X137341711Y-86895196D01*
X137281622Y-86930848D01*
X137211797Y-86928354D01*
X137203504Y-86925261D01*
X137173793Y-86912954D01*
X137173783Y-86912951D01*
X137005613Y-86879500D01*
X137005611Y-86879500D01*
X136834137Y-86879500D01*
X136834135Y-86879500D01*
X136665964Y-86912951D01*
X136665959Y-86912953D01*
X136636242Y-86925262D01*
X136566773Y-86932729D01*
X136504294Y-86901454D01*
X136468642Y-86841364D01*
X136471137Y-86771539D01*
X136474231Y-86763244D01*
X136486441Y-86733766D01*
X136486442Y-86733762D01*
X136519873Y-86565692D01*
X136519874Y-86565689D01*
X136519874Y-86394311D01*
X136519873Y-86394307D01*
X136486442Y-86226237D01*
X136486440Y-86226229D01*
X136420856Y-86067898D01*
X136418721Y-86064704D01*
X136067516Y-86415908D01*
X136041252Y-86317886D01*
X135985958Y-86222114D01*
X135907760Y-86143916D01*
X135811988Y-86088622D01*
X135713963Y-86062356D01*
X136065168Y-85711151D01*
X136061974Y-85709016D01*
X135903644Y-85643433D01*
X135903636Y-85643431D01*
X135735566Y-85610000D01*
X135564181Y-85610000D01*
X135396111Y-85643431D01*
X135396103Y-85643433D01*
X135237777Y-85709014D01*
X135237767Y-85709019D01*
X135193391Y-85738671D01*
X135126713Y-85759549D01*
X135059333Y-85741064D01*
X135012643Y-85689085D01*
X135000500Y-85635569D01*
X135000500Y-83811485D01*
X135020185Y-83744446D01*
X135072989Y-83698691D01*
X135142147Y-83688747D01*
X135199987Y-83713110D01*
X135302672Y-83791904D01*
X135302676Y-83791906D01*
X135302683Y-83791912D01*
X135302690Y-83791916D01*
X135546809Y-83932859D01*
X135546814Y-83932861D01*
X135546817Y-83932863D01*
X135807261Y-84040742D01*
X136079558Y-84113704D01*
X136359049Y-84150500D01*
X136359056Y-84150500D01*
X136640944Y-84150500D01*
X136640951Y-84150500D01*
X136920442Y-84113704D01*
X137192739Y-84040742D01*
X137453183Y-83932863D01*
X137697317Y-83791912D01*
X137920965Y-83620300D01*
X138120300Y-83420965D01*
X138291912Y-83197317D01*
X138432863Y-82953183D01*
X138460995Y-82885266D01*
X138460998Y-82885258D01*
X156499500Y-82885258D01*
X156499500Y-83114741D01*
X156510371Y-83197309D01*
X156529452Y-83342238D01*
X156588842Y-83563887D01*
X156676650Y-83775876D01*
X156676657Y-83775890D01*
X156791392Y-83974617D01*
X156931081Y-84156661D01*
X156931089Y-84156670D01*
X157093330Y-84318911D01*
X157093338Y-84318918D01*
X157275382Y-84458607D01*
X157275385Y-84458608D01*
X157275388Y-84458611D01*
X157474112Y-84573344D01*
X157474117Y-84573346D01*
X157474123Y-84573349D01*
X157565480Y-84611190D01*
X157686113Y-84661158D01*
X157907762Y-84720548D01*
X158135266Y-84750500D01*
X158135273Y-84750500D01*
X158364727Y-84750500D01*
X158364734Y-84750500D01*
X158592238Y-84720548D01*
X158813887Y-84661158D01*
X159025888Y-84573344D01*
X159224612Y-84458611D01*
X159406661Y-84318919D01*
X159406665Y-84318914D01*
X159406670Y-84318911D01*
X159568911Y-84156670D01*
X159568914Y-84156665D01*
X159568919Y-84156661D01*
X159708611Y-83974612D01*
X159823344Y-83775888D01*
X159911158Y-83563887D01*
X159970548Y-83342238D01*
X160000500Y-83114734D01*
X160000500Y-82885266D01*
X159970548Y-82657762D01*
X159911158Y-82436113D01*
X159823344Y-82224112D01*
X159708611Y-82025388D01*
X159708608Y-82025385D01*
X159708607Y-82025382D01*
X159580974Y-81859049D01*
X159568919Y-81843339D01*
X159568918Y-81843338D01*
X159568911Y-81843330D01*
X159406670Y-81681089D01*
X159406661Y-81681081D01*
X159224617Y-81541392D01*
X159025890Y-81426657D01*
X159025876Y-81426650D01*
X158813887Y-81338842D01*
X158592238Y-81279452D01*
X158554215Y-81274446D01*
X158364741Y-81249500D01*
X158364734Y-81249500D01*
X158135266Y-81249500D01*
X158135258Y-81249500D01*
X157918715Y-81278009D01*
X157907762Y-81279452D01*
X157814076Y-81304554D01*
X157686112Y-81338842D01*
X157474123Y-81426650D01*
X157474109Y-81426657D01*
X157275382Y-81541392D01*
X157093338Y-81681081D01*
X156931081Y-81843338D01*
X156791392Y-82025382D01*
X156676657Y-82224109D01*
X156676650Y-82224123D01*
X156588842Y-82436112D01*
X156529453Y-82657759D01*
X156529451Y-82657770D01*
X156499500Y-82885258D01*
X138460998Y-82885258D01*
X138482332Y-82833755D01*
X138482332Y-82833754D01*
X138540740Y-82692743D01*
X138540742Y-82692739D01*
X138613704Y-82420442D01*
X138650500Y-82140951D01*
X138650500Y-81859049D01*
X138613704Y-81579558D01*
X138540742Y-81307261D01*
X138432863Y-81046817D01*
X138432861Y-81046814D01*
X138432859Y-81046809D01*
X138291916Y-80802690D01*
X138291912Y-80802683D01*
X138280777Y-80788171D01*
X138213110Y-80699986D01*
X138187916Y-80634817D01*
X138201954Y-80566372D01*
X138250768Y-80516383D01*
X138311486Y-80500500D01*
X161688514Y-80500500D01*
X161702137Y-80504500D01*
G37*
%TD.AperFunction*%
%TA.AperFunction,Conductor*%
G36*
X147649786Y-107606940D02*
G01*
X147672571Y-107608843D01*
X147690433Y-107618875D01*
X147694893Y-107620185D01*
X147703343Y-107626126D01*
X147709032Y-107630491D01*
X147709036Y-107630495D01*
X147817464Y-107693095D01*
X147938399Y-107725500D01*
X147938401Y-107725500D01*
X148051500Y-107725500D01*
X148118539Y-107745185D01*
X148164294Y-107797989D01*
X148175500Y-107849500D01*
X148175500Y-111771333D01*
X148155815Y-111838372D01*
X148139181Y-111859014D01*
X147985535Y-112012659D01*
X147985533Y-112012662D01*
X147942023Y-112088024D01*
X147942023Y-112088025D01*
X147919500Y-112172082D01*
X147919500Y-112356679D01*
X147899815Y-112423718D01*
X147883181Y-112444360D01*
X147869506Y-112458034D01*
X147869504Y-112458037D01*
X147806905Y-112566463D01*
X147801268Y-112587500D01*
X147774500Y-112687399D01*
X147774500Y-112812601D01*
X147806905Y-112933536D01*
X147868799Y-113040742D01*
X147869504Y-113041962D01*
X147869506Y-113041965D01*
X147883181Y-113055640D01*
X147916666Y-113116963D01*
X147919500Y-113143321D01*
X147919500Y-113990896D01*
X147919500Y-114077918D01*
X147942023Y-114161975D01*
X147985279Y-114236898D01*
X147985533Y-114237337D01*
X147985535Y-114237340D01*
X148233181Y-114484986D01*
X148247884Y-114511913D01*
X148264477Y-114537732D01*
X148265368Y-114543932D01*
X148266666Y-114546309D01*
X148269500Y-114572667D01*
X148269500Y-114682400D01*
X148249815Y-114749439D01*
X148197011Y-114795194D01*
X148145500Y-114806400D01*
X148111825Y-114806400D01*
X148026784Y-114823316D01*
X148026052Y-114819636D01*
X147977958Y-114824797D01*
X147972279Y-114823129D01*
X147888175Y-114806400D01*
X147888173Y-114806400D01*
X147711825Y-114806400D01*
X147711820Y-114806400D01*
X147634263Y-114821827D01*
X147585881Y-114821827D01*
X147527478Y-114810210D01*
X147527474Y-114810210D01*
X147331403Y-114810210D01*
X147264364Y-114790525D01*
X147218609Y-114737721D01*
X147208665Y-114668563D01*
X147234989Y-114610921D01*
X147234120Y-114610290D01*
X147237236Y-114606000D01*
X147237690Y-114605007D01*
X147238909Y-114603697D01*
X147239851Y-114602398D01*
X147239859Y-114602391D01*
X147296017Y-114492175D01*
X147296017Y-114492173D01*
X147296018Y-114492172D01*
X147296018Y-114492171D01*
X147300846Y-114461686D01*
X147310500Y-114400735D01*
X147310499Y-114059266D01*
X147310499Y-114059265D01*
X147310499Y-114059260D01*
X147296018Y-113967829D01*
X147296018Y-113967828D01*
X147296017Y-113967826D01*
X147296017Y-113967825D01*
X147239859Y-113857609D01*
X147219576Y-113837326D01*
X147186092Y-113776006D01*
X147191075Y-113706315D01*
X147219578Y-113661963D01*
X147239448Y-113642093D01*
X147239449Y-113642091D01*
X147295533Y-113532022D01*
X147295534Y-113532019D01*
X147297438Y-113520000D01*
X146271050Y-113520000D01*
X146233584Y-113557466D01*
X146233585Y-113557467D01*
X146053553Y-113737500D01*
X146053553Y-113737501D01*
X146170230Y-113854178D01*
X146203715Y-113915501D01*
X146205023Y-113961256D01*
X146203982Y-113967829D01*
X146189500Y-114059265D01*
X146189500Y-114059269D01*
X146189500Y-114059270D01*
X146189500Y-114400739D01*
X146203981Y-114492170D01*
X146203981Y-114492171D01*
X146203982Y-114492174D01*
X146203983Y-114492175D01*
X146260141Y-114602391D01*
X146347609Y-114689859D01*
X146347616Y-114689862D01*
X146348379Y-114690417D01*
X146349090Y-114691339D01*
X146353159Y-114695408D01*
X146356703Y-114697027D01*
X146372830Y-114722122D01*
X146391048Y-114745744D01*
X146392302Y-114752420D01*
X146394477Y-114755805D01*
X146399500Y-114790740D01*
X146399500Y-114898154D01*
X146379815Y-114965193D01*
X146363181Y-114985835D01*
X146239705Y-115109310D01*
X146239696Y-115109322D01*
X146100528Y-115248490D01*
X145836941Y-115512077D01*
X145775618Y-115545562D01*
X145749260Y-115548396D01*
X145731051Y-115548396D01*
X145650427Y-115569999D01*
X145610115Y-115580801D01*
X145501689Y-115643400D01*
X145501686Y-115643402D01*
X145413158Y-115731930D01*
X145413152Y-115731938D01*
X145395259Y-115762931D01*
X145386307Y-115771466D01*
X145381102Y-115782688D01*
X145361496Y-115795124D01*
X145344693Y-115811147D01*
X145331110Y-115814399D01*
X145322102Y-115820114D01*
X145287138Y-115824930D01*
X145282938Y-115824905D01*
X145266539Y-115824807D01*
X145199618Y-115804727D01*
X145154177Y-115751652D01*
X145147499Y-115732901D01*
X145147241Y-115731938D01*
X145143095Y-115716464D01*
X145080495Y-115608036D01*
X144991964Y-115519505D01*
X144883536Y-115456905D01*
X144883531Y-115456903D01*
X144872405Y-115453922D01*
X144812745Y-115417556D01*
X144782217Y-115354709D01*
X144780500Y-115334148D01*
X144780500Y-115028423D01*
X144780500Y-115028418D01*
X144769582Y-114953482D01*
X144755902Y-114925499D01*
X144713078Y-114837900D01*
X144713076Y-114837897D01*
X144622102Y-114746923D01*
X144622099Y-114746921D01*
X144506521Y-114690419D01*
X144506519Y-114690418D01*
X144506518Y-114690418D01*
X144431582Y-114679500D01*
X144431577Y-114679500D01*
X144236544Y-114679500D01*
X144169505Y-114659815D01*
X144148863Y-114643181D01*
X143858209Y-114352527D01*
X143852456Y-114341991D01*
X143843199Y-114334348D01*
X143836020Y-114311892D01*
X143824724Y-114291204D01*
X143825048Y-114277567D01*
X143821925Y-114267796D01*
X143826115Y-114232752D01*
X143829408Y-114220461D01*
X144570590Y-114220461D01*
X144634176Y-114237500D01*
X144765825Y-114237500D01*
X144765828Y-114237499D01*
X144829408Y-114220462D01*
X144829409Y-114220461D01*
X145570590Y-114220461D01*
X145634176Y-114237500D01*
X145765825Y-114237500D01*
X145765828Y-114237499D01*
X145829408Y-114220462D01*
X145829409Y-114220461D01*
X145700001Y-114091053D01*
X145570590Y-114220461D01*
X144829409Y-114220461D01*
X144700001Y-114091053D01*
X144570590Y-114220461D01*
X143829408Y-114220461D01*
X143829408Y-114220460D01*
X143610904Y-114001957D01*
X143577419Y-113940634D01*
X143582403Y-113870943D01*
X143597624Y-113847256D01*
X143615032Y-113864664D01*
X143670163Y-113887500D01*
X143729837Y-113887500D01*
X143784968Y-113864664D01*
X143827164Y-113822468D01*
X143850000Y-113767337D01*
X143850000Y-113737500D01*
X144053553Y-113737500D01*
X144053553Y-113737501D01*
X144186995Y-113870943D01*
X144213003Y-113870943D01*
X144346446Y-113737500D01*
X144316609Y-113707663D01*
X144550000Y-113707663D01*
X144550000Y-113767337D01*
X144572836Y-113822468D01*
X144615032Y-113864664D01*
X144670163Y-113887500D01*
X144729837Y-113887500D01*
X144784968Y-113864664D01*
X144827164Y-113822468D01*
X144850000Y-113767337D01*
X144850000Y-113737500D01*
X145053553Y-113737500D01*
X145053553Y-113737501D01*
X145186995Y-113870943D01*
X145213003Y-113870943D01*
X145346446Y-113737500D01*
X145316609Y-113707663D01*
X145550000Y-113707663D01*
X145550000Y-113767337D01*
X145572836Y-113822468D01*
X145615032Y-113864664D01*
X145670163Y-113887500D01*
X145729837Y-113887500D01*
X145784968Y-113864664D01*
X145827164Y-113822468D01*
X145850000Y-113767337D01*
X145850000Y-113707663D01*
X145827164Y-113652532D01*
X145784968Y-113610336D01*
X145729837Y-113587500D01*
X145670163Y-113587500D01*
X145615032Y-113610336D01*
X145572836Y-113652532D01*
X145550000Y-113707663D01*
X145316609Y-113707663D01*
X145213003Y-113604056D01*
X145186996Y-113604056D01*
X145053553Y-113737500D01*
X144850000Y-113737500D01*
X144850000Y-113707663D01*
X144827164Y-113652532D01*
X144784968Y-113610336D01*
X144729837Y-113587500D01*
X144670163Y-113587500D01*
X144615032Y-113610336D01*
X144572836Y-113652532D01*
X144550000Y-113707663D01*
X144316609Y-113707663D01*
X144213003Y-113604056D01*
X144186996Y-113604056D01*
X144053553Y-113737500D01*
X143850000Y-113737500D01*
X143850000Y-113707663D01*
X143827164Y-113652532D01*
X143784968Y-113610336D01*
X143729837Y-113587500D01*
X143670163Y-113587500D01*
X143615032Y-113610336D01*
X143598916Y-113626451D01*
X143577419Y-113587081D01*
X143582403Y-113517389D01*
X143610904Y-113473042D01*
X143832703Y-113251242D01*
X143829253Y-113240450D01*
X143831160Y-113224496D01*
X144566556Y-113224496D01*
X144566556Y-113250502D01*
X144700000Y-113383946D01*
X144832703Y-113251242D01*
X144829253Y-113240448D01*
X144831160Y-113224495D01*
X145566556Y-113224495D01*
X145566556Y-113250502D01*
X145700000Y-113383946D01*
X145880027Y-113203918D01*
X145880033Y-113203911D01*
X145903829Y-113180116D01*
X145965152Y-113146632D01*
X145993399Y-113145455D01*
X146007004Y-113137600D01*
X146007005Y-113137600D01*
X146077440Y-113067165D01*
X146078155Y-113067880D01*
X146098899Y-113042141D01*
X146165193Y-113020079D01*
X146169615Y-113020000D01*
X146500000Y-113020000D01*
X147000000Y-113020000D01*
X147297438Y-113020000D01*
X147295535Y-113007983D01*
X147239447Y-112897906D01*
X147239444Y-112897901D01*
X147152098Y-112810555D01*
X147152093Y-112810551D01*
X147042018Y-112754465D01*
X147000000Y-112747809D01*
X147000000Y-113020000D01*
X146500000Y-113020000D01*
X146500000Y-112747809D01*
X146499999Y-112747809D01*
X146457984Y-112754463D01*
X146457980Y-112754464D01*
X146380294Y-112794048D01*
X146311625Y-112806944D01*
X146246885Y-112780667D01*
X146206628Y-112723561D01*
X146200000Y-112683563D01*
X146200000Y-112671675D01*
X146182961Y-112608089D01*
X145876777Y-112914276D01*
X145566556Y-113224495D01*
X144831160Y-113224495D01*
X144831404Y-113222456D01*
X144700001Y-113091053D01*
X144566556Y-113224496D01*
X143831160Y-113224496D01*
X143831404Y-113222456D01*
X143610904Y-113001957D01*
X143577419Y-112940634D01*
X143582403Y-112870943D01*
X143597624Y-112847256D01*
X143615032Y-112864664D01*
X143670163Y-112887500D01*
X143729837Y-112887500D01*
X143784968Y-112864664D01*
X143827164Y-112822468D01*
X143850000Y-112767337D01*
X143850000Y-112737500D01*
X144053553Y-112737500D01*
X144053553Y-112737501D01*
X144186995Y-112870943D01*
X144213003Y-112870943D01*
X144346446Y-112737500D01*
X144316609Y-112707663D01*
X144550000Y-112707663D01*
X144550000Y-112767337D01*
X144572836Y-112822468D01*
X144615032Y-112864664D01*
X144670163Y-112887500D01*
X144729837Y-112887500D01*
X144784968Y-112864664D01*
X144827164Y-112822468D01*
X144850000Y-112767337D01*
X144850000Y-112737500D01*
X145053553Y-112737500D01*
X145053553Y-112737501D01*
X145186995Y-112870943D01*
X145213003Y-112870943D01*
X145346446Y-112737500D01*
X145316609Y-112707663D01*
X145550000Y-112707663D01*
X145550000Y-112767337D01*
X145572836Y-112822468D01*
X145615032Y-112864664D01*
X145670163Y-112887500D01*
X145729837Y-112887500D01*
X145784968Y-112864664D01*
X145827164Y-112822468D01*
X145850000Y-112767337D01*
X145850000Y-112707663D01*
X145827164Y-112652532D01*
X145784968Y-112610336D01*
X145729837Y-112587500D01*
X145670163Y-112587500D01*
X145615032Y-112610336D01*
X145572836Y-112652532D01*
X145550000Y-112707663D01*
X145316609Y-112707663D01*
X145213003Y-112604056D01*
X145186996Y-112604056D01*
X145053553Y-112737500D01*
X144850000Y-112737500D01*
X144850000Y-112707663D01*
X144827164Y-112652532D01*
X144784968Y-112610336D01*
X144729837Y-112587500D01*
X144670163Y-112587500D01*
X144615032Y-112610336D01*
X144572836Y-112652532D01*
X144550000Y-112707663D01*
X144316609Y-112707663D01*
X144213003Y-112604056D01*
X144186996Y-112604056D01*
X144053553Y-112737500D01*
X143850000Y-112737500D01*
X143850000Y-112707663D01*
X143827164Y-112652532D01*
X143784968Y-112610336D01*
X143729837Y-112587500D01*
X143670163Y-112587500D01*
X143615032Y-112610336D01*
X143598916Y-112626451D01*
X143577419Y-112587081D01*
X143582403Y-112517389D01*
X143610904Y-112473042D01*
X143832703Y-112251242D01*
X143829253Y-112240450D01*
X143831160Y-112224496D01*
X144566556Y-112224496D01*
X144566556Y-112250502D01*
X144700000Y-112383946D01*
X144832703Y-112251242D01*
X144829253Y-112240448D01*
X144831160Y-112224496D01*
X145566556Y-112224496D01*
X145566556Y-112250502D01*
X145700000Y-112383946D01*
X145833443Y-112250503D01*
X145833443Y-112224495D01*
X145700001Y-112091053D01*
X145566556Y-112224496D01*
X144831160Y-112224496D01*
X144831404Y-112222456D01*
X144700001Y-112091053D01*
X144566556Y-112224496D01*
X143831160Y-112224496D01*
X143831404Y-112222456D01*
X143610904Y-112001957D01*
X143577419Y-111940634D01*
X143582403Y-111870943D01*
X143597624Y-111847256D01*
X143615032Y-111864664D01*
X143670163Y-111887500D01*
X143729837Y-111887500D01*
X143784968Y-111864664D01*
X143827164Y-111822468D01*
X143850000Y-111767337D01*
X143850000Y-111737500D01*
X144053553Y-111737500D01*
X144053553Y-111737501D01*
X144186995Y-111870943D01*
X144213003Y-111870943D01*
X144346446Y-111737500D01*
X144316609Y-111707663D01*
X144550000Y-111707663D01*
X144550000Y-111767337D01*
X144572836Y-111822468D01*
X144615032Y-111864664D01*
X144670163Y-111887500D01*
X144729837Y-111887500D01*
X144784968Y-111864664D01*
X144827164Y-111822468D01*
X144850000Y-111767337D01*
X144850000Y-111737500D01*
X145053553Y-111737500D01*
X145053553Y-111737501D01*
X145186995Y-111870943D01*
X145213003Y-111870943D01*
X145346446Y-111737500D01*
X145316609Y-111707663D01*
X145550000Y-111707663D01*
X145550000Y-111767337D01*
X145572836Y-111822468D01*
X145615032Y-111864664D01*
X145670163Y-111887500D01*
X145729837Y-111887500D01*
X145784968Y-111864664D01*
X145827164Y-111822468D01*
X145850000Y-111767337D01*
X145850000Y-111737500D01*
X146053553Y-111737500D01*
X146053553Y-111737501D01*
X146182961Y-111866909D01*
X146182962Y-111866908D01*
X146199999Y-111803328D01*
X146200000Y-111803325D01*
X146200000Y-111671675D01*
X146182961Y-111608090D01*
X146053553Y-111737500D01*
X145850000Y-111737500D01*
X145850000Y-111707663D01*
X145827164Y-111652532D01*
X145784968Y-111610336D01*
X145729837Y-111587500D01*
X145670163Y-111587500D01*
X145615032Y-111610336D01*
X145572836Y-111652532D01*
X145550000Y-111707663D01*
X145316609Y-111707663D01*
X145213003Y-111604056D01*
X145186996Y-111604056D01*
X145053553Y-111737500D01*
X144850000Y-111737500D01*
X144850000Y-111707663D01*
X144827164Y-111652532D01*
X144784968Y-111610336D01*
X144729837Y-111587500D01*
X144670163Y-111587500D01*
X144615032Y-111610336D01*
X144572836Y-111652532D01*
X144550000Y-111707663D01*
X144316609Y-111707663D01*
X144213003Y-111604056D01*
X144186996Y-111604056D01*
X144053553Y-111737500D01*
X143850000Y-111737500D01*
X143850000Y-111707663D01*
X143827164Y-111652532D01*
X143784968Y-111610336D01*
X143729837Y-111587500D01*
X143670163Y-111587500D01*
X143615032Y-111610336D01*
X143598916Y-111626451D01*
X143577419Y-111587081D01*
X143582403Y-111517389D01*
X143610904Y-111473042D01*
X143829408Y-111254537D01*
X144570590Y-111254537D01*
X144700000Y-111383946D01*
X144829409Y-111254537D01*
X145570590Y-111254537D01*
X145700000Y-111383946D01*
X145829409Y-111254536D01*
X145805639Y-111248167D01*
X145627201Y-111239368D01*
X145570590Y-111254537D01*
X144829409Y-111254537D01*
X144765825Y-111237500D01*
X144634174Y-111237500D01*
X144570590Y-111254537D01*
X143829408Y-111254537D01*
X143829409Y-111254536D01*
X143765825Y-111237500D01*
X143634176Y-111237500D01*
X143506594Y-111271686D01*
X143436744Y-111270023D01*
X143378882Y-111230861D01*
X143351377Y-111166633D01*
X143350500Y-111151911D01*
X143350500Y-110760000D01*
X145442676Y-110760000D01*
X145497336Y-110871810D01*
X145588189Y-110962663D01*
X145648430Y-110992113D01*
X145750000Y-110997121D01*
X145750000Y-110760000D01*
X145442676Y-110760000D01*
X143350500Y-110760000D01*
X143350500Y-110276455D01*
X143370185Y-110209416D01*
X143422989Y-110163661D01*
X143492147Y-110153717D01*
X143540659Y-110173407D01*
X143540760Y-110173210D01*
X143543056Y-110174380D01*
X143547385Y-110176137D01*
X143549452Y-110177638D01*
X143662355Y-110235166D01*
X143756014Y-110249999D01*
X144124999Y-110249999D01*
X144125000Y-110249998D01*
X144125000Y-109209707D01*
X144141612Y-109147708D01*
X144193095Y-109058536D01*
X144225500Y-108937601D01*
X144225500Y-108812399D01*
X144193095Y-108691464D01*
X144130495Y-108583036D01*
X144109639Y-108562180D01*
X144076154Y-108500857D01*
X144081138Y-108431165D01*
X144123010Y-108375232D01*
X144188474Y-108350815D01*
X144197303Y-108350499D01*
X144803455Y-108350499D01*
X144870494Y-108370184D01*
X144891136Y-108386818D01*
X145034788Y-108530470D01*
X145090441Y-108562601D01*
X145090443Y-108562602D01*
X145114709Y-108576613D01*
X145114711Y-108576613D01*
X145114712Y-108576614D01*
X145203856Y-108600500D01*
X145423960Y-108600500D01*
X145451824Y-108608682D01*
X145480368Y-108614073D01*
X145487263Y-108619088D01*
X145490999Y-108620185D01*
X145509194Y-108634438D01*
X145510425Y-108635603D01*
X145587898Y-108713076D01*
X145596976Y-108717514D01*
X145610734Y-108730534D01*
X145619166Y-108745014D01*
X145631538Y-108756316D01*
X145636879Y-108775432D01*
X145645894Y-108790912D01*
X145645257Y-108805413D01*
X145649500Y-108820596D01*
X145649500Y-108929404D01*
X145629815Y-108996443D01*
X145594229Y-109028115D01*
X145596257Y-109030956D01*
X145587895Y-109036926D01*
X145496923Y-109127897D01*
X145496923Y-109127898D01*
X145444867Y-109234379D01*
X145397739Y-109285961D01*
X145330205Y-109303875D01*
X145263706Y-109282434D01*
X145245786Y-109267599D01*
X145200550Y-109222363D01*
X145200546Y-109222360D01*
X145087644Y-109164833D01*
X144993986Y-109150000D01*
X144625000Y-109150000D01*
X144625000Y-110249999D01*
X144993979Y-110249999D01*
X145087649Y-110235164D01*
X145087655Y-110235162D01*
X145200541Y-110177643D01*
X145200545Y-110177639D01*
X145227587Y-110150598D01*
X145288910Y-110117112D01*
X145358602Y-110122096D01*
X145414536Y-110163966D01*
X145438954Y-110229430D01*
X145435311Y-110248203D01*
X145442676Y-110260000D01*
X145876000Y-110260000D01*
X145943039Y-110279685D01*
X145988794Y-110332489D01*
X146000000Y-110384000D01*
X146000000Y-110510000D01*
X146126000Y-110510000D01*
X146134685Y-110512550D01*
X146143647Y-110511262D01*
X146167687Y-110522240D01*
X146193039Y-110529685D01*
X146198966Y-110536525D01*
X146207203Y-110540287D01*
X146221492Y-110562521D01*
X146238794Y-110582489D01*
X146241081Y-110593003D01*
X146244977Y-110599065D01*
X146250000Y-110634000D01*
X146250000Y-110725907D01*
X146245775Y-110758000D01*
X146224500Y-110837399D01*
X146224500Y-110962601D01*
X146256905Y-111083536D01*
X146319505Y-111191964D01*
X146408036Y-111280495D01*
X146516464Y-111343095D01*
X146637399Y-111375500D01*
X146637401Y-111375500D01*
X146762599Y-111375500D01*
X146762601Y-111375500D01*
X146883536Y-111343095D01*
X146991964Y-111280495D01*
X147080495Y-111191964D01*
X147143095Y-111083536D01*
X147175500Y-110962601D01*
X147175500Y-110948890D01*
X147195185Y-110881851D01*
X147247989Y-110836096D01*
X147267399Y-110829117D01*
X147308536Y-110818095D01*
X147416964Y-110755495D01*
X147505495Y-110666964D01*
X147568095Y-110558536D01*
X147600500Y-110437601D01*
X147600500Y-110312399D01*
X147568095Y-110191464D01*
X147505495Y-110083036D01*
X147416964Y-109994505D01*
X147308536Y-109931905D01*
X147308535Y-109931904D01*
X147308532Y-109931903D01*
X147302045Y-109929216D01*
X147247643Y-109885374D01*
X147225579Y-109819080D01*
X147225500Y-109814656D01*
X147225500Y-109687400D01*
X147225030Y-109685646D01*
X147193095Y-109566464D01*
X147130495Y-109458036D01*
X147041964Y-109369505D01*
X146933536Y-109306905D01*
X146933537Y-109306905D01*
X146893224Y-109296103D01*
X146812601Y-109274500D01*
X146687399Y-109274500D01*
X146687394Y-109274500D01*
X146686427Y-109274760D01*
X146685579Y-109274739D01*
X146679343Y-109275561D01*
X146679214Y-109274587D01*
X146616577Y-109273092D01*
X146558717Y-109233925D01*
X146542941Y-109209443D01*
X146535849Y-109194937D01*
X146503076Y-109127898D01*
X146503075Y-109127897D01*
X146503075Y-109127896D01*
X146412105Y-109036926D01*
X146403743Y-109030956D01*
X146405395Y-109028641D01*
X146393297Y-109023117D01*
X146382788Y-109006764D01*
X146368441Y-108993650D01*
X146363892Y-108977362D01*
X146355523Y-108964339D01*
X146350500Y-108929404D01*
X146350500Y-108820596D01*
X146370185Y-108753557D01*
X146405773Y-108721892D01*
X146403741Y-108719046D01*
X146412103Y-108713075D01*
X146503076Y-108622102D01*
X146503078Y-108622099D01*
X146547873Y-108530468D01*
X146559582Y-108506518D01*
X146570500Y-108431582D01*
X146570500Y-108088418D01*
X146559582Y-108013482D01*
X146544276Y-107982173D01*
X146503078Y-107897900D01*
X146503076Y-107897897D01*
X146442860Y-107837681D01*
X146409375Y-107776358D01*
X146414359Y-107706666D01*
X146442860Y-107662319D01*
X146468360Y-107636819D01*
X146529683Y-107603334D01*
X146556041Y-107600500D01*
X147627854Y-107600500D01*
X147649786Y-107606940D01*
G37*
%TD.AperFunction*%
%TA.AperFunction,Conductor*%
G36*
X151939302Y-111880609D02*
G01*
X151995235Y-111922481D01*
X152019652Y-111987945D01*
X152019968Y-111996791D01*
X152019968Y-112211271D01*
X152000283Y-112278310D01*
X151983649Y-112298952D01*
X151314736Y-112967864D01*
X151253413Y-113001349D01*
X151183721Y-112996365D01*
X151137689Y-112962335D01*
X151136242Y-112963783D01*
X151036217Y-112863758D01*
X151037711Y-112862263D01*
X151003119Y-112814873D01*
X150998975Y-112745126D01*
X151032132Y-112685264D01*
X151808288Y-111909109D01*
X151869610Y-111875625D01*
X151939302Y-111880609D01*
G37*
%TD.AperFunction*%
%TA.AperFunction,Conductor*%
G36*
X154180082Y-98812990D02*
G01*
X154180905Y-98812855D01*
X154183374Y-98812855D01*
X154183374Y-98813810D01*
X154208062Y-98819962D01*
X154237276Y-98824498D01*
X154241580Y-98828313D01*
X154247162Y-98829704D01*
X154267432Y-98851228D01*
X154289562Y-98870843D01*
X154291169Y-98876432D01*
X154295064Y-98880568D01*
X154300046Y-98907304D01*
X154308500Y-98936706D01*
X154308500Y-101162208D01*
X154288815Y-101229247D01*
X154272181Y-101249889D01*
X150485535Y-105036534D01*
X150485533Y-105036537D01*
X150442023Y-105111899D01*
X150442023Y-105111900D01*
X150419500Y-105195957D01*
X150419500Y-109113297D01*
X150399815Y-109180336D01*
X150393875Y-109188784D01*
X150389155Y-109194934D01*
X150326554Y-109303364D01*
X150321953Y-109320536D01*
X150294149Y-109424300D01*
X150294149Y-109549502D01*
X150326554Y-109670437D01*
X150389154Y-109778865D01*
X150477685Y-109867396D01*
X150586113Y-109929996D01*
X150707048Y-109962401D01*
X150707050Y-109962401D01*
X150832249Y-109962401D01*
X150832250Y-109962401D01*
X150852873Y-109956875D01*
X150877867Y-109957469D01*
X150902615Y-109953911D01*
X150912194Y-109958285D01*
X150922723Y-109958536D01*
X150943429Y-109972550D01*
X150966171Y-109982936D01*
X150971864Y-109991795D01*
X150980586Y-109997698D01*
X150990428Y-110020681D01*
X151003945Y-110041714D01*
X151006224Y-110057567D01*
X151008091Y-110061926D01*
X151008968Y-110076649D01*
X151008968Y-110222272D01*
X150989283Y-110289311D01*
X150972649Y-110309953D01*
X149542180Y-111740422D01*
X149480857Y-111773907D01*
X149411165Y-111768923D01*
X149355232Y-111727051D01*
X149330815Y-111661587D01*
X149330499Y-111652741D01*
X149330499Y-110490460D01*
X149350184Y-110423421D01*
X149392501Y-110383072D01*
X149394785Y-110381752D01*
X149396964Y-110380495D01*
X149485495Y-110291964D01*
X149548095Y-110183536D01*
X149580500Y-110062601D01*
X149580500Y-109937399D01*
X149548095Y-109816464D01*
X149485495Y-109708036D01*
X149396964Y-109619505D01*
X149288536Y-109556905D01*
X149281027Y-109553795D01*
X149281609Y-109552387D01*
X149229741Y-109520767D01*
X149199216Y-109457919D01*
X149197500Y-109437363D01*
X149197500Y-106071479D01*
X149217185Y-106004440D01*
X149269989Y-105958685D01*
X149339147Y-105948741D01*
X149353584Y-105951701D01*
X149442398Y-105975500D01*
X149442400Y-105975500D01*
X149567598Y-105975500D01*
X149567600Y-105975500D01*
X149688535Y-105943095D01*
X149796963Y-105880495D01*
X149885494Y-105791964D01*
X149948094Y-105683536D01*
X149980499Y-105562601D01*
X149980499Y-105437399D01*
X149948094Y-105316464D01*
X149885494Y-105208036D01*
X149796963Y-105119505D01*
X149688535Y-105056905D01*
X149688532Y-105056904D01*
X149650404Y-105046687D01*
X149590744Y-105010321D01*
X149560216Y-104947474D01*
X149558500Y-104926913D01*
X149558500Y-102250449D01*
X149558501Y-102250446D01*
X149558500Y-102163423D01*
X149541731Y-102100842D01*
X149535977Y-102079368D01*
X149533166Y-102074500D01*
X149533165Y-102074498D01*
X149533166Y-102074497D01*
X149533161Y-102074492D01*
X149492465Y-102004003D01*
X149435392Y-101946930D01*
X149338819Y-101850357D01*
X149305334Y-101789034D01*
X149302500Y-101762676D01*
X149302500Y-101309296D01*
X149322185Y-101242257D01*
X149374989Y-101196502D01*
X149426500Y-101185296D01*
X149539599Y-101185296D01*
X149539601Y-101185296D01*
X149660536Y-101152891D01*
X149768964Y-101090291D01*
X149792436Y-101066819D01*
X149853759Y-101033334D01*
X149880117Y-101030500D01*
X151818509Y-101030500D01*
X151818511Y-101030500D01*
X151902568Y-101007977D01*
X151977932Y-100964466D01*
X154093224Y-98849174D01*
X154117988Y-98835651D01*
X154141073Y-98819427D01*
X154150571Y-98817859D01*
X154154547Y-98815689D01*
X154167126Y-98814072D01*
X154167107Y-98813927D01*
X154168233Y-98813778D01*
X154168767Y-98813861D01*
X154175770Y-98812961D01*
X154179365Y-98812812D01*
X154180082Y-98812990D01*
G37*
%TD.AperFunction*%
%TA.AperFunction,Conductor*%
G36*
X145470137Y-99936065D02*
G01*
X145488058Y-99950900D01*
X145613181Y-100076023D01*
X145646666Y-100137346D01*
X145649500Y-100163704D01*
X145649500Y-106679404D01*
X145629815Y-106746443D01*
X145594229Y-106778115D01*
X145596257Y-106780956D01*
X145587895Y-106786926D01*
X145496923Y-106877897D01*
X145496921Y-106877900D01*
X145440419Y-106993478D01*
X145440418Y-106993480D01*
X145440418Y-106993482D01*
X145429500Y-107068418D01*
X145429500Y-107068423D01*
X145429500Y-107251245D01*
X145409815Y-107318284D01*
X145357011Y-107364039D01*
X145287853Y-107373983D01*
X145224297Y-107344958D01*
X145217819Y-107338926D01*
X145200847Y-107321954D01*
X145200844Y-107321952D01*
X145200842Y-107321950D01*
X145116244Y-107278845D01*
X145087801Y-107264352D01*
X144994024Y-107249500D01*
X143811000Y-107249500D01*
X143743961Y-107229815D01*
X143698206Y-107177011D01*
X143687000Y-107125500D01*
X143687000Y-105409540D01*
X143706685Y-105342501D01*
X143723316Y-105321861D01*
X143733076Y-105312102D01*
X143789582Y-105196518D01*
X143800500Y-105121582D01*
X143800500Y-104678418D01*
X143789582Y-104603482D01*
X143787012Y-104598226D01*
X143733078Y-104487900D01*
X143733076Y-104487897D01*
X143642101Y-104396922D01*
X143601102Y-104376879D01*
X143579600Y-104357234D01*
X143556285Y-104339775D01*
X143554112Y-104333946D01*
X143549520Y-104329751D01*
X143542052Y-104301597D01*
X143531878Y-104274307D01*
X143533201Y-104268229D01*
X143531606Y-104262216D01*
X143540543Y-104234498D01*
X143546739Y-104206036D01*
X143551976Y-104199042D01*
X143553048Y-104195718D01*
X143567883Y-104177797D01*
X143571377Y-104174303D01*
X143632703Y-104140829D01*
X143659044Y-104137999D01*
X143701517Y-104137999D01*
X143701518Y-104137999D01*
X143795304Y-104123146D01*
X143908342Y-104065550D01*
X143998050Y-103975842D01*
X144055646Y-103862804D01*
X144055646Y-103862802D01*
X144055647Y-103862801D01*
X144070499Y-103769024D01*
X144070500Y-103769019D01*
X144070499Y-102530982D01*
X144055646Y-102437196D01*
X144048203Y-102422588D01*
X144035307Y-102353924D01*
X144061582Y-102289183D01*
X144118688Y-102248925D01*
X144188493Y-102245931D01*
X144194196Y-102247561D01*
X144219998Y-102251647D01*
X144220000Y-102251646D01*
X144720000Y-102251646D01*
X144720001Y-102251647D01*
X144745145Y-102247665D01*
X144858045Y-102190139D01*
X144858050Y-102190136D01*
X144947636Y-102100550D01*
X144947639Y-102100546D01*
X145005166Y-101987644D01*
X145020000Y-101893986D01*
X145020000Y-101525000D01*
X144720000Y-101525000D01*
X144720000Y-102251646D01*
X144220000Y-102251646D01*
X144220000Y-101525000D01*
X143920001Y-101525000D01*
X143920001Y-101893979D01*
X143934835Y-101987649D01*
X143942142Y-102001989D01*
X143955038Y-102070658D01*
X143928762Y-102135399D01*
X143871655Y-102175656D01*
X143801850Y-102178648D01*
X143795902Y-102176948D01*
X143701524Y-102162000D01*
X143338482Y-102162000D01*
X143267649Y-102173218D01*
X143244696Y-102176854D01*
X143244695Y-102176854D01*
X143235057Y-102178381D01*
X143234736Y-102176359D01*
X143177478Y-102177989D01*
X143117649Y-102141902D01*
X143086827Y-102079198D01*
X143094799Y-102009785D01*
X143098514Y-102001800D01*
X143105646Y-101987804D01*
X143105672Y-101987644D01*
X143120499Y-101894024D01*
X143120500Y-101894019D01*
X143120499Y-100655982D01*
X143105646Y-100562196D01*
X143048050Y-100449158D01*
X143048046Y-100449154D01*
X143048045Y-100449152D01*
X142956819Y-100357926D01*
X142942115Y-100330998D01*
X142925523Y-100305180D01*
X142924631Y-100298979D01*
X142923334Y-100296603D01*
X142920500Y-100270245D01*
X142920500Y-100213540D01*
X142940185Y-100146501D01*
X142956819Y-100125859D01*
X143008359Y-100074319D01*
X143069682Y-100040834D01*
X143096040Y-100038000D01*
X143199404Y-100038000D01*
X143266443Y-100057685D01*
X143298115Y-100093270D01*
X143300956Y-100091243D01*
X143306926Y-100099605D01*
X143397897Y-100190576D01*
X143397900Y-100190578D01*
X143482840Y-100232102D01*
X143513482Y-100247082D01*
X143588418Y-100258000D01*
X143588423Y-100258000D01*
X143888096Y-100258000D01*
X143955135Y-100277685D01*
X144000890Y-100330489D01*
X144010834Y-100399647D01*
X143994599Y-100439644D01*
X143996790Y-100440760D01*
X143934833Y-100562355D01*
X143920000Y-100656013D01*
X143920000Y-101025000D01*
X145019999Y-101025000D01*
X145019999Y-100656020D01*
X145005164Y-100562350D01*
X145005162Y-100562344D01*
X144947641Y-100449455D01*
X144942508Y-100442389D01*
X144919031Y-100376582D01*
X144934859Y-100308529D01*
X144984967Y-100259836D01*
X145024957Y-100246803D01*
X145026373Y-100246596D01*
X145141810Y-100190163D01*
X145232663Y-100099310D01*
X145288976Y-99984121D01*
X145336104Y-99932538D01*
X145403638Y-99914624D01*
X145470137Y-99936065D01*
G37*
%TD.AperFunction*%
%TA.AperFunction,Conductor*%
G36*
X158594834Y-100975077D02*
G01*
X158650767Y-101016949D01*
X158675184Y-101082413D01*
X158675500Y-101091259D01*
X158675500Y-101555740D01*
X158655815Y-101622779D01*
X158639181Y-101643421D01*
X154169421Y-106113181D01*
X154108098Y-106146666D01*
X154081740Y-106149500D01*
X154062399Y-106149500D01*
X153981775Y-106171103D01*
X153941463Y-106181905D01*
X153833037Y-106244504D01*
X153833034Y-106244506D01*
X153744506Y-106333034D01*
X153744504Y-106333037D01*
X153681905Y-106441463D01*
X153649500Y-106562400D01*
X153649500Y-106581740D01*
X153629815Y-106648779D01*
X153613181Y-106669421D01*
X153112395Y-107170206D01*
X153051072Y-107203691D01*
X152981380Y-107198707D01*
X152925447Y-107156835D01*
X152901030Y-107091371D01*
X152901353Y-107080602D01*
X152900968Y-107080602D01*
X152900968Y-106927527D01*
X152900968Y-106927525D01*
X152863452Y-106787515D01*
X152863111Y-106786924D01*
X152843835Y-106753536D01*
X152827362Y-106685635D01*
X152850215Y-106619609D01*
X152863535Y-106603861D01*
X158463821Y-101003576D01*
X158525142Y-100970093D01*
X158594834Y-100975077D01*
G37*
%TD.AperFunction*%
%TA.AperFunction,Conductor*%
G36*
X155936650Y-92384787D02*
G01*
X155951856Y-92384136D01*
X155969494Y-92394431D01*
X155989087Y-92400185D01*
X155999983Y-92412229D01*
X156012198Y-92419359D01*
X156032530Y-92448202D01*
X156058923Y-92500000D01*
X156060140Y-92502389D01*
X156060145Y-92502396D01*
X156147603Y-92589854D01*
X156147605Y-92589855D01*
X156147609Y-92589859D01*
X156257825Y-92646017D01*
X156257826Y-92646017D01*
X156257828Y-92646018D01*
X156292947Y-92651579D01*
X156349265Y-92660500D01*
X156690734Y-92660499D01*
X156690739Y-92660499D01*
X156690739Y-92660498D01*
X156742213Y-92652346D01*
X156782170Y-92646018D01*
X156782171Y-92646018D01*
X156782172Y-92646017D01*
X156782175Y-92646017D01*
X156892391Y-92589859D01*
X156892396Y-92589854D01*
X156912319Y-92569932D01*
X156973642Y-92536447D01*
X157043334Y-92541431D01*
X157087681Y-92569932D01*
X157107603Y-92589854D01*
X157107605Y-92589855D01*
X157107609Y-92589859D01*
X157217825Y-92646017D01*
X157217826Y-92646017D01*
X157217828Y-92646018D01*
X157252947Y-92651579D01*
X157309265Y-92660500D01*
X157650734Y-92660499D01*
X157650739Y-92660499D01*
X157650739Y-92660498D01*
X157742175Y-92646017D01*
X157744732Y-92644713D01*
X157748174Y-92644067D01*
X157751456Y-92643001D01*
X157751593Y-92643425D01*
X157813400Y-92631817D01*
X157863026Y-92647809D01*
X157941464Y-92693095D01*
X158062399Y-92725500D01*
X158062401Y-92725500D01*
X158176500Y-92725500D01*
X158243539Y-92745185D01*
X158289294Y-92797989D01*
X158300500Y-92849500D01*
X158300500Y-96438000D01*
X158280815Y-96505039D01*
X158228011Y-96550794D01*
X158176500Y-96562000D01*
X158063399Y-96562000D01*
X157982775Y-96583603D01*
X157942463Y-96594405D01*
X157834037Y-96657004D01*
X157834034Y-96657006D01*
X157745506Y-96745534D01*
X157745504Y-96745537D01*
X157682905Y-96853963D01*
X157682905Y-96853964D01*
X157650500Y-96974899D01*
X157650500Y-97100101D01*
X157682905Y-97221036D01*
X157745505Y-97329464D01*
X157834036Y-97417995D01*
X157942464Y-97480595D01*
X158063399Y-97513000D01*
X158063401Y-97513000D01*
X158176500Y-97513000D01*
X158243539Y-97532685D01*
X158289294Y-97585489D01*
X158300500Y-97637000D01*
X158300500Y-100180740D01*
X158280815Y-100247779D01*
X158264181Y-100268421D01*
X157927181Y-100605421D01*
X157865858Y-100638906D01*
X157796166Y-100633922D01*
X157740233Y-100592050D01*
X157715816Y-100526586D01*
X157715500Y-100517740D01*
X157715500Y-100437400D01*
X157700252Y-100380495D01*
X157683095Y-100316464D01*
X157620495Y-100208036D01*
X157531964Y-100119505D01*
X157423536Y-100056905D01*
X157423537Y-100056905D01*
X157363559Y-100040834D01*
X157302601Y-100024500D01*
X157177399Y-100024500D01*
X157116441Y-100040834D01*
X157056463Y-100056905D01*
X156948037Y-100119504D01*
X156948034Y-100119506D01*
X156859506Y-100208034D01*
X156859504Y-100208037D01*
X156796905Y-100316463D01*
X156790553Y-100340168D01*
X156764500Y-100437399D01*
X156764500Y-100562601D01*
X156796905Y-100683536D01*
X156859505Y-100791964D01*
X156948036Y-100880495D01*
X157056464Y-100943095D01*
X157177399Y-100975500D01*
X157177401Y-100975500D01*
X157257740Y-100975500D01*
X157324779Y-100995185D01*
X157370534Y-101047989D01*
X157380478Y-101117147D01*
X157351453Y-101180703D01*
X157345421Y-101187181D01*
X152086003Y-106446598D01*
X152086001Y-106446601D01*
X152039817Y-106526596D01*
X152023626Y-106548616D01*
X152014918Y-106558067D01*
X152012453Y-106559491D01*
X151909959Y-106661985D01*
X151894480Y-106688794D01*
X151885165Y-106698906D01*
X151866521Y-106710100D01*
X151850787Y-106725103D01*
X151837162Y-106727728D01*
X151825264Y-106734873D01*
X151803528Y-106734210D01*
X151782180Y-106738325D01*
X151769297Y-106733167D01*
X151755426Y-106732745D01*
X151737501Y-106720438D01*
X151717315Y-106712357D01*
X151709264Y-106701051D01*
X151697826Y-106693198D01*
X151689401Y-106673156D01*
X151676787Y-106655442D01*
X151673342Y-106634954D01*
X151670750Y-106628788D01*
X151671543Y-106624255D01*
X151669968Y-106614887D01*
X151669968Y-105348792D01*
X151689653Y-105281753D01*
X151706287Y-105261111D01*
X153233944Y-103733454D01*
X155264466Y-101702932D01*
X155307977Y-101627568D01*
X155330500Y-101543511D01*
X155330500Y-101456489D01*
X155330500Y-97956489D01*
X155307977Y-97872432D01*
X155289586Y-97840577D01*
X155277177Y-97819084D01*
X155277176Y-97819083D01*
X155264466Y-97797068D01*
X155221428Y-97754030D01*
X155957869Y-97754030D01*
X155957869Y-97879232D01*
X155990274Y-98000167D01*
X156052874Y-98108595D01*
X156141405Y-98197126D01*
X156249833Y-98259726D01*
X156370768Y-98292131D01*
X156370770Y-98292131D01*
X156495968Y-98292131D01*
X156495970Y-98292131D01*
X156616905Y-98259726D01*
X156725333Y-98197126D01*
X156813864Y-98108595D01*
X156876464Y-98000167D01*
X156908869Y-97879232D01*
X156908869Y-97754030D01*
X156876464Y-97633095D01*
X156813864Y-97524667D01*
X156725333Y-97436136D01*
X156616905Y-97373536D01*
X156616906Y-97373536D01*
X156554838Y-97356905D01*
X156495970Y-97341131D01*
X156370768Y-97341131D01*
X156311900Y-97356905D01*
X156249832Y-97373536D01*
X156141406Y-97436135D01*
X156141403Y-97436137D01*
X156052875Y-97524665D01*
X156052873Y-97524668D01*
X155990274Y-97633094D01*
X155976758Y-97683536D01*
X155957869Y-97754030D01*
X155221428Y-97754030D01*
X155202932Y-97735534D01*
X155202929Y-97735532D01*
X152880578Y-95413181D01*
X152847093Y-95351858D01*
X152852077Y-95282166D01*
X152893949Y-95226233D01*
X152959413Y-95201816D01*
X152968259Y-95201500D01*
X154295142Y-95201500D01*
X154295144Y-95201500D01*
X154384288Y-95177614D01*
X154408533Y-95163616D01*
X154464212Y-95131470D01*
X154758863Y-94836819D01*
X154820186Y-94803334D01*
X154846544Y-94800500D01*
X155304270Y-94800500D01*
X155334699Y-94797646D01*
X155334701Y-94797646D01*
X155412824Y-94770309D01*
X155462882Y-94752793D01*
X155572150Y-94672150D01*
X155652793Y-94562882D01*
X155675219Y-94498790D01*
X155697646Y-94434701D01*
X155697646Y-94434699D01*
X155700500Y-94404269D01*
X155700500Y-93895730D01*
X155697646Y-93865300D01*
X155697646Y-93865298D01*
X155652793Y-93737119D01*
X155652792Y-93737117D01*
X155572150Y-93627850D01*
X155462882Y-93547207D01*
X155333044Y-93501774D01*
X155276269Y-93461052D01*
X155250522Y-93396099D01*
X155250000Y-93384733D01*
X155250000Y-92815266D01*
X155269685Y-92748227D01*
X155322489Y-92702472D01*
X155333045Y-92698225D01*
X155366465Y-92686530D01*
X155462882Y-92652793D01*
X155572150Y-92572150D01*
X155652793Y-92462882D01*
X155652794Y-92462878D01*
X155657135Y-92454667D01*
X155658435Y-92455354D01*
X155693281Y-92406770D01*
X155758233Y-92381022D01*
X155769602Y-92380500D01*
X155922048Y-92380500D01*
X155936650Y-92384787D01*
G37*
%TD.AperFunction*%
%TA.AperFunction,Conductor*%
G36*
X139193291Y-100067685D02*
G01*
X139219424Y-100092570D01*
X139219658Y-100092337D01*
X139317897Y-100190576D01*
X139317900Y-100190578D01*
X139402840Y-100232102D01*
X139433482Y-100247082D01*
X139508418Y-100258000D01*
X139508423Y-100258000D01*
X139818096Y-100258000D01*
X139885135Y-100277685D01*
X139930890Y-100330489D01*
X139940834Y-100399647D01*
X139924599Y-100439644D01*
X139926790Y-100440760D01*
X139864833Y-100562355D01*
X139850000Y-100656013D01*
X139850000Y-101025000D01*
X140949999Y-101025000D01*
X140949999Y-100656020D01*
X140935164Y-100562350D01*
X140935162Y-100562344D01*
X140877643Y-100449458D01*
X140871902Y-100441556D01*
X140875014Y-100439294D01*
X140850590Y-100394565D01*
X140855574Y-100324873D01*
X140897446Y-100268940D01*
X140937997Y-100252108D01*
X140937173Y-100249440D01*
X140946370Y-100246598D01*
X141061810Y-100190163D01*
X141105834Y-100146139D01*
X141167157Y-100112653D01*
X141236848Y-100117637D01*
X141292782Y-100159508D01*
X141302552Y-100176664D01*
X141302842Y-100176498D01*
X141306904Y-100183534D01*
X141306905Y-100183536D01*
X141369505Y-100291964D01*
X141458036Y-100380495D01*
X141566464Y-100443095D01*
X141687399Y-100475500D01*
X141687401Y-100475500D01*
X141812600Y-100475500D01*
X141812601Y-100475500D01*
X141874085Y-100459025D01*
X141943932Y-100460686D01*
X142001795Y-100499848D01*
X142029301Y-100564076D01*
X142028651Y-100598196D01*
X142019500Y-100655974D01*
X142019500Y-101894017D01*
X142027881Y-101946930D01*
X142034354Y-101987804D01*
X142091950Y-102100842D01*
X142091952Y-102100844D01*
X142091954Y-102100847D01*
X142181652Y-102190545D01*
X142181654Y-102190546D01*
X142181658Y-102190550D01*
X142290349Y-102245931D01*
X142294698Y-102248147D01*
X142388475Y-102262999D01*
X142388481Y-102263000D01*
X142751518Y-102262999D01*
X142845304Y-102248146D01*
X142845305Y-102248145D01*
X142854943Y-102246619D01*
X142855263Y-102248643D01*
X142912500Y-102247004D01*
X142972335Y-102283080D01*
X143003168Y-102345779D01*
X142995209Y-102415193D01*
X142991472Y-102423226D01*
X142984353Y-102437197D01*
X142984352Y-102437198D01*
X142969500Y-102530975D01*
X142969500Y-103733454D01*
X142960855Y-103762894D01*
X142954332Y-103792881D01*
X142950577Y-103797896D01*
X142949815Y-103800493D01*
X142933181Y-103821135D01*
X142781455Y-103972861D01*
X142755782Y-103992563D01*
X142745444Y-103998532D01*
X142450797Y-104293181D01*
X142389474Y-104326666D01*
X142363116Y-104329500D01*
X142088418Y-104329500D01*
X142013482Y-104340418D01*
X142013480Y-104340418D01*
X142013478Y-104340419D01*
X141897900Y-104396921D01*
X141897897Y-104396923D01*
X141806923Y-104487897D01*
X141806923Y-104487898D01*
X141752986Y-104598226D01*
X141705858Y-104649808D01*
X141638324Y-104667722D01*
X141571825Y-104646281D01*
X141553905Y-104631446D01*
X141541965Y-104619506D01*
X141541964Y-104619505D01*
X141433536Y-104556905D01*
X141433537Y-104556905D01*
X141390133Y-104545275D01*
X141312601Y-104524500D01*
X141187399Y-104524500D01*
X141109866Y-104545275D01*
X141077773Y-104549500D01*
X140510596Y-104549500D01*
X140443557Y-104529815D01*
X140420270Y-104510454D01*
X140407427Y-104496799D01*
X140403076Y-104487898D01*
X140335486Y-104420308D01*
X140334174Y-104418913D01*
X140319201Y-104389375D01*
X140303334Y-104360317D01*
X140303027Y-104357469D01*
X140302583Y-104356592D01*
X140302753Y-104354922D01*
X140300500Y-104333959D01*
X140300500Y-104233858D01*
X140300500Y-104233856D01*
X140276614Y-104144712D01*
X140264163Y-104123146D01*
X140230470Y-104064788D01*
X140036120Y-103870438D01*
X140002635Y-103809115D01*
X140000185Y-103773011D01*
X140000497Y-103769035D01*
X140000500Y-103769019D01*
X140000499Y-102530982D01*
X139985646Y-102437196D01*
X139978203Y-102422588D01*
X139965307Y-102353924D01*
X139991582Y-102289183D01*
X140048688Y-102248925D01*
X140118493Y-102245931D01*
X140124196Y-102247561D01*
X140149998Y-102251647D01*
X140150000Y-102251646D01*
X140650000Y-102251646D01*
X140650001Y-102251647D01*
X140675145Y-102247665D01*
X140788045Y-102190139D01*
X140788050Y-102190136D01*
X140877636Y-102100550D01*
X140877639Y-102100546D01*
X140935166Y-101987644D01*
X140950000Y-101893986D01*
X140950000Y-101525000D01*
X140650000Y-101525000D01*
X140650000Y-102251646D01*
X140150000Y-102251646D01*
X140150000Y-101525000D01*
X139850001Y-101525000D01*
X139850001Y-101893979D01*
X139864835Y-101987649D01*
X139872142Y-102001989D01*
X139885038Y-102070658D01*
X139858762Y-102135399D01*
X139801655Y-102175656D01*
X139731850Y-102178648D01*
X139725902Y-102176948D01*
X139631524Y-102162000D01*
X139268482Y-102162000D01*
X139197649Y-102173218D01*
X139174696Y-102176854D01*
X139174695Y-102176854D01*
X139165057Y-102178381D01*
X139164736Y-102176359D01*
X139107478Y-102177989D01*
X139047649Y-102141902D01*
X139016827Y-102079198D01*
X139024799Y-102009785D01*
X139028514Y-102001800D01*
X139035646Y-101987804D01*
X139035672Y-101987644D01*
X139050499Y-101894024D01*
X139050500Y-101894019D01*
X139050499Y-100655982D01*
X139035646Y-100562196D01*
X138978050Y-100449158D01*
X138978046Y-100449154D01*
X138978045Y-100449152D01*
X138886819Y-100357926D01*
X138872115Y-100330998D01*
X138855523Y-100305180D01*
X138854631Y-100298979D01*
X138853334Y-100296603D01*
X138850500Y-100270245D01*
X138850500Y-100203541D01*
X138870185Y-100136502D01*
X138886819Y-100115860D01*
X138918360Y-100084319D01*
X138979683Y-100050834D01*
X139006041Y-100048000D01*
X139126252Y-100048000D01*
X139193291Y-100067685D01*
G37*
%TD.AperFunction*%
%TA.AperFunction,Conductor*%
G36*
X150693039Y-95629685D02*
G01*
X150738794Y-95682489D01*
X150750000Y-95734000D01*
X150750000Y-96125852D01*
X150796370Y-96119097D01*
X150796375Y-96119096D01*
X150901716Y-96067598D01*
X150970589Y-96055838D01*
X151034887Y-96083182D01*
X151043858Y-96091317D01*
X151108036Y-96155495D01*
X151216464Y-96218095D01*
X151337399Y-96250500D01*
X151337401Y-96250500D01*
X151462599Y-96250500D01*
X151462601Y-96250500D01*
X151583536Y-96218095D01*
X151691964Y-96155495D01*
X151780495Y-96066964D01*
X151812628Y-96011306D01*
X151863194Y-95963092D01*
X151931801Y-95949868D01*
X151996666Y-95975836D01*
X152007696Y-95985626D01*
X153812124Y-97790054D01*
X153845609Y-97851377D01*
X153840625Y-97921069D01*
X153812125Y-97965416D01*
X153732148Y-98045392D01*
X153669550Y-98153818D01*
X153662402Y-98180495D01*
X153640402Y-98262601D01*
X153637145Y-98274755D01*
X153637145Y-98319095D01*
X153617460Y-98386134D01*
X153600826Y-98406776D01*
X151674421Y-100333181D01*
X151613098Y-100366666D01*
X151586740Y-100369500D01*
X151354165Y-100369500D01*
X151287126Y-100349815D01*
X151241371Y-100297011D01*
X151231427Y-100227853D01*
X151260452Y-100164297D01*
X151292163Y-100138113D01*
X151391964Y-100080495D01*
X151480495Y-99991964D01*
X151543095Y-99883536D01*
X151575500Y-99762601D01*
X151575500Y-99637399D01*
X151543095Y-99516464D01*
X151482782Y-99411998D01*
X151466310Y-99344100D01*
X151482783Y-99288001D01*
X151543095Y-99183536D01*
X151575500Y-99062601D01*
X151575500Y-98937399D01*
X151543095Y-98816464D01*
X151480495Y-98708036D01*
X151460140Y-98687681D01*
X151426655Y-98626358D01*
X151431639Y-98556666D01*
X151460140Y-98512319D01*
X151467644Y-98504815D01*
X151480495Y-98491964D01*
X151543095Y-98383536D01*
X151575500Y-98262601D01*
X151575500Y-98137399D01*
X151543095Y-98016464D01*
X151480495Y-97908036D01*
X151391964Y-97819505D01*
X151283536Y-97756905D01*
X151283537Y-97756905D01*
X151243224Y-97746103D01*
X151162601Y-97724500D01*
X151037399Y-97724500D01*
X150956775Y-97746103D01*
X150916463Y-97756905D01*
X150808037Y-97819504D01*
X150808034Y-97819506D01*
X150719506Y-97908034D01*
X150719504Y-97908037D01*
X150656905Y-98016463D01*
X150648049Y-98049514D01*
X150624500Y-98137399D01*
X150624500Y-98262601D01*
X150656905Y-98383536D01*
X150696438Y-98452011D01*
X150719504Y-98491962D01*
X150719506Y-98491965D01*
X150739860Y-98512319D01*
X150773345Y-98573642D01*
X150768361Y-98643334D01*
X150739860Y-98687681D01*
X150719506Y-98708034D01*
X150719504Y-98708037D01*
X150656905Y-98816463D01*
X150654752Y-98824498D01*
X150624500Y-98937399D01*
X150624500Y-99062601D01*
X150656905Y-99183536D01*
X150717217Y-99288001D01*
X150733688Y-99355901D01*
X150717217Y-99411999D01*
X150656905Y-99516463D01*
X150643599Y-99566121D01*
X150624500Y-99637399D01*
X150624500Y-99762601D01*
X150656905Y-99883536D01*
X150719505Y-99991964D01*
X150808036Y-100080495D01*
X150907835Y-100138113D01*
X150956050Y-100188679D01*
X150969274Y-100257286D01*
X150943306Y-100322151D01*
X150886393Y-100362680D01*
X150845835Y-100369500D01*
X150381661Y-100369500D01*
X150314622Y-100349815D01*
X150268867Y-100297011D01*
X150258923Y-100227853D01*
X150261884Y-100213415D01*
X150275500Y-100162601D01*
X150275500Y-100037399D01*
X150243095Y-99916464D01*
X150180495Y-99808036D01*
X150091964Y-99719505D01*
X149983536Y-99656905D01*
X149983537Y-99656905D01*
X149943224Y-99646103D01*
X149862601Y-99624500D01*
X149737399Y-99624500D01*
X149656775Y-99646103D01*
X149616463Y-99656905D01*
X149508033Y-99719506D01*
X149501986Y-99724147D01*
X149436817Y-99749341D01*
X149368372Y-99735302D01*
X149318383Y-99686488D01*
X149302500Y-99625771D01*
X149302500Y-98399135D01*
X149322185Y-98332096D01*
X149374989Y-98286341D01*
X149429271Y-98278208D01*
X149429271Y-98275500D01*
X149562599Y-98275500D01*
X149562601Y-98275500D01*
X149683536Y-98243095D01*
X149791964Y-98180495D01*
X149880495Y-98091964D01*
X149943095Y-97983536D01*
X149975500Y-97862601D01*
X149975500Y-97737399D01*
X149943095Y-97616464D01*
X149880495Y-97508036D01*
X149791964Y-97419505D01*
X149683536Y-97356905D01*
X149683537Y-97356905D01*
X149643224Y-97346103D01*
X149562601Y-97324500D01*
X149437399Y-97324500D01*
X149429271Y-97324500D01*
X149429271Y-97321717D01*
X149373618Y-97313022D01*
X149321375Y-97266627D01*
X149302500Y-97200864D01*
X149302500Y-96414204D01*
X149322185Y-96347165D01*
X149338814Y-96326528D01*
X149774779Y-95890563D01*
X149836100Y-95857080D01*
X149905792Y-95862064D01*
X149961725Y-95903936D01*
X149973859Y-95923786D01*
X149997336Y-95971810D01*
X150088189Y-96062663D01*
X150203625Y-96119096D01*
X150250000Y-96125852D01*
X150250000Y-95734000D01*
X150269685Y-95666961D01*
X150322489Y-95621206D01*
X150374000Y-95610000D01*
X150626000Y-95610000D01*
X150693039Y-95629685D01*
G37*
%TD.AperFunction*%
%TA.AperFunction,Conductor*%
G36*
X141033856Y-98620185D02*
G01*
X141079611Y-98672989D01*
X141089555Y-98742147D01*
X141074205Y-98786498D01*
X141056907Y-98816459D01*
X141056905Y-98816462D01*
X141050500Y-98840367D01*
X141028086Y-98924018D01*
X141024500Y-98937400D01*
X141024500Y-99014898D01*
X141004815Y-99081937D01*
X140966161Y-99120086D01*
X140950000Y-99130174D01*
X140950000Y-99563500D01*
X140930315Y-99630539D01*
X140877511Y-99676294D01*
X140826000Y-99687500D01*
X140574000Y-99687500D01*
X140506961Y-99667815D01*
X140461206Y-99615011D01*
X140450000Y-99563500D01*
X140450000Y-99130174D01*
X140338193Y-99184833D01*
X140278033Y-99244993D01*
X140216709Y-99278477D01*
X140147018Y-99273492D01*
X140102671Y-99244992D01*
X140042102Y-99184423D01*
X140042099Y-99184421D01*
X139926521Y-99127919D01*
X139926519Y-99127918D01*
X139926518Y-99127918D01*
X139851582Y-99117000D01*
X139508418Y-99117000D01*
X139433482Y-99127918D01*
X139433480Y-99127918D01*
X139433478Y-99127919D01*
X139317900Y-99184421D01*
X139317897Y-99184423D01*
X139226925Y-99275395D01*
X139225915Y-99277462D01*
X139223786Y-99279791D01*
X139220954Y-99283759D01*
X139220474Y-99283416D01*
X139214969Y-99289441D01*
X139208228Y-99304203D01*
X139191886Y-99314704D01*
X139178786Y-99329043D01*
X139162492Y-99333595D01*
X139149450Y-99341977D01*
X139114515Y-99347000D01*
X139006041Y-99347000D01*
X138939002Y-99327315D01*
X138918360Y-99310681D01*
X138882860Y-99275181D01*
X138849375Y-99213858D01*
X138854359Y-99144166D01*
X138882860Y-99099819D01*
X138943076Y-99039602D01*
X138943078Y-99039599D01*
X138984500Y-98954868D01*
X138999582Y-98924018D01*
X139010500Y-98849082D01*
X139010500Y-98724500D01*
X139030185Y-98657461D01*
X139082989Y-98611706D01*
X139134500Y-98600500D01*
X140966817Y-98600500D01*
X141033856Y-98620185D01*
G37*
%TD.AperFunction*%
%TA.AperFunction,Conductor*%
G36*
X152938857Y-90229451D02*
G01*
X152964894Y-90230071D01*
X152973929Y-90235578D01*
X152982028Y-90236993D01*
X152993343Y-90247411D01*
X153014820Y-90260502D01*
X153942637Y-91188319D01*
X153976122Y-91249642D01*
X153971138Y-91319334D01*
X153929266Y-91375267D01*
X153863802Y-91399684D01*
X153854956Y-91400000D01*
X153800000Y-91400000D01*
X153800000Y-91926000D01*
X153780315Y-91993039D01*
X153727511Y-92038794D01*
X153676000Y-92050000D01*
X153550000Y-92050000D01*
X153550000Y-92176000D01*
X153530315Y-92243039D01*
X153477511Y-92288794D01*
X153426000Y-92300000D01*
X152800001Y-92300000D01*
X152800001Y-92304196D01*
X152802851Y-92334606D01*
X152847653Y-92462645D01*
X152928207Y-92571792D01*
X153037354Y-92652346D01*
X153166954Y-92697694D01*
X153223730Y-92738415D01*
X153249478Y-92803368D01*
X153250000Y-92814736D01*
X153250000Y-93384733D01*
X153230315Y-93451772D01*
X153177511Y-93497527D01*
X153166956Y-93501774D01*
X153037117Y-93547207D01*
X152927850Y-93627850D01*
X152847208Y-93737116D01*
X152833227Y-93777070D01*
X152831117Y-93780010D01*
X152830730Y-93783606D01*
X152810911Y-93808181D01*
X152792504Y-93833845D01*
X152789140Y-93835178D01*
X152786870Y-93837994D01*
X152756903Y-93847956D01*
X152727551Y-93859591D01*
X152724001Y-93858894D01*
X152720568Y-93860036D01*
X152689976Y-93852216D01*
X152658989Y-93846134D01*
X152655349Y-93843364D01*
X152652875Y-93842732D01*
X152644579Y-93835169D01*
X152625401Y-93820577D01*
X152616703Y-93811228D01*
X152614859Y-93807609D01*
X152592982Y-93785732D01*
X152591473Y-93784110D01*
X152576803Y-93754778D01*
X152561092Y-93726006D01*
X152561257Y-93723694D01*
X152560220Y-93721620D01*
X152563735Y-93689028D01*
X152566075Y-93656315D01*
X152567505Y-93654089D01*
X152567714Y-93652153D01*
X152572813Y-93645828D01*
X152594578Y-93611963D01*
X152614448Y-93592093D01*
X152614449Y-93592091D01*
X152670533Y-93482022D01*
X152670534Y-93482019D01*
X152672438Y-93470000D01*
X152249000Y-93470000D01*
X152181961Y-93450315D01*
X152136206Y-93397511D01*
X152125000Y-93346000D01*
X152125000Y-93094000D01*
X152144685Y-93026961D01*
X152197489Y-92981206D01*
X152249000Y-92970000D01*
X152672438Y-92970000D01*
X152670535Y-92957983D01*
X152614447Y-92847906D01*
X152614444Y-92847901D01*
X152527098Y-92760555D01*
X152527093Y-92760551D01*
X152417015Y-92704463D01*
X152325696Y-92690000D01*
X152281820Y-92690000D01*
X152214781Y-92670315D01*
X152169026Y-92617511D01*
X152159082Y-92548353D01*
X152188107Y-92484797D01*
X152194112Y-92478346D01*
X152265954Y-92406505D01*
X152328554Y-92298077D01*
X152360959Y-92177142D01*
X152360959Y-92051940D01*
X152328554Y-91931005D01*
X152315244Y-91907952D01*
X152313617Y-91901242D01*
X152309165Y-91895965D01*
X152305486Y-91867730D01*
X152298772Y-91840053D01*
X152301030Y-91833526D01*
X152300139Y-91826681D01*
X152312310Y-91800936D01*
X152314090Y-91795793D01*
X152800000Y-91795793D01*
X152800000Y-91800000D01*
X153300000Y-91800000D01*
X153300000Y-91400000D01*
X153195804Y-91400000D01*
X153165393Y-91402851D01*
X153037354Y-91447653D01*
X152928207Y-91528207D01*
X152847653Y-91637354D01*
X152802850Y-91765395D01*
X152802850Y-91765399D01*
X152800000Y-91795793D01*
X152314090Y-91795793D01*
X152321625Y-91774026D01*
X152327765Y-91768247D01*
X152330003Y-91763516D01*
X152344427Y-91752570D01*
X152356981Y-91740758D01*
X152362414Y-91737366D01*
X152412102Y-91713076D01*
X152503076Y-91622102D01*
X152503078Y-91622099D01*
X152536304Y-91554133D01*
X152559582Y-91506518D01*
X152570500Y-91431582D01*
X152570500Y-91088418D01*
X152559582Y-91013482D01*
X152557222Y-91008656D01*
X152503078Y-90897900D01*
X152503076Y-90897897D01*
X152442860Y-90837681D01*
X152409375Y-90776358D01*
X152414359Y-90706666D01*
X152442860Y-90662319D01*
X152503076Y-90602102D01*
X152503078Y-90602099D01*
X152540847Y-90524841D01*
X152559582Y-90486518D01*
X152570500Y-90411582D01*
X152570500Y-90374500D01*
X152571046Y-90372639D01*
X152570556Y-90370761D01*
X152580853Y-90339239D01*
X152590185Y-90307461D01*
X152591650Y-90306191D01*
X152592253Y-90304346D01*
X152617955Y-90283397D01*
X152642989Y-90261706D01*
X152645385Y-90261041D01*
X152646413Y-90260204D01*
X152653727Y-90258727D01*
X152680562Y-90251286D01*
X152687510Y-90250500D01*
X152812601Y-90250500D01*
X152903996Y-90226010D01*
X152913201Y-90224969D01*
X152938857Y-90229451D01*
G37*
%TD.AperFunction*%
%TA.AperFunction,Conductor*%
G36*
X156120495Y-89620185D02*
G01*
X156141137Y-89636819D01*
X156238304Y-89733986D01*
X156271789Y-89795309D01*
X156273561Y-89805476D01*
X156274498Y-89812593D01*
X156274500Y-89812600D01*
X156274500Y-89812601D01*
X156306905Y-89933536D01*
X156369505Y-90041964D01*
X156458036Y-90130495D01*
X156566464Y-90193095D01*
X156687399Y-90225500D01*
X156700320Y-90225500D01*
X156812599Y-90225500D01*
X156812601Y-90225500D01*
X156933536Y-90193095D01*
X156997815Y-90155983D01*
X157006611Y-90153849D01*
X157013728Y-90148253D01*
X157040033Y-90145741D01*
X157065714Y-90139511D01*
X157074270Y-90142472D01*
X157083281Y-90141612D01*
X157106765Y-90153718D01*
X157131741Y-90162363D01*
X157138980Y-90170326D01*
X157145384Y-90173628D01*
X157167201Y-90201371D01*
X157219502Y-90291960D01*
X157219506Y-90291965D01*
X157285360Y-90357819D01*
X157318845Y-90419142D01*
X157313861Y-90488834D01*
X157271989Y-90544767D01*
X157206525Y-90569184D01*
X157197679Y-90569500D01*
X156800846Y-90569500D01*
X156733807Y-90549815D01*
X156713165Y-90533181D01*
X156664401Y-90484417D01*
X156664396Y-90484413D01*
X156626259Y-90462395D01*
X156626256Y-90462394D01*
X156555972Y-90421816D01*
X156435037Y-90389411D01*
X156309835Y-90389411D01*
X156229211Y-90411014D01*
X156188899Y-90421816D01*
X156080473Y-90484415D01*
X156080470Y-90484417D01*
X156040046Y-90524841D01*
X155978723Y-90558325D01*
X155920272Y-90556934D01*
X155920164Y-90556905D01*
X155799229Y-90524500D01*
X155674027Y-90524500D01*
X155598391Y-90544767D01*
X155553091Y-90556905D01*
X155444660Y-90619506D01*
X155427784Y-90636383D01*
X155366460Y-90669867D01*
X155296769Y-90664881D01*
X155278107Y-90656088D01*
X155271194Y-90652097D01*
X155271191Y-90652095D01*
X155209388Y-90635535D01*
X155150255Y-90619690D01*
X155025053Y-90619690D01*
X154965920Y-90635535D01*
X154904117Y-90652095D01*
X154795691Y-90714693D01*
X154715714Y-90794671D01*
X154654390Y-90828155D01*
X154584699Y-90823171D01*
X154540352Y-90794670D01*
X153557863Y-89812181D01*
X153524378Y-89750858D01*
X153529362Y-89681166D01*
X153571234Y-89625233D01*
X153636698Y-89600816D01*
X153645544Y-89600500D01*
X156053456Y-89600500D01*
X156120495Y-89620185D01*
G37*
%TD.AperFunction*%
%TA.AperFunction,Conductor*%
G36*
X135193392Y-87221329D02*
G01*
X135237765Y-87250979D01*
X135237777Y-87250985D01*
X135396103Y-87316566D01*
X135396111Y-87316568D01*
X135564181Y-87349999D01*
X135564185Y-87350000D01*
X135735563Y-87350000D01*
X135735566Y-87349999D01*
X135903636Y-87316568D01*
X135903640Y-87316567D01*
X135933118Y-87304357D01*
X136002588Y-87296887D01*
X136065068Y-87328160D01*
X136100721Y-87388248D01*
X136098229Y-87458073D01*
X136095136Y-87466368D01*
X136082827Y-87496085D01*
X136082825Y-87496090D01*
X136049374Y-87664260D01*
X136049374Y-87664263D01*
X136049374Y-87835737D01*
X136049374Y-87835739D01*
X136049373Y-87835739D01*
X136082825Y-88003909D01*
X136082828Y-88003919D01*
X136095135Y-88033630D01*
X136102604Y-88103099D01*
X136071329Y-88165578D01*
X136011240Y-88201230D01*
X135941414Y-88198736D01*
X135933121Y-88195643D01*
X135903644Y-88183433D01*
X135903636Y-88183431D01*
X135735566Y-88150000D01*
X135564181Y-88150000D01*
X135396111Y-88183431D01*
X135396103Y-88183433D01*
X135237777Y-88249014D01*
X135237767Y-88249019D01*
X135193391Y-88278671D01*
X135126713Y-88299549D01*
X135059333Y-88281064D01*
X135012643Y-88229085D01*
X135000500Y-88175569D01*
X135000500Y-87324430D01*
X135020185Y-87257391D01*
X135072989Y-87211636D01*
X135142147Y-87201692D01*
X135193392Y-87221329D01*
G37*
%TD.AperFunction*%
%TD*%
%TA.AperFunction,Conductor*%
%TO.N,V_BAT*%
G36*
X143015677Y-115019685D02*
G01*
X143036319Y-115036319D01*
X143463681Y-115463681D01*
X143497166Y-115525004D01*
X143500000Y-115551362D01*
X143500000Y-117548557D01*
X143490561Y-117596010D01*
X143394655Y-117827547D01*
X143350814Y-117881950D01*
X143327547Y-117894655D01*
X143096011Y-117990561D01*
X143048558Y-118000000D01*
X141551362Y-118000000D01*
X141484323Y-117980315D01*
X141463681Y-117963681D01*
X141036319Y-117536319D01*
X141002834Y-117474996D01*
X141000000Y-117448638D01*
X141000000Y-115551362D01*
X141019685Y-115484323D01*
X141036319Y-115463681D01*
X141463681Y-115036319D01*
X141525004Y-115002834D01*
X141551362Y-115000000D01*
X142948638Y-115000000D01*
X143015677Y-115019685D01*
G37*
%TD.AperFunction*%
%TD*%
%TA.AperFunction,Conductor*%
%TO.N,GND*%
G36*
X153300000Y-119499500D02*
G01*
X149700000Y-119499500D01*
X149700000Y-119038160D01*
X149714000Y-118967778D01*
X149714001Y-118967776D01*
X149714001Y-117704500D01*
X149733686Y-117637461D01*
X149786490Y-117591706D01*
X149838001Y-117580500D01*
X152122700Y-117580500D01*
X152189739Y-117600185D01*
X152235494Y-117652989D01*
X152246700Y-117704500D01*
X152246700Y-118963968D01*
X152261232Y-119037025D01*
X152261233Y-119037029D01*
X152279605Y-119064525D01*
X152316599Y-119119891D01*
X152399460Y-119175256D01*
X152399464Y-119175257D01*
X152472521Y-119189789D01*
X152472524Y-119189790D01*
X152472526Y-119189790D01*
X152877476Y-119189790D01*
X152877477Y-119189789D01*
X152950540Y-119175256D01*
X153033401Y-119119891D01*
X153088766Y-119037030D01*
X153103300Y-118963964D01*
X153103300Y-117674427D01*
X153122985Y-117607388D01*
X153175789Y-117561633D01*
X153179855Y-117559863D01*
X153184403Y-117557978D01*
X153184410Y-117557977D01*
X153259774Y-117514466D01*
X153300000Y-117474240D01*
X153300000Y-119499500D01*
G37*
%TD.AperFunction*%
%TD*%
%TA.AperFunction,Conductor*%
%TO.N,Net-(FB2-Pad2)*%
G36*
X144206488Y-116019685D02*
G01*
X144252243Y-116072489D01*
X144254010Y-116076546D01*
X144256905Y-116083536D01*
X144319505Y-116191964D01*
X144408036Y-116280495D01*
X144516464Y-116343095D01*
X144637399Y-116375500D01*
X144637401Y-116375500D01*
X144762599Y-116375500D01*
X144762601Y-116375500D01*
X144883536Y-116343095D01*
X144991964Y-116280495D01*
X145080495Y-116191964D01*
X145112438Y-116136635D01*
X145163003Y-116088421D01*
X145231610Y-116075196D01*
X145296475Y-116101163D01*
X145337004Y-116158076D01*
X145339599Y-116166539D01*
X145350556Y-116207429D01*
X145350557Y-116207432D01*
X145413157Y-116315860D01*
X145501688Y-116404391D01*
X145610116Y-116466991D01*
X145731051Y-116499396D01*
X145731053Y-116499396D01*
X145856251Y-116499396D01*
X145856253Y-116499396D01*
X145977188Y-116466991D01*
X146046818Y-116426790D01*
X146114716Y-116410318D01*
X146180743Y-116433170D01*
X146196497Y-116446497D01*
X146500000Y-116750000D01*
X147372411Y-116750000D01*
X147439450Y-116769685D01*
X147485205Y-116822489D01*
X147491599Y-116840277D01*
X147492022Y-116841298D01*
X147535533Y-116916662D01*
X148071801Y-117452929D01*
X148071803Y-117452932D01*
X148133337Y-117514466D01*
X148181115Y-117542050D01*
X148189648Y-117546977D01*
X148189651Y-117546979D01*
X148201989Y-117554102D01*
X148208700Y-117557977D01*
X148292758Y-117580500D01*
X148379780Y-117580500D01*
X149334501Y-117580500D01*
X149401540Y-117600185D01*
X149447295Y-117652989D01*
X149458501Y-117704500D01*
X149458501Y-118930397D01*
X149456118Y-118954589D01*
X149449412Y-118988299D01*
X149449410Y-118988309D01*
X149449410Y-118988312D01*
X149444612Y-119037030D01*
X149444500Y-119038165D01*
X149444500Y-119375500D01*
X149424815Y-119442539D01*
X149372011Y-119488294D01*
X149320500Y-119499500D01*
X143874000Y-119499500D01*
X143806961Y-119479815D01*
X143761206Y-119427011D01*
X143750000Y-119375500D01*
X143750000Y-117610498D01*
X143750597Y-117598344D01*
X143751043Y-117593811D01*
X146896700Y-117593811D01*
X146896700Y-118963968D01*
X146911232Y-119037025D01*
X146911233Y-119037029D01*
X146911234Y-119037030D01*
X146966599Y-119119891D01*
X147049460Y-119175256D01*
X147049464Y-119175257D01*
X147122521Y-119189789D01*
X147122524Y-119189790D01*
X147122526Y-119189790D01*
X147527476Y-119189790D01*
X147527477Y-119189789D01*
X147600540Y-119175256D01*
X147683401Y-119119891D01*
X147738766Y-119037030D01*
X147753300Y-118963964D01*
X147753300Y-117593816D01*
X147753300Y-117593813D01*
X147753299Y-117593811D01*
X147738767Y-117520754D01*
X147738766Y-117520750D01*
X147708833Y-117475952D01*
X147683401Y-117437889D01*
X147600540Y-117382524D01*
X147600539Y-117382523D01*
X147600535Y-117382522D01*
X147527477Y-117367990D01*
X147527474Y-117367990D01*
X147122526Y-117367990D01*
X147122523Y-117367990D01*
X147049464Y-117382522D01*
X147049460Y-117382523D01*
X146966599Y-117437889D01*
X146911233Y-117520750D01*
X146911232Y-117520754D01*
X146896700Y-117593811D01*
X143751043Y-117593811D01*
X143752840Y-117575570D01*
X143752840Y-117575568D01*
X143755500Y-117548557D01*
X143755500Y-116124000D01*
X143775185Y-116056961D01*
X143827989Y-116011206D01*
X143879500Y-116000000D01*
X144139449Y-116000000D01*
X144206488Y-116019685D01*
G37*
%TD.AperFunction*%
%TD*%
%TA.AperFunction,Conductor*%
%TO.N,3V3*%
G36*
X159015677Y-110144685D02*
G01*
X159036319Y-110161319D01*
X159463681Y-110588681D01*
X159497166Y-110650004D01*
X159500000Y-110676362D01*
X159500000Y-112250000D01*
X159000000Y-112750000D01*
X155471997Y-112750000D01*
X155404958Y-112730315D01*
X155359203Y-112677511D01*
X155349259Y-112608353D01*
X155378284Y-112544797D01*
X155381384Y-112541352D01*
X155462452Y-112454571D01*
X158525000Y-112454571D01*
X158525000Y-112475000D01*
X159000000Y-112475000D01*
X159000000Y-112025000D01*
X158954567Y-112025000D01*
X158954558Y-112025001D01*
X158897992Y-112031081D01*
X158770018Y-112078813D01*
X158770015Y-112078815D01*
X158660670Y-112160670D01*
X158578815Y-112270015D01*
X158578814Y-112270016D01*
X158531083Y-112397989D01*
X158525000Y-112454571D01*
X155462452Y-112454571D01*
X155540030Y-112371526D01*
X155543352Y-112367089D01*
X155543354Y-112367086D01*
X155593596Y-112232379D01*
X155593598Y-112232372D01*
X155599999Y-112172844D01*
X155600000Y-112172827D01*
X155600000Y-112100000D01*
X154874000Y-112100000D01*
X154806961Y-112080315D01*
X154761206Y-112027511D01*
X154750000Y-111976000D01*
X154750000Y-111850000D01*
X154624000Y-111850000D01*
X154556961Y-111830315D01*
X154511206Y-111777511D01*
X154500000Y-111726000D01*
X154500000Y-111600000D01*
X155000000Y-111600000D01*
X155600000Y-111600000D01*
X155600000Y-111527172D01*
X155599999Y-111527155D01*
X155593598Y-111467627D01*
X155593596Y-111467620D01*
X155543354Y-111332913D01*
X155543350Y-111332906D01*
X155457190Y-111217812D01*
X155457187Y-111217809D01*
X155342093Y-111131649D01*
X155342086Y-111131645D01*
X155207379Y-111081403D01*
X155207372Y-111081401D01*
X155147844Y-111075000D01*
X155000000Y-111075000D01*
X155000000Y-111600000D01*
X154500000Y-111600000D01*
X154500000Y-111022043D01*
X154519685Y-110955004D01*
X154536319Y-110934362D01*
X155309362Y-110161319D01*
X155370685Y-110127834D01*
X155397043Y-110125000D01*
X158948638Y-110125000D01*
X159015677Y-110144685D01*
G37*
%TD.AperFunction*%
%TD*%
M02*
