%TF.GenerationSoftware,KiCad,Pcbnew,9.0.0*%
%TF.CreationDate,2025-11-27T12:56:11-07:00*%
%TF.ProjectId,OSS-Radio_2M70CM,4f53532d-5261-4646-996f-5f324d373043,rev?*%
%TF.SameCoordinates,Original*%
%TF.FileFunction,Soldermask,Bot*%
%TF.FilePolarity,Negative*%
%FSLAX46Y46*%
G04 Gerber Fmt 4.6, Leading zero omitted, Abs format (unit mm)*
G04 Created by KiCad (PCBNEW 9.0.0) date 2025-11-27 12:56:11*
%MOMM*%
%LPD*%
G01*
G04 APERTURE LIST*
G04 Aperture macros list*
%AMRoundRect*
0 Rectangle with rounded corners*
0 $1 Rounding radius*
0 $2 $3 $4 $5 $6 $7 $8 $9 X,Y pos of 4 corners*
0 Add a 4 corners polygon primitive as box body*
4,1,4,$2,$3,$4,$5,$6,$7,$8,$9,$2,$3,0*
0 Add four circle primitives for the rounded corners*
1,1,$1+$1,$2,$3*
1,1,$1+$1,$4,$5*
1,1,$1+$1,$6,$7*
1,1,$1+$1,$8,$9*
0 Add four rect primitives between the rounded corners*
20,1,$1+$1,$2,$3,$4,$5,0*
20,1,$1+$1,$4,$5,$6,$7,0*
20,1,$1+$1,$6,$7,$8,$9,0*
20,1,$1+$1,$8,$9,$2,$3,0*%
G04 Aperture macros list end*
%ADD10C,3.800000*%
%ADD11C,3.000000*%
%ADD12C,1.240000*%
%ADD13R,0.127000X1.320800*%
%ADD14R,0.355600X1.320800*%
%ADD15RoundRect,0.135000X0.185000X-0.135000X0.185000X0.135000X-0.185000X0.135000X-0.185000X-0.135000X0*%
%ADD16RoundRect,0.135000X0.135000X0.185000X-0.135000X0.185000X-0.135000X-0.185000X0.135000X-0.185000X0*%
%ADD17RoundRect,0.150000X-0.150000X0.587500X-0.150000X-0.587500X0.150000X-0.587500X0.150000X0.587500X0*%
%ADD18RoundRect,0.150000X-0.512500X-0.150000X0.512500X-0.150000X0.512500X0.150000X-0.512500X0.150000X0*%
%ADD19RoundRect,0.140000X-0.170000X0.140000X-0.170000X-0.140000X0.170000X-0.140000X0.170000X0.140000X0*%
%ADD20RoundRect,0.225000X0.250000X-0.225000X0.250000X0.225000X-0.250000X0.225000X-0.250000X-0.225000X0*%
%ADD21RoundRect,0.135000X-0.185000X0.135000X-0.185000X-0.135000X0.185000X-0.135000X0.185000X0.135000X0*%
%ADD22RoundRect,0.135000X-0.135000X-0.185000X0.135000X-0.185000X0.135000X0.185000X-0.135000X0.185000X0*%
%ADD23RoundRect,0.250000X0.350000X-0.275000X0.350000X0.275000X-0.350000X0.275000X-0.350000X-0.275000X0*%
%ADD24RoundRect,0.140000X0.170000X-0.140000X0.170000X0.140000X-0.170000X0.140000X-0.170000X-0.140000X0*%
%ADD25RoundRect,0.250000X-0.275000X-0.350000X0.275000X-0.350000X0.275000X0.350000X-0.275000X0.350000X0*%
%ADD26RoundRect,0.200000X-0.300000X-0.200000X0.300000X-0.200000X0.300000X0.200000X-0.300000X0.200000X0*%
%ADD27RoundRect,0.150000X0.587500X0.150000X-0.587500X0.150000X-0.587500X-0.150000X0.587500X-0.150000X0*%
%ADD28RoundRect,0.140000X-0.140000X-0.170000X0.140000X-0.170000X0.140000X0.170000X-0.140000X0.170000X0*%
%ADD29RoundRect,0.250000X-1.450000X-0.650000X1.450000X-0.650000X1.450000X0.650000X-1.450000X0.650000X0*%
G04 APERTURE END LIST*
D10*
%TO.C,H3*%
X137500000Y-111000000D03*
%TD*%
%TO.C,H2*%
X136500000Y-82000000D03*
%TD*%
%TO.C,H1*%
X163500000Y-82000000D03*
%TD*%
D11*
%TO.C,MP1*%
X137625000Y-116875000D03*
%TD*%
%TO.C,MP2*%
X158250000Y-83000000D03*
%TD*%
D10*
%TO.C,H4*%
X162500000Y-111000000D03*
%TD*%
D11*
%TO.C,MP3*%
X162375000Y-116875000D03*
%TD*%
D12*
%TO.C,AE2*%
X136919874Y-87750000D03*
X138189874Y-89020000D03*
X138189874Y-86480000D03*
X135649874Y-89020000D03*
X135649874Y-86480000D03*
%TD*%
D13*
%TO.C,J1*%
X152200001Y-115717300D03*
X152200001Y-118282700D03*
X151799999Y-115717300D03*
X151799999Y-118282700D03*
X151400000Y-115717300D03*
X151400000Y-118282700D03*
X151000001Y-115717300D03*
X151000001Y-118282700D03*
X150599999Y-115717300D03*
X150599999Y-118282700D03*
X150200000Y-115717300D03*
X150200000Y-118282700D03*
X149800000Y-115717300D03*
X149800000Y-118282700D03*
X149400001Y-115717300D03*
X149400001Y-118282700D03*
X148999999Y-115717300D03*
X148999999Y-118282700D03*
X148600000Y-115717300D03*
X148600000Y-118282700D03*
X148200001Y-115717300D03*
X148200001Y-118282700D03*
X147799999Y-115717300D03*
X147799999Y-118282700D03*
D14*
X147325000Y-118278890D03*
X152675000Y-118278890D03*
X147325000Y-115721110D03*
X152675000Y-115721110D03*
%TD*%
D15*
%TO.C,R22*%
X142520000Y-99697500D03*
X142520000Y-98677500D03*
%TD*%
D16*
%TO.C,R18*%
X142910000Y-88753300D03*
X141890000Y-88753300D03*
%TD*%
%TO.C,R10*%
X140700000Y-99687500D03*
X139680000Y-99687500D03*
%TD*%
D17*
%TO.C,Q1*%
X142570000Y-101275000D03*
X144470000Y-101275000D03*
X143520000Y-103150000D03*
%TD*%
D16*
%TO.C,R11*%
X144780000Y-99687500D03*
X143760000Y-99687500D03*
%TD*%
D18*
%TO.C,U6*%
X156225000Y-109150000D03*
X156225000Y-108200000D03*
X156225000Y-107250000D03*
X158500000Y-107250000D03*
X158500000Y-109150000D03*
%TD*%
D19*
%TO.C,C59*%
X152125000Y-93220000D03*
X152125000Y-94180000D03*
%TD*%
%TO.C,C20*%
X160112500Y-107720000D03*
X160112500Y-108680000D03*
%TD*%
D20*
%TO.C,C23*%
X159250000Y-114275000D03*
X159250000Y-112725000D03*
%TD*%
D21*
%TO.C,R23*%
X138440000Y-98677500D03*
X138440000Y-99697500D03*
%TD*%
D15*
%TO.C,R25*%
X152000000Y-91260000D03*
X152000000Y-90240000D03*
%TD*%
%TO.C,R27*%
X146000000Y-108260000D03*
X146000000Y-107240000D03*
%TD*%
D17*
%TO.C,Q2*%
X138500000Y-101275000D03*
X140400000Y-101275000D03*
X139450000Y-103150000D03*
%TD*%
D21*
%TO.C,R21*%
X144150000Y-86493300D03*
X144150000Y-87513300D03*
%TD*%
D22*
%TO.C,R26*%
X143240000Y-115250000D03*
X144260000Y-115250000D03*
%TD*%
%TO.C,R13*%
X149490000Y-93350000D03*
X150510000Y-93350000D03*
%TD*%
D23*
%TO.C,FB1*%
X154750000Y-114150000D03*
X154750000Y-111850000D03*
%TD*%
D16*
%TO.C,R9*%
X139950000Y-104900000D03*
X138930000Y-104900000D03*
%TD*%
D24*
%TO.C,C15*%
X146750000Y-114230000D03*
X146750000Y-113270000D03*
%TD*%
D21*
%TO.C,R14*%
X150500000Y-94590000D03*
X150500000Y-95610000D03*
%TD*%
D25*
%TO.C,FB2*%
X142600000Y-117000000D03*
X144900000Y-117000000D03*
%TD*%
D15*
%TO.C,R19*%
X144150000Y-89513300D03*
X144150000Y-88493300D03*
%TD*%
D26*
%TO.C,Y4*%
X153550000Y-94150000D03*
X153550000Y-92050000D03*
X154950000Y-92050000D03*
X154950000Y-94150000D03*
%TD*%
D27*
%TO.C,Q3*%
X144375000Y-107800000D03*
X144375000Y-109700000D03*
X142500000Y-108750000D03*
%TD*%
D16*
%TO.C,R20*%
X142910000Y-87253300D03*
X141890000Y-87253300D03*
%TD*%
D28*
%TO.C,C58*%
X156520000Y-92100000D03*
X157480000Y-92100000D03*
%TD*%
D22*
%TO.C,R8*%
X142260000Y-104900000D03*
X143280000Y-104900000D03*
%TD*%
D29*
%TO.C,TP24*%
X157000000Y-117250000D03*
%TD*%
D21*
%TO.C,R28*%
X146000000Y-109490000D03*
X146000000Y-110510000D03*
%TD*%
M02*
