%TF.GenerationSoftware,KiCad,Pcbnew,9.0.0*%
%TF.CreationDate,2025-11-27T12:56:11-07:00*%
%TF.ProjectId,OSS-Radio_2M70CM,4f53532d-5261-4646-996f-5f324d373043,rev?*%
%TF.SameCoordinates,Original*%
%TF.FileFunction,Legend,Bot*%
%TF.FilePolarity,Positive*%
%FSLAX46Y46*%
G04 Gerber Fmt 4.6, Leading zero omitted, Abs format (unit mm)*
G04 Created by KiCad (PCBNEW 9.0.0) date 2025-11-27 12:56:11*
%MOMM*%
%LPD*%
G01*
G04 APERTURE LIST*
%ADD10C,0.150000*%
%ADD11C,0.152400*%
%ADD12C,0.000000*%
%ADD13C,0.120000*%
G04 APERTURE END LIST*
D10*
X150083333Y-113454819D02*
X150083333Y-114169104D01*
X150083333Y-114169104D02*
X150130952Y-114311961D01*
X150130952Y-114311961D02*
X150226190Y-114407200D01*
X150226190Y-114407200D02*
X150369047Y-114454819D01*
X150369047Y-114454819D02*
X150464285Y-114454819D01*
X149083333Y-114454819D02*
X149654761Y-114454819D01*
X149369047Y-114454819D02*
X149369047Y-113454819D01*
X149369047Y-113454819D02*
X149464285Y-113597676D01*
X149464285Y-113597676D02*
X149559523Y-113692914D01*
X149559523Y-113692914D02*
X149654761Y-113740533D01*
X153956014Y-115262480D02*
X153384586Y-115262480D01*
X153670300Y-115262480D02*
X153670300Y-116262480D01*
X153670300Y-116262480D02*
X153575062Y-116119623D01*
X153575062Y-116119623D02*
X153479824Y-116024385D01*
X153479824Y-116024385D02*
X153384586Y-115976766D01*
X145567795Y-118732642D02*
X145615414Y-118780261D01*
X145615414Y-118780261D02*
X145710652Y-118827880D01*
X145710652Y-118827880D02*
X145948747Y-118827880D01*
X145948747Y-118827880D02*
X146043985Y-118780261D01*
X146043985Y-118780261D02*
X146091604Y-118732642D01*
X146091604Y-118732642D02*
X146139223Y-118637404D01*
X146139223Y-118637404D02*
X146139223Y-118542166D01*
X146139223Y-118542166D02*
X146091604Y-118399309D01*
X146091604Y-118399309D02*
X145520176Y-117827880D01*
X145520176Y-117827880D02*
X146139223Y-117827880D01*
X146996366Y-118494547D02*
X146996366Y-117827880D01*
X146758271Y-118875500D02*
X146520176Y-118161214D01*
X146520176Y-118161214D02*
X147139223Y-118161214D01*
X145567795Y-116167242D02*
X145615414Y-116214861D01*
X145615414Y-116214861D02*
X145710652Y-116262480D01*
X145710652Y-116262480D02*
X145948747Y-116262480D01*
X145948747Y-116262480D02*
X146043985Y-116214861D01*
X146043985Y-116214861D02*
X146091604Y-116167242D01*
X146091604Y-116167242D02*
X146139223Y-116072004D01*
X146139223Y-116072004D02*
X146139223Y-115976766D01*
X146139223Y-115976766D02*
X146091604Y-115833909D01*
X146091604Y-115833909D02*
X145520176Y-115262480D01*
X145520176Y-115262480D02*
X146139223Y-115262480D01*
X146472557Y-116262480D02*
X147091604Y-116262480D01*
X147091604Y-116262480D02*
X146758271Y-115881528D01*
X146758271Y-115881528D02*
X146901128Y-115881528D01*
X146901128Y-115881528D02*
X146996366Y-115833909D01*
X146996366Y-115833909D02*
X147043985Y-115786290D01*
X147043985Y-115786290D02*
X147091604Y-115691052D01*
X147091604Y-115691052D02*
X147091604Y-115452957D01*
X147091604Y-115452957D02*
X147043985Y-115357719D01*
X147043985Y-115357719D02*
X146996366Y-115310100D01*
X146996366Y-115310100D02*
X146901128Y-115262480D01*
X146901128Y-115262480D02*
X146615414Y-115262480D01*
X146615414Y-115262480D02*
X146520176Y-115310100D01*
X146520176Y-115310100D02*
X146472557Y-115357719D01*
X153384586Y-118732642D02*
X153432205Y-118780261D01*
X153432205Y-118780261D02*
X153527443Y-118827880D01*
X153527443Y-118827880D02*
X153765538Y-118827880D01*
X153765538Y-118827880D02*
X153860776Y-118780261D01*
X153860776Y-118780261D02*
X153908395Y-118732642D01*
X153908395Y-118732642D02*
X153956014Y-118637404D01*
X153956014Y-118637404D02*
X153956014Y-118542166D01*
X153956014Y-118542166D02*
X153908395Y-118399309D01*
X153908395Y-118399309D02*
X153336967Y-117827880D01*
X153336967Y-117827880D02*
X153956014Y-117827880D01*
X142394819Y-96044642D02*
X141918628Y-95711309D01*
X142394819Y-95473214D02*
X141394819Y-95473214D01*
X141394819Y-95473214D02*
X141394819Y-95854166D01*
X141394819Y-95854166D02*
X141442438Y-95949404D01*
X141442438Y-95949404D02*
X141490057Y-95997023D01*
X141490057Y-95997023D02*
X141585295Y-96044642D01*
X141585295Y-96044642D02*
X141728152Y-96044642D01*
X141728152Y-96044642D02*
X141823390Y-95997023D01*
X141823390Y-95997023D02*
X141871009Y-95949404D01*
X141871009Y-95949404D02*
X141918628Y-95854166D01*
X141918628Y-95854166D02*
X141918628Y-95473214D01*
X141490057Y-96425595D02*
X141442438Y-96473214D01*
X141442438Y-96473214D02*
X141394819Y-96568452D01*
X141394819Y-96568452D02*
X141394819Y-96806547D01*
X141394819Y-96806547D02*
X141442438Y-96901785D01*
X141442438Y-96901785D02*
X141490057Y-96949404D01*
X141490057Y-96949404D02*
X141585295Y-96997023D01*
X141585295Y-96997023D02*
X141680533Y-96997023D01*
X141680533Y-96997023D02*
X141823390Y-96949404D01*
X141823390Y-96949404D02*
X142394819Y-96377976D01*
X142394819Y-96377976D02*
X142394819Y-96997023D01*
X141490057Y-97377976D02*
X141442438Y-97425595D01*
X141442438Y-97425595D02*
X141394819Y-97520833D01*
X141394819Y-97520833D02*
X141394819Y-97758928D01*
X141394819Y-97758928D02*
X141442438Y-97854166D01*
X141442438Y-97854166D02*
X141490057Y-97901785D01*
X141490057Y-97901785D02*
X141585295Y-97949404D01*
X141585295Y-97949404D02*
X141680533Y-97949404D01*
X141680533Y-97949404D02*
X141823390Y-97901785D01*
X141823390Y-97901785D02*
X142394819Y-97330357D01*
X142394819Y-97330357D02*
X142394819Y-97949404D01*
X142542857Y-90208119D02*
X142876190Y-89731928D01*
X143114285Y-90208119D02*
X143114285Y-89208119D01*
X143114285Y-89208119D02*
X142733333Y-89208119D01*
X142733333Y-89208119D02*
X142638095Y-89255738D01*
X142638095Y-89255738D02*
X142590476Y-89303357D01*
X142590476Y-89303357D02*
X142542857Y-89398595D01*
X142542857Y-89398595D02*
X142542857Y-89541452D01*
X142542857Y-89541452D02*
X142590476Y-89636690D01*
X142590476Y-89636690D02*
X142638095Y-89684309D01*
X142638095Y-89684309D02*
X142733333Y-89731928D01*
X142733333Y-89731928D02*
X143114285Y-89731928D01*
X141590476Y-90208119D02*
X142161904Y-90208119D01*
X141876190Y-90208119D02*
X141876190Y-89208119D01*
X141876190Y-89208119D02*
X141971428Y-89350976D01*
X141971428Y-89350976D02*
X142066666Y-89446214D01*
X142066666Y-89446214D02*
X142161904Y-89493833D01*
X141019047Y-89636690D02*
X141114285Y-89589071D01*
X141114285Y-89589071D02*
X141161904Y-89541452D01*
X141161904Y-89541452D02*
X141209523Y-89446214D01*
X141209523Y-89446214D02*
X141209523Y-89398595D01*
X141209523Y-89398595D02*
X141161904Y-89303357D01*
X141161904Y-89303357D02*
X141114285Y-89255738D01*
X141114285Y-89255738D02*
X141019047Y-89208119D01*
X141019047Y-89208119D02*
X140828571Y-89208119D01*
X140828571Y-89208119D02*
X140733333Y-89255738D01*
X140733333Y-89255738D02*
X140685714Y-89303357D01*
X140685714Y-89303357D02*
X140638095Y-89398595D01*
X140638095Y-89398595D02*
X140638095Y-89446214D01*
X140638095Y-89446214D02*
X140685714Y-89541452D01*
X140685714Y-89541452D02*
X140733333Y-89589071D01*
X140733333Y-89589071D02*
X140828571Y-89636690D01*
X140828571Y-89636690D02*
X141019047Y-89636690D01*
X141019047Y-89636690D02*
X141114285Y-89684309D01*
X141114285Y-89684309D02*
X141161904Y-89731928D01*
X141161904Y-89731928D02*
X141209523Y-89827166D01*
X141209523Y-89827166D02*
X141209523Y-90017642D01*
X141209523Y-90017642D02*
X141161904Y-90112880D01*
X141161904Y-90112880D02*
X141114285Y-90160500D01*
X141114285Y-90160500D02*
X141019047Y-90208119D01*
X141019047Y-90208119D02*
X140828571Y-90208119D01*
X140828571Y-90208119D02*
X140733333Y-90160500D01*
X140733333Y-90160500D02*
X140685714Y-90112880D01*
X140685714Y-90112880D02*
X140638095Y-90017642D01*
X140638095Y-90017642D02*
X140638095Y-89827166D01*
X140638095Y-89827166D02*
X140685714Y-89731928D01*
X140685714Y-89731928D02*
X140733333Y-89684309D01*
X140733333Y-89684309D02*
X140828571Y-89636690D01*
X140644819Y-97044642D02*
X140168628Y-96711309D01*
X140644819Y-96473214D02*
X139644819Y-96473214D01*
X139644819Y-96473214D02*
X139644819Y-96854166D01*
X139644819Y-96854166D02*
X139692438Y-96949404D01*
X139692438Y-96949404D02*
X139740057Y-96997023D01*
X139740057Y-96997023D02*
X139835295Y-97044642D01*
X139835295Y-97044642D02*
X139978152Y-97044642D01*
X139978152Y-97044642D02*
X140073390Y-96997023D01*
X140073390Y-96997023D02*
X140121009Y-96949404D01*
X140121009Y-96949404D02*
X140168628Y-96854166D01*
X140168628Y-96854166D02*
X140168628Y-96473214D01*
X140644819Y-97997023D02*
X140644819Y-97425595D01*
X140644819Y-97711309D02*
X139644819Y-97711309D01*
X139644819Y-97711309D02*
X139787676Y-97616071D01*
X139787676Y-97616071D02*
X139882914Y-97520833D01*
X139882914Y-97520833D02*
X139930533Y-97425595D01*
X139644819Y-98616071D02*
X139644819Y-98711309D01*
X139644819Y-98711309D02*
X139692438Y-98806547D01*
X139692438Y-98806547D02*
X139740057Y-98854166D01*
X139740057Y-98854166D02*
X139835295Y-98901785D01*
X139835295Y-98901785D02*
X140025771Y-98949404D01*
X140025771Y-98949404D02*
X140263866Y-98949404D01*
X140263866Y-98949404D02*
X140454342Y-98901785D01*
X140454342Y-98901785D02*
X140549580Y-98854166D01*
X140549580Y-98854166D02*
X140597200Y-98806547D01*
X140597200Y-98806547D02*
X140644819Y-98711309D01*
X140644819Y-98711309D02*
X140644819Y-98616071D01*
X140644819Y-98616071D02*
X140597200Y-98520833D01*
X140597200Y-98520833D02*
X140549580Y-98473214D01*
X140549580Y-98473214D02*
X140454342Y-98425595D01*
X140454342Y-98425595D02*
X140263866Y-98377976D01*
X140263866Y-98377976D02*
X140025771Y-98377976D01*
X140025771Y-98377976D02*
X139835295Y-98425595D01*
X139835295Y-98425595D02*
X139740057Y-98473214D01*
X139740057Y-98473214D02*
X139692438Y-98520833D01*
X139692438Y-98520833D02*
X139644819Y-98616071D01*
X146570057Y-102117261D02*
X146522438Y-102022023D01*
X146522438Y-102022023D02*
X146427200Y-101926785D01*
X146427200Y-101926785D02*
X146284342Y-101783928D01*
X146284342Y-101783928D02*
X146236723Y-101688690D01*
X146236723Y-101688690D02*
X146236723Y-101593452D01*
X146474819Y-101641071D02*
X146427200Y-101545833D01*
X146427200Y-101545833D02*
X146331961Y-101450595D01*
X146331961Y-101450595D02*
X146141485Y-101402976D01*
X146141485Y-101402976D02*
X145808152Y-101402976D01*
X145808152Y-101402976D02*
X145617676Y-101450595D01*
X145617676Y-101450595D02*
X145522438Y-101545833D01*
X145522438Y-101545833D02*
X145474819Y-101641071D01*
X145474819Y-101641071D02*
X145474819Y-101831547D01*
X145474819Y-101831547D02*
X145522438Y-101926785D01*
X145522438Y-101926785D02*
X145617676Y-102022023D01*
X145617676Y-102022023D02*
X145808152Y-102069642D01*
X145808152Y-102069642D02*
X146141485Y-102069642D01*
X146141485Y-102069642D02*
X146331961Y-102022023D01*
X146331961Y-102022023D02*
X146427200Y-101926785D01*
X146427200Y-101926785D02*
X146474819Y-101831547D01*
X146474819Y-101831547D02*
X146474819Y-101641071D01*
X146474819Y-103022023D02*
X146474819Y-102450595D01*
X146474819Y-102736309D02*
X145474819Y-102736309D01*
X145474819Y-102736309D02*
X145617676Y-102641071D01*
X145617676Y-102641071D02*
X145712914Y-102545833D01*
X145712914Y-102545833D02*
X145760533Y-102450595D01*
X144474819Y-97044642D02*
X143998628Y-96711309D01*
X144474819Y-96473214D02*
X143474819Y-96473214D01*
X143474819Y-96473214D02*
X143474819Y-96854166D01*
X143474819Y-96854166D02*
X143522438Y-96949404D01*
X143522438Y-96949404D02*
X143570057Y-96997023D01*
X143570057Y-96997023D02*
X143665295Y-97044642D01*
X143665295Y-97044642D02*
X143808152Y-97044642D01*
X143808152Y-97044642D02*
X143903390Y-96997023D01*
X143903390Y-96997023D02*
X143951009Y-96949404D01*
X143951009Y-96949404D02*
X143998628Y-96854166D01*
X143998628Y-96854166D02*
X143998628Y-96473214D01*
X144474819Y-97997023D02*
X144474819Y-97425595D01*
X144474819Y-97711309D02*
X143474819Y-97711309D01*
X143474819Y-97711309D02*
X143617676Y-97616071D01*
X143617676Y-97616071D02*
X143712914Y-97520833D01*
X143712914Y-97520833D02*
X143760533Y-97425595D01*
X144474819Y-98949404D02*
X144474819Y-98377976D01*
X144474819Y-98663690D02*
X143474819Y-98663690D01*
X143474819Y-98663690D02*
X143617676Y-98568452D01*
X143617676Y-98568452D02*
X143712914Y-98473214D01*
X143712914Y-98473214D02*
X143760533Y-98377976D01*
X158124404Y-105204819D02*
X158124404Y-106014342D01*
X158124404Y-106014342D02*
X158076785Y-106109580D01*
X158076785Y-106109580D02*
X158029166Y-106157200D01*
X158029166Y-106157200D02*
X157933928Y-106204819D01*
X157933928Y-106204819D02*
X157743452Y-106204819D01*
X157743452Y-106204819D02*
X157648214Y-106157200D01*
X157648214Y-106157200D02*
X157600595Y-106109580D01*
X157600595Y-106109580D02*
X157552976Y-106014342D01*
X157552976Y-106014342D02*
X157552976Y-105204819D01*
X156648214Y-105204819D02*
X156838690Y-105204819D01*
X156838690Y-105204819D02*
X156933928Y-105252438D01*
X156933928Y-105252438D02*
X156981547Y-105300057D01*
X156981547Y-105300057D02*
X157076785Y-105442914D01*
X157076785Y-105442914D02*
X157124404Y-105633390D01*
X157124404Y-105633390D02*
X157124404Y-106014342D01*
X157124404Y-106014342D02*
X157076785Y-106109580D01*
X157076785Y-106109580D02*
X157029166Y-106157200D01*
X157029166Y-106157200D02*
X156933928Y-106204819D01*
X156933928Y-106204819D02*
X156743452Y-106204819D01*
X156743452Y-106204819D02*
X156648214Y-106157200D01*
X156648214Y-106157200D02*
X156600595Y-106109580D01*
X156600595Y-106109580D02*
X156552976Y-106014342D01*
X156552976Y-106014342D02*
X156552976Y-105776247D01*
X156552976Y-105776247D02*
X156600595Y-105681009D01*
X156600595Y-105681009D02*
X156648214Y-105633390D01*
X156648214Y-105633390D02*
X156743452Y-105585771D01*
X156743452Y-105585771D02*
X156933928Y-105585771D01*
X156933928Y-105585771D02*
X157029166Y-105633390D01*
X157029166Y-105633390D02*
X157076785Y-105681009D01*
X157076785Y-105681009D02*
X157124404Y-105776247D01*
X152359580Y-95357142D02*
X152407200Y-95309523D01*
X152407200Y-95309523D02*
X152454819Y-95166666D01*
X152454819Y-95166666D02*
X152454819Y-95071428D01*
X152454819Y-95071428D02*
X152407200Y-94928571D01*
X152407200Y-94928571D02*
X152311961Y-94833333D01*
X152311961Y-94833333D02*
X152216723Y-94785714D01*
X152216723Y-94785714D02*
X152026247Y-94738095D01*
X152026247Y-94738095D02*
X151883390Y-94738095D01*
X151883390Y-94738095D02*
X151692914Y-94785714D01*
X151692914Y-94785714D02*
X151597676Y-94833333D01*
X151597676Y-94833333D02*
X151502438Y-94928571D01*
X151502438Y-94928571D02*
X151454819Y-95071428D01*
X151454819Y-95071428D02*
X151454819Y-95166666D01*
X151454819Y-95166666D02*
X151502438Y-95309523D01*
X151502438Y-95309523D02*
X151550057Y-95357142D01*
X151454819Y-96261904D02*
X151454819Y-95785714D01*
X151454819Y-95785714D02*
X151931009Y-95738095D01*
X151931009Y-95738095D02*
X151883390Y-95785714D01*
X151883390Y-95785714D02*
X151835771Y-95880952D01*
X151835771Y-95880952D02*
X151835771Y-96119047D01*
X151835771Y-96119047D02*
X151883390Y-96214285D01*
X151883390Y-96214285D02*
X151931009Y-96261904D01*
X151931009Y-96261904D02*
X152026247Y-96309523D01*
X152026247Y-96309523D02*
X152264342Y-96309523D01*
X152264342Y-96309523D02*
X152359580Y-96261904D01*
X152359580Y-96261904D02*
X152407200Y-96214285D01*
X152407200Y-96214285D02*
X152454819Y-96119047D01*
X152454819Y-96119047D02*
X152454819Y-95880952D01*
X152454819Y-95880952D02*
X152407200Y-95785714D01*
X152407200Y-95785714D02*
X152359580Y-95738095D01*
X152454819Y-96785714D02*
X152454819Y-96976190D01*
X152454819Y-96976190D02*
X152407200Y-97071428D01*
X152407200Y-97071428D02*
X152359580Y-97119047D01*
X152359580Y-97119047D02*
X152216723Y-97214285D01*
X152216723Y-97214285D02*
X152026247Y-97261904D01*
X152026247Y-97261904D02*
X151645295Y-97261904D01*
X151645295Y-97261904D02*
X151550057Y-97214285D01*
X151550057Y-97214285D02*
X151502438Y-97166666D01*
X151502438Y-97166666D02*
X151454819Y-97071428D01*
X151454819Y-97071428D02*
X151454819Y-96880952D01*
X151454819Y-96880952D02*
X151502438Y-96785714D01*
X151502438Y-96785714D02*
X151550057Y-96738095D01*
X151550057Y-96738095D02*
X151645295Y-96690476D01*
X151645295Y-96690476D02*
X151883390Y-96690476D01*
X151883390Y-96690476D02*
X151978628Y-96738095D01*
X151978628Y-96738095D02*
X152026247Y-96785714D01*
X152026247Y-96785714D02*
X152073866Y-96880952D01*
X152073866Y-96880952D02*
X152073866Y-97071428D01*
X152073866Y-97071428D02*
X152026247Y-97166666D01*
X152026247Y-97166666D02*
X151978628Y-97214285D01*
X151978628Y-97214285D02*
X151883390Y-97261904D01*
X161609580Y-107107142D02*
X161657200Y-107059523D01*
X161657200Y-107059523D02*
X161704819Y-106916666D01*
X161704819Y-106916666D02*
X161704819Y-106821428D01*
X161704819Y-106821428D02*
X161657200Y-106678571D01*
X161657200Y-106678571D02*
X161561961Y-106583333D01*
X161561961Y-106583333D02*
X161466723Y-106535714D01*
X161466723Y-106535714D02*
X161276247Y-106488095D01*
X161276247Y-106488095D02*
X161133390Y-106488095D01*
X161133390Y-106488095D02*
X160942914Y-106535714D01*
X160942914Y-106535714D02*
X160847676Y-106583333D01*
X160847676Y-106583333D02*
X160752438Y-106678571D01*
X160752438Y-106678571D02*
X160704819Y-106821428D01*
X160704819Y-106821428D02*
X160704819Y-106916666D01*
X160704819Y-106916666D02*
X160752438Y-107059523D01*
X160752438Y-107059523D02*
X160800057Y-107107142D01*
X160800057Y-107488095D02*
X160752438Y-107535714D01*
X160752438Y-107535714D02*
X160704819Y-107630952D01*
X160704819Y-107630952D02*
X160704819Y-107869047D01*
X160704819Y-107869047D02*
X160752438Y-107964285D01*
X160752438Y-107964285D02*
X160800057Y-108011904D01*
X160800057Y-108011904D02*
X160895295Y-108059523D01*
X160895295Y-108059523D02*
X160990533Y-108059523D01*
X160990533Y-108059523D02*
X161133390Y-108011904D01*
X161133390Y-108011904D02*
X161704819Y-107440476D01*
X161704819Y-107440476D02*
X161704819Y-108059523D01*
X160704819Y-108678571D02*
X160704819Y-108773809D01*
X160704819Y-108773809D02*
X160752438Y-108869047D01*
X160752438Y-108869047D02*
X160800057Y-108916666D01*
X160800057Y-108916666D02*
X160895295Y-108964285D01*
X160895295Y-108964285D02*
X161085771Y-109011904D01*
X161085771Y-109011904D02*
X161323866Y-109011904D01*
X161323866Y-109011904D02*
X161514342Y-108964285D01*
X161514342Y-108964285D02*
X161609580Y-108916666D01*
X161609580Y-108916666D02*
X161657200Y-108869047D01*
X161657200Y-108869047D02*
X161704819Y-108773809D01*
X161704819Y-108773809D02*
X161704819Y-108678571D01*
X161704819Y-108678571D02*
X161657200Y-108583333D01*
X161657200Y-108583333D02*
X161609580Y-108535714D01*
X161609580Y-108535714D02*
X161514342Y-108488095D01*
X161514342Y-108488095D02*
X161323866Y-108440476D01*
X161323866Y-108440476D02*
X161085771Y-108440476D01*
X161085771Y-108440476D02*
X160895295Y-108488095D01*
X160895295Y-108488095D02*
X160800057Y-108535714D01*
X160800057Y-108535714D02*
X160752438Y-108583333D01*
X160752438Y-108583333D02*
X160704819Y-108678571D01*
X161109580Y-113107142D02*
X161157200Y-113059523D01*
X161157200Y-113059523D02*
X161204819Y-112916666D01*
X161204819Y-112916666D02*
X161204819Y-112821428D01*
X161204819Y-112821428D02*
X161157200Y-112678571D01*
X161157200Y-112678571D02*
X161061961Y-112583333D01*
X161061961Y-112583333D02*
X160966723Y-112535714D01*
X160966723Y-112535714D02*
X160776247Y-112488095D01*
X160776247Y-112488095D02*
X160633390Y-112488095D01*
X160633390Y-112488095D02*
X160442914Y-112535714D01*
X160442914Y-112535714D02*
X160347676Y-112583333D01*
X160347676Y-112583333D02*
X160252438Y-112678571D01*
X160252438Y-112678571D02*
X160204819Y-112821428D01*
X160204819Y-112821428D02*
X160204819Y-112916666D01*
X160204819Y-112916666D02*
X160252438Y-113059523D01*
X160252438Y-113059523D02*
X160300057Y-113107142D01*
X160300057Y-113488095D02*
X160252438Y-113535714D01*
X160252438Y-113535714D02*
X160204819Y-113630952D01*
X160204819Y-113630952D02*
X160204819Y-113869047D01*
X160204819Y-113869047D02*
X160252438Y-113964285D01*
X160252438Y-113964285D02*
X160300057Y-114011904D01*
X160300057Y-114011904D02*
X160395295Y-114059523D01*
X160395295Y-114059523D02*
X160490533Y-114059523D01*
X160490533Y-114059523D02*
X160633390Y-114011904D01*
X160633390Y-114011904D02*
X161204819Y-113440476D01*
X161204819Y-113440476D02*
X161204819Y-114059523D01*
X160204819Y-114392857D02*
X160204819Y-115011904D01*
X160204819Y-115011904D02*
X160585771Y-114678571D01*
X160585771Y-114678571D02*
X160585771Y-114821428D01*
X160585771Y-114821428D02*
X160633390Y-114916666D01*
X160633390Y-114916666D02*
X160681009Y-114964285D01*
X160681009Y-114964285D02*
X160776247Y-115011904D01*
X160776247Y-115011904D02*
X161014342Y-115011904D01*
X161014342Y-115011904D02*
X161109580Y-114964285D01*
X161109580Y-114964285D02*
X161157200Y-114916666D01*
X161157200Y-114916666D02*
X161204819Y-114821428D01*
X161204819Y-114821428D02*
X161204819Y-114535714D01*
X161204819Y-114535714D02*
X161157200Y-114440476D01*
X161157200Y-114440476D02*
X161109580Y-114392857D01*
X138894819Y-96044642D02*
X138418628Y-95711309D01*
X138894819Y-95473214D02*
X137894819Y-95473214D01*
X137894819Y-95473214D02*
X137894819Y-95854166D01*
X137894819Y-95854166D02*
X137942438Y-95949404D01*
X137942438Y-95949404D02*
X137990057Y-95997023D01*
X137990057Y-95997023D02*
X138085295Y-96044642D01*
X138085295Y-96044642D02*
X138228152Y-96044642D01*
X138228152Y-96044642D02*
X138323390Y-95997023D01*
X138323390Y-95997023D02*
X138371009Y-95949404D01*
X138371009Y-95949404D02*
X138418628Y-95854166D01*
X138418628Y-95854166D02*
X138418628Y-95473214D01*
X137990057Y-96425595D02*
X137942438Y-96473214D01*
X137942438Y-96473214D02*
X137894819Y-96568452D01*
X137894819Y-96568452D02*
X137894819Y-96806547D01*
X137894819Y-96806547D02*
X137942438Y-96901785D01*
X137942438Y-96901785D02*
X137990057Y-96949404D01*
X137990057Y-96949404D02*
X138085295Y-96997023D01*
X138085295Y-96997023D02*
X138180533Y-96997023D01*
X138180533Y-96997023D02*
X138323390Y-96949404D01*
X138323390Y-96949404D02*
X138894819Y-96377976D01*
X138894819Y-96377976D02*
X138894819Y-96997023D01*
X137894819Y-97330357D02*
X137894819Y-97949404D01*
X137894819Y-97949404D02*
X138275771Y-97616071D01*
X138275771Y-97616071D02*
X138275771Y-97758928D01*
X138275771Y-97758928D02*
X138323390Y-97854166D01*
X138323390Y-97854166D02*
X138371009Y-97901785D01*
X138371009Y-97901785D02*
X138466247Y-97949404D01*
X138466247Y-97949404D02*
X138704342Y-97949404D01*
X138704342Y-97949404D02*
X138799580Y-97901785D01*
X138799580Y-97901785D02*
X138847200Y-97854166D01*
X138847200Y-97854166D02*
X138894819Y-97758928D01*
X138894819Y-97758928D02*
X138894819Y-97473214D01*
X138894819Y-97473214D02*
X138847200Y-97377976D01*
X138847200Y-97377976D02*
X138799580Y-97330357D01*
X152469819Y-87597142D02*
X151993628Y-87263809D01*
X152469819Y-87025714D02*
X151469819Y-87025714D01*
X151469819Y-87025714D02*
X151469819Y-87406666D01*
X151469819Y-87406666D02*
X151517438Y-87501904D01*
X151517438Y-87501904D02*
X151565057Y-87549523D01*
X151565057Y-87549523D02*
X151660295Y-87597142D01*
X151660295Y-87597142D02*
X151803152Y-87597142D01*
X151803152Y-87597142D02*
X151898390Y-87549523D01*
X151898390Y-87549523D02*
X151946009Y-87501904D01*
X151946009Y-87501904D02*
X151993628Y-87406666D01*
X151993628Y-87406666D02*
X151993628Y-87025714D01*
X151565057Y-87978095D02*
X151517438Y-88025714D01*
X151517438Y-88025714D02*
X151469819Y-88120952D01*
X151469819Y-88120952D02*
X151469819Y-88359047D01*
X151469819Y-88359047D02*
X151517438Y-88454285D01*
X151517438Y-88454285D02*
X151565057Y-88501904D01*
X151565057Y-88501904D02*
X151660295Y-88549523D01*
X151660295Y-88549523D02*
X151755533Y-88549523D01*
X151755533Y-88549523D02*
X151898390Y-88501904D01*
X151898390Y-88501904D02*
X152469819Y-87930476D01*
X152469819Y-87930476D02*
X152469819Y-88549523D01*
X151469819Y-89454285D02*
X151469819Y-88978095D01*
X151469819Y-88978095D02*
X151946009Y-88930476D01*
X151946009Y-88930476D02*
X151898390Y-88978095D01*
X151898390Y-88978095D02*
X151850771Y-89073333D01*
X151850771Y-89073333D02*
X151850771Y-89311428D01*
X151850771Y-89311428D02*
X151898390Y-89406666D01*
X151898390Y-89406666D02*
X151946009Y-89454285D01*
X151946009Y-89454285D02*
X152041247Y-89501904D01*
X152041247Y-89501904D02*
X152279342Y-89501904D01*
X152279342Y-89501904D02*
X152374580Y-89454285D01*
X152374580Y-89454285D02*
X152422200Y-89406666D01*
X152422200Y-89406666D02*
X152469819Y-89311428D01*
X152469819Y-89311428D02*
X152469819Y-89073333D01*
X152469819Y-89073333D02*
X152422200Y-88978095D01*
X152422200Y-88978095D02*
X152374580Y-88930476D01*
X147704819Y-106107142D02*
X147228628Y-105773809D01*
X147704819Y-105535714D02*
X146704819Y-105535714D01*
X146704819Y-105535714D02*
X146704819Y-105916666D01*
X146704819Y-105916666D02*
X146752438Y-106011904D01*
X146752438Y-106011904D02*
X146800057Y-106059523D01*
X146800057Y-106059523D02*
X146895295Y-106107142D01*
X146895295Y-106107142D02*
X147038152Y-106107142D01*
X147038152Y-106107142D02*
X147133390Y-106059523D01*
X147133390Y-106059523D02*
X147181009Y-106011904D01*
X147181009Y-106011904D02*
X147228628Y-105916666D01*
X147228628Y-105916666D02*
X147228628Y-105535714D01*
X146800057Y-106488095D02*
X146752438Y-106535714D01*
X146752438Y-106535714D02*
X146704819Y-106630952D01*
X146704819Y-106630952D02*
X146704819Y-106869047D01*
X146704819Y-106869047D02*
X146752438Y-106964285D01*
X146752438Y-106964285D02*
X146800057Y-107011904D01*
X146800057Y-107011904D02*
X146895295Y-107059523D01*
X146895295Y-107059523D02*
X146990533Y-107059523D01*
X146990533Y-107059523D02*
X147133390Y-107011904D01*
X147133390Y-107011904D02*
X147704819Y-106440476D01*
X147704819Y-106440476D02*
X147704819Y-107059523D01*
X146704819Y-107392857D02*
X146704819Y-108059523D01*
X146704819Y-108059523D02*
X147704819Y-107630952D01*
X137490057Y-102117261D02*
X137442438Y-102022023D01*
X137442438Y-102022023D02*
X137347200Y-101926785D01*
X137347200Y-101926785D02*
X137204342Y-101783928D01*
X137204342Y-101783928D02*
X137156723Y-101688690D01*
X137156723Y-101688690D02*
X137156723Y-101593452D01*
X137394819Y-101641071D02*
X137347200Y-101545833D01*
X137347200Y-101545833D02*
X137251961Y-101450595D01*
X137251961Y-101450595D02*
X137061485Y-101402976D01*
X137061485Y-101402976D02*
X136728152Y-101402976D01*
X136728152Y-101402976D02*
X136537676Y-101450595D01*
X136537676Y-101450595D02*
X136442438Y-101545833D01*
X136442438Y-101545833D02*
X136394819Y-101641071D01*
X136394819Y-101641071D02*
X136394819Y-101831547D01*
X136394819Y-101831547D02*
X136442438Y-101926785D01*
X136442438Y-101926785D02*
X136537676Y-102022023D01*
X136537676Y-102022023D02*
X136728152Y-102069642D01*
X136728152Y-102069642D02*
X137061485Y-102069642D01*
X137061485Y-102069642D02*
X137251961Y-102022023D01*
X137251961Y-102022023D02*
X137347200Y-101926785D01*
X137347200Y-101926785D02*
X137394819Y-101831547D01*
X137394819Y-101831547D02*
X137394819Y-101641071D01*
X136490057Y-102450595D02*
X136442438Y-102498214D01*
X136442438Y-102498214D02*
X136394819Y-102593452D01*
X136394819Y-102593452D02*
X136394819Y-102831547D01*
X136394819Y-102831547D02*
X136442438Y-102926785D01*
X136442438Y-102926785D02*
X136490057Y-102974404D01*
X136490057Y-102974404D02*
X136585295Y-103022023D01*
X136585295Y-103022023D02*
X136680533Y-103022023D01*
X136680533Y-103022023D02*
X136823390Y-102974404D01*
X136823390Y-102974404D02*
X137394819Y-102402976D01*
X137394819Y-102402976D02*
X137394819Y-103022023D01*
X145954819Y-85607142D02*
X145478628Y-85273809D01*
X145954819Y-85035714D02*
X144954819Y-85035714D01*
X144954819Y-85035714D02*
X144954819Y-85416666D01*
X144954819Y-85416666D02*
X145002438Y-85511904D01*
X145002438Y-85511904D02*
X145050057Y-85559523D01*
X145050057Y-85559523D02*
X145145295Y-85607142D01*
X145145295Y-85607142D02*
X145288152Y-85607142D01*
X145288152Y-85607142D02*
X145383390Y-85559523D01*
X145383390Y-85559523D02*
X145431009Y-85511904D01*
X145431009Y-85511904D02*
X145478628Y-85416666D01*
X145478628Y-85416666D02*
X145478628Y-85035714D01*
X145050057Y-85988095D02*
X145002438Y-86035714D01*
X145002438Y-86035714D02*
X144954819Y-86130952D01*
X144954819Y-86130952D02*
X144954819Y-86369047D01*
X144954819Y-86369047D02*
X145002438Y-86464285D01*
X145002438Y-86464285D02*
X145050057Y-86511904D01*
X145050057Y-86511904D02*
X145145295Y-86559523D01*
X145145295Y-86559523D02*
X145240533Y-86559523D01*
X145240533Y-86559523D02*
X145383390Y-86511904D01*
X145383390Y-86511904D02*
X145954819Y-85940476D01*
X145954819Y-85940476D02*
X145954819Y-86559523D01*
X145954819Y-87511904D02*
X145954819Y-86940476D01*
X145954819Y-87226190D02*
X144954819Y-87226190D01*
X144954819Y-87226190D02*
X145097676Y-87130952D01*
X145097676Y-87130952D02*
X145192914Y-87035714D01*
X145192914Y-87035714D02*
X145240533Y-86940476D01*
X142142857Y-115704819D02*
X142476190Y-115228628D01*
X142714285Y-115704819D02*
X142714285Y-114704819D01*
X142714285Y-114704819D02*
X142333333Y-114704819D01*
X142333333Y-114704819D02*
X142238095Y-114752438D01*
X142238095Y-114752438D02*
X142190476Y-114800057D01*
X142190476Y-114800057D02*
X142142857Y-114895295D01*
X142142857Y-114895295D02*
X142142857Y-115038152D01*
X142142857Y-115038152D02*
X142190476Y-115133390D01*
X142190476Y-115133390D02*
X142238095Y-115181009D01*
X142238095Y-115181009D02*
X142333333Y-115228628D01*
X142333333Y-115228628D02*
X142714285Y-115228628D01*
X141761904Y-114800057D02*
X141714285Y-114752438D01*
X141714285Y-114752438D02*
X141619047Y-114704819D01*
X141619047Y-114704819D02*
X141380952Y-114704819D01*
X141380952Y-114704819D02*
X141285714Y-114752438D01*
X141285714Y-114752438D02*
X141238095Y-114800057D01*
X141238095Y-114800057D02*
X141190476Y-114895295D01*
X141190476Y-114895295D02*
X141190476Y-114990533D01*
X141190476Y-114990533D02*
X141238095Y-115133390D01*
X141238095Y-115133390D02*
X141809523Y-115704819D01*
X141809523Y-115704819D02*
X141190476Y-115704819D01*
X140333333Y-114704819D02*
X140523809Y-114704819D01*
X140523809Y-114704819D02*
X140619047Y-114752438D01*
X140619047Y-114752438D02*
X140666666Y-114800057D01*
X140666666Y-114800057D02*
X140761904Y-114942914D01*
X140761904Y-114942914D02*
X140809523Y-115133390D01*
X140809523Y-115133390D02*
X140809523Y-115514342D01*
X140809523Y-115514342D02*
X140761904Y-115609580D01*
X140761904Y-115609580D02*
X140714285Y-115657200D01*
X140714285Y-115657200D02*
X140619047Y-115704819D01*
X140619047Y-115704819D02*
X140428571Y-115704819D01*
X140428571Y-115704819D02*
X140333333Y-115657200D01*
X140333333Y-115657200D02*
X140285714Y-115609580D01*
X140285714Y-115609580D02*
X140238095Y-115514342D01*
X140238095Y-115514342D02*
X140238095Y-115276247D01*
X140238095Y-115276247D02*
X140285714Y-115181009D01*
X140285714Y-115181009D02*
X140333333Y-115133390D01*
X140333333Y-115133390D02*
X140428571Y-115085771D01*
X140428571Y-115085771D02*
X140619047Y-115085771D01*
X140619047Y-115085771D02*
X140714285Y-115133390D01*
X140714285Y-115133390D02*
X140761904Y-115181009D01*
X140761904Y-115181009D02*
X140809523Y-115276247D01*
X148132857Y-93804819D02*
X148466190Y-93328628D01*
X148704285Y-93804819D02*
X148704285Y-92804819D01*
X148704285Y-92804819D02*
X148323333Y-92804819D01*
X148323333Y-92804819D02*
X148228095Y-92852438D01*
X148228095Y-92852438D02*
X148180476Y-92900057D01*
X148180476Y-92900057D02*
X148132857Y-92995295D01*
X148132857Y-92995295D02*
X148132857Y-93138152D01*
X148132857Y-93138152D02*
X148180476Y-93233390D01*
X148180476Y-93233390D02*
X148228095Y-93281009D01*
X148228095Y-93281009D02*
X148323333Y-93328628D01*
X148323333Y-93328628D02*
X148704285Y-93328628D01*
X147180476Y-93804819D02*
X147751904Y-93804819D01*
X147466190Y-93804819D02*
X147466190Y-92804819D01*
X147466190Y-92804819D02*
X147561428Y-92947676D01*
X147561428Y-92947676D02*
X147656666Y-93042914D01*
X147656666Y-93042914D02*
X147751904Y-93090533D01*
X146847142Y-92804819D02*
X146228095Y-92804819D01*
X146228095Y-92804819D02*
X146561428Y-93185771D01*
X146561428Y-93185771D02*
X146418571Y-93185771D01*
X146418571Y-93185771D02*
X146323333Y-93233390D01*
X146323333Y-93233390D02*
X146275714Y-93281009D01*
X146275714Y-93281009D02*
X146228095Y-93376247D01*
X146228095Y-93376247D02*
X146228095Y-93614342D01*
X146228095Y-93614342D02*
X146275714Y-93709580D01*
X146275714Y-93709580D02*
X146323333Y-93757200D01*
X146323333Y-93757200D02*
X146418571Y-93804819D01*
X146418571Y-93804819D02*
X146704285Y-93804819D01*
X146704285Y-93804819D02*
X146799523Y-93757200D01*
X146799523Y-93757200D02*
X146847142Y-93709580D01*
X153181009Y-111416666D02*
X153181009Y-111083333D01*
X153704819Y-111083333D02*
X152704819Y-111083333D01*
X152704819Y-111083333D02*
X152704819Y-111559523D01*
X153181009Y-112273809D02*
X153228628Y-112416666D01*
X153228628Y-112416666D02*
X153276247Y-112464285D01*
X153276247Y-112464285D02*
X153371485Y-112511904D01*
X153371485Y-112511904D02*
X153514342Y-112511904D01*
X153514342Y-112511904D02*
X153609580Y-112464285D01*
X153609580Y-112464285D02*
X153657200Y-112416666D01*
X153657200Y-112416666D02*
X153704819Y-112321428D01*
X153704819Y-112321428D02*
X153704819Y-111940476D01*
X153704819Y-111940476D02*
X152704819Y-111940476D01*
X152704819Y-111940476D02*
X152704819Y-112273809D01*
X152704819Y-112273809D02*
X152752438Y-112369047D01*
X152752438Y-112369047D02*
X152800057Y-112416666D01*
X152800057Y-112416666D02*
X152895295Y-112464285D01*
X152895295Y-112464285D02*
X152990533Y-112464285D01*
X152990533Y-112464285D02*
X153085771Y-112416666D01*
X153085771Y-112416666D02*
X153133390Y-112369047D01*
X153133390Y-112369047D02*
X153181009Y-112273809D01*
X153181009Y-112273809D02*
X153181009Y-111940476D01*
X153704819Y-113464285D02*
X153704819Y-112892857D01*
X153704819Y-113178571D02*
X152704819Y-113178571D01*
X152704819Y-113178571D02*
X152847676Y-113083333D01*
X152847676Y-113083333D02*
X152942914Y-112988095D01*
X152942914Y-112988095D02*
X152990533Y-112892857D01*
X137606666Y-105354819D02*
X137939999Y-104878628D01*
X138178094Y-105354819D02*
X138178094Y-104354819D01*
X138178094Y-104354819D02*
X137797142Y-104354819D01*
X137797142Y-104354819D02*
X137701904Y-104402438D01*
X137701904Y-104402438D02*
X137654285Y-104450057D01*
X137654285Y-104450057D02*
X137606666Y-104545295D01*
X137606666Y-104545295D02*
X137606666Y-104688152D01*
X137606666Y-104688152D02*
X137654285Y-104783390D01*
X137654285Y-104783390D02*
X137701904Y-104831009D01*
X137701904Y-104831009D02*
X137797142Y-104878628D01*
X137797142Y-104878628D02*
X138178094Y-104878628D01*
X137130475Y-105354819D02*
X136939999Y-105354819D01*
X136939999Y-105354819D02*
X136844761Y-105307200D01*
X136844761Y-105307200D02*
X136797142Y-105259580D01*
X136797142Y-105259580D02*
X136701904Y-105116723D01*
X136701904Y-105116723D02*
X136654285Y-104926247D01*
X136654285Y-104926247D02*
X136654285Y-104545295D01*
X136654285Y-104545295D02*
X136701904Y-104450057D01*
X136701904Y-104450057D02*
X136749523Y-104402438D01*
X136749523Y-104402438D02*
X136844761Y-104354819D01*
X136844761Y-104354819D02*
X137035237Y-104354819D01*
X137035237Y-104354819D02*
X137130475Y-104402438D01*
X137130475Y-104402438D02*
X137178094Y-104450057D01*
X137178094Y-104450057D02*
X137225713Y-104545295D01*
X137225713Y-104545295D02*
X137225713Y-104783390D01*
X137225713Y-104783390D02*
X137178094Y-104878628D01*
X137178094Y-104878628D02*
X137130475Y-104926247D01*
X137130475Y-104926247D02*
X137035237Y-104973866D01*
X137035237Y-104973866D02*
X136844761Y-104973866D01*
X136844761Y-104973866D02*
X136749523Y-104926247D01*
X136749523Y-104926247D02*
X136701904Y-104878628D01*
X136701904Y-104878628D02*
X136654285Y-104783390D01*
X148359580Y-112607142D02*
X148407200Y-112559523D01*
X148407200Y-112559523D02*
X148454819Y-112416666D01*
X148454819Y-112416666D02*
X148454819Y-112321428D01*
X148454819Y-112321428D02*
X148407200Y-112178571D01*
X148407200Y-112178571D02*
X148311961Y-112083333D01*
X148311961Y-112083333D02*
X148216723Y-112035714D01*
X148216723Y-112035714D02*
X148026247Y-111988095D01*
X148026247Y-111988095D02*
X147883390Y-111988095D01*
X147883390Y-111988095D02*
X147692914Y-112035714D01*
X147692914Y-112035714D02*
X147597676Y-112083333D01*
X147597676Y-112083333D02*
X147502438Y-112178571D01*
X147502438Y-112178571D02*
X147454819Y-112321428D01*
X147454819Y-112321428D02*
X147454819Y-112416666D01*
X147454819Y-112416666D02*
X147502438Y-112559523D01*
X147502438Y-112559523D02*
X147550057Y-112607142D01*
X148454819Y-113559523D02*
X148454819Y-112988095D01*
X148454819Y-113273809D02*
X147454819Y-113273809D01*
X147454819Y-113273809D02*
X147597676Y-113178571D01*
X147597676Y-113178571D02*
X147692914Y-113083333D01*
X147692914Y-113083333D02*
X147740533Y-112988095D01*
X147454819Y-114464285D02*
X147454819Y-113988095D01*
X147454819Y-113988095D02*
X147931009Y-113940476D01*
X147931009Y-113940476D02*
X147883390Y-113988095D01*
X147883390Y-113988095D02*
X147835771Y-114083333D01*
X147835771Y-114083333D02*
X147835771Y-114321428D01*
X147835771Y-114321428D02*
X147883390Y-114416666D01*
X147883390Y-114416666D02*
X147931009Y-114464285D01*
X147931009Y-114464285D02*
X148026247Y-114511904D01*
X148026247Y-114511904D02*
X148264342Y-114511904D01*
X148264342Y-114511904D02*
X148359580Y-114464285D01*
X148359580Y-114464285D02*
X148407200Y-114416666D01*
X148407200Y-114416666D02*
X148454819Y-114321428D01*
X148454819Y-114321428D02*
X148454819Y-114083333D01*
X148454819Y-114083333D02*
X148407200Y-113988095D01*
X148407200Y-113988095D02*
X148359580Y-113940476D01*
X149784819Y-94957142D02*
X149308628Y-94623809D01*
X149784819Y-94385714D02*
X148784819Y-94385714D01*
X148784819Y-94385714D02*
X148784819Y-94766666D01*
X148784819Y-94766666D02*
X148832438Y-94861904D01*
X148832438Y-94861904D02*
X148880057Y-94909523D01*
X148880057Y-94909523D02*
X148975295Y-94957142D01*
X148975295Y-94957142D02*
X149118152Y-94957142D01*
X149118152Y-94957142D02*
X149213390Y-94909523D01*
X149213390Y-94909523D02*
X149261009Y-94861904D01*
X149261009Y-94861904D02*
X149308628Y-94766666D01*
X149308628Y-94766666D02*
X149308628Y-94385714D01*
X149784819Y-95909523D02*
X149784819Y-95338095D01*
X149784819Y-95623809D02*
X148784819Y-95623809D01*
X148784819Y-95623809D02*
X148927676Y-95528571D01*
X148927676Y-95528571D02*
X149022914Y-95433333D01*
X149022914Y-95433333D02*
X149070533Y-95338095D01*
X149118152Y-96766666D02*
X149784819Y-96766666D01*
X148737200Y-96528571D02*
X149451485Y-96290476D01*
X149451485Y-96290476D02*
X149451485Y-96909523D01*
X144333333Y-118431009D02*
X144666666Y-118431009D01*
X144666666Y-118954819D02*
X144666666Y-117954819D01*
X144666666Y-117954819D02*
X144190476Y-117954819D01*
X143476190Y-118431009D02*
X143333333Y-118478628D01*
X143333333Y-118478628D02*
X143285714Y-118526247D01*
X143285714Y-118526247D02*
X143238095Y-118621485D01*
X143238095Y-118621485D02*
X143238095Y-118764342D01*
X143238095Y-118764342D02*
X143285714Y-118859580D01*
X143285714Y-118859580D02*
X143333333Y-118907200D01*
X143333333Y-118907200D02*
X143428571Y-118954819D01*
X143428571Y-118954819D02*
X143809523Y-118954819D01*
X143809523Y-118954819D02*
X143809523Y-117954819D01*
X143809523Y-117954819D02*
X143476190Y-117954819D01*
X143476190Y-117954819D02*
X143380952Y-118002438D01*
X143380952Y-118002438D02*
X143333333Y-118050057D01*
X143333333Y-118050057D02*
X143285714Y-118145295D01*
X143285714Y-118145295D02*
X143285714Y-118240533D01*
X143285714Y-118240533D02*
X143333333Y-118335771D01*
X143333333Y-118335771D02*
X143380952Y-118383390D01*
X143380952Y-118383390D02*
X143476190Y-118431009D01*
X143476190Y-118431009D02*
X143809523Y-118431009D01*
X142857142Y-118050057D02*
X142809523Y-118002438D01*
X142809523Y-118002438D02*
X142714285Y-117954819D01*
X142714285Y-117954819D02*
X142476190Y-117954819D01*
X142476190Y-117954819D02*
X142380952Y-118002438D01*
X142380952Y-118002438D02*
X142333333Y-118050057D01*
X142333333Y-118050057D02*
X142285714Y-118145295D01*
X142285714Y-118145295D02*
X142285714Y-118240533D01*
X142285714Y-118240533D02*
X142333333Y-118383390D01*
X142333333Y-118383390D02*
X142904761Y-118954819D01*
X142904761Y-118954819D02*
X142285714Y-118954819D01*
X145954819Y-88857142D02*
X145478628Y-88523809D01*
X145954819Y-88285714D02*
X144954819Y-88285714D01*
X144954819Y-88285714D02*
X144954819Y-88666666D01*
X144954819Y-88666666D02*
X145002438Y-88761904D01*
X145002438Y-88761904D02*
X145050057Y-88809523D01*
X145050057Y-88809523D02*
X145145295Y-88857142D01*
X145145295Y-88857142D02*
X145288152Y-88857142D01*
X145288152Y-88857142D02*
X145383390Y-88809523D01*
X145383390Y-88809523D02*
X145431009Y-88761904D01*
X145431009Y-88761904D02*
X145478628Y-88666666D01*
X145478628Y-88666666D02*
X145478628Y-88285714D01*
X145954819Y-89809523D02*
X145954819Y-89238095D01*
X145954819Y-89523809D02*
X144954819Y-89523809D01*
X144954819Y-89523809D02*
X145097676Y-89428571D01*
X145097676Y-89428571D02*
X145192914Y-89333333D01*
X145192914Y-89333333D02*
X145240533Y-89238095D01*
X145954819Y-90285714D02*
X145954819Y-90476190D01*
X145954819Y-90476190D02*
X145907200Y-90571428D01*
X145907200Y-90571428D02*
X145859580Y-90619047D01*
X145859580Y-90619047D02*
X145716723Y-90714285D01*
X145716723Y-90714285D02*
X145526247Y-90761904D01*
X145526247Y-90761904D02*
X145145295Y-90761904D01*
X145145295Y-90761904D02*
X145050057Y-90714285D01*
X145050057Y-90714285D02*
X145002438Y-90666666D01*
X145002438Y-90666666D02*
X144954819Y-90571428D01*
X144954819Y-90571428D02*
X144954819Y-90380952D01*
X144954819Y-90380952D02*
X145002438Y-90285714D01*
X145002438Y-90285714D02*
X145050057Y-90238095D01*
X145050057Y-90238095D02*
X145145295Y-90190476D01*
X145145295Y-90190476D02*
X145383390Y-90190476D01*
X145383390Y-90190476D02*
X145478628Y-90238095D01*
X145478628Y-90238095D02*
X145526247Y-90285714D01*
X145526247Y-90285714D02*
X145573866Y-90380952D01*
X145573866Y-90380952D02*
X145573866Y-90571428D01*
X145573866Y-90571428D02*
X145526247Y-90666666D01*
X145526247Y-90666666D02*
X145478628Y-90714285D01*
X145478628Y-90714285D02*
X145383390Y-90761904D01*
X154976190Y-95578628D02*
X154976190Y-96054819D01*
X155309523Y-95054819D02*
X154976190Y-95578628D01*
X154976190Y-95578628D02*
X154642857Y-95054819D01*
X153880952Y-95388152D02*
X153880952Y-96054819D01*
X154119047Y-95007200D02*
X154357142Y-95721485D01*
X154357142Y-95721485D02*
X153738095Y-95721485D01*
X141300057Y-108654761D02*
X141252438Y-108559523D01*
X141252438Y-108559523D02*
X141157200Y-108464285D01*
X141157200Y-108464285D02*
X141014342Y-108321428D01*
X141014342Y-108321428D02*
X140966723Y-108226190D01*
X140966723Y-108226190D02*
X140966723Y-108130952D01*
X141204819Y-108178571D02*
X141157200Y-108083333D01*
X141157200Y-108083333D02*
X141061961Y-107988095D01*
X141061961Y-107988095D02*
X140871485Y-107940476D01*
X140871485Y-107940476D02*
X140538152Y-107940476D01*
X140538152Y-107940476D02*
X140347676Y-107988095D01*
X140347676Y-107988095D02*
X140252438Y-108083333D01*
X140252438Y-108083333D02*
X140204819Y-108178571D01*
X140204819Y-108178571D02*
X140204819Y-108369047D01*
X140204819Y-108369047D02*
X140252438Y-108464285D01*
X140252438Y-108464285D02*
X140347676Y-108559523D01*
X140347676Y-108559523D02*
X140538152Y-108607142D01*
X140538152Y-108607142D02*
X140871485Y-108607142D01*
X140871485Y-108607142D02*
X141061961Y-108559523D01*
X141061961Y-108559523D02*
X141157200Y-108464285D01*
X141157200Y-108464285D02*
X141204819Y-108369047D01*
X141204819Y-108369047D02*
X141204819Y-108178571D01*
X140204819Y-108940476D02*
X140204819Y-109559523D01*
X140204819Y-109559523D02*
X140585771Y-109226190D01*
X140585771Y-109226190D02*
X140585771Y-109369047D01*
X140585771Y-109369047D02*
X140633390Y-109464285D01*
X140633390Y-109464285D02*
X140681009Y-109511904D01*
X140681009Y-109511904D02*
X140776247Y-109559523D01*
X140776247Y-109559523D02*
X141014342Y-109559523D01*
X141014342Y-109559523D02*
X141109580Y-109511904D01*
X141109580Y-109511904D02*
X141157200Y-109464285D01*
X141157200Y-109464285D02*
X141204819Y-109369047D01*
X141204819Y-109369047D02*
X141204819Y-109083333D01*
X141204819Y-109083333D02*
X141157200Y-108988095D01*
X141157200Y-108988095D02*
X141109580Y-108940476D01*
X142542857Y-86458119D02*
X142876190Y-85981928D01*
X143114285Y-86458119D02*
X143114285Y-85458119D01*
X143114285Y-85458119D02*
X142733333Y-85458119D01*
X142733333Y-85458119D02*
X142638095Y-85505738D01*
X142638095Y-85505738D02*
X142590476Y-85553357D01*
X142590476Y-85553357D02*
X142542857Y-85648595D01*
X142542857Y-85648595D02*
X142542857Y-85791452D01*
X142542857Y-85791452D02*
X142590476Y-85886690D01*
X142590476Y-85886690D02*
X142638095Y-85934309D01*
X142638095Y-85934309D02*
X142733333Y-85981928D01*
X142733333Y-85981928D02*
X143114285Y-85981928D01*
X142161904Y-85553357D02*
X142114285Y-85505738D01*
X142114285Y-85505738D02*
X142019047Y-85458119D01*
X142019047Y-85458119D02*
X141780952Y-85458119D01*
X141780952Y-85458119D02*
X141685714Y-85505738D01*
X141685714Y-85505738D02*
X141638095Y-85553357D01*
X141638095Y-85553357D02*
X141590476Y-85648595D01*
X141590476Y-85648595D02*
X141590476Y-85743833D01*
X141590476Y-85743833D02*
X141638095Y-85886690D01*
X141638095Y-85886690D02*
X142209523Y-86458119D01*
X142209523Y-86458119D02*
X141590476Y-86458119D01*
X140971428Y-85458119D02*
X140876190Y-85458119D01*
X140876190Y-85458119D02*
X140780952Y-85505738D01*
X140780952Y-85505738D02*
X140733333Y-85553357D01*
X140733333Y-85553357D02*
X140685714Y-85648595D01*
X140685714Y-85648595D02*
X140638095Y-85839071D01*
X140638095Y-85839071D02*
X140638095Y-86077166D01*
X140638095Y-86077166D02*
X140685714Y-86267642D01*
X140685714Y-86267642D02*
X140733333Y-86362880D01*
X140733333Y-86362880D02*
X140780952Y-86410500D01*
X140780952Y-86410500D02*
X140876190Y-86458119D01*
X140876190Y-86458119D02*
X140971428Y-86458119D01*
X140971428Y-86458119D02*
X141066666Y-86410500D01*
X141066666Y-86410500D02*
X141114285Y-86362880D01*
X141114285Y-86362880D02*
X141161904Y-86267642D01*
X141161904Y-86267642D02*
X141209523Y-86077166D01*
X141209523Y-86077166D02*
X141209523Y-85839071D01*
X141209523Y-85839071D02*
X141161904Y-85648595D01*
X141161904Y-85648595D02*
X141114285Y-85553357D01*
X141114285Y-85553357D02*
X141066666Y-85505738D01*
X141066666Y-85505738D02*
X140971428Y-85458119D01*
X157892857Y-91394580D02*
X157940476Y-91442200D01*
X157940476Y-91442200D02*
X158083333Y-91489819D01*
X158083333Y-91489819D02*
X158178571Y-91489819D01*
X158178571Y-91489819D02*
X158321428Y-91442200D01*
X158321428Y-91442200D02*
X158416666Y-91346961D01*
X158416666Y-91346961D02*
X158464285Y-91251723D01*
X158464285Y-91251723D02*
X158511904Y-91061247D01*
X158511904Y-91061247D02*
X158511904Y-90918390D01*
X158511904Y-90918390D02*
X158464285Y-90727914D01*
X158464285Y-90727914D02*
X158416666Y-90632676D01*
X158416666Y-90632676D02*
X158321428Y-90537438D01*
X158321428Y-90537438D02*
X158178571Y-90489819D01*
X158178571Y-90489819D02*
X158083333Y-90489819D01*
X158083333Y-90489819D02*
X157940476Y-90537438D01*
X157940476Y-90537438D02*
X157892857Y-90585057D01*
X156988095Y-90489819D02*
X157464285Y-90489819D01*
X157464285Y-90489819D02*
X157511904Y-90966009D01*
X157511904Y-90966009D02*
X157464285Y-90918390D01*
X157464285Y-90918390D02*
X157369047Y-90870771D01*
X157369047Y-90870771D02*
X157130952Y-90870771D01*
X157130952Y-90870771D02*
X157035714Y-90918390D01*
X157035714Y-90918390D02*
X156988095Y-90966009D01*
X156988095Y-90966009D02*
X156940476Y-91061247D01*
X156940476Y-91061247D02*
X156940476Y-91299342D01*
X156940476Y-91299342D02*
X156988095Y-91394580D01*
X156988095Y-91394580D02*
X157035714Y-91442200D01*
X157035714Y-91442200D02*
X157130952Y-91489819D01*
X157130952Y-91489819D02*
X157369047Y-91489819D01*
X157369047Y-91489819D02*
X157464285Y-91442200D01*
X157464285Y-91442200D02*
X157511904Y-91394580D01*
X156369047Y-90918390D02*
X156464285Y-90870771D01*
X156464285Y-90870771D02*
X156511904Y-90823152D01*
X156511904Y-90823152D02*
X156559523Y-90727914D01*
X156559523Y-90727914D02*
X156559523Y-90680295D01*
X156559523Y-90680295D02*
X156511904Y-90585057D01*
X156511904Y-90585057D02*
X156464285Y-90537438D01*
X156464285Y-90537438D02*
X156369047Y-90489819D01*
X156369047Y-90489819D02*
X156178571Y-90489819D01*
X156178571Y-90489819D02*
X156083333Y-90537438D01*
X156083333Y-90537438D02*
X156035714Y-90585057D01*
X156035714Y-90585057D02*
X155988095Y-90680295D01*
X155988095Y-90680295D02*
X155988095Y-90727914D01*
X155988095Y-90727914D02*
X156035714Y-90823152D01*
X156035714Y-90823152D02*
X156083333Y-90870771D01*
X156083333Y-90870771D02*
X156178571Y-90918390D01*
X156178571Y-90918390D02*
X156369047Y-90918390D01*
X156369047Y-90918390D02*
X156464285Y-90966009D01*
X156464285Y-90966009D02*
X156511904Y-91013628D01*
X156511904Y-91013628D02*
X156559523Y-91108866D01*
X156559523Y-91108866D02*
X156559523Y-91299342D01*
X156559523Y-91299342D02*
X156511904Y-91394580D01*
X156511904Y-91394580D02*
X156464285Y-91442200D01*
X156464285Y-91442200D02*
X156369047Y-91489819D01*
X156369047Y-91489819D02*
X156178571Y-91489819D01*
X156178571Y-91489819D02*
X156083333Y-91442200D01*
X156083333Y-91442200D02*
X156035714Y-91394580D01*
X156035714Y-91394580D02*
X155988095Y-91299342D01*
X155988095Y-91299342D02*
X155988095Y-91108866D01*
X155988095Y-91108866D02*
X156035714Y-91013628D01*
X156035714Y-91013628D02*
X156083333Y-90966009D01*
X156083333Y-90966009D02*
X156178571Y-90918390D01*
X144936666Y-105354819D02*
X145269999Y-104878628D01*
X145508094Y-105354819D02*
X145508094Y-104354819D01*
X145508094Y-104354819D02*
X145127142Y-104354819D01*
X145127142Y-104354819D02*
X145031904Y-104402438D01*
X145031904Y-104402438D02*
X144984285Y-104450057D01*
X144984285Y-104450057D02*
X144936666Y-104545295D01*
X144936666Y-104545295D02*
X144936666Y-104688152D01*
X144936666Y-104688152D02*
X144984285Y-104783390D01*
X144984285Y-104783390D02*
X145031904Y-104831009D01*
X145031904Y-104831009D02*
X145127142Y-104878628D01*
X145127142Y-104878628D02*
X145508094Y-104878628D01*
X144365237Y-104783390D02*
X144460475Y-104735771D01*
X144460475Y-104735771D02*
X144508094Y-104688152D01*
X144508094Y-104688152D02*
X144555713Y-104592914D01*
X144555713Y-104592914D02*
X144555713Y-104545295D01*
X144555713Y-104545295D02*
X144508094Y-104450057D01*
X144508094Y-104450057D02*
X144460475Y-104402438D01*
X144460475Y-104402438D02*
X144365237Y-104354819D01*
X144365237Y-104354819D02*
X144174761Y-104354819D01*
X144174761Y-104354819D02*
X144079523Y-104402438D01*
X144079523Y-104402438D02*
X144031904Y-104450057D01*
X144031904Y-104450057D02*
X143984285Y-104545295D01*
X143984285Y-104545295D02*
X143984285Y-104592914D01*
X143984285Y-104592914D02*
X144031904Y-104688152D01*
X144031904Y-104688152D02*
X144079523Y-104735771D01*
X144079523Y-104735771D02*
X144174761Y-104783390D01*
X144174761Y-104783390D02*
X144365237Y-104783390D01*
X144365237Y-104783390D02*
X144460475Y-104831009D01*
X144460475Y-104831009D02*
X144508094Y-104878628D01*
X144508094Y-104878628D02*
X144555713Y-104973866D01*
X144555713Y-104973866D02*
X144555713Y-105164342D01*
X144555713Y-105164342D02*
X144508094Y-105259580D01*
X144508094Y-105259580D02*
X144460475Y-105307200D01*
X144460475Y-105307200D02*
X144365237Y-105354819D01*
X144365237Y-105354819D02*
X144174761Y-105354819D01*
X144174761Y-105354819D02*
X144079523Y-105307200D01*
X144079523Y-105307200D02*
X144031904Y-105259580D01*
X144031904Y-105259580D02*
X143984285Y-105164342D01*
X143984285Y-105164342D02*
X143984285Y-104973866D01*
X143984285Y-104973866D02*
X144031904Y-104878628D01*
X144031904Y-104878628D02*
X144079523Y-104831009D01*
X144079523Y-104831009D02*
X144174761Y-104783390D01*
X158738094Y-114954819D02*
X158166666Y-114954819D01*
X158452380Y-115954819D02*
X158452380Y-114954819D01*
X157833332Y-115954819D02*
X157833332Y-114954819D01*
X157833332Y-114954819D02*
X157452380Y-114954819D01*
X157452380Y-114954819D02*
X157357142Y-115002438D01*
X157357142Y-115002438D02*
X157309523Y-115050057D01*
X157309523Y-115050057D02*
X157261904Y-115145295D01*
X157261904Y-115145295D02*
X157261904Y-115288152D01*
X157261904Y-115288152D02*
X157309523Y-115383390D01*
X157309523Y-115383390D02*
X157357142Y-115431009D01*
X157357142Y-115431009D02*
X157452380Y-115478628D01*
X157452380Y-115478628D02*
X157833332Y-115478628D01*
X156880951Y-115050057D02*
X156833332Y-115002438D01*
X156833332Y-115002438D02*
X156738094Y-114954819D01*
X156738094Y-114954819D02*
X156499999Y-114954819D01*
X156499999Y-114954819D02*
X156404761Y-115002438D01*
X156404761Y-115002438D02*
X156357142Y-115050057D01*
X156357142Y-115050057D02*
X156309523Y-115145295D01*
X156309523Y-115145295D02*
X156309523Y-115240533D01*
X156309523Y-115240533D02*
X156357142Y-115383390D01*
X156357142Y-115383390D02*
X156928570Y-115954819D01*
X156928570Y-115954819D02*
X156309523Y-115954819D01*
X155452380Y-115288152D02*
X155452380Y-115954819D01*
X155690475Y-114907200D02*
X155928570Y-115621485D01*
X155928570Y-115621485D02*
X155309523Y-115621485D01*
X147704819Y-109357142D02*
X147228628Y-109023809D01*
X147704819Y-108785714D02*
X146704819Y-108785714D01*
X146704819Y-108785714D02*
X146704819Y-109166666D01*
X146704819Y-109166666D02*
X146752438Y-109261904D01*
X146752438Y-109261904D02*
X146800057Y-109309523D01*
X146800057Y-109309523D02*
X146895295Y-109357142D01*
X146895295Y-109357142D02*
X147038152Y-109357142D01*
X147038152Y-109357142D02*
X147133390Y-109309523D01*
X147133390Y-109309523D02*
X147181009Y-109261904D01*
X147181009Y-109261904D02*
X147228628Y-109166666D01*
X147228628Y-109166666D02*
X147228628Y-108785714D01*
X146800057Y-109738095D02*
X146752438Y-109785714D01*
X146752438Y-109785714D02*
X146704819Y-109880952D01*
X146704819Y-109880952D02*
X146704819Y-110119047D01*
X146704819Y-110119047D02*
X146752438Y-110214285D01*
X146752438Y-110214285D02*
X146800057Y-110261904D01*
X146800057Y-110261904D02*
X146895295Y-110309523D01*
X146895295Y-110309523D02*
X146990533Y-110309523D01*
X146990533Y-110309523D02*
X147133390Y-110261904D01*
X147133390Y-110261904D02*
X147704819Y-109690476D01*
X147704819Y-109690476D02*
X147704819Y-110309523D01*
X147133390Y-110880952D02*
X147085771Y-110785714D01*
X147085771Y-110785714D02*
X147038152Y-110738095D01*
X147038152Y-110738095D02*
X146942914Y-110690476D01*
X146942914Y-110690476D02*
X146895295Y-110690476D01*
X146895295Y-110690476D02*
X146800057Y-110738095D01*
X146800057Y-110738095D02*
X146752438Y-110785714D01*
X146752438Y-110785714D02*
X146704819Y-110880952D01*
X146704819Y-110880952D02*
X146704819Y-111071428D01*
X146704819Y-111071428D02*
X146752438Y-111166666D01*
X146752438Y-111166666D02*
X146800057Y-111214285D01*
X146800057Y-111214285D02*
X146895295Y-111261904D01*
X146895295Y-111261904D02*
X146942914Y-111261904D01*
X146942914Y-111261904D02*
X147038152Y-111214285D01*
X147038152Y-111214285D02*
X147085771Y-111166666D01*
X147085771Y-111166666D02*
X147133390Y-111071428D01*
X147133390Y-111071428D02*
X147133390Y-110880952D01*
X147133390Y-110880952D02*
X147181009Y-110785714D01*
X147181009Y-110785714D02*
X147228628Y-110738095D01*
X147228628Y-110738095D02*
X147323866Y-110690476D01*
X147323866Y-110690476D02*
X147514342Y-110690476D01*
X147514342Y-110690476D02*
X147609580Y-110738095D01*
X147609580Y-110738095D02*
X147657200Y-110785714D01*
X147657200Y-110785714D02*
X147704819Y-110880952D01*
X147704819Y-110880952D02*
X147704819Y-111071428D01*
X147704819Y-111071428D02*
X147657200Y-111166666D01*
X147657200Y-111166666D02*
X147609580Y-111214285D01*
X147609580Y-111214285D02*
X147514342Y-111261904D01*
X147514342Y-111261904D02*
X147323866Y-111261904D01*
X147323866Y-111261904D02*
X147228628Y-111214285D01*
X147228628Y-111214285D02*
X147181009Y-111166666D01*
X147181009Y-111166666D02*
X147133390Y-111071428D01*
D11*
%TO.C,J1*%
X146710700Y-118054100D02*
X146710700Y-115945900D01*
X151565000Y-113530360D02*
X152835000Y-113530360D01*
X152161900Y-114724160D02*
X151565000Y-113530360D01*
X152835000Y-113530360D02*
X152238100Y-114724160D01*
X153289300Y-115945900D02*
X153289300Y-118054100D01*
D12*
G36*
X148727000Y-115336300D02*
G01*
X148473000Y-115336300D01*
X148473000Y-114955300D01*
X148727000Y-114955300D01*
X148727000Y-115336300D01*
G37*
G36*
X150726999Y-115336300D02*
G01*
X150472999Y-115336300D01*
X150472999Y-114955300D01*
X150726999Y-114955300D01*
X150726999Y-115336300D01*
G37*
D13*
%TO.C,R22*%
X142140000Y-99341141D02*
X142140000Y-99033859D01*
X142900000Y-99341141D02*
X142900000Y-99033859D01*
%TO.C,R18*%
X142553641Y-88373300D02*
X142246359Y-88373300D01*
X142553641Y-89133300D02*
X142246359Y-89133300D01*
%TO.C,R10*%
X140343641Y-99307500D02*
X140036359Y-99307500D01*
X140343641Y-100067500D02*
X140036359Y-100067500D01*
%TO.C,Q1*%
X141960000Y-102212500D02*
X141960000Y-101562500D01*
X141960000Y-102212500D02*
X141960000Y-102862500D01*
X145080000Y-102212500D02*
X145080000Y-101562500D01*
X145080000Y-102212500D02*
X145080000Y-102862500D01*
X142010000Y-101050000D02*
X141680000Y-101290000D01*
X141680000Y-100810000D01*
X142010000Y-101050000D01*
G36*
X142010000Y-101050000D02*
G01*
X141680000Y-101290000D01*
X141680000Y-100810000D01*
X142010000Y-101050000D01*
G37*
%TO.C,R11*%
X144423641Y-99307500D02*
X144116359Y-99307500D01*
X144423641Y-100067500D02*
X144116359Y-100067500D01*
%TO.C,U6*%
X157362500Y-106640000D02*
X156562500Y-106640000D01*
X157362500Y-106640000D02*
X158162500Y-106640000D01*
X157362500Y-109760000D02*
X156562500Y-109760000D01*
X157362500Y-109760000D02*
X158162500Y-109760000D01*
X156302500Y-110040000D02*
X155822500Y-110040000D01*
X156062500Y-109710000D01*
X156302500Y-110040000D01*
G36*
X156302500Y-110040000D02*
G01*
X155822500Y-110040000D01*
X156062500Y-109710000D01*
X156302500Y-110040000D01*
G37*
%TO.C,C59*%
X151765000Y-93592164D02*
X151765000Y-93807836D01*
X152485000Y-93592164D02*
X152485000Y-93807836D01*
%TO.C,C20*%
X159752500Y-108092164D02*
X159752500Y-108307836D01*
X160472500Y-108092164D02*
X160472500Y-108307836D01*
%TO.C,C23*%
X158740000Y-113640580D02*
X158740000Y-113359420D01*
X159760000Y-113640580D02*
X159760000Y-113359420D01*
%TO.C,R23*%
X138060000Y-99033859D02*
X138060000Y-99341141D01*
X138820000Y-99033859D02*
X138820000Y-99341141D01*
%TO.C,R25*%
X151620000Y-90903641D02*
X151620000Y-90596359D01*
X152380000Y-90903641D02*
X152380000Y-90596359D01*
%TO.C,R27*%
X145620000Y-107903641D02*
X145620000Y-107596359D01*
X146380000Y-107903641D02*
X146380000Y-107596359D01*
%TO.C,Q2*%
X137890000Y-102212500D02*
X137890000Y-101562500D01*
X137890000Y-102212500D02*
X137890000Y-102862500D01*
X141010000Y-102212500D02*
X141010000Y-101562500D01*
X141010000Y-102212500D02*
X141010000Y-102862500D01*
X137940000Y-101050000D02*
X137610000Y-101290000D01*
X137610000Y-100810000D01*
X137940000Y-101050000D01*
G36*
X137940000Y-101050000D02*
G01*
X137610000Y-101290000D01*
X137610000Y-100810000D01*
X137940000Y-101050000D01*
G37*
%TO.C,R21*%
X143770000Y-86849659D02*
X143770000Y-87156941D01*
X144530000Y-86849659D02*
X144530000Y-87156941D01*
%TO.C,R26*%
X143596359Y-114870000D02*
X143903641Y-114870000D01*
X143596359Y-115630000D02*
X143903641Y-115630000D01*
%TO.C,R13*%
X149846359Y-92970000D02*
X150153641Y-92970000D01*
X149846359Y-93730000D02*
X150153641Y-93730000D01*
%TO.C,FB1*%
X154190000Y-113410242D02*
X154190000Y-112589758D01*
X155310000Y-113410242D02*
X155310000Y-112589758D01*
%TO.C,R9*%
X139593641Y-104520000D02*
X139286359Y-104520000D01*
X139593641Y-105280000D02*
X139286359Y-105280000D01*
%TO.C,C15*%
X146390000Y-113857836D02*
X146390000Y-113642164D01*
X147110000Y-113857836D02*
X147110000Y-113642164D01*
%TO.C,R14*%
X150120000Y-94946359D02*
X150120000Y-95253641D01*
X150880000Y-94946359D02*
X150880000Y-95253641D01*
%TO.C,FB2*%
X143339758Y-116440000D02*
X144160242Y-116440000D01*
X143339758Y-117560000D02*
X144160242Y-117560000D01*
%TO.C,R19*%
X143770000Y-89156941D02*
X143770000Y-88849659D01*
X144530000Y-89156941D02*
X144530000Y-88849659D01*
%TO.C,Y4*%
X153140000Y-92780000D02*
X153140000Y-93420000D01*
X153870000Y-94810000D02*
X153180000Y-94810000D01*
X155360000Y-92780000D02*
X155360000Y-93420000D01*
%TO.C,Q3*%
X143437500Y-107190000D02*
X142787500Y-107190000D01*
X143437500Y-107190000D02*
X144087500Y-107190000D01*
X143437500Y-110310000D02*
X142787500Y-110310000D01*
X143437500Y-110310000D02*
X144087500Y-110310000D01*
X144600000Y-107240000D02*
X144360000Y-106910000D01*
X144840000Y-106910000D01*
X144600000Y-107240000D01*
G36*
X144600000Y-107240000D02*
G01*
X144360000Y-106910000D01*
X144840000Y-106910000D01*
X144600000Y-107240000D01*
G37*
%TO.C,R20*%
X142553641Y-86873300D02*
X142246359Y-86873300D01*
X142553641Y-87633300D02*
X142246359Y-87633300D01*
%TO.C,C58*%
X156892164Y-91740000D02*
X157107836Y-91740000D01*
X156892164Y-92460000D02*
X157107836Y-92460000D01*
%TO.C,R8*%
X142616359Y-104520000D02*
X142923641Y-104520000D01*
X142616359Y-105280000D02*
X142923641Y-105280000D01*
%TO.C,TP24*%
X155100000Y-118350000D02*
X158900000Y-118350000D01*
X158900000Y-116150000D01*
X155100000Y-116150000D01*
X155100000Y-118350000D01*
%TO.C,R28*%
X145620000Y-109846359D02*
X145620000Y-110153641D01*
X146380000Y-109846359D02*
X146380000Y-110153641D01*
%TD*%
M02*
